%TF.GenerationSoftware,KiCad,Pcbnew,8.0.7*%
%TF.CreationDate,2025-01-04T02:58:25+07:00*%
%TF.ProjectId,13dof_imu,3133646f-665f-4696-9d75-2e6b69636164,Rev 1*%
%TF.SameCoordinates,Original*%
%TF.FileFunction,Copper,L4,Bot*%
%TF.FilePolarity,Positive*%
%FSLAX46Y46*%
G04 Gerber Fmt 4.6, Leading zero omitted, Abs format (unit mm)*
G04 Created by KiCad (PCBNEW 8.0.7) date 2025-01-04 02:58:25*
%MOMM*%
%LPD*%
G01*
G04 APERTURE LIST*
%TA.AperFunction,ComponentPad*%
%ADD10R,1.700000X1.700000*%
%TD*%
%TA.AperFunction,ComponentPad*%
%ADD11O,1.700000X1.700000*%
%TD*%
%TA.AperFunction,ViaPad*%
%ADD12C,0.600000*%
%TD*%
%TA.AperFunction,ViaPad*%
%ADD13C,0.500000*%
%TD*%
%TA.AperFunction,ViaPad*%
%ADD14C,0.800000*%
%TD*%
%TA.AperFunction,Conductor*%
%ADD15C,0.165000*%
%TD*%
%TA.AperFunction,Conductor*%
%ADD16C,0.500000*%
%TD*%
%TA.AperFunction,Conductor*%
%ADD17C,0.300000*%
%TD*%
G04 APERTURE END LIST*
D10*
%TO.P,J1,1,Pin_1*%
%TO.N,+3V3R*%
X53085000Y-14000000D03*
D11*
%TO.P,J1,2,Pin_2*%
%TO.N,+VDD*%
X55625000Y-14000000D03*
%TO.P,J1,3,Pin_3*%
%TO.N,+3V3*%
X58165000Y-14000000D03*
%TD*%
D10*
%TO.P,J3,1,Pin_1*%
%TO.N,+3V3*%
X58500000Y-20000000D03*
D11*
%TO.P,J3,2,Pin_2*%
%TO.N,unconnected-(J3-Pin_2-Pad2)*%
X58500000Y-22540000D03*
%TO.P,J3,3,Pin_3*%
%TO.N,/Block Diagram/BMI 088/INT_ACCEL_1*%
X58500000Y-25080000D03*
%TO.P,J3,4,Pin_4*%
%TO.N,/Block Diagram/BMI 088/INT_ACCEL_2*%
X58500000Y-27620000D03*
%TO.P,J3,5,Pin_5*%
%TO.N,/Block Diagram/BMM 150/DRDY_Mag*%
X58500000Y-30160000D03*
%TO.P,J3,6,Pin_6*%
%TO.N,/Block Diagram/BMM 150/INT_Mag*%
X58500000Y-32700000D03*
%TO.P,J3,7,Pin_7*%
%TO.N,GND*%
X58500000Y-35240000D03*
%TD*%
D10*
%TO.P,J2,1,Pin_1*%
%TO.N,+ExtV*%
X41500000Y-20000000D03*
D11*
%TO.P,J2,2,Pin_2*%
%TO.N,unconnected-(J2-Pin_2-Pad2)*%
X41500000Y-22540000D03*
%TO.P,J2,3,Pin_3*%
%TO.N,/Block Diagram/BMI 088/INT_GYRO_2*%
X41500000Y-25080000D03*
%TO.P,J2,4,Pin_4*%
%TO.N,/Block Diagram/BMI 088/INT_GYRO_1*%
X41500000Y-27620000D03*
%TO.P,J2,5,Pin_5*%
%TO.N,/Block Diagram/SDA*%
X41500000Y-30160000D03*
%TO.P,J2,6,Pin_6*%
%TO.N,/Block Diagram/SCL*%
X41500000Y-32700000D03*
%TO.P,J2,7,Pin_7*%
%TO.N,GND*%
X41500000Y-35240000D03*
%TD*%
D12*
%TO.N,GND*%
X45870000Y-15380000D03*
X47127500Y-32310000D03*
X45430000Y-36550000D03*
X47220000Y-36550000D03*
X46870000Y-15380000D03*
X50150000Y-34879346D03*
X46820000Y-28914458D03*
X48292500Y-32310000D03*
X54440000Y-15280000D03*
X45530000Y-21820000D03*
X52350000Y-32330000D03*
X46810000Y-26500000D03*
X48740000Y-20860000D03*
X43510000Y-15810000D03*
X46470000Y-23770000D03*
X49990000Y-22420000D03*
X56920000Y-12650000D03*
X45870000Y-17560000D03*
X54670000Y-33770000D03*
X51930000Y-29350000D03*
X51200000Y-32330000D03*
X54460000Y-12650000D03*
X44870000Y-15380000D03*
X48630000Y-26500000D03*
X49990000Y-23580000D03*
X42540000Y-15810000D03*
X44100000Y-31340000D03*
X50150000Y-33279346D03*
X54520000Y-22770000D03*
X48620000Y-28914458D03*
X56910000Y-15280000D03*
X48800000Y-36550000D03*
D13*
%TO.N,/Block Diagram/SCL*%
X47720000Y-26500000D03*
X47710000Y-33280000D03*
X47710000Y-28914458D03*
D14*
%TO.N,+VDD*%
X53460000Y-22770000D03*
X51280000Y-30550000D03*
X46300000Y-35900000D03*
X46720000Y-21820000D03*
X53460000Y-33770000D03*
X45200000Y-31340000D03*
X47580000Y-23770000D03*
%TD*%
D15*
%TO.N,/Block Diagram/SCL*%
X47710000Y-28914458D02*
X47710000Y-29170000D01*
X47710000Y-26510000D02*
X47710000Y-29170000D01*
X47710000Y-29170000D02*
X47710000Y-33280000D01*
X47720000Y-26500000D02*
X47710000Y-26510000D01*
D16*
%TO.N,+VDD*%
X45200000Y-31340000D02*
X45200000Y-34800000D01*
X53460000Y-22770000D02*
X53460000Y-29580000D01*
X46300000Y-35900000D02*
X53090000Y-35900000D01*
X55160000Y-18390000D02*
X55620000Y-17930000D01*
X45200000Y-34800000D02*
X46300000Y-35900000D01*
X55625000Y-20415000D02*
X53460000Y-22580000D01*
X55625000Y-17930000D02*
X55625000Y-20415000D01*
X53460000Y-33770000D02*
X53460000Y-29580000D01*
X47430000Y-18390000D02*
X55160000Y-18390000D01*
X52490000Y-30550000D02*
X53460000Y-29580000D01*
X46720000Y-19100000D02*
X47430000Y-18390000D01*
X53460000Y-22580000D02*
X53460000Y-22770000D01*
X46720000Y-22910000D02*
X46720000Y-21820000D01*
X51280000Y-30550000D02*
X52490000Y-30550000D01*
X53090000Y-35900000D02*
X53460000Y-35530000D01*
X55625000Y-14000000D02*
X55625000Y-17930000D01*
X47580000Y-23770000D02*
X46720000Y-22910000D01*
X53460000Y-35530000D02*
X53460000Y-33770000D01*
X46720000Y-21820000D02*
X46720000Y-19100000D01*
D17*
X55620000Y-17930000D02*
X55625000Y-17930000D01*
%TD*%
%TA.AperFunction,Conductor*%
%TO.N,GND*%
G36*
X59753856Y-3520185D02*
G01*
X59786193Y-3550336D01*
X60973351Y-5141127D01*
X60974878Y-5143173D01*
X60999197Y-5208673D01*
X60999500Y-5217335D01*
X60999500Y-37375500D01*
X60979815Y-37442539D01*
X60927011Y-37488294D01*
X60875500Y-37499500D01*
X39124500Y-37499500D01*
X39057461Y-37479815D01*
X39011706Y-37427011D01*
X39000500Y-37375500D01*
X39000500Y-22539999D01*
X40144341Y-22539999D01*
X40144341Y-22540000D01*
X40164936Y-22775403D01*
X40164938Y-22775413D01*
X40226094Y-23003655D01*
X40226096Y-23003659D01*
X40226097Y-23003663D01*
X40300776Y-23163812D01*
X40325965Y-23217830D01*
X40325967Y-23217834D01*
X40434281Y-23372521D01*
X40454723Y-23401716D01*
X40461501Y-23411395D01*
X40461506Y-23411402D01*
X40628597Y-23578493D01*
X40628603Y-23578498D01*
X40814158Y-23708425D01*
X40857783Y-23763002D01*
X40864977Y-23832500D01*
X40833454Y-23894855D01*
X40814158Y-23911575D01*
X40628597Y-24041505D01*
X40461505Y-24208597D01*
X40325965Y-24402169D01*
X40325964Y-24402171D01*
X40226098Y-24616335D01*
X40226094Y-24616344D01*
X40164938Y-24844586D01*
X40164936Y-24844596D01*
X40144341Y-25079999D01*
X40144341Y-25080000D01*
X40164936Y-25315403D01*
X40164938Y-25315413D01*
X40226094Y-25543655D01*
X40226096Y-25543659D01*
X40226097Y-25543663D01*
X40319866Y-25744751D01*
X40325965Y-25757830D01*
X40325967Y-25757834D01*
X40461501Y-25951395D01*
X40461506Y-25951402D01*
X40628597Y-26118493D01*
X40628603Y-26118498D01*
X40814158Y-26248425D01*
X40857783Y-26303002D01*
X40864977Y-26372500D01*
X40833454Y-26434855D01*
X40814158Y-26451575D01*
X40628597Y-26581505D01*
X40461505Y-26748597D01*
X40325965Y-26942169D01*
X40325964Y-26942171D01*
X40226098Y-27156335D01*
X40226094Y-27156344D01*
X40164938Y-27384586D01*
X40164936Y-27384596D01*
X40144341Y-27619999D01*
X40144341Y-27620000D01*
X40164936Y-27855403D01*
X40164938Y-27855413D01*
X40226094Y-28083655D01*
X40226096Y-28083659D01*
X40226097Y-28083663D01*
X40325965Y-28297830D01*
X40325967Y-28297834D01*
X40461501Y-28491395D01*
X40461506Y-28491402D01*
X40628597Y-28658493D01*
X40628603Y-28658498D01*
X40814158Y-28788425D01*
X40857783Y-28843002D01*
X40864977Y-28912500D01*
X40833454Y-28974855D01*
X40814158Y-28991575D01*
X40628597Y-29121505D01*
X40461505Y-29288597D01*
X40325965Y-29482169D01*
X40325964Y-29482171D01*
X40232512Y-29682581D01*
X40229586Y-29688856D01*
X40226098Y-29696335D01*
X40226094Y-29696344D01*
X40164938Y-29924586D01*
X40164936Y-29924596D01*
X40144341Y-30159999D01*
X40144341Y-30160000D01*
X40164936Y-30395403D01*
X40164938Y-30395413D01*
X40226094Y-30623655D01*
X40226096Y-30623659D01*
X40226097Y-30623663D01*
X40246358Y-30667112D01*
X40325965Y-30837830D01*
X40325967Y-30837834D01*
X40461501Y-31031395D01*
X40461506Y-31031402D01*
X40628597Y-31198493D01*
X40628603Y-31198498D01*
X40814158Y-31328425D01*
X40857783Y-31383002D01*
X40864977Y-31452500D01*
X40833454Y-31514855D01*
X40814158Y-31531575D01*
X40628597Y-31661505D01*
X40461505Y-31828597D01*
X40325965Y-32022169D01*
X40325964Y-32022171D01*
X40226098Y-32236335D01*
X40226094Y-32236344D01*
X40164938Y-32464586D01*
X40164936Y-32464596D01*
X40144341Y-32699999D01*
X40144341Y-32700000D01*
X40164936Y-32935403D01*
X40164938Y-32935413D01*
X40226094Y-33163655D01*
X40226096Y-33163659D01*
X40226097Y-33163663D01*
X40280345Y-33279997D01*
X40325965Y-33377830D01*
X40325967Y-33377834D01*
X40429285Y-33525386D01*
X40461505Y-33571401D01*
X40628599Y-33738495D01*
X40746582Y-33821108D01*
X40814594Y-33868730D01*
X40858219Y-33923307D01*
X40865413Y-33992805D01*
X40833890Y-34055160D01*
X40814595Y-34071880D01*
X40628922Y-34201890D01*
X40628920Y-34201891D01*
X40461891Y-34368920D01*
X40461886Y-34368926D01*
X40326400Y-34562420D01*
X40326399Y-34562422D01*
X40226570Y-34776507D01*
X40226567Y-34776513D01*
X40169364Y-34989999D01*
X40169364Y-34990000D01*
X41066988Y-34990000D01*
X41034075Y-35047007D01*
X41000000Y-35174174D01*
X41000000Y-35305826D01*
X41034075Y-35432993D01*
X41066988Y-35490000D01*
X40169364Y-35490000D01*
X40226567Y-35703486D01*
X40226570Y-35703492D01*
X40326399Y-35917578D01*
X40461894Y-36111082D01*
X40628917Y-36278105D01*
X40822421Y-36413600D01*
X41036507Y-36513429D01*
X41036516Y-36513433D01*
X41250000Y-36570634D01*
X41250000Y-35673012D01*
X41307007Y-35705925D01*
X41434174Y-35740000D01*
X41565826Y-35740000D01*
X41692993Y-35705925D01*
X41750000Y-35673012D01*
X41750000Y-36570633D01*
X41963483Y-36513433D01*
X41963492Y-36513429D01*
X42177578Y-36413600D01*
X42371082Y-36278105D01*
X42538105Y-36111082D01*
X42673600Y-35917578D01*
X42773429Y-35703492D01*
X42773432Y-35703486D01*
X42830636Y-35490000D01*
X41933012Y-35490000D01*
X41965925Y-35432993D01*
X42000000Y-35305826D01*
X42000000Y-35174174D01*
X41965925Y-35047007D01*
X41933012Y-34990000D01*
X42830636Y-34990000D01*
X42830635Y-34989999D01*
X42773432Y-34776513D01*
X42773429Y-34776507D01*
X42673600Y-34562422D01*
X42673599Y-34562420D01*
X42538113Y-34368926D01*
X42538108Y-34368920D01*
X42371078Y-34201890D01*
X42185405Y-34071879D01*
X42141780Y-34017302D01*
X42134588Y-33947804D01*
X42166110Y-33885449D01*
X42185406Y-33868730D01*
X42371401Y-33738495D01*
X42538495Y-33571401D01*
X42674035Y-33377830D01*
X42773903Y-33163663D01*
X42835063Y-32935408D01*
X42855659Y-32700000D01*
X42835063Y-32464592D01*
X42773903Y-32236337D01*
X42674035Y-32022171D01*
X42538495Y-31828599D01*
X42538494Y-31828597D01*
X42371402Y-31661506D01*
X42371396Y-31661501D01*
X42185842Y-31531575D01*
X42142217Y-31476998D01*
X42135023Y-31407500D01*
X42166546Y-31345145D01*
X42172484Y-31340000D01*
X44294540Y-31340000D01*
X44305328Y-31442650D01*
X44305463Y-31444477D01*
X44306108Y-31450125D01*
X44306227Y-31451217D01*
X44314325Y-31528249D01*
X44314327Y-31528260D01*
X44327608Y-31569134D01*
X44331553Y-31584600D01*
X44447376Y-32202322D01*
X44449500Y-32225173D01*
X44449500Y-34873918D01*
X44449500Y-34873920D01*
X44449499Y-34873920D01*
X44478340Y-35018907D01*
X44478343Y-35018917D01*
X44534914Y-35155492D01*
X44567812Y-35204727D01*
X44567813Y-35204730D01*
X44617046Y-35278414D01*
X44617052Y-35278421D01*
X45143407Y-35804775D01*
X45158064Y-35822435D01*
X45201210Y-35885495D01*
X45469837Y-36278105D01*
X45522567Y-36355171D01*
X45527616Y-36363192D01*
X45567466Y-36432215D01*
X45567469Y-36432219D01*
X45601358Y-36469855D01*
X45608235Y-36478197D01*
X45619854Y-36493615D01*
X45621147Y-36495177D01*
X45621211Y-36495254D01*
X45621220Y-36495264D01*
X45646292Y-36520068D01*
X45651232Y-36525246D01*
X45694129Y-36572888D01*
X45847265Y-36684148D01*
X45847270Y-36684151D01*
X46020192Y-36761142D01*
X46020197Y-36761144D01*
X46205354Y-36800500D01*
X46205355Y-36800500D01*
X46394644Y-36800500D01*
X46394646Y-36800500D01*
X46550375Y-36767398D01*
X46553233Y-36766826D01*
X47162318Y-36652624D01*
X47185170Y-36650500D01*
X53163920Y-36650500D01*
X53261462Y-36631096D01*
X53308913Y-36621658D01*
X53414547Y-36577902D01*
X53445488Y-36565087D01*
X53445488Y-36565086D01*
X53445495Y-36565084D01*
X53496116Y-36531260D01*
X53568416Y-36482952D01*
X54042952Y-36008416D01*
X54116236Y-35898737D01*
X54125084Y-35885495D01*
X54181658Y-35748913D01*
X54210500Y-35603918D01*
X54210500Y-34655173D01*
X54212624Y-34632322D01*
X54293329Y-34201890D01*
X54328443Y-34014609D01*
X54332388Y-33999144D01*
X54334448Y-33992805D01*
X54345674Y-33958256D01*
X54353889Y-33880080D01*
X54354415Y-33875802D01*
X54355408Y-33868730D01*
X54360688Y-33831143D01*
X54360690Y-33831116D01*
X54360693Y-33831097D01*
X54360887Y-33829034D01*
X54360887Y-33829026D01*
X54360888Y-33829016D01*
X54360844Y-33821097D01*
X54361521Y-33807468D01*
X54365460Y-33770000D01*
X54354685Y-33667487D01*
X54354551Y-33665655D01*
X54353890Y-33659875D01*
X54353781Y-33658892D01*
X54345674Y-33581744D01*
X54342311Y-33571395D01*
X54332388Y-33540855D01*
X54328444Y-33525397D01*
X54212624Y-32907675D01*
X54210500Y-32884826D01*
X54210500Y-23655172D01*
X54212624Y-23632321D01*
X54222717Y-23578493D01*
X54317241Y-23074349D01*
X54324749Y-23049289D01*
X54512011Y-22602426D01*
X54538689Y-22562677D01*
X54561367Y-22539999D01*
X57144341Y-22539999D01*
X57144341Y-22540000D01*
X57164936Y-22775403D01*
X57164938Y-22775413D01*
X57226094Y-23003655D01*
X57226096Y-23003659D01*
X57226097Y-23003663D01*
X57300776Y-23163812D01*
X57325965Y-23217830D01*
X57325967Y-23217834D01*
X57434281Y-23372521D01*
X57454723Y-23401716D01*
X57461501Y-23411395D01*
X57461506Y-23411402D01*
X57628597Y-23578493D01*
X57628603Y-23578498D01*
X57814158Y-23708425D01*
X57857783Y-23763002D01*
X57864977Y-23832500D01*
X57833454Y-23894855D01*
X57814158Y-23911575D01*
X57628597Y-24041505D01*
X57461505Y-24208597D01*
X57325965Y-24402169D01*
X57325964Y-24402171D01*
X57226098Y-24616335D01*
X57226094Y-24616344D01*
X57164938Y-24844586D01*
X57164936Y-24844596D01*
X57144341Y-25079999D01*
X57144341Y-25080000D01*
X57164936Y-25315403D01*
X57164938Y-25315413D01*
X57226094Y-25543655D01*
X57226096Y-25543659D01*
X57226097Y-25543663D01*
X57319866Y-25744751D01*
X57325965Y-25757830D01*
X57325967Y-25757834D01*
X57461501Y-25951395D01*
X57461506Y-25951402D01*
X57628597Y-26118493D01*
X57628603Y-26118498D01*
X57814158Y-26248425D01*
X57857783Y-26303002D01*
X57864977Y-26372500D01*
X57833454Y-26434855D01*
X57814158Y-26451575D01*
X57628597Y-26581505D01*
X57461505Y-26748597D01*
X57325965Y-26942169D01*
X57325964Y-26942171D01*
X57226098Y-27156335D01*
X57226094Y-27156344D01*
X57164938Y-27384586D01*
X57164936Y-27384596D01*
X57144341Y-27619999D01*
X57144341Y-27620000D01*
X57164936Y-27855403D01*
X57164938Y-27855413D01*
X57226094Y-28083655D01*
X57226096Y-28083659D01*
X57226097Y-28083663D01*
X57325965Y-28297830D01*
X57325967Y-28297834D01*
X57461501Y-28491395D01*
X57461506Y-28491402D01*
X57628597Y-28658493D01*
X57628603Y-28658498D01*
X57814158Y-28788425D01*
X57857783Y-28843002D01*
X57864977Y-28912500D01*
X57833454Y-28974855D01*
X57814158Y-28991575D01*
X57628597Y-29121505D01*
X57461505Y-29288597D01*
X57325965Y-29482169D01*
X57325964Y-29482171D01*
X57232512Y-29682581D01*
X57229586Y-29688856D01*
X57226098Y-29696335D01*
X57226094Y-29696344D01*
X57164938Y-29924586D01*
X57164936Y-29924596D01*
X57144341Y-30159999D01*
X57144341Y-30160000D01*
X57164936Y-30395403D01*
X57164938Y-30395413D01*
X57226094Y-30623655D01*
X57226096Y-30623659D01*
X57226097Y-30623663D01*
X57246358Y-30667112D01*
X57325965Y-30837830D01*
X57325967Y-30837834D01*
X57461501Y-31031395D01*
X57461506Y-31031402D01*
X57628597Y-31198493D01*
X57628603Y-31198498D01*
X57814158Y-31328425D01*
X57857783Y-31383002D01*
X57864977Y-31452500D01*
X57833454Y-31514855D01*
X57814158Y-31531575D01*
X57628597Y-31661505D01*
X57461505Y-31828597D01*
X57325965Y-32022169D01*
X57325964Y-32022171D01*
X57226098Y-32236335D01*
X57226094Y-32236344D01*
X57164938Y-32464586D01*
X57164936Y-32464596D01*
X57144341Y-32699999D01*
X57144341Y-32700000D01*
X57164936Y-32935403D01*
X57164938Y-32935413D01*
X57226094Y-33163655D01*
X57226096Y-33163659D01*
X57226097Y-33163663D01*
X57280345Y-33279997D01*
X57325965Y-33377830D01*
X57325967Y-33377834D01*
X57429285Y-33525386D01*
X57461505Y-33571401D01*
X57628599Y-33738495D01*
X57746582Y-33821108D01*
X57814594Y-33868730D01*
X57858219Y-33923307D01*
X57865413Y-33992805D01*
X57833890Y-34055160D01*
X57814595Y-34071880D01*
X57628922Y-34201890D01*
X57628920Y-34201891D01*
X57461891Y-34368920D01*
X57461886Y-34368926D01*
X57326400Y-34562420D01*
X57326399Y-34562422D01*
X57226570Y-34776507D01*
X57226567Y-34776513D01*
X57169364Y-34989999D01*
X57169364Y-34990000D01*
X58066988Y-34990000D01*
X58034075Y-35047007D01*
X58000000Y-35174174D01*
X58000000Y-35305826D01*
X58034075Y-35432993D01*
X58066988Y-35490000D01*
X57169364Y-35490000D01*
X57226567Y-35703486D01*
X57226570Y-35703492D01*
X57326399Y-35917578D01*
X57461894Y-36111082D01*
X57628917Y-36278105D01*
X57822421Y-36413600D01*
X58036507Y-36513429D01*
X58036516Y-36513433D01*
X58250000Y-36570634D01*
X58250000Y-35673012D01*
X58307007Y-35705925D01*
X58434174Y-35740000D01*
X58565826Y-35740000D01*
X58692993Y-35705925D01*
X58750000Y-35673012D01*
X58750000Y-36570633D01*
X58963483Y-36513433D01*
X58963492Y-36513429D01*
X59177578Y-36413600D01*
X59371082Y-36278105D01*
X59538105Y-36111082D01*
X59673600Y-35917578D01*
X59773429Y-35703492D01*
X59773432Y-35703486D01*
X59830636Y-35490000D01*
X58933012Y-35490000D01*
X58965925Y-35432993D01*
X59000000Y-35305826D01*
X59000000Y-35174174D01*
X58965925Y-35047007D01*
X58933012Y-34990000D01*
X59830636Y-34990000D01*
X59830635Y-34989999D01*
X59773432Y-34776513D01*
X59773429Y-34776507D01*
X59673600Y-34562422D01*
X59673599Y-34562420D01*
X59538113Y-34368926D01*
X59538108Y-34368920D01*
X59371078Y-34201890D01*
X59185405Y-34071879D01*
X59141780Y-34017302D01*
X59134588Y-33947804D01*
X59166110Y-33885449D01*
X59185406Y-33868730D01*
X59371401Y-33738495D01*
X59538495Y-33571401D01*
X59674035Y-33377830D01*
X59773903Y-33163663D01*
X59835063Y-32935408D01*
X59855659Y-32700000D01*
X59835063Y-32464592D01*
X59773903Y-32236337D01*
X59674035Y-32022171D01*
X59538495Y-31828599D01*
X59538494Y-31828597D01*
X59371402Y-31661506D01*
X59371396Y-31661501D01*
X59185842Y-31531575D01*
X59142217Y-31476998D01*
X59135023Y-31407500D01*
X59166546Y-31345145D01*
X59185842Y-31328425D01*
X59216100Y-31307238D01*
X59371401Y-31198495D01*
X59538495Y-31031401D01*
X59674035Y-30837830D01*
X59773903Y-30623663D01*
X59835063Y-30395408D01*
X59855659Y-30160000D01*
X59835063Y-29924592D01*
X59773903Y-29696337D01*
X59674035Y-29482171D01*
X59538495Y-29288599D01*
X59538494Y-29288597D01*
X59371402Y-29121506D01*
X59371396Y-29121501D01*
X59185842Y-28991575D01*
X59142217Y-28936998D01*
X59135023Y-28867500D01*
X59166546Y-28805145D01*
X59185842Y-28788425D01*
X59245861Y-28746399D01*
X59371401Y-28658495D01*
X59538495Y-28491401D01*
X59674035Y-28297830D01*
X59773903Y-28083663D01*
X59835063Y-27855408D01*
X59855659Y-27620000D01*
X59835063Y-27384592D01*
X59773903Y-27156337D01*
X59674035Y-26942171D01*
X59568605Y-26791600D01*
X59538494Y-26748597D01*
X59371402Y-26581506D01*
X59371396Y-26581501D01*
X59185842Y-26451575D01*
X59142217Y-26396998D01*
X59135023Y-26327500D01*
X59166546Y-26265145D01*
X59185842Y-26248425D01*
X59294552Y-26172305D01*
X59371401Y-26118495D01*
X59538495Y-25951401D01*
X59674035Y-25757830D01*
X59773903Y-25543663D01*
X59835063Y-25315408D01*
X59855659Y-25080000D01*
X59835063Y-24844592D01*
X59788416Y-24670500D01*
X59773905Y-24616344D01*
X59773904Y-24616343D01*
X59773903Y-24616337D01*
X59674035Y-24402171D01*
X59667323Y-24392584D01*
X59538494Y-24208597D01*
X59371402Y-24041506D01*
X59371396Y-24041501D01*
X59185842Y-23911575D01*
X59142217Y-23856998D01*
X59135023Y-23787500D01*
X59166546Y-23725145D01*
X59185842Y-23708425D01*
X59261895Y-23655172D01*
X59371401Y-23578495D01*
X59538495Y-23411401D01*
X59674035Y-23217830D01*
X59773903Y-23003663D01*
X59835063Y-22775408D01*
X59855659Y-22540000D01*
X59855365Y-22536645D01*
X59835063Y-22304596D01*
X59835063Y-22304592D01*
X59773903Y-22076337D01*
X59674035Y-21862171D01*
X59670731Y-21857453D01*
X59538496Y-21668600D01*
X59501640Y-21631744D01*
X59416567Y-21546671D01*
X59383084Y-21485351D01*
X59388068Y-21415659D01*
X59429939Y-21359725D01*
X59460915Y-21342810D01*
X59592331Y-21293796D01*
X59707546Y-21207546D01*
X59793796Y-21092331D01*
X59844091Y-20957483D01*
X59850500Y-20897873D01*
X59850499Y-19102128D01*
X59844091Y-19042517D01*
X59837961Y-19026082D01*
X59793797Y-18907671D01*
X59793793Y-18907664D01*
X59707547Y-18792455D01*
X59707544Y-18792452D01*
X59592335Y-18706206D01*
X59592328Y-18706202D01*
X59457482Y-18655908D01*
X59457483Y-18655908D01*
X59397883Y-18649501D01*
X59397881Y-18649500D01*
X59397873Y-18649500D01*
X59397864Y-18649500D01*
X57602129Y-18649500D01*
X57602123Y-18649501D01*
X57542516Y-18655908D01*
X57407671Y-18706202D01*
X57407664Y-18706206D01*
X57292455Y-18792452D01*
X57292452Y-18792455D01*
X57206206Y-18907664D01*
X57206202Y-18907671D01*
X57155908Y-19042517D01*
X57149501Y-19102116D01*
X57149501Y-19102123D01*
X57149500Y-19102135D01*
X57149500Y-20897870D01*
X57149501Y-20897876D01*
X57155908Y-20957483D01*
X57206202Y-21092328D01*
X57206206Y-21092335D01*
X57292452Y-21207544D01*
X57292455Y-21207547D01*
X57407664Y-21293793D01*
X57407671Y-21293797D01*
X57539081Y-21342810D01*
X57595015Y-21384681D01*
X57619432Y-21450145D01*
X57604580Y-21518418D01*
X57583430Y-21546673D01*
X57461503Y-21668600D01*
X57325965Y-21862169D01*
X57325964Y-21862171D01*
X57226098Y-22076335D01*
X57226094Y-22076344D01*
X57164938Y-22304586D01*
X57164936Y-22304596D01*
X57144341Y-22539999D01*
X54561367Y-22539999D01*
X56207951Y-20893416D01*
X56290084Y-20770495D01*
X56346658Y-20633913D01*
X56375500Y-20488918D01*
X56375500Y-20341083D01*
X56375500Y-17856082D01*
X56375500Y-15831074D01*
X56383951Y-15786081D01*
X56794067Y-14732846D01*
X56836735Y-14677518D01*
X56902543Y-14654041D01*
X56970596Y-14669869D01*
X57011191Y-14706716D01*
X57126500Y-14871395D01*
X57126505Y-14871401D01*
X57293599Y-15038495D01*
X57390384Y-15106265D01*
X57487165Y-15174032D01*
X57487167Y-15174033D01*
X57487170Y-15174035D01*
X57701337Y-15273903D01*
X57929592Y-15335063D01*
X58106034Y-15350500D01*
X58164999Y-15355659D01*
X58165000Y-15355659D01*
X58165001Y-15355659D01*
X58223966Y-15350500D01*
X58400408Y-15335063D01*
X58628663Y-15273903D01*
X58842830Y-15174035D01*
X59036401Y-15038495D01*
X59203495Y-14871401D01*
X59339035Y-14677830D01*
X59438903Y-14463663D01*
X59500063Y-14235408D01*
X59520659Y-14000000D01*
X59500063Y-13764592D01*
X59438903Y-13536337D01*
X59339035Y-13322171D01*
X59333425Y-13314158D01*
X59203494Y-13128597D01*
X59036402Y-12961506D01*
X59036395Y-12961501D01*
X58842834Y-12825967D01*
X58842830Y-12825965D01*
X58842828Y-12825964D01*
X58628663Y-12726097D01*
X58628659Y-12726096D01*
X58628655Y-12726094D01*
X58400413Y-12664938D01*
X58400403Y-12664936D01*
X58165001Y-12644341D01*
X58164999Y-12644341D01*
X57929596Y-12664936D01*
X57929586Y-12664938D01*
X57701344Y-12726094D01*
X57701335Y-12726098D01*
X57487171Y-12825964D01*
X57487169Y-12825965D01*
X57293597Y-12961505D01*
X57126505Y-13128597D01*
X56996575Y-13314158D01*
X56941998Y-13357783D01*
X56872500Y-13364977D01*
X56810145Y-13333454D01*
X56793425Y-13314158D01*
X56663494Y-13128597D01*
X56496402Y-12961506D01*
X56496395Y-12961501D01*
X56302834Y-12825967D01*
X56302830Y-12825965D01*
X56302828Y-12825964D01*
X56088663Y-12726097D01*
X56088659Y-12726096D01*
X56088655Y-12726094D01*
X55860413Y-12664938D01*
X55860403Y-12664936D01*
X55625001Y-12644341D01*
X55624999Y-12644341D01*
X55389596Y-12664936D01*
X55389586Y-12664938D01*
X55161344Y-12726094D01*
X55161335Y-12726098D01*
X54947171Y-12825964D01*
X54947169Y-12825965D01*
X54753600Y-12961503D01*
X54631673Y-13083430D01*
X54570350Y-13116914D01*
X54500658Y-13111930D01*
X54444725Y-13070058D01*
X54427810Y-13039081D01*
X54378797Y-12907671D01*
X54378793Y-12907664D01*
X54292547Y-12792455D01*
X54292544Y-12792452D01*
X54177335Y-12706206D01*
X54177328Y-12706202D01*
X54042482Y-12655908D01*
X54042483Y-12655908D01*
X53982883Y-12649501D01*
X53982881Y-12649500D01*
X53982873Y-12649500D01*
X53982864Y-12649500D01*
X52187129Y-12649500D01*
X52187123Y-12649501D01*
X52127516Y-12655908D01*
X51992671Y-12706202D01*
X51992664Y-12706206D01*
X51877455Y-12792452D01*
X51877452Y-12792455D01*
X51791206Y-12907664D01*
X51791202Y-12907671D01*
X51740908Y-13042517D01*
X51734501Y-13102116D01*
X51734500Y-13102135D01*
X51734500Y-14897870D01*
X51734501Y-14897876D01*
X51740908Y-14957483D01*
X51791202Y-15092328D01*
X51791206Y-15092335D01*
X51877452Y-15207544D01*
X51877455Y-15207547D01*
X51992664Y-15293793D01*
X51992671Y-15293797D01*
X52127517Y-15344091D01*
X52127516Y-15344091D01*
X52134444Y-15344835D01*
X52187127Y-15350500D01*
X53982872Y-15350499D01*
X54042483Y-15344091D01*
X54177331Y-15293796D01*
X54292546Y-15207546D01*
X54324293Y-15165136D01*
X54384112Y-15085231D01*
X54385591Y-15086338D01*
X54427228Y-15044692D01*
X54495499Y-15029832D01*
X54560966Y-15054241D01*
X54602216Y-15108524D01*
X54866048Y-15786081D01*
X54866049Y-15786082D01*
X54874500Y-15831075D01*
X54874500Y-17515500D01*
X54854815Y-17582539D01*
X54802011Y-17628294D01*
X54750500Y-17639500D01*
X47356076Y-17639500D01*
X47327242Y-17645234D01*
X47327243Y-17645235D01*
X47211093Y-17668339D01*
X47211083Y-17668342D01*
X47131081Y-17701479D01*
X47131082Y-17701480D01*
X47074505Y-17724915D01*
X46992372Y-17779795D01*
X46951585Y-17807047D01*
X46951581Y-17807050D01*
X46137050Y-18621580D01*
X46137044Y-18621588D01*
X46087812Y-18695268D01*
X46087813Y-18695269D01*
X46054921Y-18744496D01*
X46054914Y-18744508D01*
X45998342Y-18881086D01*
X45998340Y-18881092D01*
X45969500Y-19026079D01*
X45969500Y-20934823D01*
X45967376Y-20957675D01*
X45851552Y-21575400D01*
X45847608Y-21590863D01*
X45834325Y-21631745D01*
X45826106Y-21709935D01*
X45825581Y-21714218D01*
X45819310Y-21758862D01*
X45819309Y-21758868D01*
X45819111Y-21760977D01*
X45819110Y-21761001D01*
X45819153Y-21768915D01*
X45818476Y-21782538D01*
X45814540Y-21819997D01*
X45814540Y-21819998D01*
X45825328Y-21922650D01*
X45825463Y-21924477D01*
X45826108Y-21930125D01*
X45826227Y-21931217D01*
X45834325Y-22008249D01*
X45834327Y-22008260D01*
X45847608Y-22049134D01*
X45851553Y-22064600D01*
X45872025Y-22173784D01*
X45948517Y-22581744D01*
X45967376Y-22682322D01*
X45969500Y-22705174D01*
X45969500Y-22983918D01*
X45969500Y-22983920D01*
X45969499Y-22983920D01*
X45998340Y-23128907D01*
X45998343Y-23128917D01*
X46054913Y-23265490D01*
X46054914Y-23265491D01*
X46054916Y-23265495D01*
X46072349Y-23291585D01*
X46137048Y-23388416D01*
X46423412Y-23674779D01*
X46438064Y-23692434D01*
X46619941Y-23958256D01*
X46802567Y-24225171D01*
X46807616Y-24233192D01*
X46847466Y-24302215D01*
X46847469Y-24302219D01*
X46881358Y-24339855D01*
X46888235Y-24348197D01*
X46899854Y-24363615D01*
X46901147Y-24365177D01*
X46901211Y-24365254D01*
X46901220Y-24365264D01*
X46926292Y-24390068D01*
X46931232Y-24395246D01*
X46974129Y-24442888D01*
X47127265Y-24554148D01*
X47127270Y-24554151D01*
X47300192Y-24631142D01*
X47300197Y-24631144D01*
X47485354Y-24670500D01*
X47485355Y-24670500D01*
X47674644Y-24670500D01*
X47674646Y-24670500D01*
X47859803Y-24631144D01*
X48032730Y-24554151D01*
X48185871Y-24442888D01*
X48312533Y-24302216D01*
X48407179Y-24138284D01*
X48465674Y-23958256D01*
X48485460Y-23770000D01*
X48465674Y-23581744D01*
X48407179Y-23401716D01*
X48312533Y-23237784D01*
X48250136Y-23168485D01*
X48243205Y-23159955D01*
X48242665Y-23159351D01*
X48242658Y-23159342D01*
X48242630Y-23159316D01*
X48234357Y-23150961D01*
X48185870Y-23097111D01*
X48032730Y-22985848D01*
X48021891Y-22981022D01*
X48002311Y-22970083D01*
X47551792Y-22661835D01*
X47507580Y-22607734D01*
X47499635Y-22538317D01*
X47499937Y-22536645D01*
X47525237Y-22401716D01*
X47588444Y-22064606D01*
X47592388Y-22049144D01*
X47592391Y-22049134D01*
X47605674Y-22008256D01*
X47613889Y-21930080D01*
X47614415Y-21925802D01*
X47614858Y-21922650D01*
X47620688Y-21881143D01*
X47620690Y-21881116D01*
X47620693Y-21881097D01*
X47620887Y-21879034D01*
X47620887Y-21879026D01*
X47620888Y-21879016D01*
X47620844Y-21871097D01*
X47621521Y-21857468D01*
X47625460Y-21820000D01*
X47614685Y-21717487D01*
X47614551Y-21715655D01*
X47613890Y-21709875D01*
X47613781Y-21708892D01*
X47605674Y-21631744D01*
X47593660Y-21594770D01*
X47592388Y-21590855D01*
X47588444Y-21575397D01*
X47472624Y-20957675D01*
X47470500Y-20934826D01*
X47470500Y-19462229D01*
X47490185Y-19395190D01*
X47506819Y-19374548D01*
X47704548Y-19176819D01*
X47765871Y-19143334D01*
X47792229Y-19140500D01*
X54750500Y-19140500D01*
X54817539Y-19160185D01*
X54863294Y-19212989D01*
X54874500Y-19264500D01*
X54874500Y-20052770D01*
X54854815Y-20119809D01*
X54838181Y-20140451D01*
X53409440Y-21569191D01*
X53394050Y-21582257D01*
X53376610Y-21594770D01*
X53376605Y-21594775D01*
X52835468Y-22114441D01*
X52828276Y-22121489D01*
X52828164Y-22121601D01*
X52828138Y-22121628D01*
X52792799Y-22160869D01*
X52792795Y-22160875D01*
X52791300Y-22163381D01*
X52776981Y-22182790D01*
X52727468Y-22237782D01*
X52727464Y-22237787D01*
X52632821Y-22401715D01*
X52632818Y-22401722D01*
X52580522Y-22562674D01*
X52574326Y-22581744D01*
X52554540Y-22770000D01*
X52565328Y-22872650D01*
X52565463Y-22874477D01*
X52566108Y-22880125D01*
X52566227Y-22881217D01*
X52574325Y-22958249D01*
X52574327Y-22958260D01*
X52587608Y-22999134D01*
X52591553Y-23014600D01*
X52617121Y-23150961D01*
X52697892Y-23581744D01*
X52707376Y-23632322D01*
X52709500Y-23655174D01*
X52709500Y-29217770D01*
X52689815Y-29284809D01*
X52673181Y-29305451D01*
X52221357Y-29757274D01*
X52160034Y-29790759D01*
X52110824Y-29791469D01*
X51533213Y-29683167D01*
X51530285Y-29682581D01*
X51374647Y-29649500D01*
X51374646Y-29649500D01*
X51348967Y-29649500D01*
X51341927Y-29649170D01*
X51341925Y-29649230D01*
X51338850Y-29649095D01*
X51338847Y-29649095D01*
X51283854Y-29649403D01*
X51266926Y-29649498D01*
X51266232Y-29649500D01*
X51185354Y-29649500D01*
X51152897Y-29656398D01*
X51000197Y-29688855D01*
X51000192Y-29688857D01*
X50827270Y-29765848D01*
X50827265Y-29765851D01*
X50674129Y-29877111D01*
X50547466Y-30017785D01*
X50452821Y-30181715D01*
X50452818Y-30181722D01*
X50394327Y-30361740D01*
X50394326Y-30361744D01*
X50374540Y-30550000D01*
X50394326Y-30738256D01*
X50394327Y-30738259D01*
X50452818Y-30918277D01*
X50452821Y-30918284D01*
X50547467Y-31082216D01*
X50652168Y-31198498D01*
X50674129Y-31222888D01*
X50827265Y-31334148D01*
X50827270Y-31334151D01*
X51000192Y-31411142D01*
X51000197Y-31411144D01*
X51185354Y-31450500D01*
X51185355Y-31450500D01*
X51374644Y-31450500D01*
X51374646Y-31450500D01*
X51530375Y-31417398D01*
X51533233Y-31416826D01*
X52142318Y-31302624D01*
X52165170Y-31300500D01*
X52563920Y-31300500D01*
X52569983Y-31299903D01*
X52570171Y-31301816D01*
X52630879Y-31307238D01*
X52686064Y-31350090D01*
X52709321Y-31415976D01*
X52709500Y-31422636D01*
X52709500Y-32884823D01*
X52707376Y-32907675D01*
X52591552Y-33525400D01*
X52587608Y-33540863D01*
X52574326Y-33581744D01*
X52566105Y-33659950D01*
X52565587Y-33664173D01*
X52565122Y-33667487D01*
X52559309Y-33708868D01*
X52559111Y-33710977D01*
X52559110Y-33711001D01*
X52559153Y-33718915D01*
X52558476Y-33732538D01*
X52554540Y-33769997D01*
X52554540Y-33769998D01*
X52565328Y-33872650D01*
X52565463Y-33874477D01*
X52566108Y-33880125D01*
X52566227Y-33881217D01*
X52574325Y-33958249D01*
X52574327Y-33958260D01*
X52587608Y-33999134D01*
X52591553Y-34014600D01*
X52675839Y-34464128D01*
X52707376Y-34632322D01*
X52709500Y-34655174D01*
X52709500Y-35025500D01*
X52689815Y-35092539D01*
X52637011Y-35138294D01*
X52585500Y-35149500D01*
X47185176Y-35149500D01*
X47162324Y-35147376D01*
X46677062Y-35056389D01*
X46629893Y-35036851D01*
X46222435Y-34758064D01*
X46204775Y-34743407D01*
X45986819Y-34525451D01*
X45953334Y-34464128D01*
X45950500Y-34437770D01*
X45950500Y-32225173D01*
X45952624Y-32202322D01*
X46022696Y-31828599D01*
X46068443Y-31584609D01*
X46072388Y-31569144D01*
X46072391Y-31569134D01*
X46085674Y-31528256D01*
X46093889Y-31450080D01*
X46094415Y-31445802D01*
X46094858Y-31442650D01*
X46100688Y-31401143D01*
X46100690Y-31401116D01*
X46100693Y-31401097D01*
X46100887Y-31399034D01*
X46100887Y-31399026D01*
X46100888Y-31399016D01*
X46100844Y-31391097D01*
X46101521Y-31377468D01*
X46105460Y-31340000D01*
X46085674Y-31151744D01*
X46027179Y-30971716D01*
X45932533Y-30807784D01*
X45805871Y-30667112D01*
X45746070Y-30623664D01*
X45652734Y-30555851D01*
X45652729Y-30555848D01*
X45479807Y-30478857D01*
X45479802Y-30478855D01*
X45334001Y-30447865D01*
X45294646Y-30439500D01*
X45105354Y-30439500D01*
X45072897Y-30446398D01*
X44920197Y-30478855D01*
X44920192Y-30478857D01*
X44747270Y-30555848D01*
X44747265Y-30555851D01*
X44594129Y-30667111D01*
X44467466Y-30807785D01*
X44372821Y-30971715D01*
X44372818Y-30971722D01*
X44336917Y-31082216D01*
X44314326Y-31151744D01*
X44301723Y-31271658D01*
X44294540Y-31340000D01*
X42172484Y-31340000D01*
X42185842Y-31328425D01*
X42216100Y-31307238D01*
X42371401Y-31198495D01*
X42538495Y-31031401D01*
X42674035Y-30837830D01*
X42773903Y-30623663D01*
X42835063Y-30395408D01*
X42855659Y-30160000D01*
X42835063Y-29924592D01*
X42773903Y-29696337D01*
X42674035Y-29482171D01*
X42538495Y-29288599D01*
X42538494Y-29288597D01*
X42371402Y-29121506D01*
X42371396Y-29121501D01*
X42185842Y-28991575D01*
X42142217Y-28936998D01*
X42139883Y-28914455D01*
X46954751Y-28914455D01*
X46954751Y-28914460D01*
X46973685Y-29082512D01*
X46973687Y-29082519D01*
X46998607Y-29153738D01*
X47002863Y-29168947D01*
X47008365Y-29194872D01*
X47008370Y-29194889D01*
X47119400Y-29497253D01*
X47127000Y-29539996D01*
X47127000Y-32654459D01*
X47119401Y-32697201D01*
X47008360Y-32999598D01*
X46995306Y-33040424D01*
X46995304Y-33040431D01*
X46995052Y-33042455D01*
X46989052Y-33068025D01*
X46973688Y-33111935D01*
X46973685Y-33111945D01*
X46954751Y-33279997D01*
X46954751Y-33280002D01*
X46973685Y-33448056D01*
X47029545Y-33607694D01*
X47029547Y-33607697D01*
X47119518Y-33750884D01*
X47119523Y-33750890D01*
X47239109Y-33870476D01*
X47239115Y-33870481D01*
X47382302Y-33960452D01*
X47382305Y-33960454D01*
X47382309Y-33960455D01*
X47382310Y-33960456D01*
X47420740Y-33973903D01*
X47541943Y-34016314D01*
X47709997Y-34035249D01*
X47710000Y-34035249D01*
X47710003Y-34035249D01*
X47878056Y-34016314D01*
X47927125Y-33999144D01*
X48037690Y-33960456D01*
X48037692Y-33960454D01*
X48037694Y-33960454D01*
X48037697Y-33960452D01*
X48180884Y-33870481D01*
X48180885Y-33870480D01*
X48180890Y-33870477D01*
X48300477Y-33750890D01*
X48300481Y-33750884D01*
X48390452Y-33607697D01*
X48390454Y-33607694D01*
X48390454Y-33607692D01*
X48390456Y-33607690D01*
X48446313Y-33448059D01*
X48446313Y-33448058D01*
X48446314Y-33448056D01*
X48465249Y-33280002D01*
X48465249Y-33279997D01*
X48446313Y-33111940D01*
X48446313Y-33111939D01*
X48421391Y-33040717D01*
X48417135Y-33025511D01*
X48411632Y-32999579D01*
X48300599Y-32697202D01*
X48293000Y-32654460D01*
X48293000Y-29539996D01*
X48300599Y-29497254D01*
X48411632Y-29194878D01*
X48424692Y-29154036D01*
X48424942Y-29152028D01*
X48430946Y-29126428D01*
X48446313Y-29082517D01*
X48458444Y-28974855D01*
X48465249Y-28914460D01*
X48465249Y-28914455D01*
X48446314Y-28746401D01*
X48415554Y-28658495D01*
X48390456Y-28586768D01*
X48312006Y-28461916D01*
X48293000Y-28395944D01*
X48293000Y-27130204D01*
X48301627Y-27084762D01*
X48304496Y-27077478D01*
X48417104Y-26791579D01*
X48432764Y-26745406D01*
X48433327Y-26741285D01*
X48439140Y-26717132D01*
X48456313Y-26668059D01*
X48456314Y-26668052D01*
X48475249Y-26500002D01*
X48475249Y-26499997D01*
X48456314Y-26331943D01*
X48400454Y-26172305D01*
X48400452Y-26172302D01*
X48310481Y-26029115D01*
X48310476Y-26029109D01*
X48190890Y-25909523D01*
X48190884Y-25909518D01*
X48047697Y-25819547D01*
X48047694Y-25819545D01*
X47888056Y-25763685D01*
X47720003Y-25744751D01*
X47719997Y-25744751D01*
X47551943Y-25763685D01*
X47392305Y-25819545D01*
X47392302Y-25819547D01*
X47249115Y-25909518D01*
X47249109Y-25909523D01*
X47129523Y-26029109D01*
X47129518Y-26029115D01*
X47039547Y-26172302D01*
X47039545Y-26172305D01*
X46983685Y-26331943D01*
X46964751Y-26499997D01*
X46964751Y-26500002D01*
X46983686Y-26668057D01*
X47005654Y-26730839D01*
X47010411Y-26748533D01*
X47014614Y-26770542D01*
X47120250Y-27077478D01*
X47127000Y-27117831D01*
X47127000Y-28395944D01*
X47107994Y-28461916D01*
X47029545Y-28586765D01*
X46973685Y-28746401D01*
X46954751Y-28914455D01*
X42139883Y-28914455D01*
X42135023Y-28867500D01*
X42166546Y-28805145D01*
X42185842Y-28788425D01*
X42245861Y-28746399D01*
X42371401Y-28658495D01*
X42538495Y-28491401D01*
X42674035Y-28297830D01*
X42773903Y-28083663D01*
X42835063Y-27855408D01*
X42855659Y-27620000D01*
X42835063Y-27384592D01*
X42773903Y-27156337D01*
X42674035Y-26942171D01*
X42568605Y-26791600D01*
X42538494Y-26748597D01*
X42371402Y-26581506D01*
X42371396Y-26581501D01*
X42185842Y-26451575D01*
X42142217Y-26396998D01*
X42135023Y-26327500D01*
X42166546Y-26265145D01*
X42185842Y-26248425D01*
X42294552Y-26172305D01*
X42371401Y-26118495D01*
X42538495Y-25951401D01*
X42674035Y-25757830D01*
X42773903Y-25543663D01*
X42835063Y-25315408D01*
X42855659Y-25080000D01*
X42835063Y-24844592D01*
X42788416Y-24670500D01*
X42773905Y-24616344D01*
X42773904Y-24616343D01*
X42773903Y-24616337D01*
X42674035Y-24402171D01*
X42667323Y-24392584D01*
X42538494Y-24208597D01*
X42371402Y-24041506D01*
X42371396Y-24041501D01*
X42185842Y-23911575D01*
X42142217Y-23856998D01*
X42135023Y-23787500D01*
X42166546Y-23725145D01*
X42185842Y-23708425D01*
X42261895Y-23655172D01*
X42371401Y-23578495D01*
X42538495Y-23411401D01*
X42674035Y-23217830D01*
X42773903Y-23003663D01*
X42835063Y-22775408D01*
X42855659Y-22540000D01*
X42855365Y-22536645D01*
X42835063Y-22304596D01*
X42835063Y-22304592D01*
X42773903Y-22076337D01*
X42674035Y-21862171D01*
X42670731Y-21857453D01*
X42538496Y-21668600D01*
X42501640Y-21631744D01*
X42416567Y-21546671D01*
X42383084Y-21485351D01*
X42388068Y-21415659D01*
X42429939Y-21359725D01*
X42460915Y-21342810D01*
X42592331Y-21293796D01*
X42707546Y-21207546D01*
X42793796Y-21092331D01*
X42844091Y-20957483D01*
X42850500Y-20897873D01*
X42850499Y-19102128D01*
X42844091Y-19042517D01*
X42837961Y-19026082D01*
X42793797Y-18907671D01*
X42793793Y-18907664D01*
X42707547Y-18792455D01*
X42707544Y-18792452D01*
X42592335Y-18706206D01*
X42592328Y-18706202D01*
X42457482Y-18655908D01*
X42457483Y-18655908D01*
X42397883Y-18649501D01*
X42397881Y-18649500D01*
X42397873Y-18649500D01*
X42397864Y-18649500D01*
X40602129Y-18649500D01*
X40602123Y-18649501D01*
X40542516Y-18655908D01*
X40407671Y-18706202D01*
X40407664Y-18706206D01*
X40292455Y-18792452D01*
X40292452Y-18792455D01*
X40206206Y-18907664D01*
X40206202Y-18907671D01*
X40155908Y-19042517D01*
X40149501Y-19102116D01*
X40149501Y-19102123D01*
X40149500Y-19102135D01*
X40149500Y-20897870D01*
X40149501Y-20897876D01*
X40155908Y-20957483D01*
X40206202Y-21092328D01*
X40206206Y-21092335D01*
X40292452Y-21207544D01*
X40292455Y-21207547D01*
X40407664Y-21293793D01*
X40407671Y-21293797D01*
X40539081Y-21342810D01*
X40595015Y-21384681D01*
X40619432Y-21450145D01*
X40604580Y-21518418D01*
X40583430Y-21546673D01*
X40461503Y-21668600D01*
X40325965Y-21862169D01*
X40325964Y-21862171D01*
X40226098Y-22076335D01*
X40226094Y-22076344D01*
X40164938Y-22304586D01*
X40164936Y-22304596D01*
X40144341Y-22539999D01*
X39000500Y-22539999D01*
X39000500Y-5208166D01*
X39020185Y-5141127D01*
X39025300Y-5133766D01*
X39098950Y-5035567D01*
X40213050Y-3550100D01*
X40269021Y-3508279D01*
X40312250Y-3500500D01*
X59686817Y-3500500D01*
X59753856Y-3520185D01*
G37*
%TD.AperFunction*%
%TD*%
%TA.AperFunction,Conductor*%
%TO.N,/Block Diagram/SCL*%
G36*
X47915115Y-28999307D02*
G01*
X47930646Y-29005808D01*
X47936955Y-29012164D01*
X47937112Y-29020634D01*
X47795315Y-29406791D01*
X47789246Y-29413376D01*
X47784332Y-29414458D01*
X47635668Y-29414458D01*
X47627395Y-29411031D01*
X47624685Y-29406791D01*
X47482887Y-29020634D01*
X47483252Y-29011687D01*
X47489352Y-29005808D01*
X47705484Y-28915347D01*
X47714437Y-28915315D01*
X47915115Y-28999307D01*
G37*
%TD.AperFunction*%
%TD*%
%TA.AperFunction,Conductor*%
%TO.N,/Block Diagram/SCL*%
G36*
X47722358Y-28917885D02*
G01*
X47725785Y-28926158D01*
X47722358Y-28934431D01*
X47717500Y-28937348D01*
X47559544Y-28985555D01*
X47550631Y-28984693D01*
X47544939Y-28977780D01*
X47545801Y-28968867D01*
X47549788Y-28964533D01*
X47624606Y-28916323D01*
X47630943Y-28914458D01*
X47714085Y-28914458D01*
X47722358Y-28917885D01*
G37*
%TD.AperFunction*%
%TD*%
%TA.AperFunction,Conductor*%
%TO.N,/Block Diagram/SCL*%
G36*
X47940403Y-26591248D02*
G01*
X47946712Y-26597604D01*
X47946772Y-26606329D01*
X47795419Y-26990599D01*
X47789199Y-26997040D01*
X47784533Y-26998011D01*
X47635847Y-26998011D01*
X47627574Y-26994584D01*
X47624784Y-26990119D01*
X47492598Y-26606038D01*
X47493146Y-26597099D01*
X47499142Y-26591438D01*
X47715484Y-26500889D01*
X47724437Y-26500857D01*
X47940403Y-26591248D01*
G37*
%TD.AperFunction*%
%TD*%
%TA.AperFunction,Conductor*%
%TO.N,/Block Diagram/SCL*%
G36*
X47792605Y-32783427D02*
G01*
X47795315Y-32787667D01*
X47937112Y-33173823D01*
X47936747Y-33182770D01*
X47930646Y-33188649D01*
X47714517Y-33279109D01*
X47705563Y-33279142D01*
X47705483Y-33279109D01*
X47489353Y-33188649D01*
X47483044Y-33182293D01*
X47482887Y-33173825D01*
X47624685Y-32787667D01*
X47630754Y-32781082D01*
X47635668Y-32780000D01*
X47784332Y-32780000D01*
X47792605Y-32783427D01*
G37*
%TD.AperFunction*%
%TD*%
%TA.AperFunction,Conductor*%
%TO.N,+VDD*%
G36*
X45585939Y-31339964D02*
G01*
X45594202Y-31343412D01*
X45597608Y-31351693D01*
X45597408Y-31353820D01*
X45451790Y-32130456D01*
X45446897Y-32137956D01*
X45440290Y-32140000D01*
X44959710Y-32140000D01*
X44951437Y-32136573D01*
X44948210Y-32130456D01*
X44802591Y-31353820D01*
X44804435Y-31345057D01*
X44811935Y-31340164D01*
X44814052Y-31339964D01*
X45200000Y-31339000D01*
X45585939Y-31339964D01*
G37*
%TD.AperFunction*%
%TD*%
%TA.AperFunction,Conductor*%
%TO.N,+VDD*%
G36*
X53845939Y-22769964D02*
G01*
X53854202Y-22773412D01*
X53857608Y-22781693D01*
X53857408Y-22783820D01*
X53711790Y-23560456D01*
X53706897Y-23567956D01*
X53700290Y-23570000D01*
X53219710Y-23570000D01*
X53211437Y-23566573D01*
X53208210Y-23560456D01*
X53062591Y-22783820D01*
X53064435Y-22775057D01*
X53071935Y-22770164D01*
X53074052Y-22769964D01*
X53460000Y-22769000D01*
X53845939Y-22769964D01*
G37*
%TD.AperFunction*%
%TD*%
%TA.AperFunction,Conductor*%
%TO.N,+VDD*%
G36*
X46313817Y-35502590D02*
G01*
X47090457Y-35648210D01*
X47097956Y-35653103D01*
X47100000Y-35659710D01*
X47100000Y-36140289D01*
X47096573Y-36148562D01*
X47090456Y-36151789D01*
X46313820Y-36297408D01*
X46305057Y-36295564D01*
X46300164Y-36288064D01*
X46299964Y-36285946D01*
X46299000Y-35900000D01*
X46299964Y-35514059D01*
X46303412Y-35505797D01*
X46311693Y-35502391D01*
X46313817Y-35502590D01*
G37*
%TD.AperFunction*%
%TD*%
%TA.AperFunction,Conductor*%
%TO.N,+VDD*%
G36*
X45919104Y-35163021D02*
G01*
X46571237Y-35609216D01*
X46576130Y-35616716D01*
X46574286Y-35625479D01*
X46572924Y-35627124D01*
X46300749Y-35900665D01*
X46300707Y-35900707D01*
X46027124Y-36172924D01*
X46018843Y-36176330D01*
X46010578Y-36172882D01*
X46009216Y-36171237D01*
X45563021Y-35519104D01*
X45561177Y-35510341D01*
X45564402Y-35504226D01*
X45904225Y-35164403D01*
X45912497Y-35160977D01*
X45919104Y-35163021D01*
G37*
%TD.AperFunction*%
%TD*%
%TA.AperFunction,Conductor*%
%TO.N,+VDD*%
G36*
X53743119Y-21959542D02*
G01*
X54083012Y-22299435D01*
X54086439Y-22307708D01*
X54085530Y-22312230D01*
X53834045Y-22912351D01*
X53827687Y-22918657D01*
X53818802Y-22918649D01*
X53461472Y-22771603D01*
X53457630Y-22769035D01*
X53185556Y-22495598D01*
X53182150Y-22487317D01*
X53185598Y-22479052D01*
X53185654Y-22478996D01*
X53726743Y-21959375D01*
X53735083Y-21956117D01*
X53743119Y-21959542D01*
G37*
%TD.AperFunction*%
%TD*%
%TA.AperFunction,Conductor*%
%TO.N,+VDD*%
G36*
X53708563Y-32973427D02*
G01*
X53711790Y-32979544D01*
X53857408Y-33756179D01*
X53855564Y-33764942D01*
X53848064Y-33769835D01*
X53845937Y-33770035D01*
X53460029Y-33770999D01*
X53459971Y-33770999D01*
X53074062Y-33770035D01*
X53065797Y-33766587D01*
X53062391Y-33758306D01*
X53062591Y-33756179D01*
X53208210Y-32979544D01*
X53213103Y-32972044D01*
X53219710Y-32970000D01*
X53700290Y-32970000D01*
X53708563Y-32973427D01*
G37*
%TD.AperFunction*%
%TD*%
%TA.AperFunction,Conductor*%
%TO.N,+VDD*%
G36*
X47105939Y-21819964D02*
G01*
X47114202Y-21823412D01*
X47117608Y-21831693D01*
X47117408Y-21833820D01*
X46971790Y-22610456D01*
X46966897Y-22617956D01*
X46960290Y-22620000D01*
X46479710Y-22620000D01*
X46471437Y-22616573D01*
X46468210Y-22610456D01*
X46322591Y-21833820D01*
X46324435Y-21825057D01*
X46331935Y-21820164D01*
X46334052Y-21819964D01*
X46720000Y-21819000D01*
X47105939Y-21819964D01*
G37*
%TD.AperFunction*%
%TD*%
%TA.AperFunction,Conductor*%
%TO.N,+VDD*%
G36*
X51293817Y-30152590D02*
G01*
X52070457Y-30298210D01*
X52077956Y-30303103D01*
X52080000Y-30309710D01*
X52080000Y-30790289D01*
X52076573Y-30798562D01*
X52070456Y-30801789D01*
X51293820Y-30947408D01*
X51285057Y-30945564D01*
X51280164Y-30938064D01*
X51279964Y-30935946D01*
X51279000Y-30550000D01*
X51279964Y-30164059D01*
X51283412Y-30155797D01*
X51291693Y-30152391D01*
X51293817Y-30152590D01*
G37*
%TD.AperFunction*%
%TD*%
%TA.AperFunction,Conductor*%
%TO.N,+VDD*%
G36*
X55629489Y-14000865D02*
G01*
X56399732Y-14320891D01*
X56406057Y-14327230D01*
X56406146Y-14335941D01*
X55877903Y-15692545D01*
X55871707Y-15699011D01*
X55867000Y-15700000D01*
X55383000Y-15700000D01*
X55374727Y-15696573D01*
X55372097Y-15692545D01*
X54843853Y-14335941D01*
X54844045Y-14326989D01*
X54850266Y-14320891D01*
X55620511Y-14000864D01*
X55629466Y-14000856D01*
X55629489Y-14000865D01*
G37*
%TD.AperFunction*%
%TD*%
%TA.AperFunction,Conductor*%
%TO.N,+VDD*%
G36*
X47199104Y-23033021D02*
G01*
X47851237Y-23479216D01*
X47856130Y-23486716D01*
X47854286Y-23495479D01*
X47852924Y-23497124D01*
X47580749Y-23770665D01*
X47580707Y-23770707D01*
X47307124Y-24042924D01*
X47298843Y-24046330D01*
X47290578Y-24042882D01*
X47289216Y-24041237D01*
X46843021Y-23389104D01*
X46841177Y-23380341D01*
X46844402Y-23374226D01*
X47184225Y-23034403D01*
X47192497Y-23030977D01*
X47199104Y-23033021D01*
G37*
%TD.AperFunction*%
%TD*%
%TA.AperFunction,Conductor*%
%TO.N,+VDD*%
G36*
X53845939Y-33769964D02*
G01*
X53854202Y-33773412D01*
X53857608Y-33781693D01*
X53857408Y-33783820D01*
X53711790Y-34560456D01*
X53706897Y-34567956D01*
X53700290Y-34570000D01*
X53219710Y-34570000D01*
X53211437Y-34566573D01*
X53208210Y-34560456D01*
X53062591Y-33783820D01*
X53064435Y-33775057D01*
X53071935Y-33770164D01*
X53074052Y-33769964D01*
X53460000Y-33769000D01*
X53845939Y-33769964D01*
G37*
%TD.AperFunction*%
%TD*%
%TA.AperFunction,Conductor*%
%TO.N,+VDD*%
G36*
X46968563Y-21023427D02*
G01*
X46971790Y-21029544D01*
X47117408Y-21806179D01*
X47115564Y-21814942D01*
X47108064Y-21819835D01*
X47105937Y-21820035D01*
X46720029Y-21820999D01*
X46719971Y-21820999D01*
X46334062Y-21820035D01*
X46325797Y-21816587D01*
X46322391Y-21808306D01*
X46322591Y-21806179D01*
X46468210Y-21029544D01*
X46473103Y-21022044D01*
X46479710Y-21020000D01*
X46960290Y-21020000D01*
X46968563Y-21023427D01*
G37*
%TD.AperFunction*%
%TD*%
M02*
