%TF.GenerationSoftware,KiCad,Pcbnew,8.0.7*%
%TF.CreationDate,2025-01-04T02:58:24+07:00*%
%TF.ProjectId,13dof_imu,3133646f-665f-4696-9d75-2e6b69636164,Rev 1*%
%TF.SameCoordinates,Original*%
%TF.FileFunction,Copper,L1,Top*%
%TF.FilePolarity,Positive*%
%FSLAX46Y46*%
G04 Gerber Fmt 4.6, Leading zero omitted, Abs format (unit mm)*
G04 Created by KiCad (PCBNEW 8.0.7) date 2025-01-04 02:58:24*
%MOMM*%
%LPD*%
G01*
G04 APERTURE LIST*
G04 Aperture macros list*
%AMRoundRect*
0 Rectangle with rounded corners*
0 $1 Rounding radius*
0 $2 $3 $4 $5 $6 $7 $8 $9 X,Y pos of 4 corners*
0 Add a 4 corners polygon primitive as box body*
4,1,4,$2,$3,$4,$5,$6,$7,$8,$9,$2,$3,0*
0 Add four circle primitives for the rounded corners*
1,1,$1+$1,$2,$3*
1,1,$1+$1,$4,$5*
1,1,$1+$1,$6,$7*
1,1,$1+$1,$8,$9*
0 Add four rect primitives between the rounded corners*
20,1,$1+$1,$2,$3,$4,$5,0*
20,1,$1+$1,$4,$5,$6,$7,0*
20,1,$1+$1,$6,$7,$8,$9,0*
20,1,$1+$1,$8,$9,$2,$3,0*%
%AMOutline5P*
0 Free polygon, 5 corners , with rotation*
0 The origin of the aperture is its center*
0 number of corners: always 5*
0 $1 to $10 corner X, Y*
0 $11 Rotation angle, in degrees counterclockwise*
0 create outline with 5 corners*
4,1,5,$1,$2,$3,$4,$5,$6,$7,$8,$9,$10,$1,$2,$11*%
%AMOutline6P*
0 Free polygon, 6 corners , with rotation*
0 The origin of the aperture is its center*
0 number of corners: always 6*
0 $1 to $12 corner X, Y*
0 $13 Rotation angle, in degrees counterclockwise*
0 create outline with 6 corners*
4,1,6,$1,$2,$3,$4,$5,$6,$7,$8,$9,$10,$11,$12,$1,$2,$13*%
%AMOutline7P*
0 Free polygon, 7 corners , with rotation*
0 The origin of the aperture is its center*
0 number of corners: always 7*
0 $1 to $14 corner X, Y*
0 $15 Rotation angle, in degrees counterclockwise*
0 create outline with 7 corners*
4,1,7,$1,$2,$3,$4,$5,$6,$7,$8,$9,$10,$11,$12,$13,$14,$1,$2,$15*%
%AMOutline8P*
0 Free polygon, 8 corners , with rotation*
0 The origin of the aperture is its center*
0 number of corners: always 8*
0 $1 to $16 corner X, Y*
0 $17 Rotation angle, in degrees counterclockwise*
0 create outline with 8 corners*
4,1,8,$1,$2,$3,$4,$5,$6,$7,$8,$9,$10,$11,$12,$13,$14,$15,$16,$1,$2,$17*%
G04 Aperture macros list end*
%TA.AperFunction,SMDPad,CuDef*%
%ADD10RoundRect,0.140000X-0.170000X0.140000X-0.170000X-0.140000X0.170000X-0.140000X0.170000X0.140000X0*%
%TD*%
%TA.AperFunction,SMDPad,CuDef*%
%ADD11R,0.450000X0.600000*%
%TD*%
%TA.AperFunction,SMDPad,CuDef*%
%ADD12Outline5P,-0.850000X1.300000X0.510000X1.300000X0.850000X0.960000X0.850000X-1.300000X-0.850000X-1.300000X90.000000*%
%TD*%
%TA.AperFunction,SMDPad,CuDef*%
%ADD13C,0.200000*%
%TD*%
%TA.AperFunction,ComponentPad*%
%ADD14R,1.700000X1.700000*%
%TD*%
%TA.AperFunction,ComponentPad*%
%ADD15O,1.700000X1.700000*%
%TD*%
%TA.AperFunction,SMDPad,CuDef*%
%ADD16RoundRect,0.135000X0.185000X-0.135000X0.185000X0.135000X-0.185000X0.135000X-0.185000X-0.135000X0*%
%TD*%
%TA.AperFunction,SMDPad,CuDef*%
%ADD17RoundRect,0.140000X0.170000X-0.140000X0.170000X0.140000X-0.170000X0.140000X-0.170000X-0.140000X0*%
%TD*%
%TA.AperFunction,SMDPad,CuDef*%
%ADD18RoundRect,0.243750X-0.456250X0.243750X-0.456250X-0.243750X0.456250X-0.243750X0.456250X0.243750X0*%
%TD*%
%TA.AperFunction,SMDPad,CuDef*%
%ADD19RoundRect,0.140000X0.140000X0.170000X-0.140000X0.170000X-0.140000X-0.170000X0.140000X-0.170000X0*%
%TD*%
%TA.AperFunction,SMDPad,CuDef*%
%ADD20R,0.400000X0.400000*%
%TD*%
%TA.AperFunction,SMDPad,CuDef*%
%ADD21RoundRect,0.140000X-0.140000X-0.170000X0.140000X-0.170000X0.140000X0.170000X-0.140000X0.170000X0*%
%TD*%
%TA.AperFunction,SMDPad,CuDef*%
%ADD22R,0.675000X0.250000*%
%TD*%
%TA.AperFunction,SMDPad,CuDef*%
%ADD23R,0.250000X0.675000*%
%TD*%
%TA.AperFunction,ViaPad*%
%ADD24C,0.600000*%
%TD*%
%TA.AperFunction,ViaPad*%
%ADD25C,0.500000*%
%TD*%
%TA.AperFunction,ViaPad*%
%ADD26C,0.800000*%
%TD*%
%TA.AperFunction,Conductor*%
%ADD27C,0.200000*%
%TD*%
%TA.AperFunction,Conductor*%
%ADD28C,0.165000*%
%TD*%
%TA.AperFunction,Conductor*%
%ADD29C,0.300000*%
%TD*%
%TA.AperFunction,Conductor*%
%ADD30C,0.500000*%
%TD*%
G04 APERTURE END LIST*
D10*
%TO.P,C1,1*%
%TO.N,+ExtV*%
X43510000Y-14000000D03*
%TO.P,C1,2*%
%TO.N,GND*%
X43510000Y-14960000D03*
%TD*%
D11*
%TO.P,U1,1,EN*%
%TO.N,+ExtV*%
X44920000Y-16730000D03*
%TO.P,U1,2,GND*%
%TO.N,GND*%
X45870000Y-16730000D03*
%TO.P,U1,3,NC*%
%TO.N,unconnected-(U1-NC-Pad3)*%
X46820000Y-16730000D03*
%TO.P,U1,4,OUT*%
%TO.N,+3V3R*%
X46820000Y-14030000D03*
%TO.P,U1,5,OUT_S*%
X45870000Y-14030000D03*
%TO.P,U1,6,IN*%
%TO.N,+ExtV*%
X44920000Y-14030000D03*
D12*
%TO.P,U1,7,PAD*%
%TO.N,GND*%
X45870000Y-15380000D03*
%TD*%
D13*
%TO.P,U3,A1,PS*%
%TO.N,+VDD*%
X49399000Y-28601000D03*
%TO.P,U3,A3,SCK*%
%TO.N,/Block Diagram/SCL*%
X49399000Y-28035000D03*
%TO.P,U3,A5,CSB*%
%TO.N,GND*%
X49399000Y-27469000D03*
%TO.P,U3,B2,VDDIO*%
%TO.N,+VDD*%
X49682000Y-28318000D03*
%TO.P,U3,B4,SDI*%
%TO.N,/Block Diagram/SDA*%
X49682000Y-27752000D03*
%TO.P,U3,C1,SDO*%
%TO.N,GND*%
X49965000Y-28601000D03*
%TO.P,U3,C5,GND*%
X49965000Y-27469000D03*
%TO.P,U3,D2,INT*%
%TO.N,/Block Diagram/BMM 150/INT_Mag*%
X50248000Y-28318000D03*
%TO.P,U3,D4,DRDY*%
%TO.N,/Block Diagram/BMM 150/DRDY_Mag*%
X50248000Y-27752000D03*
%TO.P,U3,E1,GND*%
%TO.N,GND*%
X50531000Y-28601000D03*
%TO.P,U3,E3,GND*%
X50531000Y-28035000D03*
%TO.P,U3,E5,VDD*%
%TO.N,+VDD*%
X50531000Y-27469000D03*
%TD*%
D14*
%TO.P,J1,1,Pin_1*%
%TO.N,+3V3R*%
X53085000Y-14000000D03*
D15*
%TO.P,J1,2,Pin_2*%
%TO.N,+VDD*%
X55625000Y-14000000D03*
%TO.P,J1,3,Pin_3*%
%TO.N,+3V3*%
X58165000Y-14000000D03*
%TD*%
D16*
%TO.P,R4,1*%
%TO.N,+VDD*%
X46540000Y-31180000D03*
%TO.P,R4,2*%
%TO.N,/Block Diagram/SDA*%
X46540000Y-30160000D03*
%TD*%
%TO.P,R3,1*%
%TO.N,+VDD*%
X46300000Y-34300000D03*
%TO.P,R3,2*%
%TO.N,/Block Diagram/SCL*%
X46300000Y-33280000D03*
%TD*%
%TO.P,R1,1*%
%TO.N,+3V3R*%
X53085000Y-9830000D03*
%TO.P,R1,2*%
%TO.N,Net-(D1-A)*%
X53085000Y-8810000D03*
%TD*%
D10*
%TO.P,C2,1*%
%TO.N,+3V3R*%
X48230000Y-14000000D03*
%TO.P,C2,2*%
%TO.N,GND*%
X48230000Y-14960000D03*
%TD*%
D17*
%TO.P,C4,1*%
%TO.N,+VDD*%
X47660000Y-21820000D03*
%TO.P,C4,2*%
%TO.N,GND*%
X47660000Y-20860000D03*
%TD*%
D18*
%TO.P,D2,1,K*%
%TO.N,GND*%
X58165000Y-5532500D03*
%TO.P,D2,2,A*%
%TO.N,Net-(D2-A)*%
X58165000Y-7407500D03*
%TD*%
D19*
%TO.P,C5,1*%
%TO.N,+VDD*%
X50480000Y-26500000D03*
%TO.P,C5,2*%
%TO.N,GND*%
X49520000Y-26500000D03*
%TD*%
D17*
%TO.P,C7,1*%
%TO.N,+VDD*%
X52340000Y-35980000D03*
%TO.P,C7,2*%
%TO.N,GND*%
X52340000Y-35020000D03*
%TD*%
D18*
%TO.P,D1,1,K*%
%TO.N,GND*%
X53085000Y-5532500D03*
%TO.P,D1,2,A*%
%TO.N,Net-(D1-A)*%
X53085000Y-7407500D03*
%TD*%
D17*
%TO.P,C8,1*%
%TO.N,+VDD*%
X52350000Y-34080000D03*
%TO.P,C8,2*%
%TO.N,GND*%
X52350000Y-33120000D03*
%TD*%
D20*
%TO.P,U4,1,GND*%
%TO.N,GND*%
X48800000Y-35700000D03*
%TO.P,U4,2,CSB*%
%TO.N,+VDD*%
X48800000Y-34900000D03*
%TO.P,U4,3,SDI*%
%TO.N,/Block Diagram/SDA*%
X48800000Y-34100000D03*
%TO.P,U4,4,SCK*%
%TO.N,/Block Diagram/SCL*%
X48800000Y-33300000D03*
%TO.P,U4,5,SDO*%
%TO.N,GND*%
X51200000Y-33300000D03*
%TO.P,U4,6,VDDIO*%
%TO.N,+VDD*%
X51200000Y-34100000D03*
%TO.P,U4,7,GND*%
%TO.N,GND*%
X51200000Y-34900000D03*
%TO.P,U4,8,VDD*%
%TO.N,+VDD*%
X51200000Y-35700000D03*
%TD*%
D21*
%TO.P,C6,1*%
%TO.N,+VDD*%
X49520000Y-29490000D03*
%TO.P,C6,2*%
%TO.N,GND*%
X50480000Y-29490000D03*
%TD*%
D16*
%TO.P,R2,1*%
%TO.N,+3V3*%
X58165000Y-9830000D03*
%TO.P,R2,2*%
%TO.N,Net-(D2-A)*%
X58165000Y-8810000D03*
%TD*%
D10*
%TO.P,C3,1*%
%TO.N,+VDD*%
X52390000Y-22770000D03*
%TO.P,C3,2*%
%TO.N,GND*%
X52390000Y-23730000D03*
%TD*%
D22*
%TO.P,U2,1,INT2*%
%TO.N,/Block Diagram/BMI 088/INT_ACCEL_2*%
X51262500Y-21500000D03*
%TO.P,U2,2,NC*%
%TO.N,unconnected-(U2-NC-Pad2)*%
X51262500Y-22000000D03*
%TO.P,U2,3,VDD*%
%TO.N,+VDD*%
X51262500Y-22500000D03*
%TO.P,U2,4,GNDA*%
%TO.N,GND*%
X51262500Y-23000000D03*
%TO.P,U2,5,CSB2*%
%TO.N,unconnected-(U2-CSB2-Pad5)*%
X51262500Y-23500000D03*
%TO.P,U2,6,GNDIO*%
%TO.N,GND*%
X51262500Y-24000000D03*
%TO.P,U2,7,PS*%
%TO.N,+VDD*%
X51262500Y-24500000D03*
D23*
%TO.P,U2,8,SCL/SCK*%
%TO.N,/Block Diagram/SCL*%
X50000000Y-25012500D03*
D22*
%TO.P,U2,9,SDA/SDI*%
%TO.N,/Block Diagram/SDA*%
X48737500Y-24500000D03*
%TO.P,U2,10,SDO2*%
%TO.N,GND*%
X48737500Y-24000000D03*
%TO.P,U2,11,VDDIO*%
%TO.N,+VDD*%
X48737500Y-23500000D03*
%TO.P,U2,12,INT3*%
%TO.N,/Block Diagram/BMI 088/INT_GYRO_1*%
X48737500Y-23000000D03*
%TO.P,U2,13,INT4*%
%TO.N,/Block Diagram/BMI 088/INT_GYRO_2*%
X48737500Y-22500000D03*
%TO.P,U2,14,CSB1*%
%TO.N,+VDD*%
X48737500Y-22000000D03*
%TO.P,U2,15,SDO1*%
%TO.N,GND*%
X48737500Y-21500000D03*
D23*
%TO.P,U2,16,INT1*%
%TO.N,/Block Diagram/BMI 088/INT_ACCEL_1*%
X50000000Y-20987500D03*
%TD*%
D14*
%TO.P,J3,1,Pin_1*%
%TO.N,+3V3*%
X58500000Y-20000000D03*
D15*
%TO.P,J3,2,Pin_2*%
%TO.N,unconnected-(J3-Pin_2-Pad2)*%
X58500000Y-22540000D03*
%TO.P,J3,3,Pin_3*%
%TO.N,/Block Diagram/BMI 088/INT_ACCEL_1*%
X58500000Y-25080000D03*
%TO.P,J3,4,Pin_4*%
%TO.N,/Block Diagram/BMI 088/INT_ACCEL_2*%
X58500000Y-27620000D03*
%TO.P,J3,5,Pin_5*%
%TO.N,/Block Diagram/BMM 150/DRDY_Mag*%
X58500000Y-30160000D03*
%TO.P,J3,6,Pin_6*%
%TO.N,/Block Diagram/BMM 150/INT_Mag*%
X58500000Y-32700000D03*
%TO.P,J3,7,Pin_7*%
%TO.N,GND*%
X58500000Y-35240000D03*
%TD*%
D14*
%TO.P,J2,1,Pin_1*%
%TO.N,+ExtV*%
X41500000Y-20000000D03*
D15*
%TO.P,J2,2,Pin_2*%
%TO.N,unconnected-(J2-Pin_2-Pad2)*%
X41500000Y-22540000D03*
%TO.P,J2,3,Pin_3*%
%TO.N,/Block Diagram/BMI 088/INT_GYRO_2*%
X41500000Y-25080000D03*
%TO.P,J2,4,Pin_4*%
%TO.N,/Block Diagram/BMI 088/INT_GYRO_1*%
X41500000Y-27620000D03*
%TO.P,J2,5,Pin_5*%
%TO.N,/Block Diagram/SDA*%
X41500000Y-30160000D03*
%TO.P,J2,6,Pin_6*%
%TO.N,/Block Diagram/SCL*%
X41500000Y-32700000D03*
%TO.P,J2,7,Pin_7*%
%TO.N,GND*%
X41500000Y-35240000D03*
%TD*%
D24*
%TO.N,GND*%
X45870000Y-15380000D03*
X47127500Y-32310000D03*
X45430000Y-36550000D03*
X47220000Y-36550000D03*
X46870000Y-15380000D03*
X50150000Y-34879346D03*
X46820000Y-28914458D03*
X48292500Y-32310000D03*
X54440000Y-15280000D03*
X45530000Y-21820000D03*
X52350000Y-32330000D03*
X46810000Y-26500000D03*
X48740000Y-20860000D03*
X43510000Y-15810000D03*
X46470000Y-23770000D03*
X49990000Y-22420000D03*
X56920000Y-12650000D03*
X45870000Y-17560000D03*
X54670000Y-33770000D03*
X51930000Y-29350000D03*
X51200000Y-32330000D03*
X54460000Y-12650000D03*
X44870000Y-15380000D03*
X48630000Y-26500000D03*
X49990000Y-23580000D03*
X42540000Y-15810000D03*
X44100000Y-31340000D03*
X50150000Y-33279346D03*
X54520000Y-22770000D03*
X48620000Y-28914458D03*
X56910000Y-15280000D03*
X48800000Y-36550000D03*
D25*
%TO.N,/Block Diagram/SCL*%
X47720000Y-26500000D03*
X47710000Y-33280000D03*
X47710000Y-28914458D03*
D26*
%TO.N,+VDD*%
X53460000Y-22770000D03*
X51280000Y-30550000D03*
X46300000Y-35900000D03*
X46720000Y-21820000D03*
X53460000Y-33770000D03*
X45200000Y-31340000D03*
X47580000Y-23770000D03*
%TD*%
D27*
%TO.N,GND*%
X49399000Y-27469000D02*
X49399000Y-26771000D01*
D28*
X49965000Y-27870000D02*
X49965000Y-28601000D01*
D29*
X50140000Y-23000000D02*
X49990000Y-22850000D01*
X45870000Y-16730000D02*
X45870000Y-15380000D01*
D27*
X49965000Y-28601000D02*
X50065000Y-28701000D01*
D29*
X51200000Y-33279346D02*
X51359346Y-33120000D01*
X49990000Y-22850000D02*
X49990000Y-22420000D01*
X49990000Y-21970000D02*
X49990000Y-22420000D01*
X51179346Y-34879346D02*
X51320000Y-35020000D01*
D27*
X49438000Y-27430000D02*
X49926000Y-27430000D01*
D29*
X48737500Y-21500000D02*
X49520000Y-21500000D01*
D30*
X48630000Y-26500000D02*
X49520000Y-26500000D01*
D29*
X49570000Y-24000000D02*
X48737500Y-24000000D01*
X49990000Y-23580000D02*
X49570000Y-24000000D01*
D28*
X50531000Y-28035000D02*
X50130484Y-28035000D01*
D27*
X49926000Y-27430000D02*
X49965000Y-27469000D01*
D30*
X50480000Y-29490000D02*
X51790000Y-29490000D01*
D29*
X48800000Y-35700000D02*
X48800000Y-36540000D01*
X45870000Y-16730000D02*
X45870000Y-17560000D01*
D27*
X50431000Y-28701000D02*
X50531000Y-28601000D01*
D29*
X50150000Y-33279346D02*
X51200000Y-33279346D01*
D27*
X49399000Y-27469000D02*
X49438000Y-27430000D01*
D29*
X50150000Y-34879346D02*
X51179346Y-34879346D01*
X49990000Y-23580000D02*
X50410000Y-24000000D01*
X49520000Y-21500000D02*
X49990000Y-21970000D01*
X51359346Y-33120000D02*
X52350000Y-33120000D01*
D28*
X49965000Y-27869516D02*
X49965000Y-27469000D01*
D29*
X50410000Y-24000000D02*
X51262500Y-24000000D01*
X52120000Y-24000000D02*
X52390000Y-23730000D01*
X51262500Y-23000000D02*
X50140000Y-23000000D01*
X51262500Y-24000000D02*
X52120000Y-24000000D01*
D28*
X50130484Y-28035000D02*
X49965000Y-27869516D01*
D27*
X50065000Y-28701000D02*
X50431000Y-28701000D01*
D29*
X51320000Y-35020000D02*
X52340000Y-35020000D01*
D30*
X51790000Y-29490000D02*
X51930000Y-29350000D01*
D27*
X49399000Y-26771000D02*
X49520000Y-26650000D01*
D30*
%TO.N,+3V3*%
X58500000Y-20000000D02*
X58500000Y-14335000D01*
X58165000Y-9830000D02*
X58165000Y-14000000D01*
%TO.N,Net-(D1-A)*%
X53085000Y-8810000D02*
X53085000Y-7407500D01*
%TO.N,Net-(D2-A)*%
X58165000Y-8810000D02*
X58165000Y-7407500D01*
D28*
%TO.N,/Block Diagram/SCL*%
X48247500Y-25012500D02*
X50000000Y-25012500D01*
X43340000Y-33280000D02*
X42760000Y-32700000D01*
X47710000Y-28914458D02*
X47710000Y-28420000D01*
X47710000Y-28420000D02*
X48095000Y-28035000D01*
X47710000Y-33280000D02*
X43340000Y-33280000D01*
X48095000Y-28035000D02*
X49399000Y-28035000D01*
X47720000Y-25540000D02*
X47720000Y-26500000D01*
X48800000Y-33300000D02*
X48780000Y-33280000D01*
X48780000Y-33280000D02*
X47710000Y-33280000D01*
X42760000Y-32700000D02*
X41500000Y-32700000D01*
X47720000Y-25540000D02*
X48247500Y-25012500D01*
%TO.N,/Block Diagram/BMM 150/INT_Mag*%
X50248000Y-28318000D02*
X53628000Y-28318000D01*
X53628000Y-28318000D02*
X58010000Y-32700000D01*
%TO.N,/Block Diagram/BMM 150/DRDY_Mag*%
X54982000Y-27752000D02*
X57390000Y-30160000D01*
X57390000Y-30160000D02*
X58500000Y-30160000D01*
X50248000Y-27752000D02*
X54982000Y-27752000D01*
%TO.N,/Block Diagram/SDA*%
X49320000Y-31370000D02*
X48110000Y-30160000D01*
X46540000Y-29820000D02*
X46540000Y-30160000D01*
X48110000Y-30160000D02*
X41500000Y-30160000D01*
X49320000Y-33830000D02*
X49320000Y-31370000D01*
X45920000Y-27920000D02*
X46088000Y-27752000D01*
X45920000Y-25890000D02*
X45920000Y-29200000D01*
X45920000Y-28120000D02*
X45920000Y-27920000D01*
X48737500Y-24500000D02*
X47310000Y-24500000D01*
X45920000Y-29200000D02*
X46540000Y-29820000D01*
X47310000Y-24500000D02*
X45920000Y-25890000D01*
X49050000Y-34100000D02*
X49320000Y-33830000D01*
X46088000Y-27752000D02*
X49682000Y-27752000D01*
X48800000Y-34100000D02*
X49050000Y-34100000D01*
%TO.N,/Block Diagram/BMI 088/INT_ACCEL_1*%
X56137500Y-20987500D02*
X56920000Y-21770000D01*
X50000000Y-20987500D02*
X56137500Y-20987500D01*
X56920000Y-21770000D02*
X56920000Y-23500000D01*
X56920000Y-23500000D02*
X58500000Y-25080000D01*
%TO.N,/Block Diagram/BMI 088/INT_GYRO_2*%
X43400000Y-25080000D02*
X41500000Y-25080000D01*
X45980000Y-22500000D02*
X43400000Y-25080000D01*
X48737500Y-22500000D02*
X45980000Y-22500000D01*
%TO.N,/Block Diagram/BMI 088/INT_GYRO_1*%
X48737500Y-23000000D02*
X46150000Y-23000000D01*
X46150000Y-23000000D02*
X41530000Y-27620000D01*
%TO.N,/Block Diagram/BMI 088/INT_ACCEL_2*%
X51262500Y-21500000D02*
X55450000Y-21500000D01*
X55450000Y-21500000D02*
X56380000Y-22430000D01*
X56380000Y-22430000D02*
X56380000Y-25500000D01*
X56380000Y-25500000D02*
X58500000Y-27620000D01*
D30*
%TO.N,+ExtV*%
X41500000Y-16970000D02*
X41500000Y-14710000D01*
X43510000Y-14000000D02*
X44890000Y-14000000D01*
X44890000Y-14000000D02*
X44920000Y-14030000D01*
X41500000Y-14710000D02*
X42210000Y-14000000D01*
X42210000Y-14000000D02*
X43510000Y-14000000D01*
X41500000Y-20000000D02*
X41500000Y-16970000D01*
D29*
X41740000Y-16730000D02*
X41500000Y-16970000D01*
X44920000Y-16730000D02*
X41740000Y-16730000D01*
D30*
%TO.N,+3V3R*%
X48230000Y-14000000D02*
X53085000Y-14000000D01*
X45870000Y-14030000D02*
X46820000Y-14030000D01*
X46820000Y-14030000D02*
X48200000Y-14030000D01*
X53085000Y-9830000D02*
X53085000Y-14000000D01*
D29*
%TO.N,+VDD*%
X49520000Y-30130000D02*
X49520000Y-29380000D01*
D30*
X52790000Y-26500000D02*
X53460000Y-25830000D01*
D29*
X48737500Y-22000000D02*
X47840000Y-22000000D01*
X46520000Y-34900000D02*
X46300000Y-35120000D01*
X53460000Y-24240000D02*
X53460000Y-22770000D01*
D30*
X53460000Y-33770000D02*
X53140000Y-34090000D01*
D29*
X52120000Y-22500000D02*
X51262500Y-22500000D01*
D30*
X53460000Y-33770000D02*
X53460000Y-35570000D01*
D29*
X47580000Y-23770000D02*
X47850000Y-23500000D01*
X53200000Y-24500000D02*
X53460000Y-24240000D01*
X51200000Y-35700000D02*
X52060000Y-35700000D01*
X48800000Y-34900000D02*
X46520000Y-34900000D01*
X49940000Y-30550000D02*
X49520000Y-30130000D01*
D30*
X46300000Y-34300000D02*
X46300000Y-35120000D01*
X52390000Y-22770000D02*
X53460000Y-22770000D01*
D29*
X51280000Y-30550000D02*
X49940000Y-30550000D01*
X51262500Y-24500000D02*
X53200000Y-24500000D01*
X51200000Y-34100000D02*
X51220654Y-34079346D01*
D30*
X53460000Y-25830000D02*
X53460000Y-22770000D01*
D29*
X47840000Y-22000000D02*
X47660000Y-21820000D01*
X52390000Y-22770000D02*
X52120000Y-22500000D01*
D30*
X46300000Y-35900000D02*
X46300000Y-34300000D01*
D29*
X52060000Y-35700000D02*
X52340000Y-35980000D01*
D30*
X50480000Y-26500000D02*
X52790000Y-26500000D01*
D27*
X49682000Y-28318000D02*
X49399000Y-28601000D01*
X50531000Y-26551000D02*
X50531000Y-27469000D01*
D30*
X45360000Y-31180000D02*
X45200000Y-31340000D01*
X46540000Y-31180000D02*
X45360000Y-31180000D01*
D27*
X49399000Y-28601000D02*
X49399000Y-29369000D01*
D29*
X51220654Y-34079346D02*
X52349346Y-34079346D01*
D30*
X53460000Y-35570000D02*
X53050000Y-35980000D01*
D29*
X47850000Y-23500000D02*
X48737500Y-23500000D01*
X46720000Y-21820000D02*
X47660000Y-21820000D01*
D30*
X53050000Y-35980000D02*
X52340000Y-35980000D01*
X53140000Y-34090000D02*
X52360000Y-34090000D01*
%TD*%
%TA.AperFunction,Conductor*%
%TO.N,GND*%
G36*
X49622794Y-20477234D02*
G01*
X49577415Y-20580006D01*
X49577415Y-20580008D01*
X49574500Y-20605131D01*
X49574500Y-21369856D01*
X49574502Y-21369882D01*
X49577413Y-21394987D01*
X49577415Y-21394991D01*
X49622793Y-21497764D01*
X49622794Y-21497765D01*
X49702235Y-21577206D01*
X49805009Y-21622585D01*
X49830135Y-21625500D01*
X50169864Y-21625499D01*
X50169879Y-21625497D01*
X50169882Y-21625497D01*
X50194987Y-21622586D01*
X50194988Y-21622585D01*
X50194991Y-21622585D01*
X50297765Y-21577206D01*
X50377206Y-21497765D01*
X50387066Y-21475433D01*
X50432150Y-21422058D01*
X50498936Y-21401529D01*
X50566218Y-21420366D01*
X50612636Y-21472589D01*
X50624500Y-21525518D01*
X50624500Y-21669855D01*
X50624502Y-21669880D01*
X50627414Y-21694989D01*
X50627415Y-21694995D01*
X50629590Y-21699920D01*
X50638658Y-21769199D01*
X50629592Y-21800076D01*
X50627416Y-21805003D01*
X50627415Y-21805009D01*
X50624500Y-21830131D01*
X50624500Y-22169856D01*
X50624502Y-22169880D01*
X50627414Y-22194989D01*
X50627415Y-22194995D01*
X50629590Y-22199920D01*
X50638658Y-22269199D01*
X50629592Y-22300076D01*
X50627416Y-22305003D01*
X50627415Y-22305009D01*
X50624500Y-22330131D01*
X50624500Y-22669856D01*
X50624502Y-22669882D01*
X50627413Y-22694987D01*
X50627415Y-22694991D01*
X50672793Y-22797764D01*
X50672794Y-22797765D01*
X50752235Y-22877206D01*
X50773434Y-22886566D01*
X50826810Y-22931652D01*
X50847337Y-22998438D01*
X50828499Y-23065720D01*
X50776275Y-23112137D01*
X50773450Y-23113426D01*
X50765946Y-23116740D01*
X50752234Y-23122794D01*
X50672794Y-23202234D01*
X50627415Y-23305006D01*
X50627415Y-23305008D01*
X50624500Y-23330131D01*
X50624500Y-23669856D01*
X50624502Y-23669882D01*
X50627413Y-23694987D01*
X50627415Y-23694991D01*
X50672793Y-23797764D01*
X50672794Y-23797765D01*
X50752235Y-23877206D01*
X50773434Y-23886566D01*
X50826810Y-23931652D01*
X50847337Y-23998438D01*
X50828499Y-24065720D01*
X50776275Y-24112137D01*
X50773450Y-24113426D01*
X50765946Y-24116740D01*
X50752234Y-24122794D01*
X50672794Y-24202234D01*
X50627415Y-24305006D01*
X50627415Y-24305008D01*
X50624500Y-24330131D01*
X50624500Y-24474480D01*
X50604815Y-24541519D01*
X50552011Y-24587274D01*
X50482853Y-24597218D01*
X50419297Y-24568193D01*
X50387067Y-24524569D01*
X50377206Y-24502235D01*
X50297765Y-24422794D01*
X50297763Y-24422793D01*
X50194992Y-24377415D01*
X50169865Y-24374500D01*
X49830143Y-24374500D01*
X49830117Y-24374502D01*
X49805012Y-24377413D01*
X49805008Y-24377415D01*
X49702235Y-24422793D01*
X49622793Y-24502235D01*
X49612932Y-24524569D01*
X49567845Y-24577944D01*
X49501059Y-24598470D01*
X49433777Y-24579630D01*
X49387361Y-24527406D01*
X49375499Y-24474480D01*
X49375499Y-24330143D01*
X49375499Y-24330136D01*
X49375033Y-24326114D01*
X49372586Y-24305012D01*
X49372585Y-24305010D01*
X49372585Y-24305009D01*
X49327206Y-24202235D01*
X49247765Y-24122794D01*
X49226563Y-24113432D01*
X49173188Y-24068346D01*
X49152662Y-24001559D01*
X49171501Y-23934277D01*
X49223725Y-23887862D01*
X49226471Y-23886607D01*
X49247765Y-23877206D01*
X49327206Y-23797765D01*
X49372585Y-23694991D01*
X49375500Y-23669865D01*
X49375499Y-23330136D01*
X49374382Y-23320500D01*
X49372586Y-23305013D01*
X49372585Y-23305011D01*
X49372585Y-23305009D01*
X49370411Y-23300086D01*
X49361339Y-23230812D01*
X49370412Y-23199911D01*
X49372585Y-23194991D01*
X49375500Y-23169865D01*
X49375499Y-22830136D01*
X49375497Y-22830117D01*
X49372586Y-22805013D01*
X49372585Y-22805011D01*
X49372585Y-22805009D01*
X49370411Y-22800086D01*
X49361339Y-22730812D01*
X49370412Y-22699911D01*
X49372585Y-22694991D01*
X49375500Y-22669865D01*
X49375499Y-22330136D01*
X49375424Y-22329491D01*
X49372586Y-22305013D01*
X49372585Y-22305011D01*
X49372585Y-22305009D01*
X49370411Y-22300086D01*
X49361339Y-22230812D01*
X49370412Y-22199911D01*
X49372585Y-22194991D01*
X49375500Y-22169865D01*
X49375499Y-21830136D01*
X49375497Y-21830117D01*
X49372586Y-21805012D01*
X49372585Y-21805010D01*
X49372585Y-21805009D01*
X49327206Y-21702235D01*
X49247765Y-21622794D01*
X49247289Y-21622584D01*
X49144992Y-21577415D01*
X49119868Y-21574500D01*
X49119865Y-21574500D01*
X48906436Y-21574500D01*
X48874343Y-21570275D01*
X48838292Y-21560615D01*
X48796809Y-21549500D01*
X48796808Y-21549500D01*
X48399614Y-21549500D01*
X48332575Y-21529815D01*
X48321873Y-21522104D01*
X48200000Y-21424027D01*
X48200000Y-20430000D01*
X49670029Y-20430000D01*
X49622794Y-20477234D01*
G37*
%TD.AperFunction*%
%TD*%
%TA.AperFunction,Conductor*%
%TO.N,GND*%
G36*
X42887216Y-14753330D02*
G01*
X42894846Y-14754990D01*
X42894847Y-14754990D01*
X42894851Y-14754991D01*
X43296878Y-14783707D01*
X43374651Y-14783264D01*
X43378234Y-14782967D01*
X43378240Y-14782965D01*
X43378248Y-14782965D01*
X43382252Y-14782368D01*
X43382302Y-14782708D01*
X43402901Y-14780500D01*
X43673906Y-14780500D01*
X43682762Y-14780816D01*
X43723121Y-14783707D01*
X44125149Y-14754991D01*
X44160354Y-14751208D01*
X44173594Y-14750500D01*
X44380278Y-14750500D01*
X44447317Y-14770185D01*
X44451965Y-14773412D01*
X44452670Y-14773797D01*
X44527155Y-14801577D01*
X44587517Y-14824091D01*
X44647127Y-14830500D01*
X45192872Y-14830499D01*
X45252483Y-14824091D01*
X45351669Y-14787096D01*
X45421358Y-14782113D01*
X45438319Y-14787092D01*
X45528371Y-14820679D01*
X45537511Y-14824089D01*
X45537517Y-14824091D01*
X45597127Y-14830500D01*
X46142872Y-14830499D01*
X46202483Y-14824091D01*
X46298396Y-14788318D01*
X46341729Y-14780500D01*
X46348271Y-14780500D01*
X46391604Y-14788318D01*
X46487517Y-14824091D01*
X46547127Y-14830500D01*
X47092872Y-14830499D01*
X47152483Y-14824091D01*
X47248396Y-14788318D01*
X47291729Y-14780500D01*
X47608055Y-14780500D01*
X47625701Y-14781762D01*
X47651700Y-14785500D01*
X47651703Y-14785500D01*
X48226118Y-14785500D01*
X48226752Y-14785495D01*
X48232909Y-14785454D01*
X48233206Y-14785450D01*
X48257060Y-14783707D01*
X48296439Y-14780830D01*
X48305476Y-14780500D01*
X48393906Y-14780500D01*
X48402762Y-14780816D01*
X48443121Y-14783707D01*
X48845149Y-14754991D01*
X48880354Y-14751208D01*
X48893594Y-14750500D01*
X49060000Y-14750500D01*
X49060000Y-15760000D01*
X47740000Y-15760000D01*
X47740000Y-16330000D01*
X47539895Y-16330000D01*
X47539091Y-16322516D01*
X47488797Y-16187671D01*
X47488793Y-16187664D01*
X47402547Y-16072455D01*
X47402544Y-16072452D01*
X47287335Y-15986206D01*
X47287328Y-15986202D01*
X47152486Y-15935910D01*
X47152485Y-15935909D01*
X47152483Y-15935909D01*
X47092873Y-15929500D01*
X47092863Y-15929500D01*
X46547129Y-15929500D01*
X46547123Y-15929501D01*
X46487516Y-15935908D01*
X46352671Y-15986202D01*
X46352664Y-15986206D01*
X46237455Y-16072452D01*
X46237452Y-16072455D01*
X46151206Y-16187664D01*
X46151202Y-16187671D01*
X46100908Y-16322517D01*
X46100104Y-16330000D01*
X45639895Y-16330000D01*
X45639091Y-16322516D01*
X45588797Y-16187671D01*
X45588793Y-16187664D01*
X45502547Y-16072455D01*
X45502544Y-16072452D01*
X45387335Y-15986206D01*
X45387328Y-15986202D01*
X45252486Y-15935910D01*
X45252485Y-15935909D01*
X45252483Y-15935909D01*
X45192873Y-15929500D01*
X45192863Y-15929500D01*
X44647129Y-15929500D01*
X44647123Y-15929501D01*
X44587516Y-15935908D01*
X44452671Y-15986202D01*
X44452668Y-15986204D01*
X44361080Y-16054767D01*
X44295615Y-16079184D01*
X44286769Y-16079500D01*
X42374500Y-16079500D01*
X42307461Y-16059815D01*
X42261706Y-16007011D01*
X42250500Y-15955500D01*
X42250500Y-15072229D01*
X42270185Y-15005190D01*
X42286819Y-14984548D01*
X42484548Y-14786819D01*
X42545871Y-14753334D01*
X42572229Y-14750500D01*
X42860870Y-14750500D01*
X42887216Y-14753330D01*
G37*
%TD.AperFunction*%
%TD*%
%TA.AperFunction,Conductor*%
%TO.N,GND*%
G36*
X50031608Y-28637298D02*
G01*
X50050278Y-28646095D01*
X50051473Y-28646785D01*
X50056607Y-28650292D01*
X50061153Y-28652717D01*
X50061155Y-28652719D01*
X50067202Y-28655945D01*
X50070756Y-28657918D01*
X50100167Y-28674899D01*
X50100172Y-28674900D01*
X50105991Y-28677311D01*
X50116904Y-28682467D01*
X50160207Y-28705573D01*
X50168747Y-28708265D01*
X50175484Y-28710304D01*
X50287222Y-28721235D01*
X50463950Y-28705771D01*
X50465992Y-28705223D01*
X50498081Y-28701000D01*
X50960000Y-28701000D01*
X50960000Y-29900000D01*
X50049921Y-29900000D01*
X50077371Y-29815718D01*
X50084173Y-29784337D01*
X50088309Y-29769683D01*
X50097710Y-29742819D01*
X50100500Y-29713066D01*
X50100500Y-29266934D01*
X50097710Y-29237181D01*
X50097708Y-29237177D01*
X50097708Y-29237173D01*
X50053852Y-29111844D01*
X50053852Y-29111843D01*
X49974999Y-29005001D01*
X49974997Y-29004999D01*
X49974996Y-29004998D01*
X49969893Y-28999894D01*
X49960544Y-28989420D01*
X49859501Y-28862422D01*
X49833165Y-28797706D01*
X49845999Y-28729025D01*
X49868852Y-28697540D01*
X49900593Y-28665798D01*
X49961916Y-28632314D01*
X50031608Y-28637298D01*
G37*
%TD.AperFunction*%
%TA.AperFunction,Conductor*%
G36*
X49946147Y-26121844D02*
G01*
X49902291Y-26247173D01*
X49902289Y-26247185D01*
X49899500Y-26276929D01*
X49899500Y-26723070D01*
X49902289Y-26752814D01*
X49902291Y-26752826D01*
X49946145Y-26878151D01*
X49946146Y-26878153D01*
X49946147Y-26878154D01*
X49946148Y-26878157D01*
X49952725Y-26887070D01*
X49958843Y-26897326D01*
X49959350Y-26897023D01*
X49962290Y-26901934D01*
X49962292Y-26901937D01*
X50112884Y-27153411D01*
X50130500Y-27217116D01*
X50130500Y-27305996D01*
X50110815Y-27373035D01*
X50068500Y-27413383D01*
X50027000Y-27437343D01*
X49959100Y-27453816D01*
X49903000Y-27437343D01*
X49878533Y-27423217D01*
X49873439Y-27419737D01*
X49868860Y-27417293D01*
X49862877Y-27414100D01*
X49859287Y-27412106D01*
X49841674Y-27401938D01*
X49829833Y-27395101D01*
X49829832Y-27395100D01*
X49829829Y-27395099D01*
X49824004Y-27392686D01*
X49813079Y-27387523D01*
X49769812Y-27364432D01*
X49761231Y-27361726D01*
X49754523Y-27359696D01*
X49754512Y-27359694D01*
X49642775Y-27348763D01*
X49466053Y-27364227D01*
X49466038Y-27364230D01*
X49464013Y-27364773D01*
X49431914Y-27369000D01*
X49053251Y-27369000D01*
X49060000Y-26080000D01*
X49977030Y-26080000D01*
X49946147Y-26121844D01*
G37*
%TD.AperFunction*%
%TD*%
%TA.AperFunction,Conductor*%
%TO.N,GND*%
G36*
X52987739Y-33252113D02*
G01*
X52974093Y-33262302D01*
X52962393Y-33269598D01*
X52962385Y-33269604D01*
X52739426Y-33474147D01*
X52676719Y-33504961D01*
X52644335Y-33506260D01*
X52611921Y-33503303D01*
X52609267Y-33502894D01*
X52588339Y-33500932D01*
X52573066Y-33499500D01*
X52573061Y-33499500D01*
X52571121Y-33499500D01*
X52568627Y-33499475D01*
X52527088Y-33498639D01*
X52527061Y-33498639D01*
X52523792Y-33498805D01*
X52521934Y-33498977D01*
X52510561Y-33499500D01*
X52126930Y-33499500D01*
X52097181Y-33502289D01*
X52097180Y-33502289D01*
X52060406Y-33515157D01*
X52035339Y-33521093D01*
X52024767Y-33522458D01*
X52024759Y-33522460D01*
X51799910Y-33595291D01*
X51786916Y-33599500D01*
X51714945Y-33622812D01*
X51676735Y-33628846D01*
X51662498Y-33628846D01*
X51640063Y-33626162D01*
X51640022Y-33626446D01*
X51450145Y-33598586D01*
X51450144Y-33598585D01*
X51450138Y-33598585D01*
X51434799Y-33596894D01*
X51428359Y-33596184D01*
X51428356Y-33596183D01*
X51428349Y-33596183D01*
X51427825Y-33596144D01*
X51426682Y-33596059D01*
X51397840Y-33595291D01*
X51397831Y-33595291D01*
X51390140Y-33596894D01*
X51364853Y-33599500D01*
X50955143Y-33599500D01*
X50955117Y-33599502D01*
X50930012Y-33602413D01*
X50930008Y-33602415D01*
X50827235Y-33647793D01*
X50747794Y-33727234D01*
X50702415Y-33830006D01*
X50702415Y-33830008D01*
X50699500Y-33855131D01*
X50699500Y-34344856D01*
X50699502Y-34344882D01*
X50702413Y-34369987D01*
X50702415Y-34369991D01*
X50747793Y-34472764D01*
X50747794Y-34472765D01*
X50827235Y-34552206D01*
X50930009Y-34597585D01*
X50955135Y-34600500D01*
X51444864Y-34600499D01*
X51444879Y-34600497D01*
X51444882Y-34600497D01*
X51469986Y-34597586D01*
X51469987Y-34597585D01*
X51469991Y-34597585D01*
X51532793Y-34569854D01*
X51546915Y-34564620D01*
X51642143Y-34535783D01*
X51712009Y-34535194D01*
X51716658Y-34536616D01*
X52023803Y-34637200D01*
X52055616Y-34644138D01*
X52070131Y-34648244D01*
X52097181Y-34657710D01*
X52113710Y-34659260D01*
X52126930Y-34660500D01*
X52126934Y-34660500D01*
X52501620Y-34660500D01*
X52518580Y-34661665D01*
X52520936Y-34661990D01*
X52541459Y-34664824D01*
X52779604Y-34653482D01*
X52847501Y-34669956D01*
X52895716Y-34720523D01*
X52909500Y-34777342D01*
X52909500Y-35289083D01*
X52889815Y-35356122D01*
X52837011Y-35401877D01*
X52776666Y-35412768D01*
X52538859Y-35395782D01*
X52491829Y-35396053D01*
X52491824Y-35396053D01*
X52485516Y-35396577D01*
X52485456Y-35395857D01*
X52444652Y-35393196D01*
X52404840Y-35383084D01*
X52347687Y-35350584D01*
X52347603Y-35350500D01*
X52336614Y-35339511D01*
X52302472Y-35319799D01*
X52233892Y-35280203D01*
X52233891Y-35280202D01*
X52228773Y-35278830D01*
X52209673Y-35273713D01*
X52209670Y-35273712D01*
X52160320Y-35260489D01*
X52119309Y-35249500D01*
X52119308Y-35249500D01*
X51859944Y-35249500D01*
X51853689Y-35249342D01*
X51852886Y-35249301D01*
X51825637Y-35247924D01*
X51817642Y-35248556D01*
X51817614Y-35248207D01*
X51805231Y-35249500D01*
X51672879Y-35249500D01*
X51642805Y-35245798D01*
X51479415Y-35204951D01*
X51476942Y-35204305D01*
X51469992Y-35202414D01*
X51462155Y-35201505D01*
X51453746Y-35200236D01*
X51447506Y-35199073D01*
X51444041Y-35198428D01*
X51444037Y-35198427D01*
X51444029Y-35198426D01*
X51441783Y-35198147D01*
X51441238Y-35198080D01*
X51441236Y-35198079D01*
X51441230Y-35198079D01*
X51397325Y-35195816D01*
X51397320Y-35195816D01*
X51392143Y-35196895D01*
X51366860Y-35199500D01*
X50955143Y-35199500D01*
X50955117Y-35199502D01*
X50930012Y-35202413D01*
X50930008Y-35202415D01*
X50827235Y-35247793D01*
X50747794Y-35327234D01*
X50702415Y-35430006D01*
X50702415Y-35430008D01*
X50699500Y-35455131D01*
X50699500Y-35944856D01*
X50699502Y-35944882D01*
X50702413Y-35969987D01*
X50702415Y-35969991D01*
X50747793Y-36072764D01*
X50747794Y-36072765D01*
X50827235Y-36152206D01*
X50930009Y-36197585D01*
X50955135Y-36200500D01*
X51352459Y-36200499D01*
X51366445Y-36201453D01*
X51368422Y-36201527D01*
X51368434Y-36201529D01*
X51381792Y-36200723D01*
X51389252Y-36200499D01*
X51444856Y-36200499D01*
X51444864Y-36200499D01*
X51469991Y-36197585D01*
X51469995Y-36197582D01*
X51476941Y-36195693D01*
X51479431Y-36195043D01*
X51480498Y-36194776D01*
X51480502Y-36194776D01*
X51583529Y-36169019D01*
X51653341Y-36171857D01*
X51710537Y-36211987D01*
X51712805Y-36214920D01*
X51745763Y-36258867D01*
X51763601Y-36292305D01*
X51776146Y-36328154D01*
X51776147Y-36328155D01*
X51776148Y-36328157D01*
X51836551Y-36410000D01*
X48350000Y-36410000D01*
X48350000Y-35353315D01*
X48357202Y-35354202D01*
X48430946Y-35372638D01*
X48519497Y-35394776D01*
X48519500Y-35394776D01*
X48520550Y-35395039D01*
X48523022Y-35395684D01*
X48530004Y-35397583D01*
X48530009Y-35397585D01*
X48537845Y-35398493D01*
X48546244Y-35399762D01*
X48555925Y-35401567D01*
X48555948Y-35401569D01*
X48555963Y-35401572D01*
X48558724Y-35401915D01*
X48558727Y-35401915D01*
X48558734Y-35401916D01*
X48602698Y-35404182D01*
X48605171Y-35403666D01*
X48607857Y-35403107D01*
X48633154Y-35400499D01*
X49044856Y-35400499D01*
X49044864Y-35400499D01*
X49044879Y-35400497D01*
X49044882Y-35400497D01*
X49069987Y-35397586D01*
X49069988Y-35397585D01*
X49069991Y-35397585D01*
X49172765Y-35352206D01*
X49252206Y-35272765D01*
X49297585Y-35169991D01*
X49300500Y-35144865D01*
X49300499Y-34655136D01*
X49299590Y-34647297D01*
X49297586Y-34630012D01*
X49297585Y-34630011D01*
X49297585Y-34630009D01*
X49262294Y-34550083D01*
X49253223Y-34480807D01*
X49262290Y-34449925D01*
X49269193Y-34434290D01*
X49272132Y-34430000D01*
X49540000Y-34430000D01*
X49540000Y-34151643D01*
X49626477Y-34065167D01*
X49676900Y-33977832D01*
X49703000Y-33880422D01*
X49703000Y-33779577D01*
X49703000Y-32330000D01*
X52990000Y-32330000D01*
X52987739Y-33252113D01*
G37*
%TD.AperFunction*%
%TD*%
%TA.AperFunction,Conductor*%
%TO.N,GND*%
G36*
X44357135Y-30762685D02*
G01*
X44402890Y-30815489D01*
X44412834Y-30884647D01*
X44397484Y-30928997D01*
X44372821Y-30971716D01*
X44372820Y-30971718D01*
X44372818Y-30971722D01*
X44336917Y-31082216D01*
X44314326Y-31151744D01*
X44294540Y-31340000D01*
X44314326Y-31528256D01*
X44314327Y-31528259D01*
X44372818Y-31708277D01*
X44372821Y-31708284D01*
X44467467Y-31872216D01*
X44594129Y-32012888D01*
X44747265Y-32124148D01*
X44747270Y-32124151D01*
X44920192Y-32201142D01*
X44920195Y-32201143D01*
X44920197Y-32201144D01*
X45105354Y-32240500D01*
X45105355Y-32240500D01*
X45294644Y-32240500D01*
X45294646Y-32240500D01*
X45479803Y-32201144D01*
X45532470Y-32177694D01*
X45547941Y-32172005D01*
X45574149Y-32164306D01*
X46042104Y-31950500D01*
X46061332Y-31941715D01*
X46112863Y-31930500D01*
X46178067Y-31930500D01*
X46212661Y-31935423D01*
X46254796Y-31947665D01*
X46290819Y-31950500D01*
X46789180Y-31950499D01*
X46825204Y-31947665D01*
X46979393Y-31902869D01*
X47117598Y-31821135D01*
X47231135Y-31707598D01*
X47312869Y-31569393D01*
X47357665Y-31415204D01*
X47360500Y-31379181D01*
X47360499Y-30980820D01*
X47357665Y-30944796D01*
X47345114Y-30901595D01*
X47345313Y-30831726D01*
X47383255Y-30773056D01*
X47446893Y-30744212D01*
X47464190Y-30743000D01*
X47817151Y-30743000D01*
X47884190Y-30762685D01*
X47904832Y-30779319D01*
X48700681Y-31575168D01*
X48734166Y-31636491D01*
X48737000Y-31662849D01*
X48737000Y-32475500D01*
X48717315Y-32542539D01*
X48664511Y-32588294D01*
X48613000Y-32599500D01*
X48587573Y-32599500D01*
X48577427Y-32599084D01*
X48570741Y-32598535D01*
X48570740Y-32598535D01*
X48561804Y-32599079D01*
X48561790Y-32599080D01*
X48560159Y-32599180D01*
X48560155Y-32599128D01*
X48554409Y-32599378D01*
X48552131Y-32599500D01*
X48492518Y-32605908D01*
X48411654Y-32636068D01*
X48406248Y-32637943D01*
X48371013Y-32649261D01*
X48371008Y-32649263D01*
X48337932Y-32665388D01*
X48269046Y-32677069D01*
X48240855Y-32670327D01*
X47990405Y-32578362D01*
X47949577Y-32565307D01*
X47949573Y-32565306D01*
X47947543Y-32565053D01*
X47921976Y-32559053D01*
X47878061Y-32543687D01*
X47878054Y-32543685D01*
X47710003Y-32524751D01*
X47709997Y-32524751D01*
X47541941Y-32543686D01*
X47470722Y-32568606D01*
X47455515Y-32572862D01*
X47429584Y-32578365D01*
X47429577Y-32578368D01*
X47127199Y-32689401D01*
X47084457Y-32697000D01*
X46987096Y-32697000D01*
X46920057Y-32677315D01*
X46899415Y-32660681D01*
X46877603Y-32638869D01*
X46877595Y-32638863D01*
X46739393Y-32557131D01*
X46739388Y-32557129D01*
X46585208Y-32512335D01*
X46585202Y-32512334D01*
X46549181Y-32509500D01*
X46050830Y-32509500D01*
X46050808Y-32509501D01*
X46014794Y-32512335D01*
X45860611Y-32557129D01*
X45860606Y-32557131D01*
X45722404Y-32638863D01*
X45722396Y-32638869D01*
X45700585Y-32660681D01*
X45639262Y-32694166D01*
X45612904Y-32697000D01*
X43632849Y-32697000D01*
X43565810Y-32677315D01*
X43545168Y-32660681D01*
X43466750Y-32582263D01*
X43462453Y-32577745D01*
X43451206Y-32565306D01*
X43442488Y-32555663D01*
X43433127Y-32547891D01*
X43424654Y-32540167D01*
X43117973Y-32233486D01*
X43117971Y-32233484D01*
X43011482Y-32172002D01*
X42985029Y-32156729D01*
X42985027Y-32156728D01*
X42977218Y-32154636D01*
X42930109Y-32130268D01*
X42432120Y-31716821D01*
X42413499Y-31702286D01*
X42402116Y-31692220D01*
X42371402Y-31661506D01*
X42371401Y-31661505D01*
X42187159Y-31532497D01*
X42143536Y-31477921D01*
X42136343Y-31408422D01*
X42167865Y-31346068D01*
X42201834Y-31320518D01*
X43304915Y-30756590D01*
X43361359Y-30743000D01*
X44290096Y-30743000D01*
X44357135Y-30762685D01*
G37*
%TD.AperFunction*%
%TA.AperFunction,Conductor*%
G36*
X48741539Y-28637685D02*
G01*
X48787294Y-28690489D01*
X48798500Y-28742000D01*
X48798500Y-28820408D01*
X48797294Y-28837658D01*
X48746238Y-29201097D01*
X48742525Y-29218425D01*
X48742356Y-29219004D01*
X48742356Y-29219008D01*
X48740910Y-29237374D01*
X48740717Y-29239191D01*
X48740750Y-29239195D01*
X48740470Y-29242201D01*
X48740243Y-29245857D01*
X48739500Y-29255312D01*
X48739500Y-29260873D01*
X48739372Y-29266507D01*
X48736167Y-29336979D01*
X48736167Y-29336981D01*
X48736379Y-29341338D01*
X48736652Y-29346436D01*
X48736989Y-29348084D01*
X48739500Y-29372911D01*
X48739500Y-29665651D01*
X48719815Y-29732690D01*
X48667011Y-29778445D01*
X48597853Y-29788389D01*
X48534297Y-29759364D01*
X48527819Y-29753332D01*
X48467973Y-29693486D01*
X48467971Y-29693484D01*
X48391216Y-29649169D01*
X48335029Y-29616729D01*
X48332747Y-29616118D01*
X48331039Y-29615077D01*
X48327526Y-29613622D01*
X48327752Y-29613073D01*
X48273087Y-29579753D01*
X48242559Y-29516905D01*
X48250854Y-29447530D01*
X48277157Y-29408667D01*
X48300477Y-29385348D01*
X48328116Y-29341361D01*
X48390452Y-29242155D01*
X48390454Y-29242152D01*
X48390454Y-29242150D01*
X48390456Y-29242148D01*
X48446313Y-29082517D01*
X48446313Y-29082516D01*
X48446314Y-29082514D01*
X48465249Y-28914460D01*
X48465249Y-28914455D01*
X48447382Y-28755884D01*
X48459436Y-28687062D01*
X48506785Y-28635682D01*
X48570602Y-28618000D01*
X48674500Y-28618000D01*
X48741539Y-28637685D01*
G37*
%TD.AperFunction*%
%TA.AperFunction,Conductor*%
G36*
X46623517Y-23602685D02*
G01*
X46669272Y-23655489D01*
X46679799Y-23719960D01*
X46675002Y-23765604D01*
X46674540Y-23770000D01*
X46694326Y-23958256D01*
X46694327Y-23958259D01*
X46752491Y-24137271D01*
X46754486Y-24207112D01*
X46722241Y-24263270D01*
X45562029Y-25423484D01*
X45453486Y-25532026D01*
X45453484Y-25532029D01*
X45376730Y-25664968D01*
X45349711Y-25765809D01*
X45337000Y-25813247D01*
X45337000Y-29123247D01*
X45337000Y-29276753D01*
X45375625Y-29420909D01*
X45373963Y-29490757D01*
X45334800Y-29548619D01*
X45270572Y-29576123D01*
X45255851Y-29577000D01*
X43361361Y-29577000D01*
X43304917Y-29563409D01*
X42201842Y-28999483D01*
X42151111Y-28951440D01*
X42134407Y-28883596D01*
X42157034Y-28817491D01*
X42187159Y-28787502D01*
X42371401Y-28658495D01*
X42538495Y-28491401D01*
X42674035Y-28297830D01*
X42773903Y-28083663D01*
X42780174Y-28060254D01*
X42782392Y-28052902D01*
X42784648Y-28046183D01*
X43208155Y-26784675D01*
X43238023Y-26736462D01*
X46355167Y-23619319D01*
X46416490Y-23585834D01*
X46442848Y-23583000D01*
X46556478Y-23583000D01*
X46623517Y-23602685D01*
G37*
%TD.AperFunction*%
%TA.AperFunction,Conductor*%
G36*
X47009769Y-28354685D02*
G01*
X47055524Y-28407489D01*
X47065468Y-28476647D01*
X47058531Y-28503339D01*
X47014623Y-28618000D01*
X47011012Y-28627429D01*
X46996445Y-28671409D01*
X46996443Y-28671417D01*
X46996007Y-28674722D01*
X46990116Y-28699444D01*
X46973686Y-28746399D01*
X46954751Y-28914455D01*
X46954751Y-28914460D01*
X46973686Y-29082516D01*
X46979548Y-29099270D01*
X46983108Y-29169049D01*
X46948377Y-29229675D01*
X46886383Y-29261900D01*
X46816807Y-29255493D01*
X46781281Y-29233915D01*
X46777724Y-29230831D01*
X46777721Y-29230829D01*
X46777391Y-29230543D01*
X46762045Y-29217558D01*
X46539319Y-28994832D01*
X46505834Y-28933509D01*
X46503000Y-28907151D01*
X46503000Y-28459000D01*
X46522685Y-28391961D01*
X46575489Y-28346206D01*
X46627000Y-28335000D01*
X46942730Y-28335000D01*
X47009769Y-28354685D01*
G37*
%TD.AperFunction*%
%TA.AperFunction,Conductor*%
G36*
X55224190Y-22102685D02*
G01*
X55244832Y-22119319D01*
X55760681Y-22635167D01*
X55794166Y-22696490D01*
X55797000Y-22722848D01*
X55797000Y-25423247D01*
X55797000Y-25576753D01*
X55807298Y-25615185D01*
X55836730Y-25725031D01*
X55860274Y-25765809D01*
X55913484Y-25857971D01*
X55913486Y-25857973D01*
X56771574Y-26716061D01*
X56801876Y-26765583D01*
X57215081Y-28043175D01*
X57216872Y-28049238D01*
X57225119Y-28080013D01*
X57226097Y-28083663D01*
X57230966Y-28094105D01*
X57235780Y-28106003D01*
X57236382Y-28107745D01*
X57236695Y-28108596D01*
X57259665Y-28159271D01*
X57267191Y-28175875D01*
X57270596Y-28181639D01*
X57270249Y-28181843D01*
X57277656Y-28194232D01*
X57325965Y-28297829D01*
X57325967Y-28297834D01*
X57359838Y-28346206D01*
X57461505Y-28491401D01*
X57628599Y-28658495D01*
X57754139Y-28746399D01*
X57762101Y-28751974D01*
X57805725Y-28806551D01*
X57812918Y-28876050D01*
X57781396Y-28938404D01*
X57723398Y-28973236D01*
X57245320Y-29102737D01*
X57175465Y-29101265D01*
X57125218Y-29070731D01*
X55339973Y-27285486D01*
X55339971Y-27285484D01*
X55215992Y-27213904D01*
X55207031Y-27208730D01*
X55132891Y-27188865D01*
X55058753Y-27169000D01*
X55058752Y-27169000D01*
X53481730Y-27169000D01*
X53414691Y-27149315D01*
X53368936Y-27096511D01*
X53358992Y-27027353D01*
X53388017Y-26963797D01*
X53394049Y-26957319D01*
X54042948Y-26308419D01*
X54042949Y-26308418D01*
X54042948Y-26308418D01*
X54042951Y-26308416D01*
X54051477Y-26295656D01*
X54125084Y-26185495D01*
X54181658Y-26048913D01*
X54210500Y-25903918D01*
X54210500Y-23655173D01*
X54212624Y-23632322D01*
X54290340Y-23217830D01*
X54328443Y-23014609D01*
X54332388Y-22999144D01*
X54337781Y-22982546D01*
X54345674Y-22958256D01*
X54353889Y-22880080D01*
X54354415Y-22875802D01*
X54355605Y-22867331D01*
X54360688Y-22831143D01*
X54360690Y-22831116D01*
X54360693Y-22831097D01*
X54360887Y-22829034D01*
X54360887Y-22829026D01*
X54360888Y-22829016D01*
X54360844Y-22821097D01*
X54361521Y-22807468D01*
X54365460Y-22770000D01*
X54345674Y-22581744D01*
X54287179Y-22401716D01*
X54244119Y-22327133D01*
X54210556Y-22268999D01*
X54194083Y-22201099D01*
X54216936Y-22135072D01*
X54271857Y-22091882D01*
X54317943Y-22083000D01*
X55157151Y-22083000D01*
X55224190Y-22102685D01*
G37*
%TD.AperFunction*%
%TA.AperFunction,Conductor*%
G36*
X47056334Y-25680667D02*
G01*
X47112267Y-25722539D01*
X47136684Y-25788003D01*
X47137000Y-25796849D01*
X47137000Y-25874459D01*
X47129401Y-25917201D01*
X47018360Y-26219598D01*
X47005306Y-26260424D01*
X47005304Y-26260431D01*
X47005052Y-26262455D01*
X46999052Y-26288025D01*
X46983688Y-26331935D01*
X46983685Y-26331945D01*
X46964751Y-26499997D01*
X46964751Y-26500002D01*
X46983685Y-26668056D01*
X47039545Y-26827694D01*
X47039547Y-26827697D01*
X47133227Y-26976786D01*
X47131202Y-26978058D01*
X47153377Y-27032372D01*
X47140622Y-27101067D01*
X47092753Y-27151962D01*
X47030022Y-27169000D01*
X46627000Y-27169000D01*
X46559961Y-27149315D01*
X46514206Y-27096511D01*
X46503000Y-27045000D01*
X46503000Y-26182849D01*
X46522685Y-26115810D01*
X46539319Y-26095168D01*
X46925319Y-25709168D01*
X46986642Y-25675683D01*
X47056334Y-25680667D01*
G37*
%TD.AperFunction*%
%TA.AperFunction,Conductor*%
G36*
X48979272Y-25615185D02*
G01*
X49025027Y-25667989D01*
X49034971Y-25737147D01*
X49005946Y-25800703D01*
X48988233Y-25817479D01*
X48984622Y-25820279D01*
X48870285Y-25934616D01*
X48870278Y-25934625D01*
X48787968Y-26073804D01*
X48787966Y-26073809D01*
X48742855Y-26229081D01*
X48742854Y-26229087D01*
X48741209Y-26249999D01*
X48741210Y-26250000D01*
X49059110Y-26250000D01*
X49056492Y-26750000D01*
X48741210Y-26750000D01*
X48742854Y-26770910D01*
X48787967Y-26926193D01*
X48820900Y-26981878D01*
X48838083Y-27049602D01*
X48815923Y-27115865D01*
X48761458Y-27159629D01*
X48714168Y-27169000D01*
X48409978Y-27169000D01*
X48342939Y-27149315D01*
X48297184Y-27096511D01*
X48287240Y-27027353D01*
X48308601Y-26977935D01*
X48306773Y-26976786D01*
X48400452Y-26827697D01*
X48400454Y-26827694D01*
X48400454Y-26827692D01*
X48400456Y-26827690D01*
X48456313Y-26668059D01*
X48456313Y-26668058D01*
X48456314Y-26668056D01*
X48475249Y-26500002D01*
X48475249Y-26499997D01*
X48456313Y-26331940D01*
X48456313Y-26331939D01*
X48431391Y-26260717D01*
X48427135Y-26245511D01*
X48421632Y-26219579D01*
X48310599Y-25917202D01*
X48303000Y-25874460D01*
X48303000Y-25832848D01*
X48322685Y-25765809D01*
X48339319Y-25745167D01*
X48452667Y-25631819D01*
X48513990Y-25598334D01*
X48540348Y-25595500D01*
X48912233Y-25595500D01*
X48979272Y-25615185D01*
G37*
%TD.AperFunction*%
%TA.AperFunction,Conductor*%
G36*
X56979855Y-14666546D02*
G01*
X56996575Y-14685842D01*
X57126501Y-14871396D01*
X57126506Y-14871402D01*
X57147951Y-14892847D01*
X57163397Y-14911675D01*
X57186382Y-14946101D01*
X57723954Y-15751271D01*
X57728627Y-15758269D01*
X57749481Y-15824954D01*
X57749500Y-15827122D01*
X57749500Y-18093119D01*
X57729815Y-18160158D01*
X57726804Y-18164628D01*
X57242676Y-18850476D01*
X57236494Y-18859437D01*
X57236485Y-18859453D01*
X57231097Y-18870600D01*
X57218727Y-18890938D01*
X57206204Y-18907666D01*
X57206202Y-18907671D01*
X57184641Y-18965477D01*
X57180107Y-18976096D01*
X57173879Y-18988982D01*
X57171735Y-18995733D01*
X57170207Y-19001892D01*
X57166043Y-19015344D01*
X57155909Y-19042516D01*
X57155908Y-19042517D01*
X57149501Y-19102116D01*
X57149501Y-19102123D01*
X57149500Y-19102135D01*
X57149500Y-20875651D01*
X57129815Y-20942690D01*
X57077011Y-20988445D01*
X57007853Y-20998389D01*
X56944297Y-20969364D01*
X56937819Y-20963332D01*
X56495473Y-20520986D01*
X56495471Y-20520984D01*
X56396433Y-20463804D01*
X56362531Y-20444230D01*
X56288391Y-20424365D01*
X56214253Y-20404500D01*
X56214252Y-20404500D01*
X50628494Y-20404500D01*
X50561455Y-20384815D01*
X50529228Y-20354811D01*
X50482551Y-20292460D01*
X50482548Y-20292457D01*
X50482546Y-20292454D01*
X50482542Y-20292451D01*
X50367335Y-20206206D01*
X50367328Y-20206202D01*
X50232486Y-20155910D01*
X50232485Y-20155909D01*
X50232483Y-20155909D01*
X50172873Y-20149500D01*
X50172863Y-20149500D01*
X49827130Y-20149500D01*
X49827123Y-20149501D01*
X49767516Y-20155908D01*
X49632671Y-20206202D01*
X49632664Y-20206206D01*
X49517455Y-20292452D01*
X49517452Y-20292455D01*
X49431206Y-20407664D01*
X49431202Y-20407671D01*
X49422874Y-20430000D01*
X48402039Y-20430000D01*
X48339721Y-20324625D01*
X48339714Y-20324616D01*
X48225383Y-20210285D01*
X48225374Y-20210278D01*
X48086195Y-20127968D01*
X48086190Y-20127966D01*
X47930918Y-20082855D01*
X47930912Y-20082854D01*
X47910000Y-20081209D01*
X47910000Y-20610000D01*
X48200000Y-20610000D01*
X48200000Y-21110000D01*
X48158352Y-21110000D01*
X48095233Y-21092732D01*
X48086395Y-21087506D01*
X48086393Y-21087505D01*
X48086389Y-21087503D01*
X47930997Y-21042357D01*
X47930991Y-21042356D01*
X47894697Y-21039500D01*
X47894690Y-21039500D01*
X47425310Y-21039500D01*
X47425302Y-21039500D01*
X47389008Y-21042356D01*
X47389005Y-21042357D01*
X47348113Y-21054237D01*
X47278244Y-21054036D01*
X47273670Y-21052582D01*
X47045872Y-20975273D01*
X47025492Y-20969178D01*
X47010586Y-20963657D01*
X46999802Y-20958855D01*
X46854001Y-20927865D01*
X46814646Y-20919500D01*
X46625354Y-20919500D01*
X46592897Y-20926398D01*
X46440197Y-20958855D01*
X46440192Y-20958857D01*
X46267270Y-21035848D01*
X46267265Y-21035851D01*
X46114129Y-21147111D01*
X45987466Y-21287785D01*
X45892821Y-21451715D01*
X45892818Y-21451722D01*
X45834327Y-21631740D01*
X45834326Y-21631744D01*
X45821897Y-21750000D01*
X45814540Y-21820002D01*
X45816263Y-21836400D01*
X45803692Y-21905130D01*
X45755958Y-21956152D01*
X45754943Y-21956745D01*
X45622029Y-22033484D01*
X45622026Y-22033486D01*
X43280828Y-24374683D01*
X43219505Y-24408168D01*
X43149813Y-24403184D01*
X43136703Y-24397411D01*
X42201842Y-23919483D01*
X42151111Y-23871440D01*
X42134407Y-23803596D01*
X42157034Y-23737492D01*
X42187159Y-23707502D01*
X42371401Y-23578495D01*
X42538495Y-23411401D01*
X42674035Y-23217830D01*
X42773903Y-23003663D01*
X42835063Y-22775408D01*
X42855659Y-22540000D01*
X42835063Y-22304592D01*
X42773903Y-22076337D01*
X42674035Y-21862171D01*
X42657379Y-21838384D01*
X42538496Y-21668600D01*
X42501636Y-21631740D01*
X42416567Y-21546671D01*
X42383084Y-21485351D01*
X42388068Y-21415659D01*
X42429939Y-21359725D01*
X42460915Y-21342810D01*
X42592331Y-21293796D01*
X42707546Y-21207546D01*
X42793796Y-21092331D01*
X42844091Y-20957483D01*
X42850500Y-20897873D01*
X42850500Y-20610000D01*
X46855496Y-20610000D01*
X47410000Y-20610000D01*
X47410000Y-20081210D01*
X47409999Y-20081209D01*
X47389087Y-20082854D01*
X47389081Y-20082855D01*
X47233809Y-20127966D01*
X47233804Y-20127968D01*
X47094625Y-20210278D01*
X47094616Y-20210285D01*
X46980285Y-20324616D01*
X46980278Y-20324625D01*
X46897968Y-20463804D01*
X46855496Y-20610000D01*
X42850500Y-20610000D01*
X42850499Y-19191004D01*
X42850750Y-19183114D01*
X42850766Y-19182856D01*
X42850767Y-19182852D01*
X42850766Y-19182847D01*
X42850803Y-19182267D01*
X42850499Y-19174565D01*
X42850499Y-19102129D01*
X42850498Y-19102123D01*
X42850497Y-19102116D01*
X42844091Y-19042517D01*
X42832129Y-19010446D01*
X42828986Y-19000841D01*
X42822699Y-18978601D01*
X42822698Y-18978597D01*
X42816838Y-18967114D01*
X42811115Y-18954105D01*
X42793796Y-18907669D01*
X42777241Y-18885554D01*
X42766058Y-18867607D01*
X42757297Y-18850439D01*
X42273196Y-18164629D01*
X42250617Y-18098508D01*
X42250500Y-18093120D01*
X42250500Y-17504500D01*
X42270185Y-17437461D01*
X42322989Y-17391706D01*
X42374500Y-17380500D01*
X44286769Y-17380500D01*
X44353808Y-17400185D01*
X44361080Y-17405233D01*
X44452668Y-17473795D01*
X44452671Y-17473797D01*
X44474255Y-17481847D01*
X44587517Y-17524091D01*
X44647127Y-17530500D01*
X45192872Y-17530499D01*
X45252483Y-17524091D01*
X45352382Y-17486830D01*
X45422073Y-17481847D01*
X45439049Y-17486831D01*
X45537623Y-17523598D01*
X45597155Y-17529999D01*
X45597172Y-17530000D01*
X46142828Y-17530000D01*
X46142844Y-17529999D01*
X46202377Y-17523597D01*
X46202382Y-17523596D01*
X46300950Y-17486832D01*
X46370641Y-17481847D01*
X46387617Y-17486831D01*
X46387620Y-17486832D01*
X46487517Y-17524091D01*
X46547127Y-17530500D01*
X47092872Y-17530499D01*
X47152483Y-17524091D01*
X47287331Y-17473796D01*
X47402546Y-17387546D01*
X47488796Y-17272331D01*
X47539091Y-17137483D01*
X47545500Y-17077873D01*
X47545499Y-16603998D01*
X47565183Y-16536961D01*
X47570233Y-16529688D01*
X47613351Y-16472090D01*
X47663597Y-16337376D01*
X47663598Y-16337372D01*
X47664391Y-16330000D01*
X47740000Y-16330000D01*
X47740000Y-15760000D01*
X49060000Y-15760000D01*
X49060000Y-14750500D01*
X51178121Y-14750500D01*
X51245160Y-14770185D01*
X51249622Y-14773190D01*
X51933624Y-15256016D01*
X51933651Y-15256035D01*
X51935466Y-15257316D01*
X51944381Y-15263466D01*
X51955563Y-15268872D01*
X51975900Y-15281242D01*
X51992669Y-15293796D01*
X52050415Y-15315333D01*
X52061040Y-15319872D01*
X52073914Y-15326097D01*
X52080654Y-15328238D01*
X52086847Y-15329775D01*
X52100298Y-15333938D01*
X52127517Y-15344091D01*
X52187127Y-15350500D01*
X53982872Y-15350499D01*
X54042483Y-15344091D01*
X54177331Y-15293796D01*
X54292546Y-15207546D01*
X54378796Y-15092331D01*
X54427810Y-14960916D01*
X54469681Y-14904984D01*
X54535145Y-14880566D01*
X54603418Y-14895417D01*
X54631673Y-14916569D01*
X54753599Y-15038495D01*
X54850384Y-15106265D01*
X54947165Y-15174032D01*
X54947167Y-15174033D01*
X54947170Y-15174035D01*
X55161337Y-15273903D01*
X55161343Y-15273904D01*
X55161344Y-15273905D01*
X55216285Y-15288626D01*
X55389592Y-15335063D01*
X55566034Y-15350500D01*
X55624999Y-15355659D01*
X55625000Y-15355659D01*
X55625001Y-15355659D01*
X55683966Y-15350500D01*
X55860408Y-15335063D01*
X56088663Y-15273903D01*
X56302830Y-15174035D01*
X56496401Y-15038495D01*
X56663495Y-14871401D01*
X56793425Y-14685842D01*
X56848002Y-14642217D01*
X56917500Y-14635023D01*
X56979855Y-14666546D01*
G37*
%TD.AperFunction*%
%TA.AperFunction,Conductor*%
G36*
X59753856Y-3520185D02*
G01*
X59786193Y-3550336D01*
X60973351Y-5141127D01*
X60974878Y-5143173D01*
X60999197Y-5208673D01*
X60999500Y-5217335D01*
X60999500Y-37375500D01*
X60979815Y-37442539D01*
X60927011Y-37488294D01*
X60875500Y-37499500D01*
X39124500Y-37499500D01*
X39057461Y-37479815D01*
X39011706Y-37427011D01*
X39000500Y-37375500D01*
X39000500Y-22539999D01*
X40144341Y-22539999D01*
X40144341Y-22540000D01*
X40164936Y-22775403D01*
X40164938Y-22775413D01*
X40226094Y-23003655D01*
X40226096Y-23003659D01*
X40226097Y-23003663D01*
X40227535Y-23006746D01*
X40325965Y-23217830D01*
X40325967Y-23217834D01*
X40461501Y-23411395D01*
X40461506Y-23411402D01*
X40628597Y-23578493D01*
X40628603Y-23578498D01*
X40814158Y-23708425D01*
X40857783Y-23763002D01*
X40864977Y-23832500D01*
X40833454Y-23894855D01*
X40814158Y-23911575D01*
X40628597Y-24041505D01*
X40461505Y-24208597D01*
X40325965Y-24402169D01*
X40325964Y-24402171D01*
X40226098Y-24616335D01*
X40226094Y-24616344D01*
X40164938Y-24844586D01*
X40164936Y-24844596D01*
X40144341Y-25079999D01*
X40144341Y-25080000D01*
X40164936Y-25315403D01*
X40164938Y-25315413D01*
X40226094Y-25543655D01*
X40226096Y-25543659D01*
X40226097Y-25543663D01*
X40310076Y-25723756D01*
X40325965Y-25757830D01*
X40325967Y-25757834D01*
X40461501Y-25951395D01*
X40461506Y-25951402D01*
X40628597Y-26118493D01*
X40628603Y-26118498D01*
X40814158Y-26248425D01*
X40857783Y-26303002D01*
X40864977Y-26372500D01*
X40833454Y-26434855D01*
X40814158Y-26451575D01*
X40628597Y-26581505D01*
X40461505Y-26748597D01*
X40325965Y-26942169D01*
X40325964Y-26942171D01*
X40226098Y-27156335D01*
X40226094Y-27156344D01*
X40164938Y-27384586D01*
X40164936Y-27384596D01*
X40144341Y-27619999D01*
X40144341Y-27620000D01*
X40164936Y-27855403D01*
X40164938Y-27855413D01*
X40226094Y-28083655D01*
X40226096Y-28083659D01*
X40226097Y-28083663D01*
X40325965Y-28297829D01*
X40325965Y-28297830D01*
X40325967Y-28297834D01*
X40461501Y-28491395D01*
X40461506Y-28491402D01*
X40628597Y-28658493D01*
X40628603Y-28658498D01*
X40814158Y-28788425D01*
X40857783Y-28843002D01*
X40864977Y-28912500D01*
X40833454Y-28974855D01*
X40814158Y-28991575D01*
X40628597Y-29121505D01*
X40461505Y-29288597D01*
X40325965Y-29482169D01*
X40325964Y-29482171D01*
X40240406Y-29665651D01*
X40227427Y-29693486D01*
X40226098Y-29696335D01*
X40226094Y-29696344D01*
X40164938Y-29924586D01*
X40164936Y-29924596D01*
X40144341Y-30159999D01*
X40144341Y-30160000D01*
X40164936Y-30395403D01*
X40164938Y-30395413D01*
X40226094Y-30623655D01*
X40226096Y-30623659D01*
X40226097Y-30623663D01*
X40311954Y-30807784D01*
X40325965Y-30837830D01*
X40325967Y-30837834D01*
X40461501Y-31031395D01*
X40461506Y-31031402D01*
X40628597Y-31198493D01*
X40628603Y-31198498D01*
X40814158Y-31328425D01*
X40857783Y-31383002D01*
X40864977Y-31452500D01*
X40833454Y-31514855D01*
X40814158Y-31531575D01*
X40628597Y-31661505D01*
X40461505Y-31828597D01*
X40325965Y-32022169D01*
X40325964Y-32022171D01*
X40256097Y-32172002D01*
X40227427Y-32233486D01*
X40226098Y-32236335D01*
X40226094Y-32236344D01*
X40164938Y-32464586D01*
X40164936Y-32464596D01*
X40144341Y-32699999D01*
X40144341Y-32700000D01*
X40164936Y-32935403D01*
X40164938Y-32935413D01*
X40226094Y-33163655D01*
X40226096Y-33163659D01*
X40226097Y-33163663D01*
X40292848Y-33306811D01*
X40325965Y-33377830D01*
X40325967Y-33377834D01*
X40461501Y-33571395D01*
X40461506Y-33571402D01*
X40628597Y-33738493D01*
X40628603Y-33738498D01*
X40640054Y-33746516D01*
X40806410Y-33863000D01*
X40814594Y-33868730D01*
X40858219Y-33923307D01*
X40865413Y-33992805D01*
X40833890Y-34055160D01*
X40814595Y-34071880D01*
X40628922Y-34201890D01*
X40628920Y-34201891D01*
X40461891Y-34368920D01*
X40461886Y-34368926D01*
X40326400Y-34562420D01*
X40326399Y-34562422D01*
X40226570Y-34776507D01*
X40226567Y-34776513D01*
X40169364Y-34989999D01*
X40169364Y-34990000D01*
X41066988Y-34990000D01*
X41034075Y-35047007D01*
X41000000Y-35174174D01*
X41000000Y-35305826D01*
X41034075Y-35432993D01*
X41066988Y-35490000D01*
X40169364Y-35490000D01*
X40226567Y-35703486D01*
X40226570Y-35703492D01*
X40326399Y-35917578D01*
X40461894Y-36111082D01*
X40628917Y-36278105D01*
X40822421Y-36413600D01*
X41036507Y-36513429D01*
X41036516Y-36513433D01*
X41250000Y-36570634D01*
X41250000Y-35673012D01*
X41307007Y-35705925D01*
X41434174Y-35740000D01*
X41565826Y-35740000D01*
X41692993Y-35705925D01*
X41750000Y-35673012D01*
X41750000Y-36570633D01*
X41963483Y-36513433D01*
X41963492Y-36513429D01*
X42177578Y-36413600D01*
X42371082Y-36278105D01*
X42538105Y-36111082D01*
X42673600Y-35917578D01*
X42773429Y-35703492D01*
X42773432Y-35703486D01*
X42830636Y-35490000D01*
X41933012Y-35490000D01*
X41965925Y-35432993D01*
X42000000Y-35305826D01*
X42000000Y-35174174D01*
X41965925Y-35047007D01*
X41933012Y-34990000D01*
X42830636Y-34990000D01*
X42830635Y-34989999D01*
X42773432Y-34776513D01*
X42773429Y-34776507D01*
X42673600Y-34562422D01*
X42673599Y-34562420D01*
X42538113Y-34368926D01*
X42538108Y-34368920D01*
X42371082Y-34201894D01*
X42214878Y-34092518D01*
X42171253Y-34037941D01*
X42164061Y-33968442D01*
X42195583Y-33906088D01*
X42245016Y-33873913D01*
X42811682Y-33675480D01*
X42881460Y-33671903D01*
X42940345Y-33704832D01*
X42982029Y-33746516D01*
X43061698Y-33792513D01*
X43099369Y-33814263D01*
X43114970Y-33823270D01*
X43263247Y-33863000D01*
X45375810Y-33863000D01*
X45442849Y-33882685D01*
X45488604Y-33935489D01*
X45498548Y-34004647D01*
X45494886Y-34021596D01*
X45482335Y-34064794D01*
X45482334Y-34064797D01*
X45479500Y-34100811D01*
X45479500Y-34499169D01*
X45479501Y-34499191D01*
X45482335Y-34535205D01*
X45527129Y-34689388D01*
X45527131Y-34689393D01*
X45532232Y-34698018D01*
X45549500Y-34761139D01*
X45549500Y-35014823D01*
X45547376Y-35037675D01*
X45431552Y-35655400D01*
X45427608Y-35670863D01*
X45414325Y-35711745D01*
X45406106Y-35789935D01*
X45405581Y-35794218D01*
X45399310Y-35838862D01*
X45399309Y-35838868D01*
X45399111Y-35840977D01*
X45399110Y-35841001D01*
X45399153Y-35848915D01*
X45398476Y-35862538D01*
X45394540Y-35899997D01*
X45394540Y-35900000D01*
X45414326Y-36088256D01*
X45414327Y-36088259D01*
X45472818Y-36268277D01*
X45472821Y-36268284D01*
X45567467Y-36432216D01*
X45685183Y-36562952D01*
X45694129Y-36572888D01*
X45847265Y-36684148D01*
X45847270Y-36684151D01*
X46020192Y-36761142D01*
X46020197Y-36761144D01*
X46205354Y-36800500D01*
X46205355Y-36800500D01*
X46394644Y-36800500D01*
X46394646Y-36800500D01*
X46579803Y-36761144D01*
X46752730Y-36684151D01*
X46905871Y-36572888D01*
X47032533Y-36432216D01*
X47127179Y-36268284D01*
X47185674Y-36088256D01*
X47205460Y-35900000D01*
X47194685Y-35797487D01*
X47194551Y-35795655D01*
X47193890Y-35789875D01*
X47193781Y-35788892D01*
X47185674Y-35711744D01*
X47185674Y-35711743D01*
X47184324Y-35705392D01*
X47185801Y-35705077D01*
X47184028Y-35642976D01*
X47220109Y-35583144D01*
X47282810Y-35552316D01*
X47303954Y-35550500D01*
X47976000Y-35550500D01*
X48043039Y-35570185D01*
X48088794Y-35622989D01*
X48100000Y-35674500D01*
X48100000Y-35947844D01*
X48106401Y-36007372D01*
X48106403Y-36007382D01*
X48134484Y-36082671D01*
X48134485Y-36082672D01*
X48350000Y-35867157D01*
X48350000Y-36410000D01*
X51575899Y-36410000D01*
X51623698Y-36454503D01*
X51623788Y-36454654D01*
X51659883Y-36515687D01*
X51659885Y-36515689D01*
X51659887Y-36515692D01*
X51774307Y-36630112D01*
X51774311Y-36630115D01*
X51774313Y-36630117D01*
X51913605Y-36712494D01*
X51954587Y-36724400D01*
X52069002Y-36757642D01*
X52069005Y-36757642D01*
X52069007Y-36757643D01*
X52105310Y-36760500D01*
X52503906Y-36760500D01*
X52512762Y-36760816D01*
X52553121Y-36763707D01*
X52955149Y-36734991D01*
X52990354Y-36731208D01*
X53003594Y-36730500D01*
X53123920Y-36730500D01*
X53221462Y-36711096D01*
X53268913Y-36701658D01*
X53405495Y-36645084D01*
X53464735Y-36605501D01*
X53528416Y-36562952D01*
X54042952Y-36048415D01*
X54107601Y-35951660D01*
X54125084Y-35925495D01*
X54150403Y-35864370D01*
X54181659Y-35788912D01*
X54210500Y-35643917D01*
X54210500Y-35496082D01*
X54210500Y-34655173D01*
X54212624Y-34632322D01*
X54246131Y-34453617D01*
X54328443Y-34014609D01*
X54332388Y-33999144D01*
X54345674Y-33958256D01*
X54353889Y-33880080D01*
X54354415Y-33875802D01*
X54357739Y-33852135D01*
X54360688Y-33831143D01*
X54360690Y-33831116D01*
X54360693Y-33831097D01*
X54360887Y-33829034D01*
X54360887Y-33829026D01*
X54360888Y-33829016D01*
X54360844Y-33821097D01*
X54361521Y-33807468D01*
X54365460Y-33770000D01*
X54345674Y-33581744D01*
X54287179Y-33401716D01*
X54192533Y-33237784D01*
X54065871Y-33097112D01*
X54065870Y-33097111D01*
X53912734Y-32985851D01*
X53912729Y-32985848D01*
X53739807Y-32908857D01*
X53739802Y-32908855D01*
X53573215Y-32873447D01*
X53554646Y-32869500D01*
X53365354Y-32869500D01*
X53279338Y-32887782D01*
X53209673Y-32882466D01*
X53153940Y-32840328D01*
X53134483Y-32801086D01*
X53112031Y-32723804D01*
X53029721Y-32584625D01*
X53029714Y-32584616D01*
X52989474Y-32544376D01*
X52990000Y-32330000D01*
X49903000Y-32330000D01*
X49903000Y-31324500D01*
X49922685Y-31257461D01*
X49975489Y-31211706D01*
X50027000Y-31200500D01*
X50361362Y-31200500D01*
X50401211Y-31207077D01*
X50954119Y-31394722D01*
X50970892Y-31399739D01*
X50974500Y-31400818D01*
X50989397Y-31406336D01*
X50992012Y-31407500D01*
X51000197Y-31411144D01*
X51185354Y-31450500D01*
X51185355Y-31450500D01*
X51374644Y-31450500D01*
X51374646Y-31450500D01*
X51559803Y-31411144D01*
X51732730Y-31334151D01*
X51885871Y-31222888D01*
X52012533Y-31082216D01*
X52107179Y-30918284D01*
X52165674Y-30738256D01*
X52185460Y-30550000D01*
X52165674Y-30361744D01*
X52107179Y-30181716D01*
X52012533Y-30017784D01*
X51885871Y-29877112D01*
X51841941Y-29845195D01*
X51732734Y-29765851D01*
X51732729Y-29765848D01*
X51559807Y-29688857D01*
X51559802Y-29688855D01*
X51414001Y-29657865D01*
X51374646Y-29649500D01*
X51185354Y-29649500D01*
X51135375Y-29660123D01*
X51000199Y-29688855D01*
X51000197Y-29688856D01*
X50983399Y-29696335D01*
X50983284Y-29696386D01*
X50960000Y-29703630D01*
X50960000Y-29240000D01*
X51258790Y-29240000D01*
X51257145Y-29219091D01*
X51210808Y-29059595D01*
X51211008Y-28989725D01*
X51248951Y-28931055D01*
X51312589Y-28902212D01*
X51329885Y-28901000D01*
X53335151Y-28901000D01*
X53402190Y-28920685D01*
X53422832Y-28937319D01*
X56623502Y-32137989D01*
X56643611Y-32164373D01*
X56961742Y-32723804D01*
X57046839Y-32873446D01*
X57046839Y-32873447D01*
X57270184Y-33266196D01*
X57281712Y-33285460D01*
X57281714Y-33285462D01*
X57283773Y-33288903D01*
X57289753Y-33300174D01*
X57325964Y-33377829D01*
X57325965Y-33377831D01*
X57461501Y-33571395D01*
X57461506Y-33571402D01*
X57628597Y-33738493D01*
X57628603Y-33738498D01*
X57640054Y-33746516D01*
X57806410Y-33863000D01*
X57814594Y-33868730D01*
X57858219Y-33923307D01*
X57865413Y-33992805D01*
X57833890Y-34055160D01*
X57814595Y-34071880D01*
X57628922Y-34201890D01*
X57628920Y-34201891D01*
X57461891Y-34368920D01*
X57461886Y-34368926D01*
X57326400Y-34562420D01*
X57326399Y-34562422D01*
X57226570Y-34776507D01*
X57226567Y-34776513D01*
X57169364Y-34989999D01*
X57169364Y-34990000D01*
X58066988Y-34990000D01*
X58034075Y-35047007D01*
X58000000Y-35174174D01*
X58000000Y-35305826D01*
X58034075Y-35432993D01*
X58066988Y-35490000D01*
X57169364Y-35490000D01*
X57226567Y-35703486D01*
X57226570Y-35703492D01*
X57326399Y-35917578D01*
X57461894Y-36111082D01*
X57628917Y-36278105D01*
X57822421Y-36413600D01*
X58036507Y-36513429D01*
X58036516Y-36513433D01*
X58250000Y-36570634D01*
X58250000Y-35673012D01*
X58307007Y-35705925D01*
X58434174Y-35740000D01*
X58565826Y-35740000D01*
X58692993Y-35705925D01*
X58750000Y-35673012D01*
X58750000Y-36570633D01*
X58963483Y-36513433D01*
X58963492Y-36513429D01*
X59177578Y-36413600D01*
X59371082Y-36278105D01*
X59538105Y-36111082D01*
X59673600Y-35917578D01*
X59773429Y-35703492D01*
X59773432Y-35703486D01*
X59830636Y-35490000D01*
X58933012Y-35490000D01*
X58965925Y-35432993D01*
X59000000Y-35305826D01*
X59000000Y-35174174D01*
X58965925Y-35047007D01*
X58933012Y-34990000D01*
X59830636Y-34990000D01*
X59830635Y-34989999D01*
X59773432Y-34776513D01*
X59773429Y-34776507D01*
X59673600Y-34562422D01*
X59673599Y-34562420D01*
X59538113Y-34368926D01*
X59538108Y-34368920D01*
X59371078Y-34201890D01*
X59185405Y-34071879D01*
X59141780Y-34017302D01*
X59134588Y-33947804D01*
X59166110Y-33885449D01*
X59185406Y-33868730D01*
X59371401Y-33738495D01*
X59538495Y-33571401D01*
X59674035Y-33377830D01*
X59773903Y-33163663D01*
X59835063Y-32935408D01*
X59855659Y-32700000D01*
X59835063Y-32464592D01*
X59788626Y-32291285D01*
X59773905Y-32236344D01*
X59773904Y-32236343D01*
X59773903Y-32236337D01*
X59674035Y-32022171D01*
X59623850Y-31950498D01*
X59538494Y-31828597D01*
X59371402Y-31661506D01*
X59371396Y-31661501D01*
X59185842Y-31531575D01*
X59142217Y-31476998D01*
X59135023Y-31407500D01*
X59166546Y-31345145D01*
X59185842Y-31328425D01*
X59336564Y-31222888D01*
X59371401Y-31198495D01*
X59538495Y-31031401D01*
X59674035Y-30837830D01*
X59773903Y-30623663D01*
X59835063Y-30395408D01*
X59855659Y-30160000D01*
X59835063Y-29924592D01*
X59773903Y-29696337D01*
X59674035Y-29482171D01*
X59661958Y-29464922D01*
X59538494Y-29288597D01*
X59371402Y-29121506D01*
X59371396Y-29121501D01*
X59185842Y-28991575D01*
X59142217Y-28936998D01*
X59135023Y-28867500D01*
X59166546Y-28805145D01*
X59185842Y-28788425D01*
X59245861Y-28746399D01*
X59371401Y-28658495D01*
X59538495Y-28491401D01*
X59674035Y-28297830D01*
X59773903Y-28083663D01*
X59835063Y-27855408D01*
X59855659Y-27620000D01*
X59835063Y-27384592D01*
X59777296Y-27169000D01*
X59773905Y-27156344D01*
X59773904Y-27156343D01*
X59773903Y-27156337D01*
X59674035Y-26942171D01*
X59662848Y-26926193D01*
X59538494Y-26748597D01*
X59371402Y-26581506D01*
X59371396Y-26581501D01*
X59185842Y-26451575D01*
X59142217Y-26396998D01*
X59135023Y-26327500D01*
X59166546Y-26265145D01*
X59185842Y-26248425D01*
X59279494Y-26182849D01*
X59371401Y-26118495D01*
X59538495Y-25951401D01*
X59674035Y-25757830D01*
X59773903Y-25543663D01*
X59835063Y-25315408D01*
X59855659Y-25080000D01*
X59835063Y-24844592D01*
X59773903Y-24616337D01*
X59674035Y-24402171D01*
X59587061Y-24277958D01*
X59538494Y-24208597D01*
X59371402Y-24041506D01*
X59371396Y-24041501D01*
X59185842Y-23911575D01*
X59142217Y-23856998D01*
X59135023Y-23787500D01*
X59166546Y-23725145D01*
X59185842Y-23708425D01*
X59261442Y-23655489D01*
X59371401Y-23578495D01*
X59538495Y-23411401D01*
X59674035Y-23217830D01*
X59773903Y-23003663D01*
X59835063Y-22775408D01*
X59855659Y-22540000D01*
X59835063Y-22304592D01*
X59773903Y-22076337D01*
X59674035Y-21862171D01*
X59657379Y-21838384D01*
X59538496Y-21668600D01*
X59501636Y-21631740D01*
X59416567Y-21546671D01*
X59383084Y-21485351D01*
X59388068Y-21415659D01*
X59429939Y-21359725D01*
X59460915Y-21342810D01*
X59592331Y-21293796D01*
X59707546Y-21207546D01*
X59793796Y-21092331D01*
X59844091Y-20957483D01*
X59850500Y-20897873D01*
X59850499Y-19191004D01*
X59850750Y-19183114D01*
X59850766Y-19182856D01*
X59850767Y-19182852D01*
X59850766Y-19182847D01*
X59850803Y-19182267D01*
X59850499Y-19174565D01*
X59850499Y-19102129D01*
X59850498Y-19102123D01*
X59850497Y-19102116D01*
X59844091Y-19042517D01*
X59832129Y-19010446D01*
X59828986Y-19000841D01*
X59822699Y-18978601D01*
X59822698Y-18978597D01*
X59816838Y-18967114D01*
X59811115Y-18954105D01*
X59793796Y-18907669D01*
X59777241Y-18885554D01*
X59766058Y-18867607D01*
X59757297Y-18850439D01*
X59273196Y-18164629D01*
X59250617Y-18098508D01*
X59250500Y-18093120D01*
X59250500Y-15710415D01*
X59252109Y-15690503D01*
X59418701Y-14666546D01*
X59470505Y-14348133D01*
X59473121Y-14335954D01*
X59481343Y-14305269D01*
X59500063Y-14235408D01*
X59513810Y-14078263D01*
X59514243Y-14074133D01*
X59516622Y-14054625D01*
X59516774Y-14052760D01*
X59516760Y-14051640D01*
X59517221Y-14039279D01*
X59520659Y-14000000D01*
X59500063Y-13764592D01*
X59438903Y-13536337D01*
X59435000Y-13527967D01*
X59426904Y-13510604D01*
X59418510Y-13486294D01*
X59417195Y-13480638D01*
X59232262Y-13005704D01*
X58923951Y-12213917D01*
X58915500Y-12168924D01*
X58915500Y-10291139D01*
X58932768Y-10228018D01*
X58937869Y-10219393D01*
X58982665Y-10065204D01*
X58985500Y-10029181D01*
X58985499Y-9630820D01*
X58982665Y-9594796D01*
X58937869Y-9440607D01*
X58903869Y-9383117D01*
X58886688Y-9315398D01*
X58903869Y-9256882D01*
X58937869Y-9199393D01*
X58982665Y-9045204D01*
X58985500Y-9009181D01*
X58985499Y-8610820D01*
X58982665Y-8574796D01*
X58958545Y-8491774D01*
X58958744Y-8421907D01*
X58965875Y-8403434D01*
X59011907Y-8307740D01*
X59058556Y-8255955D01*
X59086001Y-8239027D01*
X59086000Y-8239027D01*
X59086003Y-8239026D01*
X59209026Y-8116003D01*
X59300362Y-7967925D01*
X59355087Y-7802775D01*
X59365500Y-7700848D01*
X59365500Y-7114152D01*
X59355087Y-7012225D01*
X59300362Y-6847075D01*
X59300358Y-6847069D01*
X59300357Y-6847066D01*
X59209028Y-6699000D01*
X59209025Y-6698996D01*
X59086003Y-6575974D01*
X59085995Y-6575968D01*
X59084812Y-6575238D01*
X59084171Y-6574525D01*
X59080336Y-6571493D01*
X59080854Y-6570837D01*
X59038091Y-6523287D01*
X59026875Y-6454323D01*
X59054723Y-6390243D01*
X59080123Y-6368238D01*
X59080023Y-6368112D01*
X59082842Y-6365882D01*
X59084832Y-6364159D01*
X59085692Y-6363628D01*
X59208629Y-6240691D01*
X59299903Y-6092714D01*
X59299905Y-6092709D01*
X59354592Y-5927673D01*
X59364999Y-5825815D01*
X59365000Y-5825802D01*
X59365000Y-5782500D01*
X56965000Y-5782500D01*
X56965000Y-5825815D01*
X56975407Y-5927673D01*
X57030094Y-6092709D01*
X57030096Y-6092714D01*
X57121370Y-6240691D01*
X57244309Y-6363630D01*
X57245173Y-6364163D01*
X57245641Y-6364683D01*
X57249977Y-6368112D01*
X57249391Y-6368852D01*
X57291901Y-6416108D01*
X57303126Y-6485070D01*
X57275286Y-6549154D01*
X57249601Y-6571414D01*
X57249664Y-6571493D01*
X57247912Y-6572878D01*
X57245194Y-6575234D01*
X57244005Y-6575967D01*
X57243996Y-6575974D01*
X57120974Y-6698996D01*
X57120971Y-6699000D01*
X57029642Y-6847066D01*
X57029637Y-6847077D01*
X56974913Y-7012223D01*
X56964500Y-7114144D01*
X56964500Y-7700855D01*
X56974913Y-7802776D01*
X57029637Y-7967922D01*
X57029642Y-7967933D01*
X57120971Y-8115999D01*
X57120974Y-8116003D01*
X57243997Y-8239026D01*
X57271444Y-8255956D01*
X57318089Y-8307739D01*
X57331236Y-8335068D01*
X57364120Y-8403428D01*
X57375443Y-8472372D01*
X57371454Y-8491774D01*
X57347336Y-8574792D01*
X57347334Y-8574802D01*
X57344500Y-8610811D01*
X57344500Y-9009169D01*
X57344501Y-9009191D01*
X57347335Y-9045205D01*
X57392129Y-9199388D01*
X57392132Y-9199395D01*
X57426128Y-9256881D01*
X57443309Y-9324605D01*
X57426128Y-9383119D01*
X57392132Y-9440604D01*
X57392129Y-9440611D01*
X57347335Y-9594791D01*
X57347334Y-9594797D01*
X57344500Y-9630811D01*
X57344500Y-10029169D01*
X57344501Y-10029191D01*
X57347335Y-10065205D01*
X57392129Y-10219388D01*
X57392131Y-10219393D01*
X57397232Y-10228018D01*
X57414500Y-10291139D01*
X57414500Y-12168922D01*
X57406049Y-12213915D01*
X56995931Y-13267152D01*
X56953263Y-13322480D01*
X56887455Y-13345957D01*
X56819402Y-13330129D01*
X56778807Y-13293282D01*
X56663494Y-13128597D01*
X56496402Y-12961506D01*
X56496395Y-12961501D01*
X56485815Y-12954093D01*
X56457521Y-12934281D01*
X56302834Y-12825967D01*
X56302830Y-12825965D01*
X56246316Y-12799612D01*
X56088663Y-12726097D01*
X56088659Y-12726096D01*
X56088655Y-12726094D01*
X55860413Y-12664938D01*
X55860403Y-12664936D01*
X55625001Y-12644341D01*
X55624999Y-12644341D01*
X55389596Y-12664936D01*
X55389586Y-12664938D01*
X55161344Y-12726094D01*
X55161335Y-12726098D01*
X54947171Y-12825964D01*
X54947169Y-12825965D01*
X54753600Y-12961503D01*
X54631672Y-13083431D01*
X54570349Y-13116915D01*
X54500657Y-13111931D01*
X54444724Y-13070059D01*
X54427811Y-13039086D01*
X54417125Y-13010437D01*
X54413986Y-13000841D01*
X54407699Y-12978601D01*
X54407698Y-12978597D01*
X54401838Y-12967114D01*
X54396115Y-12954105D01*
X54378796Y-12907669D01*
X54362241Y-12885554D01*
X54351058Y-12867607D01*
X54342297Y-12850439D01*
X53858196Y-12164629D01*
X53835617Y-12098508D01*
X53835500Y-12093120D01*
X53835500Y-10291139D01*
X53852768Y-10228018D01*
X53857869Y-10219393D01*
X53902665Y-10065204D01*
X53905500Y-10029181D01*
X53905499Y-9630820D01*
X53902665Y-9594796D01*
X53857869Y-9440607D01*
X53823869Y-9383117D01*
X53806688Y-9315398D01*
X53823869Y-9256882D01*
X53857869Y-9199393D01*
X53902665Y-9045204D01*
X53905500Y-9009181D01*
X53905499Y-8610820D01*
X53902665Y-8574796D01*
X53878545Y-8491774D01*
X53878744Y-8421907D01*
X53885875Y-8403434D01*
X53931907Y-8307740D01*
X53978556Y-8255955D01*
X54006001Y-8239027D01*
X54006000Y-8239027D01*
X54006003Y-8239026D01*
X54129026Y-8116003D01*
X54220362Y-7967925D01*
X54275087Y-7802775D01*
X54285500Y-7700848D01*
X54285500Y-7114152D01*
X54275087Y-7012225D01*
X54220362Y-6847075D01*
X54220358Y-6847069D01*
X54220357Y-6847066D01*
X54129028Y-6699000D01*
X54129025Y-6698996D01*
X54006003Y-6575974D01*
X54005995Y-6575968D01*
X54004812Y-6575238D01*
X54004171Y-6574525D01*
X54000336Y-6571493D01*
X54000854Y-6570837D01*
X53958091Y-6523287D01*
X53946875Y-6454323D01*
X53974723Y-6390243D01*
X54000123Y-6368238D01*
X54000023Y-6368112D01*
X54002842Y-6365882D01*
X54004832Y-6364159D01*
X54005692Y-6363628D01*
X54128629Y-6240691D01*
X54219903Y-6092714D01*
X54219905Y-6092709D01*
X54274592Y-5927673D01*
X54284999Y-5825815D01*
X54285000Y-5825802D01*
X54285000Y-5782500D01*
X51885000Y-5782500D01*
X51885000Y-5825815D01*
X51895407Y-5927673D01*
X51950094Y-6092709D01*
X51950096Y-6092714D01*
X52041370Y-6240691D01*
X52164309Y-6363630D01*
X52165173Y-6364163D01*
X52165641Y-6364683D01*
X52169977Y-6368112D01*
X52169391Y-6368852D01*
X52211901Y-6416108D01*
X52223126Y-6485070D01*
X52195286Y-6549154D01*
X52169601Y-6571414D01*
X52169664Y-6571493D01*
X52167912Y-6572878D01*
X52165194Y-6575234D01*
X52164005Y-6575967D01*
X52163996Y-6575974D01*
X52040974Y-6698996D01*
X52040971Y-6699000D01*
X51949642Y-6847066D01*
X51949637Y-6847077D01*
X51894913Y-7012223D01*
X51884500Y-7114144D01*
X51884500Y-7700855D01*
X51894913Y-7802776D01*
X51949637Y-7967922D01*
X51949642Y-7967933D01*
X52040971Y-8115999D01*
X52040974Y-8116003D01*
X52163997Y-8239026D01*
X52191444Y-8255956D01*
X52238089Y-8307739D01*
X52251236Y-8335068D01*
X52284120Y-8403428D01*
X52295443Y-8472372D01*
X52291454Y-8491774D01*
X52267336Y-8574792D01*
X52267334Y-8574802D01*
X52264500Y-8610811D01*
X52264500Y-9009169D01*
X52264501Y-9009191D01*
X52267335Y-9045205D01*
X52312129Y-9199388D01*
X52312132Y-9199395D01*
X52346128Y-9256881D01*
X52363309Y-9324605D01*
X52346128Y-9383119D01*
X52312132Y-9440604D01*
X52312129Y-9440611D01*
X52267335Y-9594791D01*
X52267334Y-9594797D01*
X52264500Y-9630811D01*
X52264500Y-10029169D01*
X52264501Y-10029191D01*
X52267335Y-10065205D01*
X52312129Y-10219388D01*
X52312131Y-10219393D01*
X52317232Y-10228018D01*
X52334500Y-10291139D01*
X52334500Y-12093119D01*
X52314815Y-12160158D01*
X52311804Y-12164628D01*
X51884609Y-12769817D01*
X51854814Y-12799612D01*
X51405305Y-13116915D01*
X51255930Y-13222357D01*
X51249630Y-13226804D01*
X51183509Y-13249383D01*
X51178121Y-13249500D01*
X48879135Y-13249500D01*
X48852787Y-13246668D01*
X48845160Y-13245009D01*
X48845155Y-13245008D01*
X48443107Y-13216291D01*
X48365292Y-13216739D01*
X48361724Y-13217035D01*
X48357715Y-13217634D01*
X48357664Y-13217293D01*
X48337067Y-13219500D01*
X47995302Y-13219500D01*
X47959014Y-13222356D01*
X47959001Y-13222358D01*
X47936231Y-13228973D01*
X47918082Y-13232800D01*
X47583145Y-13277601D01*
X47580274Y-13278045D01*
X47561334Y-13279500D01*
X47291729Y-13279500D01*
X47248396Y-13271682D01*
X47152486Y-13235910D01*
X47152485Y-13235909D01*
X47152483Y-13235909D01*
X47092873Y-13229500D01*
X47092863Y-13229500D01*
X46547129Y-13229500D01*
X46547123Y-13229501D01*
X46487516Y-13235908D01*
X46391604Y-13271682D01*
X46348271Y-13279500D01*
X46341729Y-13279500D01*
X46298396Y-13271682D01*
X46202486Y-13235910D01*
X46202485Y-13235909D01*
X46202483Y-13235909D01*
X46142873Y-13229500D01*
X46142863Y-13229500D01*
X45597129Y-13229500D01*
X45597123Y-13229501D01*
X45537515Y-13235909D01*
X45438332Y-13272901D01*
X45368640Y-13277885D01*
X45351668Y-13272901D01*
X45252488Y-13235910D01*
X45252484Y-13235909D01*
X45252483Y-13235909D01*
X45192873Y-13229500D01*
X45192863Y-13229500D01*
X44647129Y-13229500D01*
X44647123Y-13229501D01*
X44587514Y-13235909D01*
X44572040Y-13241681D01*
X44528706Y-13249500D01*
X44159135Y-13249500D01*
X44132787Y-13246668D01*
X44125160Y-13245009D01*
X44125155Y-13245008D01*
X43723107Y-13216291D01*
X43645292Y-13216739D01*
X43641724Y-13217035D01*
X43637715Y-13217634D01*
X43637664Y-13217293D01*
X43617067Y-13219500D01*
X43346107Y-13219500D01*
X43337250Y-13219183D01*
X43331070Y-13218740D01*
X43296885Y-13216292D01*
X43296881Y-13216292D01*
X43296878Y-13216292D01*
X43149713Y-13226804D01*
X42894835Y-13245009D01*
X42859657Y-13248790D01*
X42846409Y-13249500D01*
X42136076Y-13249500D01*
X42107242Y-13255234D01*
X42107243Y-13255235D01*
X41991093Y-13278339D01*
X41991089Y-13278340D01*
X41933843Y-13302053D01*
X41854508Y-13334914D01*
X41782339Y-13383136D01*
X41731585Y-13417047D01*
X41731582Y-13417050D01*
X40917050Y-14231580D01*
X40917044Y-14231588D01*
X40867812Y-14305268D01*
X40867813Y-14305269D01*
X40834921Y-14354496D01*
X40834914Y-14354508D01*
X40778342Y-14491086D01*
X40778340Y-14491092D01*
X40749500Y-14636079D01*
X40749500Y-18093119D01*
X40729815Y-18160158D01*
X40726804Y-18164628D01*
X40242676Y-18850476D01*
X40236494Y-18859437D01*
X40236485Y-18859453D01*
X40231097Y-18870600D01*
X40218727Y-18890938D01*
X40206204Y-18907666D01*
X40206202Y-18907671D01*
X40184641Y-18965477D01*
X40180107Y-18976096D01*
X40173879Y-18988982D01*
X40171735Y-18995733D01*
X40170207Y-19001892D01*
X40166043Y-19015344D01*
X40155909Y-19042516D01*
X40155908Y-19042517D01*
X40149501Y-19102116D01*
X40149501Y-19102123D01*
X40149500Y-19102135D01*
X40149500Y-20897870D01*
X40149501Y-20897876D01*
X40155908Y-20957483D01*
X40206202Y-21092328D01*
X40206206Y-21092335D01*
X40292452Y-21207544D01*
X40292455Y-21207547D01*
X40407664Y-21293793D01*
X40407671Y-21293797D01*
X40539081Y-21342810D01*
X40595015Y-21384681D01*
X40619432Y-21450145D01*
X40604580Y-21518418D01*
X40583430Y-21546673D01*
X40461503Y-21668600D01*
X40325965Y-21862169D01*
X40325964Y-21862171D01*
X40226098Y-22076335D01*
X40226094Y-22076344D01*
X40164938Y-22304586D01*
X40164936Y-22304596D01*
X40144341Y-22539999D01*
X39000500Y-22539999D01*
X39000500Y-5239184D01*
X51885000Y-5239184D01*
X51885000Y-5282500D01*
X52835000Y-5282500D01*
X53335000Y-5282500D01*
X54285000Y-5282500D01*
X54285000Y-5239197D01*
X54284999Y-5239184D01*
X56965000Y-5239184D01*
X56965000Y-5282500D01*
X57915000Y-5282500D01*
X58415000Y-5282500D01*
X59365000Y-5282500D01*
X59365000Y-5239197D01*
X59364999Y-5239184D01*
X59354592Y-5137326D01*
X59299905Y-4972290D01*
X59299903Y-4972285D01*
X59208629Y-4824308D01*
X59085691Y-4701370D01*
X58937714Y-4610096D01*
X58937709Y-4610094D01*
X58772673Y-4555407D01*
X58670815Y-4545000D01*
X58415000Y-4545000D01*
X58415000Y-5282500D01*
X57915000Y-5282500D01*
X57915000Y-4545000D01*
X57659184Y-4545000D01*
X57557326Y-4555407D01*
X57392290Y-4610094D01*
X57392285Y-4610096D01*
X57244308Y-4701370D01*
X57121370Y-4824308D01*
X57030096Y-4972285D01*
X57030094Y-4972290D01*
X56975407Y-5137326D01*
X56965000Y-5239184D01*
X54284999Y-5239184D01*
X54274592Y-5137326D01*
X54219905Y-4972290D01*
X54219903Y-4972285D01*
X54128629Y-4824308D01*
X54005691Y-4701370D01*
X53857714Y-4610096D01*
X53857709Y-4610094D01*
X53692673Y-4555407D01*
X53590815Y-4545000D01*
X53335000Y-4545000D01*
X53335000Y-5282500D01*
X52835000Y-5282500D01*
X52835000Y-4545000D01*
X52579184Y-4545000D01*
X52477326Y-4555407D01*
X52312290Y-4610094D01*
X52312285Y-4610096D01*
X52164308Y-4701370D01*
X52041370Y-4824308D01*
X51950096Y-4972285D01*
X51950094Y-4972290D01*
X51895407Y-5137326D01*
X51885000Y-5239184D01*
X39000500Y-5239184D01*
X39000500Y-5208166D01*
X39020185Y-5141127D01*
X39025300Y-5133766D01*
X39098950Y-5035567D01*
X40213050Y-3550100D01*
X40269021Y-3508279D01*
X40312250Y-3500500D01*
X59686817Y-3500500D01*
X59753856Y-3520185D01*
G37*
%TD.AperFunction*%
%TD*%
%TA.AperFunction,Conductor*%
%TO.N,GND*%
G36*
X46147164Y-15494805D02*
G01*
X46020000Y-15980000D01*
X45720000Y-15980000D01*
X45592836Y-15494805D01*
X45870000Y-15379000D01*
X46147164Y-15494805D01*
G37*
%TD.AperFunction*%
%TD*%
%TA.AperFunction,Conductor*%
%TO.N,GND*%
G36*
X50290000Y-22420000D02*
G01*
X50216274Y-22864142D01*
X50004142Y-23076274D01*
X49712836Y-22534805D01*
X49989293Y-22419293D01*
X50290000Y-22420000D01*
G37*
%TD.AperFunction*%
%TD*%
%TA.AperFunction,Conductor*%
%TO.N,GND*%
G36*
X50267164Y-22305195D02*
G01*
X49990707Y-22420707D01*
X49690000Y-22420000D01*
X49777868Y-21970000D01*
X49990000Y-21757868D01*
X50267164Y-22305195D01*
G37*
%TD.AperFunction*%
%TD*%
%TA.AperFunction,Conductor*%
%TO.N,GND*%
G36*
X49230000Y-26250000D02*
G01*
X49230000Y-26750000D01*
X48630000Y-26800000D01*
X48629000Y-26500000D01*
X48630000Y-26200000D01*
X49230000Y-26250000D01*
G37*
%TD.AperFunction*%
%TD*%
%TA.AperFunction,Conductor*%
%TO.N,GND*%
G36*
X49991000Y-23580000D02*
G01*
X50104805Y-23857164D01*
X49563969Y-24150000D01*
X49563969Y-23850000D01*
X49712836Y-23465195D01*
X49991000Y-23580000D01*
G37*
%TD.AperFunction*%
%TD*%
%TA.AperFunction,Conductor*%
%TO.N,GND*%
G36*
X51931000Y-29350000D02*
G01*
X51930000Y-29650000D01*
X51369671Y-29740000D01*
X51369671Y-29240000D01*
X51815195Y-29072836D01*
X51931000Y-29350000D01*
G37*
%TD.AperFunction*%
%TD*%
%TA.AperFunction,Conductor*%
%TO.N,GND*%
G36*
X49077164Y-36435195D02*
G01*
X48800000Y-36551000D01*
X48522836Y-36435195D01*
X48650000Y-35950000D01*
X48950000Y-35950000D01*
X49077164Y-36435195D01*
G37*
%TD.AperFunction*%
%TD*%
%TA.AperFunction,Conductor*%
%TO.N,GND*%
G36*
X46147164Y-17445195D02*
G01*
X45870000Y-17561000D01*
X45592836Y-17445195D01*
X45720000Y-16960000D01*
X46020000Y-16960000D01*
X46147164Y-17445195D01*
G37*
%TD.AperFunction*%
%TD*%
%TA.AperFunction,Conductor*%
%TO.N,GND*%
G36*
X50750000Y-33129346D02*
G01*
X50750000Y-33429346D01*
X50264805Y-33556510D01*
X50149000Y-33279346D01*
X50264805Y-33002182D01*
X50750000Y-33129346D01*
G37*
%TD.AperFunction*%
%TD*%
%TA.AperFunction,Conductor*%
%TO.N,GND*%
G36*
X50750000Y-34729346D02*
G01*
X50750000Y-35029346D01*
X50264805Y-35156510D01*
X50149000Y-34879346D01*
X50264805Y-34602182D01*
X50750000Y-34729346D01*
G37*
%TD.AperFunction*%
%TD*%
%TA.AperFunction,Conductor*%
%TO.N,GND*%
G36*
X50416031Y-23850000D02*
G01*
X50416031Y-24150000D01*
X49875195Y-23857164D01*
X49989000Y-23580000D01*
X50267164Y-23465195D01*
X50416031Y-23850000D01*
G37*
%TD.AperFunction*%
%TD*%
%TA.AperFunction,Conductor*%
%TO.N,+3V3*%
G36*
X59001261Y-13999983D02*
G01*
X59009528Y-14003420D01*
X59012945Y-14011697D01*
X59012793Y-14013562D01*
X58751598Y-15618983D01*
X58746887Y-15626598D01*
X58740050Y-15628804D01*
X58256257Y-15628804D01*
X58247984Y-15625377D01*
X58246526Y-15623601D01*
X57387606Y-14337120D01*
X57385863Y-14328336D01*
X57390840Y-14320892D01*
X57392839Y-14319822D01*
X58162843Y-13999896D01*
X58167338Y-13999002D01*
X59001261Y-13999983D01*
G37*
%TD.AperFunction*%
%TD*%
%TA.AperFunction,Conductor*%
%TO.N,+3V3*%
G36*
X58752210Y-18303427D02*
G01*
X58753496Y-18304953D01*
X59344320Y-19141953D01*
X59346291Y-19150688D01*
X59343039Y-19156968D01*
X58508278Y-19992712D01*
X58500007Y-19996144D01*
X58491732Y-19992722D01*
X58491722Y-19992712D01*
X57656960Y-19156968D01*
X57653538Y-19148693D01*
X57655677Y-19141956D01*
X58246504Y-18304953D01*
X58254075Y-18300170D01*
X58256063Y-18300000D01*
X58743937Y-18300000D01*
X58752210Y-18303427D01*
G37*
%TD.AperFunction*%
%TD*%
%TA.AperFunction,Conductor*%
%TO.N,+3V3*%
G36*
X58415273Y-12303427D02*
G01*
X58417903Y-12307455D01*
X58946146Y-13664058D01*
X58945954Y-13673010D01*
X58939732Y-13679108D01*
X58169489Y-13999134D01*
X58160534Y-13999143D01*
X58160511Y-13999134D01*
X57390267Y-13679108D01*
X57383942Y-13672769D01*
X57383853Y-13664058D01*
X57912097Y-12307455D01*
X57918293Y-12300989D01*
X57923000Y-12300000D01*
X58407000Y-12300000D01*
X58415273Y-12303427D01*
G37*
%TD.AperFunction*%
%TD*%
%TA.AperFunction,Conductor*%
%TO.N,Net-(D1-A)*%
G36*
X53093227Y-7414639D02*
G01*
X53566567Y-7882914D01*
X53570038Y-7891169D01*
X53568882Y-7896304D01*
X53338188Y-8375872D01*
X53331513Y-8381842D01*
X53327644Y-8382500D01*
X52842356Y-8382500D01*
X52834083Y-8379073D01*
X52831812Y-8375872D01*
X52601117Y-7896304D01*
X52600619Y-7887363D01*
X52603429Y-7882917D01*
X53076772Y-7414639D01*
X53085063Y-7411258D01*
X53093227Y-7414639D01*
G37*
%TD.AperFunction*%
%TD*%
%TA.AperFunction,Conductor*%
%TO.N,Net-(D2-A)*%
G36*
X58173227Y-7414639D02*
G01*
X58646567Y-7882914D01*
X58650038Y-7891169D01*
X58648882Y-7896304D01*
X58418188Y-8375872D01*
X58411513Y-8381842D01*
X58407644Y-8382500D01*
X57922356Y-8382500D01*
X57914083Y-8379073D01*
X57911812Y-8375872D01*
X57681117Y-7896304D01*
X57680619Y-7887363D01*
X57683429Y-7882917D01*
X58156772Y-7414639D01*
X58165063Y-7411258D01*
X58173227Y-7414639D01*
G37*
%TD.AperFunction*%
%TD*%
%TA.AperFunction,Conductor*%
%TO.N,/Block Diagram/SCL*%
G36*
X49877074Y-24890413D02*
G01*
X49880144Y-24892603D01*
X49992627Y-25004194D01*
X49996087Y-25012453D01*
X49992693Y-25020740D01*
X49992627Y-25020806D01*
X49880144Y-25132396D01*
X49871857Y-25135790D01*
X49868138Y-25135167D01*
X49757934Y-25097697D01*
X49751204Y-25091790D01*
X49750000Y-25086620D01*
X49750000Y-24938379D01*
X49753427Y-24930106D01*
X49757932Y-24927302D01*
X49868140Y-24889832D01*
X49877074Y-24890413D01*
G37*
%TD.AperFunction*%
%TD*%
%TA.AperFunction,Conductor*%
%TO.N,/Block Diagram/SCL*%
G36*
X47668333Y-28370495D02*
G01*
X47770876Y-28473038D01*
X47773110Y-28476163D01*
X47935496Y-28807614D01*
X47936058Y-28816552D01*
X47930137Y-28823269D01*
X47929483Y-28823565D01*
X47713800Y-28913289D01*
X47704845Y-28913302D01*
X47704789Y-28913279D01*
X47489496Y-28823167D01*
X47483187Y-28816811D01*
X47483087Y-28808192D01*
X47649135Y-28374582D01*
X47655293Y-28368083D01*
X47664244Y-28367842D01*
X47668333Y-28370495D01*
G37*
%TD.AperFunction*%
%TD*%
%TA.AperFunction,Conductor*%
%TO.N,/Block Diagram/SCL*%
G36*
X47612770Y-33053252D02*
G01*
X47618649Y-33059353D01*
X47709109Y-33275483D01*
X47709142Y-33284437D01*
X47709109Y-33284517D01*
X47618649Y-33500646D01*
X47612293Y-33506955D01*
X47603823Y-33507112D01*
X47217667Y-33365315D01*
X47211082Y-33359246D01*
X47210000Y-33354332D01*
X47210000Y-33205667D01*
X47213427Y-33197394D01*
X47217664Y-33194685D01*
X47603824Y-33052887D01*
X47612770Y-33053252D01*
G37*
%TD.AperFunction*%
%TD*%
%TA.AperFunction,Conductor*%
%TO.N,/Block Diagram/SCL*%
G36*
X49394947Y-27938793D02*
G01*
X49399082Y-27946736D01*
X49399126Y-27947639D01*
X49399998Y-28034883D01*
X49399998Y-28035117D01*
X49399126Y-28122360D01*
X49395617Y-28130598D01*
X49387310Y-28133942D01*
X49386407Y-28133898D01*
X49209680Y-28118434D01*
X49201737Y-28114299D01*
X49199000Y-28106779D01*
X49199000Y-27963220D01*
X49202427Y-27954947D01*
X49209678Y-27951565D01*
X49386409Y-27936101D01*
X49394947Y-27938793D01*
G37*
%TD.AperFunction*%
%TD*%
%TA.AperFunction,Conductor*%
%TO.N,/Block Diagram/SCL*%
G36*
X47802605Y-26003427D02*
G01*
X47805315Y-26007667D01*
X47947112Y-26393823D01*
X47946747Y-26402770D01*
X47940646Y-26408649D01*
X47724517Y-26499109D01*
X47715563Y-26499142D01*
X47715483Y-26499109D01*
X47499353Y-26408649D01*
X47493044Y-26402293D01*
X47492887Y-26393825D01*
X47634685Y-26007667D01*
X47640754Y-26001082D01*
X47645668Y-26000000D01*
X47794332Y-26000000D01*
X47802605Y-26003427D01*
G37*
%TD.AperFunction*%
%TD*%
%TA.AperFunction,Conductor*%
%TO.N,/Block Diagram/SCL*%
G36*
X48605898Y-33105869D02*
G01*
X48792452Y-33291495D01*
X48795900Y-33299760D01*
X48792494Y-33308041D01*
X48792242Y-33308287D01*
X48606637Y-33483941D01*
X48598273Y-33487139D01*
X48592298Y-33485304D01*
X48405403Y-33365950D01*
X48400275Y-33358609D01*
X48400000Y-33356089D01*
X48400000Y-33204812D01*
X48403427Y-33196539D01*
X48406570Y-33194297D01*
X48592521Y-33103645D01*
X48601457Y-33103101D01*
X48605898Y-33105869D01*
G37*
%TD.AperFunction*%
%TD*%
%TA.AperFunction,Conductor*%
%TO.N,/Block Diagram/SCL*%
G36*
X48202334Y-33194685D02*
G01*
X48208918Y-33200753D01*
X48210000Y-33205667D01*
X48210000Y-33354332D01*
X48206573Y-33362605D01*
X48202333Y-33365315D01*
X47816176Y-33507112D01*
X47807229Y-33506747D01*
X47801350Y-33500646D01*
X47744708Y-33365315D01*
X47710889Y-33284515D01*
X47710857Y-33275563D01*
X47801350Y-33059352D01*
X47807706Y-33053044D01*
X47816174Y-33052887D01*
X48202334Y-33194685D01*
G37*
%TD.AperFunction*%
%TD*%
%TA.AperFunction,Conductor*%
%TO.N,/Block Diagram/SCL*%
G36*
X42109236Y-32105763D02*
G01*
X43119587Y-32944591D01*
X43123763Y-32952512D01*
X43121115Y-32961067D01*
X43120386Y-32961866D01*
X43014678Y-33067574D01*
X43010272Y-33070344D01*
X41835718Y-33481643D01*
X41826777Y-33481143D01*
X41821044Y-33475082D01*
X41502293Y-32706526D01*
X41502289Y-32697571D01*
X41504834Y-32693764D01*
X42093501Y-32106481D01*
X42101776Y-32103065D01*
X42109236Y-32105763D01*
G37*
%TD.AperFunction*%
%TD*%
%TA.AperFunction,Conductor*%
%TO.N,/Block Diagram/BMM 150/INT_Mag*%
G36*
X50260571Y-28219099D02*
G01*
X50437321Y-28234565D01*
X50445263Y-28238700D01*
X50448000Y-28246220D01*
X50448000Y-28389779D01*
X50444573Y-28398052D01*
X50437320Y-28401434D01*
X50260592Y-28416898D01*
X50252052Y-28414206D01*
X50247917Y-28406263D01*
X50247873Y-28405375D01*
X50247001Y-28318100D01*
X50247001Y-28317883D01*
X50247873Y-28230637D01*
X50251382Y-28222401D01*
X50259689Y-28219057D01*
X50260571Y-28219099D01*
G37*
%TD.AperFunction*%
%TD*%
%TA.AperFunction,Conductor*%
%TO.N,/Block Diagram/BMM 150/INT_Mag*%
G36*
X57172420Y-31740794D02*
G01*
X58489267Y-31849117D01*
X58497232Y-31853211D01*
X58500008Y-31860768D01*
X58500700Y-32692872D01*
X58497280Y-32701148D01*
X58493466Y-32703696D01*
X57724239Y-33021342D01*
X57715284Y-33021333D01*
X57709602Y-33016312D01*
X57486257Y-32623563D01*
X57054757Y-31864773D01*
X57053648Y-31855889D01*
X57056654Y-31850720D01*
X57163192Y-31744182D01*
X57171464Y-31740756D01*
X57172420Y-31740794D01*
G37*
%TD.AperFunction*%
%TD*%
%TA.AperFunction,Conductor*%
%TO.N,/Block Diagram/BMM 150/DRDY_Mag*%
G36*
X58173673Y-29378535D02*
G01*
X58178658Y-29384201D01*
X58497706Y-30153473D01*
X58497710Y-30162428D01*
X58495162Y-30166238D01*
X57907127Y-30752891D01*
X57898850Y-30756308D01*
X57890697Y-30752985D01*
X56922954Y-29809415D01*
X56919423Y-29801186D01*
X56922745Y-29792870D01*
X57028941Y-29686673D01*
X57034149Y-29683656D01*
X58164794Y-29377390D01*
X58173673Y-29378535D01*
G37*
%TD.AperFunction*%
%TD*%
%TA.AperFunction,Conductor*%
%TO.N,/Block Diagram/BMM 150/DRDY_Mag*%
G36*
X50260571Y-27653099D02*
G01*
X50437321Y-27668565D01*
X50445263Y-27672700D01*
X50448000Y-27680220D01*
X50448000Y-27823779D01*
X50444573Y-27832052D01*
X50437320Y-27835434D01*
X50260592Y-27850898D01*
X50252052Y-27848206D01*
X50247917Y-27840263D01*
X50247873Y-27839375D01*
X50247001Y-27752100D01*
X50247001Y-27751883D01*
X50247873Y-27664637D01*
X50251382Y-27656401D01*
X50259689Y-27653057D01*
X50260571Y-27653099D01*
G37*
%TD.AperFunction*%
%TD*%
%TA.AperFunction,Conductor*%
%TO.N,/Block Diagram/SDA*%
G36*
X46465183Y-29628132D02*
G01*
X46735912Y-29886458D01*
X46739532Y-29894649D01*
X46737153Y-29901999D01*
X46547066Y-30152331D01*
X46539334Y-30156847D01*
X46531702Y-30155272D01*
X46526829Y-30152331D01*
X46424546Y-30090595D01*
X46239268Y-29978765D01*
X46233956Y-29971556D01*
X46234704Y-29963816D01*
X46339372Y-29738786D01*
X46341703Y-29735454D01*
X46448834Y-29628323D01*
X46457106Y-29624897D01*
X46465183Y-29628132D01*
G37*
%TD.AperFunction*%
%TD*%
%TA.AperFunction,Conductor*%
%TO.N,/Block Diagram/SDA*%
G36*
X41835717Y-29380078D02*
G01*
X41836551Y-29380464D01*
X43193626Y-30074241D01*
X43199432Y-30081059D01*
X43200000Y-30084659D01*
X43200000Y-30235340D01*
X43196573Y-30243613D01*
X43193626Y-30245758D01*
X41836554Y-30939534D01*
X41827628Y-30940248D01*
X41820810Y-30934442D01*
X41820423Y-30933605D01*
X41500865Y-30164489D01*
X41500856Y-30155534D01*
X41500865Y-30155511D01*
X41820423Y-29386394D01*
X41826762Y-29380069D01*
X41835717Y-29380078D01*
G37*
%TD.AperFunction*%
%TD*%
%TA.AperFunction,Conductor*%
%TO.N,/Block Diagram/SDA*%
G36*
X48403888Y-24376435D02*
G01*
X48577505Y-24440548D01*
X48708776Y-24489024D01*
X48715350Y-24495105D01*
X48715699Y-24504053D01*
X48709618Y-24510627D01*
X48708776Y-24510976D01*
X48403890Y-24623563D01*
X48396071Y-24623664D01*
X48282934Y-24585197D01*
X48276204Y-24579290D01*
X48275000Y-24574120D01*
X48275000Y-24425879D01*
X48278427Y-24417606D01*
X48282932Y-24414802D01*
X48396073Y-24376335D01*
X48403888Y-24376435D01*
G37*
%TD.AperFunction*%
%TD*%
%TA.AperFunction,Conductor*%
%TO.N,/Block Diagram/SDA*%
G36*
X49677947Y-27655793D02*
G01*
X49682082Y-27663736D01*
X49682126Y-27664639D01*
X49682998Y-27751883D01*
X49682998Y-27752117D01*
X49682126Y-27839360D01*
X49678617Y-27847598D01*
X49670310Y-27850942D01*
X49669407Y-27850898D01*
X49492680Y-27835434D01*
X49484737Y-27831299D01*
X49482000Y-27823779D01*
X49482000Y-27680220D01*
X49485427Y-27671947D01*
X49492678Y-27668565D01*
X49669409Y-27653101D01*
X49677947Y-27655793D01*
G37*
%TD.AperFunction*%
%TD*%
%TA.AperFunction,Conductor*%
%TO.N,/Block Diagram/SDA*%
G36*
X49007001Y-33902550D02*
G01*
X49095293Y-33934710D01*
X49099561Y-33937430D01*
X49205774Y-34043643D01*
X49209201Y-34051916D01*
X49205774Y-34060189D01*
X49205420Y-34060529D01*
X49007116Y-34242862D01*
X48998707Y-34245939D01*
X48992232Y-34243650D01*
X48810195Y-34108784D01*
X48805589Y-34101107D01*
X48807760Y-34092419D01*
X48808881Y-34091118D01*
X48994729Y-33905270D01*
X49003001Y-33901844D01*
X49007001Y-33902550D01*
G37*
%TD.AperFunction*%
%TD*%
%TA.AperFunction,Conductor*%
%TO.N,/Block Diagram/BMI 088/INT_ACCEL_1*%
G36*
X50131856Y-20864831D02*
G01*
X50242066Y-20902302D01*
X50248796Y-20908209D01*
X50250000Y-20913379D01*
X50250000Y-21061620D01*
X50246573Y-21069893D01*
X50242066Y-21072697D01*
X50131861Y-21110167D01*
X50122925Y-21109586D01*
X50119855Y-21107396D01*
X50007371Y-20995805D01*
X50003912Y-20987547D01*
X50007306Y-20979260D01*
X50007372Y-20979194D01*
X50119857Y-20867602D01*
X50128142Y-20864209D01*
X50131856Y-20864831D01*
G37*
%TD.AperFunction*%
%TD*%
%TA.AperFunction,Conductor*%
%TO.N,/Block Diagram/BMI 088/INT_ACCEL_1*%
G36*
X57363060Y-23821783D02*
G01*
X58813235Y-24290806D01*
X58820052Y-24296611D01*
X58820766Y-24305537D01*
X58820448Y-24306403D01*
X58502562Y-25076214D01*
X58496237Y-25082553D01*
X58496214Y-25082562D01*
X57726403Y-25400448D01*
X57717448Y-25400439D01*
X57711123Y-25394100D01*
X57710810Y-25393249D01*
X57241784Y-23943063D01*
X57242498Y-23934140D01*
X57244640Y-23931196D01*
X57351194Y-23824642D01*
X57359466Y-23821216D01*
X57363060Y-23821783D01*
G37*
%TD.AperFunction*%
%TD*%
%TA.AperFunction,Conductor*%
%TO.N,/Block Diagram/BMI 088/INT_GYRO_2*%
G36*
X41835717Y-24300078D02*
G01*
X41836551Y-24300464D01*
X43193626Y-24994241D01*
X43199432Y-25001059D01*
X43200000Y-25004659D01*
X43200000Y-25155340D01*
X43196573Y-25163613D01*
X43193626Y-25165758D01*
X41836554Y-25859534D01*
X41827628Y-25860248D01*
X41820810Y-25854442D01*
X41820423Y-25853605D01*
X41500865Y-25084489D01*
X41500856Y-25075534D01*
X41500865Y-25075511D01*
X41820423Y-24306394D01*
X41826762Y-24300069D01*
X41835717Y-24300078D01*
G37*
%TD.AperFunction*%
%TD*%
%TA.AperFunction,Conductor*%
%TO.N,/Block Diagram/BMI 088/INT_GYRO_2*%
G36*
X48403888Y-22376435D02*
G01*
X48577505Y-22440548D01*
X48708776Y-22489024D01*
X48715350Y-22495105D01*
X48715699Y-22504053D01*
X48709618Y-22510627D01*
X48708776Y-22510976D01*
X48403890Y-22623563D01*
X48396071Y-22623664D01*
X48282934Y-22585197D01*
X48276204Y-22579290D01*
X48275000Y-22574120D01*
X48275000Y-22425879D01*
X48278427Y-22417606D01*
X48282932Y-22414802D01*
X48396073Y-22376335D01*
X48403888Y-22376435D01*
G37*
%TD.AperFunction*%
%TD*%
%TA.AperFunction,Conductor*%
%TO.N,/Block Diagram/BMI 088/INT_GYRO_1*%
G36*
X48403888Y-22876435D02*
G01*
X48577505Y-22940548D01*
X48708776Y-22989024D01*
X48715350Y-22995105D01*
X48715699Y-23004053D01*
X48709618Y-23010627D01*
X48708776Y-23010976D01*
X48403890Y-23123563D01*
X48396071Y-23123664D01*
X48282934Y-23085197D01*
X48276204Y-23079290D01*
X48275000Y-23074120D01*
X48275000Y-22925879D01*
X48278427Y-22917606D01*
X48282932Y-22914802D01*
X48396073Y-22876335D01*
X48403888Y-22876435D01*
G37*
%TD.AperFunction*%
%TD*%
%TA.AperFunction,Conductor*%
%TO.N,/Block Diagram/BMI 088/INT_GYRO_1*%
G36*
X42657939Y-26380480D02*
G01*
X42660747Y-26382552D01*
X42767308Y-26489113D01*
X42770735Y-26497386D01*
X42770127Y-26501110D01*
X42289282Y-27933411D01*
X42283400Y-27940163D01*
X42274466Y-27940779D01*
X42273724Y-27940501D01*
X41503785Y-27622562D01*
X41497447Y-27616238D01*
X41179617Y-26846563D01*
X41179626Y-26837608D01*
X41185965Y-26831283D01*
X41186969Y-26830920D01*
X42649024Y-26379645D01*
X42657939Y-26380480D01*
G37*
%TD.AperFunction*%
%TD*%
%TA.AperFunction,Conductor*%
%TO.N,/Block Diagram/BMI 088/INT_ACCEL_2*%
G36*
X51717066Y-21414802D02*
G01*
X51723796Y-21420709D01*
X51725000Y-21425879D01*
X51725000Y-21574120D01*
X51721573Y-21582393D01*
X51717066Y-21585197D01*
X51603928Y-21623664D01*
X51596109Y-21623563D01*
X51291223Y-21510976D01*
X51284649Y-21504895D01*
X51284300Y-21495947D01*
X51290381Y-21489373D01*
X51291223Y-21489024D01*
X51596111Y-21376435D01*
X51603926Y-21376335D01*
X51717066Y-21414802D01*
G37*
%TD.AperFunction*%
%TD*%
%TA.AperFunction,Conductor*%
%TO.N,/Block Diagram/BMI 088/INT_ACCEL_2*%
G36*
X57363060Y-26361783D02*
G01*
X58813235Y-26830806D01*
X58820052Y-26836611D01*
X58820766Y-26845537D01*
X58820448Y-26846403D01*
X58502562Y-27616214D01*
X58496237Y-27622553D01*
X58496214Y-27622562D01*
X57726403Y-27940448D01*
X57717448Y-27940439D01*
X57711123Y-27934100D01*
X57710810Y-27933249D01*
X57241784Y-26483063D01*
X57242498Y-26474140D01*
X57244640Y-26471196D01*
X57351194Y-26364642D01*
X57359466Y-26361216D01*
X57363060Y-26361783D01*
G37*
%TD.AperFunction*%
%TD*%
%TA.AperFunction,Conductor*%
%TO.N,+ExtV*%
G36*
X44089135Y-13749223D02*
G01*
X44097142Y-13753230D01*
X44100000Y-13760893D01*
X44100000Y-14239106D01*
X44096573Y-14247379D01*
X44089134Y-14250776D01*
X43687106Y-14279492D01*
X43678609Y-14276664D01*
X43676287Y-14273920D01*
X43512724Y-14006098D01*
X43511336Y-13997251D01*
X43512724Y-13993902D01*
X43659706Y-13753230D01*
X43676287Y-13726078D01*
X43683523Y-13720804D01*
X43687102Y-13720507D01*
X44089135Y-13749223D01*
G37*
%TD.AperFunction*%
%TD*%
%TA.AperFunction,Conductor*%
%TO.N,+ExtV*%
G36*
X43341390Y-13723335D02*
G01*
X43343712Y-13726079D01*
X43507275Y-13993902D01*
X43508663Y-14002749D01*
X43507275Y-14006098D01*
X43343712Y-14273920D01*
X43336476Y-14279195D01*
X43332893Y-14279492D01*
X42930866Y-14250776D01*
X42922858Y-14246769D01*
X42920000Y-14239106D01*
X42920000Y-13760893D01*
X42923427Y-13752620D01*
X42930863Y-13749224D01*
X43332894Y-13720507D01*
X43341390Y-13723335D01*
G37*
%TD.AperFunction*%
%TD*%
%TA.AperFunction,Conductor*%
%TO.N,+ExtV*%
G36*
X41752210Y-18303427D02*
G01*
X41753496Y-18304953D01*
X42344320Y-19141953D01*
X42346291Y-19150688D01*
X42343039Y-19156968D01*
X41508278Y-19992712D01*
X41500007Y-19996144D01*
X41491732Y-19992722D01*
X41491722Y-19992712D01*
X40656960Y-19156968D01*
X40653538Y-19148693D01*
X40655677Y-19141956D01*
X41246504Y-18304953D01*
X41254075Y-18300170D01*
X41256063Y-18300000D01*
X41743937Y-18300000D01*
X41752210Y-18303427D01*
G37*
%TD.AperFunction*%
%TD*%
%TA.AperFunction,Conductor*%
%TO.N,+ExtV*%
G36*
X44697089Y-16507915D02*
G01*
X44700110Y-16510088D01*
X44770494Y-16580160D01*
X44912672Y-16721709D01*
X44916117Y-16729974D01*
X44912708Y-16738255D01*
X44912672Y-16738291D01*
X44700112Y-16949910D01*
X44691831Y-16953319D01*
X44688157Y-16952719D01*
X44478000Y-16882666D01*
X44471235Y-16876798D01*
X44470000Y-16871566D01*
X44470000Y-16588433D01*
X44473427Y-16580160D01*
X44477998Y-16577333D01*
X44688159Y-16507280D01*
X44697089Y-16507915D01*
G37*
%TD.AperFunction*%
%TD*%
%TA.AperFunction,Conductor*%
%TO.N,+3V3R*%
G36*
X52241968Y-13156960D02*
G01*
X53077712Y-13991722D01*
X53081144Y-13999993D01*
X53077722Y-14008268D01*
X53077712Y-14008278D01*
X52241968Y-14843039D01*
X52233693Y-14846461D01*
X52226953Y-14844320D01*
X52225138Y-14843039D01*
X51389953Y-14253496D01*
X51385170Y-14245925D01*
X51385000Y-14243937D01*
X51385000Y-13756062D01*
X51388427Y-13747789D01*
X51389947Y-13746507D01*
X52226955Y-13155678D01*
X52235688Y-13153708D01*
X52241968Y-13156960D01*
G37*
%TD.AperFunction*%
%TD*%
%TA.AperFunction,Conductor*%
%TO.N,+3V3R*%
G36*
X48809135Y-13749223D02*
G01*
X48817142Y-13753230D01*
X48820000Y-13760893D01*
X48820000Y-14239106D01*
X48816573Y-14247379D01*
X48809134Y-14250776D01*
X48407106Y-14279492D01*
X48398609Y-14276664D01*
X48396287Y-14273920D01*
X48232724Y-14006098D01*
X48231336Y-13997251D01*
X48232724Y-13993902D01*
X48379706Y-13753230D01*
X48396287Y-13726078D01*
X48403523Y-13720804D01*
X48407102Y-13720507D01*
X48809135Y-13749223D01*
G37*
%TD.AperFunction*%
%TD*%
%TA.AperFunction,Conductor*%
%TO.N,+3V3R*%
G36*
X48008072Y-13734224D02*
G01*
X48009939Y-13736009D01*
X48228377Y-13996868D01*
X48231103Y-14004083D01*
X48237798Y-14268003D01*
X48234582Y-14276361D01*
X48226399Y-14279996D01*
X48226102Y-14280000D01*
X47651700Y-14280000D01*
X47643427Y-14276573D01*
X47640000Y-14268300D01*
X47640000Y-13790239D01*
X47643427Y-13781966D01*
X47650147Y-13778642D01*
X47999418Y-13731924D01*
X48008072Y-13734224D01*
G37*
%TD.AperFunction*%
%TD*%
%TA.AperFunction,Conductor*%
%TO.N,+3V3R*%
G36*
X53337210Y-12303427D02*
G01*
X53338496Y-12304953D01*
X53929320Y-13141953D01*
X53931291Y-13150688D01*
X53928039Y-13156968D01*
X53093278Y-13992712D01*
X53085007Y-13996144D01*
X53076732Y-13992722D01*
X53076722Y-13992712D01*
X52241960Y-13156968D01*
X52238538Y-13148693D01*
X52240677Y-13141956D01*
X52831504Y-12304953D01*
X52839075Y-12300170D01*
X52841063Y-12300000D01*
X53328937Y-12300000D01*
X53337210Y-12303427D01*
G37*
%TD.AperFunction*%
%TD*%
%TA.AperFunction,Conductor*%
%TO.N,+VDD*%
G36*
X49527491Y-29495246D02*
G01*
X49783257Y-29708501D01*
X49787416Y-29716431D01*
X49786889Y-29721110D01*
X49672631Y-30071923D01*
X49666810Y-30078728D01*
X49661506Y-30080000D01*
X49378494Y-30080000D01*
X49370221Y-30076573D01*
X49367369Y-30071923D01*
X49253110Y-29721108D01*
X49253806Y-29712183D01*
X49256738Y-29708505D01*
X49512508Y-29495246D01*
X49521056Y-29492581D01*
X49527491Y-29495246D01*
G37*
%TD.AperFunction*%
%TD*%
%TA.AperFunction,Conductor*%
%TO.N,+VDD*%
G36*
X47960445Y-21623386D02*
G01*
X48201190Y-21817124D01*
X48237678Y-21846487D01*
X48241975Y-21854344D01*
X48242043Y-21855602D01*
X48242043Y-22137326D01*
X48238616Y-22145599D01*
X48230343Y-22149026D01*
X48229410Y-22148989D01*
X47629268Y-22101000D01*
X47621295Y-22096924D01*
X47618538Y-22088404D01*
X47618629Y-22087614D01*
X47658241Y-21825026D01*
X47662863Y-21817358D01*
X47663164Y-21817144D01*
X47946493Y-21622851D01*
X47955254Y-21620999D01*
X47960445Y-21623386D01*
G37*
%TD.AperFunction*%
%TD*%
%TA.AperFunction,Conductor*%
%TO.N,+VDD*%
G36*
X53779439Y-22902180D02*
G01*
X53819461Y-22918866D01*
X53825779Y-22925213D01*
X53826038Y-22933425D01*
X53612695Y-23562060D01*
X53606792Y-23568793D01*
X53601616Y-23570000D01*
X53318384Y-23570000D01*
X53310111Y-23566573D01*
X53307305Y-23562060D01*
X53093961Y-22933425D01*
X53094547Y-22924489D01*
X53100537Y-22918866D01*
X53455500Y-22770875D01*
X53464449Y-22770855D01*
X53779439Y-22902180D01*
G37*
%TD.AperFunction*%
%TD*%
%TA.AperFunction,Conductor*%
%TO.N,+VDD*%
G36*
X53185081Y-33495053D02*
G01*
X53459334Y-33768340D01*
X53461895Y-33772176D01*
X53607893Y-34126964D01*
X53607872Y-34135918D01*
X53601525Y-34142236D01*
X53599850Y-34142782D01*
X52807024Y-34336463D01*
X52798174Y-34335097D01*
X52792881Y-34327874D01*
X52792547Y-34325097D01*
X52792547Y-33845144D01*
X52795974Y-33836871D01*
X52796338Y-33836522D01*
X52868849Y-33770000D01*
X53168914Y-33494718D01*
X53177326Y-33491652D01*
X53185081Y-33495053D01*
G37*
%TD.AperFunction*%
%TD*%
%TA.AperFunction,Conductor*%
%TO.N,+VDD*%
G36*
X53845939Y-33769964D02*
G01*
X53854202Y-33773412D01*
X53857608Y-33781693D01*
X53857408Y-33783820D01*
X53711790Y-34560456D01*
X53706897Y-34567956D01*
X53700290Y-34570000D01*
X53219710Y-34570000D01*
X53211437Y-34566573D01*
X53208210Y-34560456D01*
X53062591Y-33783820D01*
X53064435Y-33775057D01*
X53071935Y-33770164D01*
X53074052Y-33769964D01*
X53460000Y-33769000D01*
X53845939Y-33769964D01*
G37*
%TD.AperFunction*%
%TD*%
%TA.AperFunction,Conductor*%
%TO.N,+VDD*%
G36*
X51406401Y-35501600D02*
G01*
X51591139Y-35547784D01*
X51598333Y-35553115D01*
X51600000Y-35559135D01*
X51600000Y-35840864D01*
X51596573Y-35849137D01*
X51591138Y-35852215D01*
X51406407Y-35898398D01*
X51397549Y-35897080D01*
X51395320Y-35895343D01*
X51207334Y-35708293D01*
X51203887Y-35700029D01*
X51207293Y-35691748D01*
X51395320Y-35504656D01*
X51403598Y-35501252D01*
X51406401Y-35501600D01*
G37*
%TD.AperFunction*%
%TD*%
%TA.AperFunction,Conductor*%
%TO.N,+VDD*%
G36*
X48602450Y-34702919D02*
G01*
X48604675Y-34704651D01*
X48792665Y-34891706D01*
X48796112Y-34899971D01*
X48792706Y-34908253D01*
X48792664Y-34908294D01*
X48604682Y-35095341D01*
X48596401Y-35098747D01*
X48593592Y-35098398D01*
X48408862Y-35052215D01*
X48401667Y-35046884D01*
X48400000Y-35040864D01*
X48400000Y-34759135D01*
X48403427Y-34750862D01*
X48408860Y-34747784D01*
X48593594Y-34701601D01*
X48602450Y-34702919D01*
G37*
%TD.AperFunction*%
%TD*%
%TA.AperFunction,Conductor*%
%TO.N,+VDD*%
G36*
X52969135Y-22519223D02*
G01*
X52977142Y-22523230D01*
X52980000Y-22530893D01*
X52980000Y-23009106D01*
X52976573Y-23017379D01*
X52969134Y-23020776D01*
X52567106Y-23049492D01*
X52558609Y-23046664D01*
X52556287Y-23043920D01*
X52392724Y-22776098D01*
X52391336Y-22767251D01*
X52392724Y-22763902D01*
X52539706Y-22523230D01*
X52556287Y-22496078D01*
X52563523Y-22490804D01*
X52567102Y-22490507D01*
X52969135Y-22519223D01*
G37*
%TD.AperFunction*%
%TD*%
%TA.AperFunction,Conductor*%
%TO.N,+VDD*%
G36*
X53454942Y-22374435D02*
G01*
X53459835Y-22381935D01*
X53460035Y-22384062D01*
X53461000Y-22770000D01*
X53461000Y-22770058D01*
X53460035Y-23155937D01*
X53456587Y-23164202D01*
X53448306Y-23167608D01*
X53446179Y-23167408D01*
X52669544Y-23021789D01*
X52662044Y-23016896D01*
X52660000Y-23010289D01*
X52660000Y-22529710D01*
X52663427Y-22521437D01*
X52669542Y-22518210D01*
X53446180Y-22372591D01*
X53454942Y-22374435D01*
G37*
%TD.AperFunction*%
%TD*%
%TA.AperFunction,Conductor*%
%TO.N,+VDD*%
G36*
X51125510Y-30184547D02*
G01*
X51131133Y-30190538D01*
X51279123Y-30545498D01*
X51279144Y-30554452D01*
X51279123Y-30554502D01*
X51131133Y-30909461D01*
X51124786Y-30915779D01*
X51116574Y-30916038D01*
X50487940Y-30702694D01*
X50481207Y-30696791D01*
X50480000Y-30691615D01*
X50480000Y-30408384D01*
X50483427Y-30400111D01*
X50487938Y-30397305D01*
X51116575Y-30183961D01*
X51125510Y-30184547D01*
G37*
%TD.AperFunction*%
%TD*%
%TA.AperFunction,Conductor*%
%TO.N,+VDD*%
G36*
X53845939Y-22769964D02*
G01*
X53854202Y-22773412D01*
X53857608Y-22781693D01*
X53857408Y-22783820D01*
X53711790Y-23560456D01*
X53706897Y-23567956D01*
X53700290Y-23570000D01*
X53219710Y-23570000D01*
X53211437Y-23566573D01*
X53208210Y-23560456D01*
X53062591Y-22783820D01*
X53064435Y-22775057D01*
X53071935Y-22770164D01*
X53074052Y-22769964D01*
X53460000Y-22769000D01*
X53845939Y-22769964D01*
G37*
%TD.AperFunction*%
%TD*%
%TA.AperFunction,Conductor*%
%TO.N,+VDD*%
G36*
X51881241Y-22353402D02*
G01*
X52447428Y-22487292D01*
X52454690Y-22492531D01*
X52456121Y-22501371D01*
X52456106Y-22501435D01*
X52392268Y-22764767D01*
X52386988Y-22771999D01*
X52386199Y-22772440D01*
X52091851Y-22922084D01*
X52082923Y-22922778D01*
X52077336Y-22918866D01*
X51869341Y-22653176D01*
X51866854Y-22645964D01*
X51866854Y-22364789D01*
X51870281Y-22356516D01*
X51878554Y-22353089D01*
X51881241Y-22353402D01*
G37*
%TD.AperFunction*%
%TD*%
%TA.AperFunction,Conductor*%
%TO.N,+VDD*%
G36*
X46548563Y-35103427D02*
G01*
X46551790Y-35109544D01*
X46697408Y-35886179D01*
X46695564Y-35894942D01*
X46688064Y-35899835D01*
X46685937Y-35900035D01*
X46300029Y-35900999D01*
X46299971Y-35900999D01*
X45914062Y-35900035D01*
X45905797Y-35896587D01*
X45902391Y-35888306D01*
X45902591Y-35886179D01*
X46048210Y-35109544D01*
X46053103Y-35102044D01*
X46059710Y-35100000D01*
X46540290Y-35100000D01*
X46548563Y-35103427D01*
G37*
%TD.AperFunction*%
%TD*%
%TA.AperFunction,Conductor*%
%TO.N,+VDD*%
G36*
X51835575Y-35553702D02*
G01*
X52400273Y-35697125D01*
X52407447Y-35702482D01*
X52408737Y-35711324D01*
X52342323Y-35974750D01*
X52336978Y-35981935D01*
X52336142Y-35982389D01*
X52041054Y-36127534D01*
X52032118Y-36128110D01*
X52026530Y-36124055D01*
X51823336Y-35853120D01*
X51820996Y-35846100D01*
X51820996Y-35565043D01*
X51824423Y-35556770D01*
X51832696Y-35553343D01*
X51835575Y-35553702D01*
G37*
%TD.AperFunction*%
%TD*%
%TA.AperFunction,Conductor*%
%TO.N,+VDD*%
G36*
X51029336Y-26249052D02*
G01*
X51037273Y-26253198D01*
X51040000Y-26260706D01*
X51040000Y-26739293D01*
X51036573Y-26747566D01*
X51029336Y-26750947D01*
X50708784Y-26779443D01*
X50700240Y-26776762D01*
X50698604Y-26775088D01*
X50645964Y-26709149D01*
X50484825Y-26507297D01*
X50482343Y-26498696D01*
X50484825Y-26492703D01*
X50698604Y-26224910D01*
X50706444Y-26220583D01*
X50708780Y-26220556D01*
X51029336Y-26249052D01*
G37*
%TD.AperFunction*%
%TD*%
%TA.AperFunction,Conductor*%
%TO.N,+VDD*%
G36*
X50487840Y-26505537D02*
G01*
X50743272Y-26718514D01*
X50747431Y-26726444D01*
X50746913Y-26731096D01*
X50633617Y-27081896D01*
X50627813Y-27088715D01*
X50622483Y-27090000D01*
X50437631Y-27090000D01*
X50429358Y-27086573D01*
X50427593Y-27084311D01*
X50224391Y-26744983D01*
X50223081Y-26736125D01*
X50226541Y-26730331D01*
X50472461Y-26505880D01*
X50480880Y-26502835D01*
X50487840Y-26505537D01*
G37*
%TD.AperFunction*%
%TD*%
%TA.AperFunction,Conductor*%
%TO.N,+VDD*%
G36*
X45961388Y-30933472D02*
G01*
X45964923Y-30941700D01*
X45964924Y-30941853D01*
X45964924Y-31422482D01*
X45961497Y-31430755D01*
X45958086Y-31433124D01*
X45364077Y-31704523D01*
X45355128Y-31704844D01*
X45348573Y-31698743D01*
X45348416Y-31698383D01*
X45199905Y-31342171D01*
X45199005Y-31337648D01*
X45199971Y-30951518D01*
X45203419Y-30943254D01*
X45211516Y-30939849D01*
X45953073Y-30930154D01*
X45961388Y-30933472D01*
G37*
%TD.AperFunction*%
%TD*%
%TA.AperFunction,Conductor*%
%TO.N,+VDD*%
G36*
X49501630Y-28903427D02*
G01*
X49502513Y-28904415D01*
X49743272Y-29207017D01*
X49745741Y-29215625D01*
X49743124Y-29221768D01*
X49526462Y-29483202D01*
X49518545Y-29487385D01*
X49511356Y-29485721D01*
X49246556Y-29324004D01*
X49241281Y-29316768D01*
X49241068Y-29312395D01*
X49297585Y-28910071D01*
X49302129Y-28902356D01*
X49309171Y-28900000D01*
X49493357Y-28900000D01*
X49501630Y-28903427D01*
G37*
%TD.AperFunction*%
%TD*%
%TA.AperFunction,Conductor*%
%TO.N,+VDD*%
G36*
X52127824Y-33813805D02*
G01*
X52131489Y-33816732D01*
X52344752Y-34072507D01*
X52347418Y-34081056D01*
X52344752Y-34087493D01*
X52131507Y-34343246D01*
X52123577Y-34347405D01*
X52118880Y-34346872D01*
X51768059Y-34231985D01*
X51761263Y-34226154D01*
X51760000Y-34220866D01*
X51760000Y-33937854D01*
X51763427Y-33929581D01*
X51768091Y-33926724D01*
X52118899Y-33813094D01*
X52127824Y-33813805D01*
G37*
%TD.AperFunction*%
%TD*%
%TA.AperFunction,Conductor*%
%TO.N,+VDD*%
G36*
X51405788Y-33900849D02*
G01*
X51590000Y-33927878D01*
X51597687Y-33932470D01*
X51600000Y-33939454D01*
X51600000Y-34220664D01*
X51596573Y-34228937D01*
X51591691Y-34231862D01*
X51406493Y-34287945D01*
X51397582Y-34287063D01*
X51395067Y-34285251D01*
X51207770Y-34108286D01*
X51204110Y-34100114D01*
X51207301Y-34091747D01*
X51207505Y-34091536D01*
X51395848Y-33904131D01*
X51404127Y-33900726D01*
X51405788Y-33900849D01*
G37*
%TD.AperFunction*%
%TD*%
%TA.AperFunction,Conductor*%
%TO.N,+VDD*%
G36*
X48267754Y-23353534D02*
G01*
X48271419Y-23361705D01*
X48271424Y-23362043D01*
X48271424Y-23645106D01*
X48267997Y-23653379D01*
X48267938Y-23653437D01*
X47871101Y-24044700D01*
X47862804Y-24048069D01*
X47854628Y-24044657D01*
X47582453Y-23773441D01*
X47579012Y-23765174D01*
X47579012Y-23765124D01*
X47579291Y-23653437D01*
X47579971Y-23381336D01*
X47583419Y-23373073D01*
X47591332Y-23369672D01*
X48259386Y-23350348D01*
X48267754Y-23353534D01*
G37*
%TD.AperFunction*%
%TD*%
%TA.AperFunction,Conductor*%
%TO.N,+VDD*%
G36*
X47437816Y-21553806D02*
G01*
X47441496Y-21556741D01*
X47543013Y-21678494D01*
X47654752Y-21812507D01*
X47657418Y-21821056D01*
X47654752Y-21827493D01*
X47441498Y-22083257D01*
X47433568Y-22087416D01*
X47428889Y-22086889D01*
X47078077Y-21972630D01*
X47071271Y-21966809D01*
X47070000Y-21961505D01*
X47070000Y-21678494D01*
X47073427Y-21670221D01*
X47078075Y-21667369D01*
X47428891Y-21553110D01*
X47437816Y-21553806D01*
G37*
%TD.AperFunction*%
%TD*%
%TA.AperFunction,Conductor*%
%TO.N,+VDD*%
G36*
X47512060Y-21667305D02*
G01*
X47518793Y-21673208D01*
X47520000Y-21678384D01*
X47520000Y-21961615D01*
X47516573Y-21969888D01*
X47512060Y-21972694D01*
X46883425Y-22186038D01*
X46874489Y-22185452D01*
X46868866Y-22179461D01*
X46852180Y-22139439D01*
X46720875Y-21824499D01*
X46720855Y-21815550D01*
X46868866Y-21460537D01*
X46875213Y-21454220D01*
X46883424Y-21453961D01*
X47512060Y-21667305D01*
G37*
%TD.AperFunction*%
%TD*%
%TA.AperFunction,Conductor*%
%TO.N,+VDD*%
G36*
X52919135Y-35729223D02*
G01*
X52927142Y-35733230D01*
X52930000Y-35740893D01*
X52930000Y-36219106D01*
X52926573Y-36227379D01*
X52919134Y-36230776D01*
X52517106Y-36259492D01*
X52508609Y-36256664D01*
X52506287Y-36253920D01*
X52342724Y-35986098D01*
X52341336Y-35977251D01*
X52342724Y-35973902D01*
X52489706Y-35733230D01*
X52506287Y-35706078D01*
X52513523Y-35700804D01*
X52517102Y-35700507D01*
X52919135Y-35729223D01*
G37*
%TD.AperFunction*%
%TD*%
%TA.AperFunction,Conductor*%
%TO.N,+VDD*%
G36*
X52929364Y-33839029D02*
G01*
X52937290Y-33843194D01*
X52940000Y-33850681D01*
X52940000Y-34328843D01*
X52936573Y-34337116D01*
X52928857Y-34340530D01*
X52526927Y-34359670D01*
X52518500Y-34356640D01*
X52516385Y-34354081D01*
X52352915Y-34086410D01*
X52351527Y-34077563D01*
X52353197Y-34073773D01*
X52531808Y-33808856D01*
X52539273Y-33803913D01*
X52542564Y-33803746D01*
X52929364Y-33839029D01*
G37*
%TD.AperFunction*%
%TD*%
M02*
