%TF.GenerationSoftware,KiCad,Pcbnew,8.0.7*%
%TF.CreationDate,2025-01-04T02:58:25+07:00*%
%TF.ProjectId,13dof_imu,3133646f-665f-4696-9d75-2e6b69636164,Rev 1*%
%TF.SameCoordinates,Original*%
%TF.FileFunction,Legend,Bot*%
%TF.FilePolarity,Positive*%
%FSLAX46Y46*%
G04 Gerber Fmt 4.6, Leading zero omitted, Abs format (unit mm)*
G04 Created by KiCad (PCBNEW 8.0.7) date 2025-01-04 02:58:25*
%MOMM*%
%LPD*%
G01*
G04 APERTURE LIST*
G04 Aperture macros list*
%AMRoundRect*
0 Rectangle with rounded corners*
0 $1 Rounding radius*
0 $2 $3 $4 $5 $6 $7 $8 $9 X,Y pos of 4 corners*
0 Add a 4 corners polygon primitive as box body*
4,1,4,$2,$3,$4,$5,$6,$7,$8,$9,$2,$3,0*
0 Add four circle primitives for the rounded corners*
1,1,$1+$1,$2,$3*
1,1,$1+$1,$4,$5*
1,1,$1+$1,$6,$7*
1,1,$1+$1,$8,$9*
0 Add four rect primitives between the rounded corners*
20,1,$1+$1,$2,$3,$4,$5,0*
20,1,$1+$1,$4,$5,$6,$7,0*
20,1,$1+$1,$6,$7,$8,$9,0*
20,1,$1+$1,$8,$9,$2,$3,0*%
G04 Aperture macros list end*
%ADD10C,0.050000*%
%ADD11C,0.150000*%
%ADD12C,0.120000*%
%ADD13C,0.000000*%
%ADD14RoundRect,0.050000X0.850000X-0.850000X0.850000X0.850000X-0.850000X0.850000X-0.850000X-0.850000X0*%
%ADD15O,1.800000X1.800000*%
%ADD16RoundRect,0.050000X0.850000X0.850000X-0.850000X0.850000X-0.850000X-0.850000X0.850000X-0.850000X0*%
G04 APERTURE END LIST*
D10*
G36*
X47816393Y-12182578D02*
G01*
X47840764Y-12186908D01*
X47865973Y-12195398D01*
X47889797Y-12209380D01*
X47901608Y-12220307D01*
X47915411Y-12241232D01*
X47922397Y-12265072D01*
X47924811Y-12290038D01*
X47870833Y-12290038D01*
X47863623Y-12263486D01*
X47845918Y-12243191D01*
X47821058Y-12233269D01*
X47796440Y-12230619D01*
X47791821Y-12230565D01*
X47767023Y-12232432D01*
X47741291Y-12240536D01*
X47722990Y-12256890D01*
X47716716Y-12280390D01*
X47716716Y-12294434D01*
X47725729Y-12317159D01*
X47748709Y-12327459D01*
X47772526Y-12331559D01*
X47798097Y-12334830D01*
X47822897Y-12338227D01*
X47847249Y-12342214D01*
X47871238Y-12348433D01*
X47880481Y-12351953D01*
X47903430Y-12364462D01*
X47922826Y-12383645D01*
X47934878Y-12407988D01*
X47939355Y-12433474D01*
X47939588Y-12441468D01*
X47936547Y-12468229D01*
X47927680Y-12491362D01*
X47909882Y-12513810D01*
X47889532Y-12527654D01*
X47864572Y-12536681D01*
X47835380Y-12540519D01*
X47829068Y-12540631D01*
X47802324Y-12538471D01*
X47777205Y-12531766D01*
X47752952Y-12520179D01*
X47732277Y-12506105D01*
X47714762Y-12491294D01*
X47708385Y-12515605D01*
X47691272Y-12533972D01*
X47665857Y-12540450D01*
X47659563Y-12540631D01*
X47634422Y-12537694D01*
X47622927Y-12534891D01*
X47622927Y-12494469D01*
X47634528Y-12495690D01*
X47657622Y-12487083D01*
X47663349Y-12469556D01*
X47663349Y-12420341D01*
X47716716Y-12420341D01*
X47721919Y-12444493D01*
X47737843Y-12463817D01*
X47759675Y-12479551D01*
X47784245Y-12489569D01*
X47808771Y-12493589D01*
X47817466Y-12493859D01*
X47842311Y-12491064D01*
X47866223Y-12479677D01*
X47881127Y-12457645D01*
X47883656Y-12440125D01*
X47877817Y-12414391D01*
X47859429Y-12395844D01*
X47835617Y-12385719D01*
X47808072Y-12379627D01*
X47802812Y-12378820D01*
X47775409Y-12374962D01*
X47750111Y-12370757D01*
X47726482Y-12364395D01*
X47716716Y-12360258D01*
X47716716Y-12420341D01*
X47663349Y-12420341D01*
X47663349Y-12272819D01*
X47666534Y-12246914D01*
X47678659Y-12221290D01*
X47699670Y-12201799D01*
X47723834Y-12190374D01*
X47753935Y-12183440D01*
X47782219Y-12181200D01*
X47789867Y-12181106D01*
X47816393Y-12182578D01*
G37*
G36*
X47299916Y-12525976D02*
G01*
X47299916Y-12188921D01*
X47353161Y-12188921D01*
X47353161Y-12379919D01*
X47354818Y-12404590D01*
X47361348Y-12431910D01*
X47372487Y-12454866D01*
X47391413Y-12475968D01*
X47415797Y-12489246D01*
X47439822Y-12493727D01*
X47444996Y-12493859D01*
X47470475Y-12490275D01*
X47493250Y-12478005D01*
X47508215Y-12458005D01*
X47514282Y-12431304D01*
X47514361Y-12427547D01*
X47514361Y-12188921D01*
X47567728Y-12188921D01*
X47567728Y-12448796D01*
X47564738Y-12473486D01*
X47553652Y-12498731D01*
X47535058Y-12518599D01*
X47509665Y-12532464D01*
X47483824Y-12538979D01*
X47460383Y-12540631D01*
X47434394Y-12538749D01*
X47407886Y-12531434D01*
X47384418Y-12518008D01*
X47365872Y-12501158D01*
X47348032Y-12478960D01*
X47348032Y-12525976D01*
X47299916Y-12525976D01*
G37*
G36*
X47207348Y-12188921D02*
G01*
X47207348Y-12525000D01*
X47153492Y-12525000D01*
X47153492Y-12340840D01*
X47151836Y-12316392D01*
X47145318Y-12289328D01*
X47134217Y-12266594D01*
X47115389Y-12245704D01*
X47091184Y-12232564D01*
X47062267Y-12228000D01*
X47036789Y-12231550D01*
X47014014Y-12243705D01*
X46999049Y-12263521D01*
X46992981Y-12289978D01*
X46992903Y-12293702D01*
X46992903Y-12525000D01*
X46939535Y-12525000D01*
X46939535Y-12272575D01*
X46942523Y-12248071D01*
X46953582Y-12222957D01*
X46972096Y-12203142D01*
X46997326Y-12189285D01*
X47022948Y-12182762D01*
X47046147Y-12181106D01*
X47072576Y-12182391D01*
X47099402Y-12189820D01*
X47122834Y-12204042D01*
X47140949Y-12221964D01*
X47157889Y-12245464D01*
X47157889Y-12188921D01*
X47207348Y-12188921D01*
G37*
G36*
X46764093Y-12184519D02*
G01*
X46791841Y-12194442D01*
X46816286Y-12210401D01*
X46837076Y-12231923D01*
X46853858Y-12258535D01*
X46863604Y-12281548D01*
X46870749Y-12306957D01*
X46875145Y-12334563D01*
X46876643Y-12364166D01*
X46875568Y-12389164D01*
X46871484Y-12417097D01*
X46864425Y-12442680D01*
X46854467Y-12465811D01*
X46839291Y-12489564D01*
X46834267Y-12495690D01*
X46816383Y-12512549D01*
X46793024Y-12527301D01*
X46767605Y-12536798D01*
X46741223Y-12540583D01*
X46737913Y-12540631D01*
X46711804Y-12537987D01*
X46688532Y-12529791D01*
X46667255Y-12515643D01*
X46647129Y-12495144D01*
X46635819Y-12480425D01*
X46635819Y-12497644D01*
X46636665Y-12525054D01*
X46639817Y-12550786D01*
X46647319Y-12575785D01*
X46655115Y-12589357D01*
X46674094Y-12606774D01*
X46697985Y-12616797D01*
X46723533Y-12620609D01*
X46729609Y-12620743D01*
X46755727Y-12618122D01*
X46779896Y-12609639D01*
X46790547Y-12602791D01*
X46806427Y-12582760D01*
X46811186Y-12564445D01*
X46865774Y-12564445D01*
X46859887Y-12592238D01*
X46847938Y-12616010D01*
X46830251Y-12635479D01*
X46807151Y-12650363D01*
X46778961Y-12660378D01*
X46752963Y-12664695D01*
X46731563Y-12665683D01*
X46704181Y-12664029D01*
X46678871Y-12659198D01*
X46652693Y-12649812D01*
X46630957Y-12636686D01*
X46616524Y-12622697D01*
X46601925Y-12600590D01*
X46592764Y-12577820D01*
X46586434Y-12550473D01*
X46583139Y-12523469D01*
X46581696Y-12498693D01*
X46581231Y-12470778D01*
X46581231Y-12362822D01*
X46635819Y-12362822D01*
X46637420Y-12391273D01*
X46642122Y-12416590D01*
X46652132Y-12443519D01*
X46666459Y-12464837D01*
X46688937Y-12482452D01*
X46716702Y-12490729D01*
X46727044Y-12491294D01*
X46752670Y-12487756D01*
X46778564Y-12474552D01*
X46795768Y-12456550D01*
X46808696Y-12432610D01*
X46817069Y-12403127D01*
X46820301Y-12375817D01*
X46820711Y-12360990D01*
X46819057Y-12332280D01*
X46814208Y-12306660D01*
X46803917Y-12279326D01*
X46789239Y-12257620D01*
X46766306Y-12239627D01*
X46738118Y-12231145D01*
X46727655Y-12230565D01*
X46702353Y-12234073D01*
X46676906Y-12247244D01*
X46660076Y-12265324D01*
X46647476Y-12289530D01*
X46640602Y-12313098D01*
X46636709Y-12340230D01*
X46635819Y-12362822D01*
X46581231Y-12362822D01*
X46581231Y-12190753D01*
X46630690Y-12190753D01*
X46630690Y-12239602D01*
X46646507Y-12219420D01*
X46666728Y-12201378D01*
X46689124Y-12189117D01*
X46713979Y-12182483D01*
X46733394Y-12181106D01*
X46764093Y-12184519D01*
G37*
G36*
X46235750Y-12303471D02*
G01*
X46238992Y-12278488D01*
X46246098Y-12253640D01*
X46258220Y-12231297D01*
X46275743Y-12212523D01*
X46297561Y-12197798D01*
X46322994Y-12187491D01*
X46347151Y-12182452D01*
X46368618Y-12181106D01*
X46393246Y-12182975D01*
X46423256Y-12191089D01*
X46449740Y-12205275D01*
X46472377Y-12225149D01*
X46490846Y-12250329D01*
X46501771Y-12272464D01*
X46510035Y-12297206D01*
X46515505Y-12324393D01*
X46518045Y-12353863D01*
X46518217Y-12364166D01*
X46516714Y-12393464D01*
X46512284Y-12420539D01*
X46505050Y-12445246D01*
X46491246Y-12474257D01*
X46472953Y-12498464D01*
X46450455Y-12517525D01*
X46424037Y-12531100D01*
X46393983Y-12538849D01*
X46369228Y-12540631D01*
X46340555Y-12538404D01*
X46314823Y-12531836D01*
X46292206Y-12521099D01*
X46268575Y-12502071D01*
X46253593Y-12482573D01*
X46242282Y-12459458D01*
X46234816Y-12432896D01*
X46231842Y-12410816D01*
X46285819Y-12410816D01*
X46292811Y-12438151D01*
X46305930Y-12462905D01*
X46324335Y-12479966D01*
X46347965Y-12489327D01*
X46368007Y-12491294D01*
X46393926Y-12487843D01*
X46420053Y-12474965D01*
X46437372Y-12457405D01*
X46450362Y-12434049D01*
X46458760Y-12405283D01*
X46461996Y-12378634D01*
X46462407Y-12364166D01*
X46460803Y-12334407D01*
X46456074Y-12307999D01*
X46445964Y-12279990D01*
X46431420Y-12257886D01*
X46412692Y-12242056D01*
X46390027Y-12232874D01*
X46369228Y-12230565D01*
X46342190Y-12234273D01*
X46320270Y-12245151D01*
X46301889Y-12265890D01*
X46291995Y-12290893D01*
X46289605Y-12303471D01*
X46235750Y-12303471D01*
G37*
G36*
X46171758Y-12056053D02*
G01*
X46171758Y-12525000D01*
X46118513Y-12525000D01*
X46118513Y-12340840D01*
X46116857Y-12316392D01*
X46110339Y-12289328D01*
X46099238Y-12266594D01*
X46080410Y-12245704D01*
X46056205Y-12232564D01*
X46027288Y-12228000D01*
X46001841Y-12232061D01*
X45979783Y-12243265D01*
X45963770Y-12262182D01*
X45958096Y-12287270D01*
X45957923Y-12293702D01*
X45957923Y-12525000D01*
X45904679Y-12525000D01*
X45904679Y-12272575D01*
X45907580Y-12247867D01*
X45918383Y-12222686D01*
X45936596Y-12202929D01*
X45961612Y-12189181D01*
X45987215Y-12182737D01*
X46010558Y-12181106D01*
X46035506Y-12182740D01*
X46060733Y-12189191D01*
X46083067Y-12201225D01*
X46103859Y-12219560D01*
X46118513Y-12236915D01*
X46118513Y-12056053D01*
X46171758Y-12056053D01*
G37*
G36*
X45710534Y-12182865D02*
G01*
X45741377Y-12190549D01*
X45768320Y-12204094D01*
X45791129Y-12223240D01*
X45809572Y-12247723D01*
X45823415Y-12277281D01*
X45830638Y-12302624D01*
X45835044Y-12330564D01*
X45836535Y-12360990D01*
X45835058Y-12391383D01*
X45830686Y-12419289D01*
X45823506Y-12444599D01*
X45813602Y-12467203D01*
X45796311Y-12492943D01*
X45774538Y-12513416D01*
X45748487Y-12528362D01*
X45718363Y-12537520D01*
X45693221Y-12540435D01*
X45684371Y-12540631D01*
X45658805Y-12538877D01*
X45627902Y-12531230D01*
X45600867Y-12517780D01*
X45577948Y-12498816D01*
X45559391Y-12474629D01*
X45545446Y-12445506D01*
X45538161Y-12420599D01*
X45533714Y-12393201D01*
X45532208Y-12363433D01*
X45532237Y-12362822D01*
X45588018Y-12362822D01*
X45589734Y-12390923D01*
X45594761Y-12416075D01*
X45605428Y-12442994D01*
X45620635Y-12464442D01*
X45640030Y-12479937D01*
X45663261Y-12488999D01*
X45684371Y-12491294D01*
X45710622Y-12487756D01*
X45733181Y-12477405D01*
X45751738Y-12460639D01*
X45765984Y-12437854D01*
X45775608Y-12409448D01*
X45779770Y-12382942D01*
X45780725Y-12360990D01*
X45779034Y-12332280D01*
X45774068Y-12306660D01*
X45763495Y-12279326D01*
X45748362Y-12257620D01*
X45728979Y-12241986D01*
X45705657Y-12232868D01*
X45684371Y-12230565D01*
X45657917Y-12234111D01*
X45635292Y-12244514D01*
X45616762Y-12261421D01*
X45602598Y-12284482D01*
X45593067Y-12313343D01*
X45588958Y-12340371D01*
X45588018Y-12362822D01*
X45532237Y-12362822D01*
X45533668Y-12332241D01*
X45537998Y-12303707D01*
X45545126Y-12277922D01*
X45554980Y-12254975D01*
X45572233Y-12228947D01*
X45594032Y-12208334D01*
X45620204Y-12193348D01*
X45650578Y-12184202D01*
X45676013Y-12181301D01*
X45684982Y-12181106D01*
X45710534Y-12182865D01*
G37*
G36*
X45353450Y-12182865D02*
G01*
X45384294Y-12190549D01*
X45411237Y-12204094D01*
X45434046Y-12223240D01*
X45452489Y-12247723D01*
X45466332Y-12277281D01*
X45473555Y-12302624D01*
X45477961Y-12330564D01*
X45479452Y-12360990D01*
X45477975Y-12391383D01*
X45473603Y-12419289D01*
X45466422Y-12444599D01*
X45456519Y-12467203D01*
X45439228Y-12492943D01*
X45417455Y-12513416D01*
X45391404Y-12528362D01*
X45361280Y-12537520D01*
X45336138Y-12540435D01*
X45327288Y-12540631D01*
X45301722Y-12538877D01*
X45270819Y-12531230D01*
X45243784Y-12517780D01*
X45220865Y-12498816D01*
X45202308Y-12474629D01*
X45188363Y-12445506D01*
X45181078Y-12420599D01*
X45176631Y-12393201D01*
X45175125Y-12363433D01*
X45175154Y-12362822D01*
X45230935Y-12362822D01*
X45232651Y-12390923D01*
X45237678Y-12416075D01*
X45248345Y-12442994D01*
X45263552Y-12464442D01*
X45282947Y-12479937D01*
X45306178Y-12488999D01*
X45327288Y-12491294D01*
X45353539Y-12487756D01*
X45376098Y-12477405D01*
X45394655Y-12460639D01*
X45408901Y-12437854D01*
X45418525Y-12409448D01*
X45422687Y-12382942D01*
X45423642Y-12360990D01*
X45421951Y-12332280D01*
X45416985Y-12306660D01*
X45406412Y-12279326D01*
X45391279Y-12257620D01*
X45371896Y-12241986D01*
X45348574Y-12232868D01*
X45327288Y-12230565D01*
X45300834Y-12234111D01*
X45278208Y-12244514D01*
X45259679Y-12261421D01*
X45245515Y-12284482D01*
X45235984Y-12313343D01*
X45231875Y-12340371D01*
X45230935Y-12362822D01*
X45175154Y-12362822D01*
X45176585Y-12332241D01*
X45180915Y-12303707D01*
X45188043Y-12277922D01*
X45197897Y-12254975D01*
X45215150Y-12228947D01*
X45236949Y-12208334D01*
X45263121Y-12193348D01*
X45293495Y-12184202D01*
X45318930Y-12181301D01*
X45327899Y-12181106D01*
X45353450Y-12182865D01*
G37*
G36*
X44996367Y-12182865D02*
G01*
X45027211Y-12190549D01*
X45054154Y-12204094D01*
X45076963Y-12223240D01*
X45095406Y-12247723D01*
X45109249Y-12277281D01*
X45116472Y-12302624D01*
X45120878Y-12330564D01*
X45122369Y-12360990D01*
X45120892Y-12391383D01*
X45116520Y-12419289D01*
X45109339Y-12444599D01*
X45099436Y-12467203D01*
X45082145Y-12492943D01*
X45060372Y-12513416D01*
X45034321Y-12528362D01*
X45004197Y-12537520D01*
X44979055Y-12540435D01*
X44970205Y-12540631D01*
X44944639Y-12538877D01*
X44913736Y-12531230D01*
X44886701Y-12517780D01*
X44863782Y-12498816D01*
X44845225Y-12474629D01*
X44831280Y-12445506D01*
X44823995Y-12420599D01*
X44819548Y-12393201D01*
X44818042Y-12363433D01*
X44818071Y-12362822D01*
X44873852Y-12362822D01*
X44875567Y-12390923D01*
X44880595Y-12416075D01*
X44891262Y-12442994D01*
X44906469Y-12464442D01*
X44925864Y-12479937D01*
X44949095Y-12488999D01*
X44970205Y-12491294D01*
X44996456Y-12487756D01*
X45019015Y-12477405D01*
X45037572Y-12460639D01*
X45051818Y-12437854D01*
X45061442Y-12409448D01*
X45065604Y-12382942D01*
X45066559Y-12360990D01*
X45064868Y-12332280D01*
X45059902Y-12306660D01*
X45049329Y-12279326D01*
X45034196Y-12257620D01*
X45014813Y-12241986D01*
X44991491Y-12232868D01*
X44970205Y-12230565D01*
X44943751Y-12234111D01*
X44921125Y-12244514D01*
X44902596Y-12261421D01*
X44888432Y-12284482D01*
X44878901Y-12313343D01*
X44874792Y-12340371D01*
X44873852Y-12362822D01*
X44818071Y-12362822D01*
X44819502Y-12332241D01*
X44823832Y-12303707D01*
X44830960Y-12277922D01*
X44840814Y-12254975D01*
X44858067Y-12228947D01*
X44879866Y-12208334D01*
X44906038Y-12193348D01*
X44936412Y-12184202D01*
X44961847Y-12181301D01*
X44970816Y-12181106D01*
X44996367Y-12182865D01*
G37*
G36*
X44463524Y-12469190D02*
G01*
X44703004Y-12469190D01*
X44695589Y-12443588D01*
X44680686Y-12420906D01*
X44660010Y-12401825D01*
X44635602Y-12384934D01*
X44620816Y-12376011D01*
X44556580Y-12341451D01*
X44534172Y-12327971D01*
X44510269Y-12309569D01*
X44490967Y-12289514D01*
X44476308Y-12267882D01*
X44466334Y-12244748D01*
X44461088Y-12220187D01*
X44460226Y-12204797D01*
X44463052Y-12177177D01*
X44471294Y-12151262D01*
X44484595Y-12127843D01*
X44502602Y-12107711D01*
X44524105Y-12091778D01*
X44548322Y-12080539D01*
X44575538Y-12073879D01*
X44602037Y-12071719D01*
X44606039Y-12071685D01*
X44632030Y-12073186D01*
X44660274Y-12078887D01*
X44685179Y-12088738D01*
X44706610Y-12102628D01*
X44724432Y-12120445D01*
X44731946Y-12130792D01*
X44743400Y-12152507D01*
X44751046Y-12177894D01*
X44754989Y-12205059D01*
X44756371Y-12229099D01*
X44699829Y-12229099D01*
X44697368Y-12203655D01*
X44691907Y-12178704D01*
X44686273Y-12165230D01*
X44670530Y-12144753D01*
X44649159Y-12130200D01*
X44623546Y-12122339D01*
X44607993Y-12121144D01*
X44580607Y-12124823D01*
X44556961Y-12135222D01*
X44538064Y-12151385D01*
X44524926Y-12172355D01*
X44518556Y-12197176D01*
X44518112Y-12206140D01*
X44522045Y-12231975D01*
X44533728Y-12255645D01*
X44550174Y-12274393D01*
X44572308Y-12291139D01*
X44579661Y-12295533D01*
X44638768Y-12328750D01*
X44663780Y-12343598D01*
X44685454Y-12358209D01*
X44709545Y-12377903D01*
X44728624Y-12398570D01*
X44743221Y-12421009D01*
X44753862Y-12446016D01*
X44761077Y-12474388D01*
X44765393Y-12506922D01*
X44766629Y-12525000D01*
X44463524Y-12525000D01*
X44463524Y-12469190D01*
G37*
G36*
X44125614Y-12071685D02*
G01*
X44360697Y-12071685D01*
X44394769Y-12320202D01*
X44342745Y-12320202D01*
X44323529Y-12300449D01*
X44301839Y-12286282D01*
X44277768Y-12279390D01*
X44259214Y-12278192D01*
X44232348Y-12281155D01*
X44209128Y-12289804D01*
X44186598Y-12307181D01*
X44170496Y-12331602D01*
X44162450Y-12356886D01*
X44159685Y-12386270D01*
X44162405Y-12414752D01*
X44170348Y-12439193D01*
X44186323Y-12462733D01*
X44208803Y-12479434D01*
X44232104Y-12487726D01*
X44259214Y-12490561D01*
X44285018Y-12487939D01*
X44310120Y-12478205D01*
X44329995Y-12461212D01*
X44344812Y-12436881D01*
X44352393Y-12414968D01*
X44408813Y-12414968D01*
X44403161Y-12439316D01*
X44394740Y-12464167D01*
X44381214Y-12486165D01*
X44361585Y-12506686D01*
X44340788Y-12520678D01*
X44316977Y-12531127D01*
X44290771Y-12537828D01*
X44262787Y-12540573D01*
X44257993Y-12540631D01*
X44232922Y-12538907D01*
X44202072Y-12531472D01*
X44174560Y-12518570D01*
X44150816Y-12500645D01*
X44131270Y-12478139D01*
X44116350Y-12451493D01*
X44106487Y-12421151D01*
X44102666Y-12396234D01*
X44101922Y-12378698D01*
X44104659Y-12346662D01*
X44112617Y-12317593D01*
X44125422Y-12291893D01*
X44142695Y-12269964D01*
X44164062Y-12252208D01*
X44189145Y-12239027D01*
X44217569Y-12230824D01*
X44248956Y-12228000D01*
X44274680Y-12230054D01*
X44298294Y-12236433D01*
X44320759Y-12247464D01*
X44333098Y-12255722D01*
X44315146Y-12127616D01*
X44125614Y-12127616D01*
X44125614Y-12071685D01*
G37*
G36*
X43926561Y-12073982D02*
G01*
X43952884Y-12080651D01*
X43976202Y-12091359D01*
X43996134Y-12105772D01*
X44015708Y-12128490D01*
X44028652Y-12155826D01*
X44033736Y-12180581D01*
X44034389Y-12193806D01*
X44032019Y-12219394D01*
X44022661Y-12243796D01*
X44004828Y-12265292D01*
X43985024Y-12280926D01*
X43972840Y-12288939D01*
X43995297Y-12301576D01*
X44017168Y-12319114D01*
X44033528Y-12339226D01*
X44044407Y-12361900D01*
X44049832Y-12387120D01*
X44050509Y-12400680D01*
X44047631Y-12430325D01*
X44039276Y-12457272D01*
X44025863Y-12481133D01*
X44007812Y-12501522D01*
X43985542Y-12518052D01*
X43959473Y-12530338D01*
X43930024Y-12537994D01*
X43897613Y-12540631D01*
X43873075Y-12539139D01*
X43842878Y-12532709D01*
X43815948Y-12521567D01*
X43792706Y-12506107D01*
X43773571Y-12486724D01*
X43758965Y-12463813D01*
X43749308Y-12437770D01*
X43745022Y-12408989D01*
X43744854Y-12402023D01*
X43802602Y-12402023D01*
X43806545Y-12429920D01*
X43817859Y-12453382D01*
X43835777Y-12471708D01*
X43859532Y-12484198D01*
X43888355Y-12490151D01*
X43898956Y-12490561D01*
X43923530Y-12487997D01*
X43949100Y-12478584D01*
X43969572Y-12462989D01*
X43984077Y-12441983D01*
X43991746Y-12416341D01*
X43992745Y-12402023D01*
X43988811Y-12374398D01*
X43977554Y-12351087D01*
X43959788Y-12332825D01*
X43936331Y-12320347D01*
X43907999Y-12314386D01*
X43897613Y-12313974D01*
X43872551Y-12316506D01*
X43846593Y-12325817D01*
X43825902Y-12341279D01*
X43811298Y-12362157D01*
X43803603Y-12387717D01*
X43802602Y-12402023D01*
X43744854Y-12402023D01*
X43744839Y-12401413D01*
X43747553Y-12374585D01*
X43755729Y-12350423D01*
X43769421Y-12328910D01*
X43788683Y-12310033D01*
X43809026Y-12296305D01*
X43823119Y-12288939D01*
X43799957Y-12273410D01*
X43780485Y-12255254D01*
X43766946Y-12232547D01*
X43761256Y-12205526D01*
X43760885Y-12195150D01*
X43818722Y-12195150D01*
X43823068Y-12221064D01*
X43837839Y-12244482D01*
X43858265Y-12258561D01*
X43884690Y-12265730D01*
X43897613Y-12266468D01*
X43922545Y-12263556D01*
X43946549Y-12253281D01*
X43966086Y-12233502D01*
X43975179Y-12210112D01*
X43976625Y-12194539D01*
X43972265Y-12167922D01*
X43959832Y-12146626D01*
X43940302Y-12131448D01*
X43914647Y-12123186D01*
X43897613Y-12121877D01*
X43872465Y-12124798D01*
X43848458Y-12135154D01*
X43830997Y-12152270D01*
X43820925Y-12175386D01*
X43818722Y-12195150D01*
X43760885Y-12195150D01*
X43760837Y-12193806D01*
X43763398Y-12167907D01*
X43770839Y-12144379D01*
X43786450Y-12118813D01*
X43808408Y-12098123D01*
X43830067Y-12085521D01*
X43854970Y-12076791D01*
X43882754Y-12072266D01*
X43897613Y-12071685D01*
X43926561Y-12073982D01*
G37*
G36*
X43408845Y-12049692D02*
G01*
X43437723Y-12053964D01*
X43466354Y-12060918D01*
X43494398Y-12070418D01*
X43521516Y-12082328D01*
X43547365Y-12096512D01*
X43571605Y-12112834D01*
X43593897Y-12131158D01*
X43616315Y-12153870D01*
X43636286Y-12178900D01*
X43653645Y-12205888D01*
X43668223Y-12234473D01*
X43679853Y-12264294D01*
X43688367Y-12294991D01*
X43693599Y-12326204D01*
X43695380Y-12357571D01*
X43693882Y-12384031D01*
X43689485Y-12409783D01*
X43682329Y-12434690D01*
X43672558Y-12458613D01*
X43660315Y-12481415D01*
X43645740Y-12502958D01*
X43628978Y-12523104D01*
X43610170Y-12541715D01*
X43589458Y-12558653D01*
X43566985Y-12573780D01*
X43542894Y-12586958D01*
X43517327Y-12598049D01*
X43490426Y-12606916D01*
X43462333Y-12613420D01*
X43433191Y-12617424D01*
X43403143Y-12618789D01*
X43376069Y-12617795D01*
X43348528Y-12614860D01*
X43320877Y-12610051D01*
X43293474Y-12603436D01*
X43266677Y-12595082D01*
X43257941Y-12591922D01*
X43276015Y-12547470D01*
X43299569Y-12554169D01*
X43325193Y-12560473D01*
X43352149Y-12565599D01*
X43376780Y-12568523D01*
X43399968Y-12569452D01*
X43425112Y-12568304D01*
X43449410Y-12564937D01*
X43484038Y-12555970D01*
X43516160Y-12542644D01*
X43545415Y-12525340D01*
X43571442Y-12504437D01*
X43593878Y-12480318D01*
X43612362Y-12453363D01*
X43626533Y-12423953D01*
X43636029Y-12392469D01*
X43640487Y-12359293D01*
X43640792Y-12347923D01*
X43639446Y-12323056D01*
X43635505Y-12298743D01*
X43629113Y-12275129D01*
X43615242Y-12241336D01*
X43596665Y-12209931D01*
X43573866Y-12181404D01*
X43547331Y-12156242D01*
X43517546Y-12134935D01*
X43496123Y-12123114D01*
X43473614Y-12113368D01*
X43450165Y-12105843D01*
X43425918Y-12100684D01*
X43401017Y-12098035D01*
X43388367Y-12097697D01*
X43354458Y-12100009D01*
X43321976Y-12106706D01*
X43291339Y-12117425D01*
X43262963Y-12131803D01*
X43237264Y-12149478D01*
X43214659Y-12170089D01*
X43195565Y-12193272D01*
X43180398Y-12218666D01*
X43169574Y-12245908D01*
X43163511Y-12274636D01*
X43162320Y-12294434D01*
X43164714Y-12322154D01*
X43171492Y-12348811D01*
X43182046Y-12373593D01*
X43195766Y-12395688D01*
X43212045Y-12414286D01*
X43235066Y-12431379D01*
X43259946Y-12440154D01*
X43270153Y-12440980D01*
X43293788Y-12431746D01*
X43302271Y-12413014D01*
X43297192Y-12389032D01*
X43294577Y-12381140D01*
X43265518Y-12291259D01*
X43326085Y-12291259D01*
X43329752Y-12318412D01*
X43336642Y-12345022D01*
X43345826Y-12370902D01*
X43357735Y-12395434D01*
X43360767Y-12400191D01*
X43377172Y-12421531D01*
X43397691Y-12437332D01*
X43421782Y-12444707D01*
X43426224Y-12444888D01*
X43451106Y-12438955D01*
X43471318Y-12422708D01*
X43484888Y-12398468D01*
X43489767Y-12372531D01*
X43489849Y-12368562D01*
X43487619Y-12341784D01*
X43481278Y-12316321D01*
X43471354Y-12292866D01*
X43458373Y-12272117D01*
X43438650Y-12251043D01*
X43416002Y-12236640D01*
X43391458Y-12230268D01*
X43386413Y-12230076D01*
X43361565Y-12234793D01*
X43340076Y-12249864D01*
X43327850Y-12272825D01*
X43326085Y-12291259D01*
X43265518Y-12291259D01*
X43236814Y-12202477D01*
X43290059Y-12202477D01*
X43304225Y-12244975D01*
X43316323Y-12223378D01*
X43333751Y-12204984D01*
X43357703Y-12192511D01*
X43382627Y-12188921D01*
X43414400Y-12192762D01*
X43444676Y-12203687D01*
X43465893Y-12215990D01*
X43485436Y-12231396D01*
X43502951Y-12249527D01*
X43518079Y-12270006D01*
X43530466Y-12292453D01*
X43539755Y-12316491D01*
X43545589Y-12341743D01*
X43547613Y-12367829D01*
X43545565Y-12392223D01*
X43537619Y-12419929D01*
X43524333Y-12443805D01*
X43506397Y-12463068D01*
X43484501Y-12476931D01*
X43459336Y-12484609D01*
X43442955Y-12485921D01*
X43418483Y-12483224D01*
X43392869Y-12473426D01*
X43370932Y-12458284D01*
X43351730Y-12439759D01*
X43340957Y-12463561D01*
X43319728Y-12479107D01*
X43295547Y-12485149D01*
X43281144Y-12485921D01*
X43255286Y-12483954D01*
X43231107Y-12478019D01*
X43208535Y-12468062D01*
X43187498Y-12454030D01*
X43167922Y-12435870D01*
X43161709Y-12428890D01*
X43146261Y-12409031D01*
X43133185Y-12387882D01*
X43122583Y-12365730D01*
X43113266Y-12338223D01*
X43107829Y-12310174D01*
X43106388Y-12286741D01*
X43109576Y-12250831D01*
X43118814Y-12216480D01*
X43133619Y-12184117D01*
X43153503Y-12154175D01*
X43177983Y-12127085D01*
X43196616Y-12110821D01*
X43216931Y-12096144D01*
X43238785Y-12083181D01*
X43262034Y-12072061D01*
X43286535Y-12062910D01*
X43312142Y-12055856D01*
X43338714Y-12051028D01*
X43366104Y-12048553D01*
X43380062Y-12048237D01*
X43408845Y-12049692D01*
G37*
G36*
X42934365Y-12184519D02*
G01*
X42962113Y-12194442D01*
X42986558Y-12210401D01*
X43007348Y-12231923D01*
X43024130Y-12258535D01*
X43033876Y-12281548D01*
X43041021Y-12306957D01*
X43045417Y-12334563D01*
X43046915Y-12364166D01*
X43045840Y-12389164D01*
X43041756Y-12417097D01*
X43034697Y-12442680D01*
X43024740Y-12465811D01*
X43009563Y-12489564D01*
X43004539Y-12495690D01*
X42986655Y-12512549D01*
X42963296Y-12527301D01*
X42937877Y-12536798D01*
X42911496Y-12540583D01*
X42908185Y-12540631D01*
X42882076Y-12537987D01*
X42858805Y-12529791D01*
X42837527Y-12515643D01*
X42817401Y-12495144D01*
X42806092Y-12480425D01*
X42806092Y-12497644D01*
X42806937Y-12525054D01*
X42810089Y-12550786D01*
X42817591Y-12575785D01*
X42825387Y-12589357D01*
X42844366Y-12606774D01*
X42868257Y-12616797D01*
X42893805Y-12620609D01*
X42899881Y-12620743D01*
X42925999Y-12618122D01*
X42950168Y-12609639D01*
X42960819Y-12602791D01*
X42976699Y-12582760D01*
X42981458Y-12564445D01*
X43036046Y-12564445D01*
X43030159Y-12592238D01*
X43018210Y-12616010D01*
X43000524Y-12635479D01*
X42977423Y-12650363D01*
X42949233Y-12660378D01*
X42923235Y-12664695D01*
X42901835Y-12665683D01*
X42874454Y-12664029D01*
X42849143Y-12659198D01*
X42822965Y-12649812D01*
X42801229Y-12636686D01*
X42786796Y-12622697D01*
X42772197Y-12600590D01*
X42763036Y-12577820D01*
X42756706Y-12550473D01*
X42753411Y-12523469D01*
X42751968Y-12498693D01*
X42751503Y-12470778D01*
X42751503Y-12362822D01*
X42806092Y-12362822D01*
X42807692Y-12391273D01*
X42812394Y-12416590D01*
X42822404Y-12443519D01*
X42836731Y-12464837D01*
X42859209Y-12482452D01*
X42886974Y-12490729D01*
X42897316Y-12491294D01*
X42922942Y-12487756D01*
X42948836Y-12474552D01*
X42966040Y-12456550D01*
X42978968Y-12432610D01*
X42987342Y-12403127D01*
X42990573Y-12375817D01*
X42990983Y-12360990D01*
X42989329Y-12332280D01*
X42984480Y-12306660D01*
X42974189Y-12279326D01*
X42959511Y-12257620D01*
X42936578Y-12239627D01*
X42908390Y-12231145D01*
X42897927Y-12230565D01*
X42872625Y-12234073D01*
X42847179Y-12247244D01*
X42830348Y-12265324D01*
X42817748Y-12289530D01*
X42810874Y-12313098D01*
X42806981Y-12340230D01*
X42806092Y-12362822D01*
X42751503Y-12362822D01*
X42751503Y-12190753D01*
X42800963Y-12190753D01*
X42800963Y-12239602D01*
X42816779Y-12219420D01*
X42837000Y-12201378D01*
X42859396Y-12189117D01*
X42884251Y-12182483D01*
X42903667Y-12181106D01*
X42934365Y-12184519D01*
G37*
G36*
X42663454Y-12188921D02*
G01*
X42663454Y-12525000D01*
X42609598Y-12525000D01*
X42609598Y-12315317D01*
X42606043Y-12289256D01*
X42596094Y-12266384D01*
X42577843Y-12245271D01*
X42554067Y-12231904D01*
X42530586Y-12228000D01*
X42504059Y-12232446D01*
X42482587Y-12247631D01*
X42471476Y-12269597D01*
X42468304Y-12294923D01*
X42468304Y-12525000D01*
X42414326Y-12525000D01*
X42414326Y-12315317D01*
X42410781Y-12289256D01*
X42400854Y-12266384D01*
X42382623Y-12245271D01*
X42358840Y-12231904D01*
X42335314Y-12228000D01*
X42309044Y-12232549D01*
X42287529Y-12247921D01*
X42276272Y-12269890D01*
X42273032Y-12294923D01*
X42273032Y-12525000D01*
X42219054Y-12525000D01*
X42219054Y-12274528D01*
X42221570Y-12248389D01*
X42231091Y-12222370D01*
X42247467Y-12202446D01*
X42270447Y-12188891D01*
X42294461Y-12182660D01*
X42316751Y-12181106D01*
X42343900Y-12183164D01*
X42370417Y-12191148D01*
X42394131Y-12206104D01*
X42414227Y-12225703D01*
X42420066Y-12232519D01*
X42434247Y-12211833D01*
X42453721Y-12194969D01*
X42477547Y-12184895D01*
X42502676Y-12181289D01*
X42510680Y-12181106D01*
X42538117Y-12182671D01*
X42562056Y-12189840D01*
X42583418Y-12202960D01*
X42603124Y-12222374D01*
X42613995Y-12236427D01*
X42613995Y-12188921D01*
X42663454Y-12188921D01*
G37*
G36*
X42023441Y-12182578D02*
G01*
X42047813Y-12186908D01*
X42073021Y-12195398D01*
X42096845Y-12209380D01*
X42108656Y-12220307D01*
X42122459Y-12241232D01*
X42129445Y-12265072D01*
X42131859Y-12290038D01*
X42077882Y-12290038D01*
X42070671Y-12263486D01*
X42052966Y-12243191D01*
X42028106Y-12233269D01*
X42003488Y-12230619D01*
X41998869Y-12230565D01*
X41974071Y-12232432D01*
X41948339Y-12240536D01*
X41930039Y-12256890D01*
X41923764Y-12280390D01*
X41923764Y-12294434D01*
X41932777Y-12317159D01*
X41955757Y-12327459D01*
X41979574Y-12331559D01*
X42005145Y-12334830D01*
X42029946Y-12338227D01*
X42054297Y-12342214D01*
X42078286Y-12348433D01*
X42087529Y-12351953D01*
X42110479Y-12364462D01*
X42129874Y-12383645D01*
X42141926Y-12407988D01*
X42146403Y-12433474D01*
X42146636Y-12441468D01*
X42143596Y-12468229D01*
X42134728Y-12491362D01*
X42116930Y-12513810D01*
X42096580Y-12527654D01*
X42071620Y-12536681D01*
X42042429Y-12540519D01*
X42036116Y-12540631D01*
X42009372Y-12538471D01*
X41984253Y-12531766D01*
X41960000Y-12520179D01*
X41939325Y-12506105D01*
X41921810Y-12491294D01*
X41915433Y-12515605D01*
X41898320Y-12533972D01*
X41872905Y-12540450D01*
X41866612Y-12540631D01*
X41841470Y-12537694D01*
X41829975Y-12534891D01*
X41829975Y-12494469D01*
X41841577Y-12495690D01*
X41864670Y-12487083D01*
X41870397Y-12469556D01*
X41870397Y-12420341D01*
X41923764Y-12420341D01*
X41928968Y-12444493D01*
X41944891Y-12463817D01*
X41966724Y-12479551D01*
X41991293Y-12489569D01*
X42015819Y-12493589D01*
X42024515Y-12493859D01*
X42049360Y-12491064D01*
X42073271Y-12479677D01*
X42088175Y-12457645D01*
X42090704Y-12440125D01*
X42084865Y-12414391D01*
X42066477Y-12395844D01*
X42042665Y-12385719D01*
X42015120Y-12379627D01*
X42009860Y-12378820D01*
X41982457Y-12374962D01*
X41957159Y-12370757D01*
X41933531Y-12364395D01*
X41923764Y-12360258D01*
X41923764Y-12420341D01*
X41870397Y-12420341D01*
X41870397Y-12272819D01*
X41873582Y-12246914D01*
X41885707Y-12221290D01*
X41906718Y-12201799D01*
X41930882Y-12190374D01*
X41960983Y-12183440D01*
X41989267Y-12181200D01*
X41996915Y-12181106D01*
X42023441Y-12182578D01*
G37*
G36*
X41720188Y-12187822D02*
G01*
X41773433Y-12187822D01*
X41773433Y-12525000D01*
X41720188Y-12525000D01*
X41720188Y-12187822D01*
G37*
G36*
X41720188Y-12056053D02*
G01*
X41774043Y-12056053D01*
X41774043Y-12123586D01*
X41720188Y-12123586D01*
X41720188Y-12056053D01*
G37*
G36*
X41576695Y-12056053D02*
G01*
X41630673Y-12056053D01*
X41630673Y-12525000D01*
X41576695Y-12525000D01*
X41576695Y-12056053D01*
G37*
G36*
X41409511Y-12458321D02*
G01*
X41476311Y-12458321D01*
X41476311Y-12525000D01*
X41409511Y-12525000D01*
X41409511Y-12458321D01*
G37*
G36*
X41048032Y-12303471D02*
G01*
X41051274Y-12278488D01*
X41058380Y-12253640D01*
X41070502Y-12231297D01*
X41088024Y-12212523D01*
X41109843Y-12197798D01*
X41135276Y-12187491D01*
X41159433Y-12182452D01*
X41180900Y-12181106D01*
X41205528Y-12182975D01*
X41235538Y-12191089D01*
X41262022Y-12205275D01*
X41284659Y-12225149D01*
X41303128Y-12250329D01*
X41314053Y-12272464D01*
X41322317Y-12297206D01*
X41327787Y-12324393D01*
X41330326Y-12353863D01*
X41330498Y-12364166D01*
X41328995Y-12393464D01*
X41324566Y-12420539D01*
X41317332Y-12445246D01*
X41303528Y-12474257D01*
X41285235Y-12498464D01*
X41262737Y-12517525D01*
X41236319Y-12531100D01*
X41206265Y-12538849D01*
X41181510Y-12540631D01*
X41152837Y-12538404D01*
X41127105Y-12531836D01*
X41104488Y-12521099D01*
X41080857Y-12502071D01*
X41065875Y-12482573D01*
X41054564Y-12459458D01*
X41047098Y-12432896D01*
X41044124Y-12410816D01*
X41098101Y-12410816D01*
X41105093Y-12438151D01*
X41118212Y-12462905D01*
X41136617Y-12479966D01*
X41160247Y-12489327D01*
X41180289Y-12491294D01*
X41206207Y-12487843D01*
X41232335Y-12474965D01*
X41249654Y-12457405D01*
X41262644Y-12434049D01*
X41271042Y-12405283D01*
X41274278Y-12378634D01*
X41274689Y-12364166D01*
X41273084Y-12334407D01*
X41268356Y-12307999D01*
X41258246Y-12279990D01*
X41243702Y-12257886D01*
X41224974Y-12242056D01*
X41202309Y-12232874D01*
X41181510Y-12230565D01*
X41154472Y-12234273D01*
X41132552Y-12245151D01*
X41114171Y-12265890D01*
X41104277Y-12290893D01*
X41101887Y-12303471D01*
X41048032Y-12303471D01*
G37*
G36*
X40880387Y-12182865D02*
G01*
X40911230Y-12190549D01*
X40938173Y-12204094D01*
X40960983Y-12223240D01*
X40979425Y-12247723D01*
X40993268Y-12277281D01*
X41000492Y-12302624D01*
X41004898Y-12330564D01*
X41006388Y-12360990D01*
X41004912Y-12391383D01*
X41000540Y-12419289D01*
X40993359Y-12444599D01*
X40983455Y-12467203D01*
X40966164Y-12492943D01*
X40944391Y-12513416D01*
X40918341Y-12528362D01*
X40888217Y-12537520D01*
X40863074Y-12540435D01*
X40854225Y-12540631D01*
X40828658Y-12538877D01*
X40797755Y-12531230D01*
X40770721Y-12517780D01*
X40747801Y-12498816D01*
X40729245Y-12474629D01*
X40715299Y-12445506D01*
X40708015Y-12420599D01*
X40703567Y-12393201D01*
X40702062Y-12363433D01*
X40702091Y-12362822D01*
X40757871Y-12362822D01*
X40759587Y-12390923D01*
X40764615Y-12416075D01*
X40775281Y-12442994D01*
X40790488Y-12464442D01*
X40809883Y-12479937D01*
X40833115Y-12488999D01*
X40854225Y-12491294D01*
X40880475Y-12487756D01*
X40903034Y-12477405D01*
X40921592Y-12460639D01*
X40935838Y-12437854D01*
X40945461Y-12409448D01*
X40949624Y-12382942D01*
X40950579Y-12360990D01*
X40948888Y-12332280D01*
X40943921Y-12306660D01*
X40933348Y-12279326D01*
X40918215Y-12257620D01*
X40898833Y-12241986D01*
X40875511Y-12232868D01*
X40854225Y-12230565D01*
X40827771Y-12234111D01*
X40805145Y-12244514D01*
X40786616Y-12261421D01*
X40772451Y-12284482D01*
X40762920Y-12313343D01*
X40758811Y-12340371D01*
X40757871Y-12362822D01*
X40702091Y-12362822D01*
X40703521Y-12332241D01*
X40707851Y-12303707D01*
X40714979Y-12277922D01*
X40724833Y-12254975D01*
X40742087Y-12228947D01*
X40763886Y-12208334D01*
X40790058Y-12193348D01*
X40820432Y-12184202D01*
X40845866Y-12181301D01*
X40854836Y-12181106D01*
X40880387Y-12182865D01*
G37*
G36*
X40627445Y-12188921D02*
G01*
X40627445Y-12525000D01*
X40573590Y-12525000D01*
X40573590Y-12315317D01*
X40570034Y-12289256D01*
X40560085Y-12266384D01*
X40541835Y-12245271D01*
X40518058Y-12231904D01*
X40494577Y-12228000D01*
X40468050Y-12232446D01*
X40446579Y-12247631D01*
X40435467Y-12269597D01*
X40432295Y-12294923D01*
X40432295Y-12525000D01*
X40378318Y-12525000D01*
X40378318Y-12315317D01*
X40374773Y-12289256D01*
X40364845Y-12266384D01*
X40346615Y-12245271D01*
X40322832Y-12231904D01*
X40299305Y-12228000D01*
X40273036Y-12232549D01*
X40251521Y-12247921D01*
X40240264Y-12269890D01*
X40237023Y-12294923D01*
X40237023Y-12525000D01*
X40183046Y-12525000D01*
X40183046Y-12274528D01*
X40185562Y-12248389D01*
X40195082Y-12222370D01*
X40211458Y-12202446D01*
X40234439Y-12188891D01*
X40258453Y-12182660D01*
X40280743Y-12181106D01*
X40307892Y-12183164D01*
X40334409Y-12191148D01*
X40358122Y-12206104D01*
X40378219Y-12225703D01*
X40384057Y-12232519D01*
X40398238Y-12211833D01*
X40417713Y-12194969D01*
X40441539Y-12184895D01*
X40466668Y-12181289D01*
X40474672Y-12181106D01*
X40502108Y-12182671D01*
X40526048Y-12189840D01*
X40547410Y-12202960D01*
X40567116Y-12222374D01*
X40577986Y-12236427D01*
X40577986Y-12188921D01*
X40627445Y-12188921D01*
G37*
D11*
G36*
X59347609Y-7299485D02*
G01*
X59245809Y-7299485D01*
X59166870Y-7074390D01*
X58878077Y-7074390D01*
X58800896Y-7299485D01*
X58694211Y-7299485D01*
X58801192Y-6994279D01*
X58904846Y-6994279D01*
X59143227Y-6994279D01*
X59019933Y-6652339D01*
X58904846Y-6994279D01*
X58801192Y-6994279D01*
X58957212Y-6549170D01*
X59080505Y-6549170D01*
X59347609Y-7299485D01*
G37*
G36*
X58207484Y-6945039D02*
G01*
X58212672Y-6905066D01*
X58224041Y-6865309D01*
X58243436Y-6829561D01*
X58271472Y-6799522D01*
X58306382Y-6775962D01*
X58347074Y-6759471D01*
X58385727Y-6751408D01*
X58420073Y-6749254D01*
X58459479Y-6752246D01*
X58507495Y-6765227D01*
X58549868Y-6787925D01*
X58586087Y-6819724D01*
X58615638Y-6860011D01*
X58633117Y-6895428D01*
X58646341Y-6935015D01*
X58655092Y-6978514D01*
X58659156Y-7025666D01*
X58659431Y-7042150D01*
X58657026Y-7089028D01*
X58649939Y-7132347D01*
X58638364Y-7171879D01*
X58616278Y-7218297D01*
X58587009Y-7257028D01*
X58551012Y-7287526D01*
X58508743Y-7309246D01*
X58460657Y-7321643D01*
X58421050Y-7324495D01*
X58375172Y-7320932D01*
X58334002Y-7310424D01*
X58297814Y-7293243D01*
X58260005Y-7262799D01*
X58236032Y-7231602D01*
X58217936Y-7194618D01*
X58205989Y-7152120D01*
X58201231Y-7116791D01*
X58287595Y-7116791D01*
X58298782Y-7160527D01*
X58319773Y-7200133D01*
X58349221Y-7227431D01*
X58387028Y-7242408D01*
X58419096Y-7245556D01*
X58460565Y-7240034D01*
X58502369Y-7219430D01*
X58530080Y-7191334D01*
X58550864Y-7153964D01*
X58564301Y-7107939D01*
X58569478Y-7065300D01*
X58570136Y-7042150D01*
X58567568Y-6994537D01*
X58560003Y-6952284D01*
X58543827Y-6907470D01*
X58520557Y-6872102D01*
X58490591Y-6846775D01*
X58454327Y-6832084D01*
X58421050Y-6828389D01*
X58377789Y-6834321D01*
X58342716Y-6851726D01*
X58313306Y-6884910D01*
X58297476Y-6924915D01*
X58293653Y-6945039D01*
X58207484Y-6945039D01*
G37*
G36*
X57693988Y-6945039D02*
G01*
X57699176Y-6905066D01*
X57710545Y-6865309D01*
X57729940Y-6829561D01*
X57757976Y-6799522D01*
X57792886Y-6775962D01*
X57833578Y-6759471D01*
X57872230Y-6751408D01*
X57906577Y-6749254D01*
X57945983Y-6752246D01*
X57993998Y-6765227D01*
X58036372Y-6787925D01*
X58072591Y-6819724D01*
X58102142Y-6860011D01*
X58119621Y-6895428D01*
X58132845Y-6935015D01*
X58141596Y-6978514D01*
X58145659Y-7025666D01*
X58145935Y-7042150D01*
X58143530Y-7089028D01*
X58136443Y-7132347D01*
X58124868Y-7171879D01*
X58102782Y-7218297D01*
X58073513Y-7257028D01*
X58037516Y-7287526D01*
X57995247Y-7309246D01*
X57947161Y-7321643D01*
X57907554Y-7324495D01*
X57861676Y-7320932D01*
X57820505Y-7310424D01*
X57784318Y-7293243D01*
X57746509Y-7262799D01*
X57722536Y-7231602D01*
X57704440Y-7194618D01*
X57692493Y-7152120D01*
X57687735Y-7116791D01*
X57774099Y-7116791D01*
X57785286Y-7160527D01*
X57806277Y-7200133D01*
X57835725Y-7227431D01*
X57873532Y-7242408D01*
X57905600Y-7245556D01*
X57947069Y-7240034D01*
X57988873Y-7219430D01*
X58016584Y-7191334D01*
X58037368Y-7153964D01*
X58050805Y-7107939D01*
X58055982Y-7065300D01*
X58056639Y-7042150D01*
X58054072Y-6994537D01*
X58046506Y-6952284D01*
X58030330Y-6907470D01*
X58007060Y-6872102D01*
X57977095Y-6846775D01*
X57940831Y-6832084D01*
X57907554Y-6828389D01*
X57864293Y-6834321D01*
X57829220Y-6851726D01*
X57799810Y-6884910D01*
X57783980Y-6924915D01*
X57780157Y-6945039D01*
X57693988Y-6945039D01*
G37*
G36*
X57417425Y-6752244D02*
G01*
X57467010Y-6765209D01*
X57510695Y-6787853D01*
X57547974Y-6819543D01*
X57578346Y-6859643D01*
X57596288Y-6894857D01*
X57609848Y-6934177D01*
X57618814Y-6977336D01*
X57622973Y-7024067D01*
X57623255Y-7040392D01*
X57620822Y-7087945D01*
X57613640Y-7131767D01*
X57601887Y-7171651D01*
X57585738Y-7207392D01*
X57557676Y-7248242D01*
X57522533Y-7280868D01*
X57480730Y-7304778D01*
X57432685Y-7319484D01*
X57392807Y-7324178D01*
X57378817Y-7324495D01*
X57334409Y-7321271D01*
X57293860Y-7311779D01*
X57257473Y-7296293D01*
X57218308Y-7268920D01*
X57186718Y-7233139D01*
X57167300Y-7198818D01*
X57153415Y-7159728D01*
X57148642Y-7138480D01*
X57234811Y-7138480D01*
X57250681Y-7174482D01*
X57275553Y-7207359D01*
X57312062Y-7232661D01*
X57350804Y-7243840D01*
X57375690Y-7245556D01*
X57414778Y-7241010D01*
X57454044Y-7225385D01*
X57487093Y-7199208D01*
X57505041Y-7176191D01*
X57522984Y-7140556D01*
X57531406Y-7101858D01*
X57533960Y-7061885D01*
X57137309Y-7061885D01*
X57137970Y-7019049D01*
X57139972Y-6985877D01*
X57228754Y-6985877D01*
X57229731Y-6992129D01*
X57531810Y-6992129D01*
X57524620Y-6948262D01*
X57510246Y-6910169D01*
X57484403Y-6873036D01*
X57450214Y-6846373D01*
X57408768Y-6831353D01*
X57377644Y-6828389D01*
X57332632Y-6835388D01*
X57293526Y-6855035D01*
X57262112Y-6885306D01*
X57240175Y-6924175D01*
X57229501Y-6969618D01*
X57228754Y-6985877D01*
X57139972Y-6985877D01*
X57140531Y-6976619D01*
X57146074Y-6936245D01*
X57157383Y-6894680D01*
X57158803Y-6890915D01*
X57178550Y-6852213D01*
X57204563Y-6819011D01*
X57236178Y-6791742D01*
X57272734Y-6770841D01*
X57313570Y-6756741D01*
X57358022Y-6749877D01*
X57376667Y-6749254D01*
X57417425Y-6752244D01*
G37*
G36*
X56936835Y-6549170D02*
G01*
X57023199Y-6549170D01*
X57023199Y-7299485D01*
X56936835Y-7299485D01*
X56936835Y-6549170D01*
G37*
G36*
X56800059Y-6574181D02*
G01*
X56800059Y-6826044D01*
X56742418Y-6826044D01*
X56709591Y-6678131D01*
X56709591Y-6574181D01*
X56800059Y-6574181D01*
G37*
G36*
X56193555Y-6914362D02*
G01*
X56199009Y-6868384D01*
X56214231Y-6829400D01*
X56238886Y-6797739D01*
X56272638Y-6773726D01*
X56315152Y-6757688D01*
X56355247Y-6750819D01*
X56388754Y-6749254D01*
X56433644Y-6752236D01*
X56473946Y-6760941D01*
X56517214Y-6779329D01*
X56551799Y-6805406D01*
X56576860Y-6838473D01*
X56591556Y-6877834D01*
X56595286Y-6913385D01*
X56590461Y-6956128D01*
X56571154Y-6996098D01*
X56541026Y-7023440D01*
X56505105Y-7042391D01*
X56458350Y-7058703D01*
X56424706Y-7067551D01*
X56344595Y-7087091D01*
X56306447Y-7099303D01*
X56273888Y-7122271D01*
X56261357Y-7161732D01*
X56272746Y-7199697D01*
X56304618Y-7227618D01*
X56347361Y-7242106D01*
X56386800Y-7245556D01*
X56427654Y-7241788D01*
X56465570Y-7229549D01*
X56493681Y-7209799D01*
X56512408Y-7173200D01*
X56518300Y-7141215D01*
X56608768Y-7141215D01*
X56604133Y-7184601D01*
X56589571Y-7230465D01*
X56565162Y-7267126D01*
X56530795Y-7294687D01*
X56486356Y-7313251D01*
X56443480Y-7321693D01*
X56394030Y-7324495D01*
X56345503Y-7321430D01*
X56302057Y-7312469D01*
X56264120Y-7297962D01*
X56225099Y-7272563D01*
X56196191Y-7239731D01*
X56178233Y-7200149D01*
X56172062Y-7154502D01*
X56176932Y-7113316D01*
X56195523Y-7073880D01*
X56229010Y-7042683D01*
X56270361Y-7021671D01*
X56314239Y-7007675D01*
X56324078Y-7005221D01*
X56406339Y-6985877D01*
X56446499Y-6974140D01*
X56482323Y-6955566D01*
X56504570Y-6922727D01*
X56505990Y-6909282D01*
X56493614Y-6868788D01*
X56463132Y-6843175D01*
X56422711Y-6830666D01*
X56391880Y-6828389D01*
X56351325Y-6832620D01*
X56312892Y-6850273D01*
X56288808Y-6885532D01*
X56284023Y-6914362D01*
X56193555Y-6914362D01*
G37*
G36*
X55702334Y-7299485D02*
G01*
X55600533Y-7299485D01*
X55521594Y-7074390D01*
X55232801Y-7074390D01*
X55155621Y-7299485D01*
X55048935Y-7299485D01*
X55155916Y-6994279D01*
X55259570Y-6994279D01*
X55497951Y-6994279D01*
X55374658Y-6652339D01*
X55259570Y-6994279D01*
X55155916Y-6994279D01*
X55311936Y-6549170D01*
X55435230Y-6549170D01*
X55702334Y-7299485D01*
G37*
G36*
X54619654Y-6832492D02*
G01*
X54646262Y-6800528D01*
X54678611Y-6776078D01*
X54716272Y-6759363D01*
X54758816Y-6750603D01*
X54785153Y-6749254D01*
X54835196Y-6754398D01*
X54880209Y-6769413D01*
X54919685Y-6793675D01*
X54953119Y-6826557D01*
X54980003Y-6867435D01*
X54999833Y-6915684D01*
X55009772Y-6956332D01*
X55015243Y-7000511D01*
X55016304Y-7031794D01*
X55013973Y-7080823D01*
X55007091Y-7125994D01*
X54995829Y-7167096D01*
X54980354Y-7203919D01*
X54953461Y-7245995D01*
X54919781Y-7279590D01*
X54879715Y-7304204D01*
X54833663Y-7319339D01*
X54782027Y-7324495D01*
X54742647Y-7321512D01*
X54701829Y-7310068D01*
X54665490Y-7289347D01*
X54632539Y-7258612D01*
X54610471Y-7230120D01*
X54610471Y-7301048D01*
X54534267Y-7301048D01*
X54534267Y-7039024D01*
X54619654Y-7039024D01*
X54622391Y-7083359D01*
X54630379Y-7123291D01*
X54647235Y-7166305D01*
X54671111Y-7200806D01*
X54701350Y-7225884D01*
X54745111Y-7242262D01*
X54769717Y-7244383D01*
X54811518Y-7238485D01*
X54847972Y-7221409D01*
X54878367Y-7194087D01*
X54901992Y-7157448D01*
X54918135Y-7112423D01*
X54925186Y-7070990D01*
X54926814Y-7037070D01*
X54923936Y-6992306D01*
X54915554Y-6951973D01*
X54897908Y-6908509D01*
X54872981Y-6873634D01*
X54841506Y-6848275D01*
X54804218Y-6833357D01*
X54770694Y-6829561D01*
X54729942Y-6835408D01*
X54694709Y-6852404D01*
X54665564Y-6879737D01*
X54643075Y-6916592D01*
X54627809Y-6962155D01*
X54621179Y-7004329D01*
X54619654Y-7039024D01*
X54534267Y-7039024D01*
X54534267Y-6549170D01*
X54619654Y-6549170D01*
X54619654Y-6832492D01*
G37*
G36*
X54048321Y-6832492D02*
G01*
X54074929Y-6800528D01*
X54107278Y-6776078D01*
X54144939Y-6759363D01*
X54187483Y-6750603D01*
X54213820Y-6749254D01*
X54263864Y-6754398D01*
X54308876Y-6769413D01*
X54348353Y-6793675D01*
X54381786Y-6826557D01*
X54408671Y-6867435D01*
X54428500Y-6915684D01*
X54438439Y-6956332D01*
X54443911Y-7000511D01*
X54444972Y-7031794D01*
X54442640Y-7080823D01*
X54435759Y-7125994D01*
X54424496Y-7167096D01*
X54409021Y-7203919D01*
X54382128Y-7245995D01*
X54348448Y-7279590D01*
X54308382Y-7304204D01*
X54262330Y-7319339D01*
X54210694Y-7324495D01*
X54171314Y-7321512D01*
X54130496Y-7310068D01*
X54094158Y-7289347D01*
X54061206Y-7258612D01*
X54039138Y-7230120D01*
X54039138Y-7301048D01*
X53962934Y-7301048D01*
X53962934Y-7039024D01*
X54048321Y-7039024D01*
X54051059Y-7083359D01*
X54059047Y-7123291D01*
X54075902Y-7166305D01*
X54099778Y-7200806D01*
X54130017Y-7225884D01*
X54173778Y-7242262D01*
X54198384Y-7244383D01*
X54240186Y-7238485D01*
X54276639Y-7221409D01*
X54307034Y-7194087D01*
X54330659Y-7157448D01*
X54346802Y-7112423D01*
X54353853Y-7070990D01*
X54355481Y-7037070D01*
X54352604Y-6992306D01*
X54344221Y-6951973D01*
X54326575Y-6908509D01*
X54301648Y-6873634D01*
X54270173Y-6848275D01*
X54232885Y-6833357D01*
X54199361Y-6829561D01*
X54158609Y-6835408D01*
X54123376Y-6852404D01*
X54094232Y-6879737D01*
X54071742Y-6916592D01*
X54056476Y-6962155D01*
X54049846Y-7004329D01*
X54048321Y-7039024D01*
X53962934Y-7039024D01*
X53962934Y-6549170D01*
X54048321Y-6549170D01*
X54048321Y-6832492D01*
G37*
G36*
X53829480Y-6761759D02*
G01*
X53829480Y-7299485D01*
X53743115Y-7299485D01*
X53743115Y-7021829D01*
X53741042Y-6981598D01*
X53733310Y-6941385D01*
X53717318Y-6903842D01*
X53689985Y-6871679D01*
X53682543Y-6865905D01*
X53645057Y-6847297D01*
X53605008Y-6840789D01*
X53570387Y-6839331D01*
X53570387Y-6752381D01*
X53603408Y-6749254D01*
X53642826Y-6754054D01*
X53679148Y-6773288D01*
X53709931Y-6802823D01*
X53736620Y-6838162D01*
X53750345Y-6859457D01*
X53750345Y-6761759D01*
X53829480Y-6761759D01*
G37*
G36*
X51445901Y-6578374D02*
G01*
X51486498Y-6590562D01*
X51523148Y-6610155D01*
X51554746Y-6636564D01*
X51570108Y-6654488D01*
X51594122Y-6693794D01*
X51610349Y-6732086D01*
X51623133Y-6775486D01*
X51630876Y-6813933D01*
X51636410Y-6855732D01*
X51639733Y-6900920D01*
X51640840Y-6949533D01*
X51639881Y-6994091D01*
X51637009Y-7035938D01*
X51632237Y-7075051D01*
X51621540Y-7128546D01*
X51606631Y-7175764D01*
X51587549Y-7216629D01*
X51564333Y-7251063D01*
X51527014Y-7286841D01*
X51482504Y-7310872D01*
X51444459Y-7321076D01*
X51402459Y-7324495D01*
X51361001Y-7321081D01*
X51311557Y-7306039D01*
X51268939Y-7279237D01*
X51233320Y-7240928D01*
X51211305Y-7204796D01*
X51193398Y-7162439D01*
X51179673Y-7113964D01*
X51170204Y-7059476D01*
X51166292Y-7019863D01*
X51164325Y-6977656D01*
X51164078Y-6955591D01*
X51164251Y-6947384D01*
X51256695Y-6947384D01*
X51257942Y-7002427D01*
X51261706Y-7051755D01*
X51268018Y-7095434D01*
X51276912Y-7133529D01*
X51292843Y-7175751D01*
X51319413Y-7214971D01*
X51353519Y-7239412D01*
X51395314Y-7249376D01*
X51404609Y-7249659D01*
X51445930Y-7242311D01*
X51480302Y-7220301D01*
X51507703Y-7183677D01*
X51524589Y-7143890D01*
X51536988Y-7094806D01*
X51543335Y-7051908D01*
X51547147Y-7003806D01*
X51548419Y-6950510D01*
X51547145Y-6897292D01*
X51543321Y-6849401D01*
X51536940Y-6806817D01*
X51524445Y-6758260D01*
X51507380Y-6719053D01*
X51479603Y-6683121D01*
X51444639Y-6661631D01*
X51402459Y-6654488D01*
X51360358Y-6661679D01*
X51325447Y-6683222D01*
X51297705Y-6719073D01*
X51280656Y-6758025D01*
X51268170Y-6806082D01*
X51261792Y-6848087D01*
X51257969Y-6895191D01*
X51256695Y-6947384D01*
X51164251Y-6947384D01*
X51165147Y-6904777D01*
X51168374Y-6858150D01*
X51173795Y-6815497D01*
X51181444Y-6776609D01*
X51194191Y-6732972D01*
X51210539Y-6694476D01*
X51230557Y-6660710D01*
X51235006Y-6654488D01*
X51263087Y-6624057D01*
X51296724Y-6600483D01*
X51335020Y-6584170D01*
X51377080Y-6575524D01*
X51402459Y-6574181D01*
X51445901Y-6578374D01*
G37*
G36*
X50813736Y-7021438D02*
G01*
X50632801Y-6761759D01*
X50729521Y-6761759D01*
X50858872Y-6956958D01*
X50988419Y-6761759D01*
X51086116Y-6761759D01*
X50906158Y-7025542D01*
X51096277Y-7299485D01*
X50998775Y-7299485D01*
X50861999Y-7093344D01*
X50727372Y-7299485D01*
X50627721Y-7299485D01*
X50813736Y-7021438D01*
G37*
G36*
X50334043Y-6783057D02*
G01*
X50334043Y-7299485D01*
X50243771Y-7299485D01*
X50243771Y-6574181D01*
X50303367Y-6574181D01*
X50315034Y-6611705D01*
X50330454Y-6647687D01*
X50358956Y-6681697D01*
X50395400Y-6699853D01*
X50438183Y-6710195D01*
X50482687Y-6716950D01*
X50495439Y-6718577D01*
X50495439Y-6783057D01*
X50334043Y-6783057D01*
G37*
G36*
X49792614Y-6577856D02*
G01*
X49834732Y-6588527D01*
X49872041Y-6605660D01*
X49903932Y-6628720D01*
X49935249Y-6665070D01*
X49955961Y-6708807D01*
X49964094Y-6748415D01*
X49965139Y-6769575D01*
X49961347Y-6810516D01*
X49946375Y-6849558D01*
X49917842Y-6883952D01*
X49886155Y-6908967D01*
X49866660Y-6921787D01*
X49902591Y-6942007D01*
X49937586Y-6970067D01*
X49963762Y-7002248D01*
X49981168Y-7038525D01*
X49989848Y-7078877D01*
X49990931Y-7100573D01*
X49986326Y-7148006D01*
X49972958Y-7191120D01*
X49951498Y-7229298D01*
X49922616Y-7261920D01*
X49886985Y-7288369D01*
X49845274Y-7308027D01*
X49798154Y-7320275D01*
X49746297Y-7324495D01*
X49707037Y-7322108D01*
X49658722Y-7311820D01*
X49615634Y-7293992D01*
X49578446Y-7269256D01*
X49547830Y-7238243D01*
X49524461Y-7201587D01*
X49509010Y-7159918D01*
X49502152Y-7113868D01*
X49501883Y-7102722D01*
X49594281Y-7102722D01*
X49600588Y-7147358D01*
X49618691Y-7184897D01*
X49647360Y-7214218D01*
X49685368Y-7234201D01*
X49731485Y-7243726D01*
X49748447Y-7244383D01*
X49787765Y-7240281D01*
X49828676Y-7225220D01*
X49861431Y-7200267D01*
X49884640Y-7166659D01*
X49896911Y-7125632D01*
X49898510Y-7102722D01*
X49892215Y-7058522D01*
X49874202Y-7021225D01*
X49845778Y-6992006D01*
X49808247Y-6972040D01*
X49762915Y-6962502D01*
X49746297Y-6961843D01*
X49706199Y-6965894D01*
X49664666Y-6980793D01*
X49631560Y-7005532D01*
X49608194Y-7038937D01*
X49595881Y-7079833D01*
X49594281Y-7102722D01*
X49501883Y-7102722D01*
X49501859Y-7101745D01*
X49506201Y-7058822D01*
X49519283Y-7020162D01*
X49541191Y-6985742D01*
X49572009Y-6955539D01*
X49604558Y-6933574D01*
X49627107Y-6921787D01*
X49590049Y-6896941D01*
X49558893Y-6867891D01*
X49537231Y-6831561D01*
X49528126Y-6788327D01*
X49527533Y-6771725D01*
X49620073Y-6771725D01*
X49627026Y-6813187D01*
X49650659Y-6850657D01*
X49683341Y-6873183D01*
X49725620Y-6884653D01*
X49746297Y-6885835D01*
X49786189Y-6881175D01*
X49824596Y-6864735D01*
X49855855Y-6833089D01*
X49870403Y-6795664D01*
X49872718Y-6770748D01*
X49865740Y-6728160D01*
X49845848Y-6694086D01*
X49814599Y-6669801D01*
X49773552Y-6656582D01*
X49746297Y-6654488D01*
X49706061Y-6659162D01*
X49667650Y-6675732D01*
X49639712Y-6703117D01*
X49623597Y-6740102D01*
X49620073Y-6771725D01*
X49527533Y-6771725D01*
X49527456Y-6769575D01*
X49531554Y-6728137D01*
X49543460Y-6690492D01*
X49568437Y-6649585D01*
X49603569Y-6616482D01*
X49638223Y-6596319D01*
X49678069Y-6582351D01*
X49722523Y-6575111D01*
X49746297Y-6574181D01*
X49792614Y-6577856D01*
G37*
G36*
X58636570Y-8246639D02*
G01*
X58949005Y-8246639D01*
X58949005Y-8330854D01*
X58720785Y-8330854D01*
X58720785Y-8351761D01*
X58725292Y-8400517D01*
X58738340Y-8445052D01*
X58759218Y-8484665D01*
X58787219Y-8518652D01*
X58821630Y-8546310D01*
X58861743Y-8566936D01*
X58906848Y-8579827D01*
X58956235Y-8584280D01*
X58998112Y-8581379D01*
X59037777Y-8572863D01*
X59074541Y-8559009D01*
X59112849Y-8536472D01*
X59145181Y-8507490D01*
X59170841Y-8473527D01*
X59191944Y-8433209D01*
X59205764Y-8395731D01*
X59215919Y-8355562D01*
X59222178Y-8313485D01*
X59224316Y-8270281D01*
X59221596Y-8220266D01*
X59213607Y-8173839D01*
X59200601Y-8131291D01*
X59182832Y-8092912D01*
X59160552Y-8058993D01*
X59134014Y-8029826D01*
X59092445Y-7998829D01*
X59056958Y-7981879D01*
X59018056Y-7970649D01*
X58975994Y-7965429D01*
X58961315Y-7965076D01*
X58920075Y-7967783D01*
X58873257Y-7978525D01*
X58832337Y-7997001D01*
X58797998Y-8022736D01*
X58770925Y-8055256D01*
X58751801Y-8094088D01*
X58744427Y-8120219D01*
X58646926Y-8120219D01*
X58656707Y-8079183D01*
X58670999Y-8041662D01*
X58696798Y-7997297D01*
X58729963Y-7959653D01*
X58770119Y-7929000D01*
X58816894Y-7905607D01*
X58856094Y-7892990D01*
X58898649Y-7884723D01*
X58944403Y-7880921D01*
X58960338Y-7880665D01*
X59001924Y-7882401D01*
X59040987Y-7887628D01*
X59084609Y-7898544D01*
X59124769Y-7914571D01*
X59161559Y-7935755D01*
X59184260Y-7952766D01*
X59214883Y-7981750D01*
X59241883Y-8014577D01*
X59265119Y-8050949D01*
X59284448Y-8090568D01*
X59299729Y-8133135D01*
X59310820Y-8178355D01*
X59317579Y-8225928D01*
X59319863Y-8275557D01*
X59318234Y-8318191D01*
X59313423Y-8359031D01*
X59305546Y-8397945D01*
X59288235Y-8452415D01*
X59264675Y-8501809D01*
X59235258Y-8545681D01*
X59200373Y-8583586D01*
X59160411Y-8615079D01*
X59115762Y-8639714D01*
X59066816Y-8657046D01*
X59013964Y-8666630D01*
X58976751Y-8668495D01*
X58930501Y-8665697D01*
X58886993Y-8657217D01*
X58845939Y-8642924D01*
X58807046Y-8622690D01*
X58770025Y-8596384D01*
X58734584Y-8563877D01*
X58720785Y-8549109D01*
X58697142Y-8649151D01*
X58636570Y-8649151D01*
X58636570Y-8246639D01*
G37*
G36*
X58167623Y-8105759D02*
G01*
X58316709Y-8525271D01*
X58454267Y-8105759D01*
X58545711Y-8105759D01*
X58363995Y-8646611D01*
X58396821Y-8731998D01*
X58416791Y-8767274D01*
X58452867Y-8783676D01*
X58465600Y-8784364D01*
X58505817Y-8779404D01*
X58510931Y-8778307D01*
X58510931Y-8855292D01*
X58473160Y-8867347D01*
X58453290Y-8868579D01*
X58413910Y-8862726D01*
X58377508Y-8845974D01*
X58373178Y-8842982D01*
X58343521Y-8814085D01*
X58323770Y-8779836D01*
X58314560Y-8757595D01*
X58075202Y-8105759D01*
X58167623Y-8105759D01*
G37*
G36*
X57981999Y-8105759D02*
G01*
X57981999Y-8643485D01*
X57895635Y-8643485D01*
X57895635Y-8365829D01*
X57893561Y-8325598D01*
X57885829Y-8285385D01*
X57869838Y-8247842D01*
X57842505Y-8215679D01*
X57835062Y-8209905D01*
X57797576Y-8191297D01*
X57757527Y-8184789D01*
X57722906Y-8183331D01*
X57722906Y-8096381D01*
X57755928Y-8093254D01*
X57795345Y-8098054D01*
X57831667Y-8117288D01*
X57862450Y-8146823D01*
X57889139Y-8182162D01*
X57902864Y-8203457D01*
X57902864Y-8105759D01*
X57981999Y-8105759D01*
G37*
G36*
X57478903Y-8096069D02*
G01*
X57528252Y-8108363D01*
X57571361Y-8130036D01*
X57607856Y-8160669D01*
X57637365Y-8199842D01*
X57659514Y-8247136D01*
X57671071Y-8287684D01*
X57678121Y-8332387D01*
X57680505Y-8381070D01*
X57678143Y-8429698D01*
X57671148Y-8474348D01*
X57659659Y-8514844D01*
X57643813Y-8551010D01*
X57616147Y-8592194D01*
X57581310Y-8624950D01*
X57539629Y-8648864D01*
X57491431Y-8663518D01*
X57451203Y-8668181D01*
X57437044Y-8668495D01*
X57396138Y-8665689D01*
X57346693Y-8653453D01*
X57303437Y-8631933D01*
X57266766Y-8601591D01*
X57237076Y-8562891D01*
X57214763Y-8516295D01*
X57203108Y-8476444D01*
X57195992Y-8432606D01*
X57193583Y-8384978D01*
X57193629Y-8384001D01*
X57282878Y-8384001D01*
X57285624Y-8428961D01*
X57293668Y-8469205D01*
X57310734Y-8512276D01*
X57335065Y-8546593D01*
X57366098Y-8571385D01*
X57403268Y-8585884D01*
X57437044Y-8589556D01*
X57479045Y-8583894D01*
X57515139Y-8567333D01*
X57544831Y-8540507D01*
X57567624Y-8504052D01*
X57583022Y-8458602D01*
X57589683Y-8416192D01*
X57591210Y-8381070D01*
X57588505Y-8335134D01*
X57580558Y-8294141D01*
X57563641Y-8250407D01*
X57539429Y-8215677D01*
X57508417Y-8190662D01*
X57471101Y-8176074D01*
X57437044Y-8172389D01*
X57394718Y-8178062D01*
X57358516Y-8194707D01*
X57328869Y-8221760D01*
X57306206Y-8258656D01*
X57290956Y-8304834D01*
X57284382Y-8348079D01*
X57282878Y-8384001D01*
X57193629Y-8384001D01*
X57195918Y-8335070D01*
X57202846Y-8289417D01*
X57214251Y-8248161D01*
X57230018Y-8211445D01*
X57257623Y-8169800D01*
X57292501Y-8136820D01*
X57334377Y-8112842D01*
X57382975Y-8098208D01*
X57423670Y-8093566D01*
X57438021Y-8093254D01*
X57478903Y-8096069D01*
G37*
G36*
X57080645Y-7918181D02*
G01*
X57080645Y-8170044D01*
X57023004Y-8170044D01*
X56990177Y-8022131D01*
X56990177Y-7918181D01*
X57080645Y-7918181D01*
G37*
G36*
X56474141Y-8258362D02*
G01*
X56479595Y-8212384D01*
X56494817Y-8173400D01*
X56519472Y-8141739D01*
X56553224Y-8117726D01*
X56595739Y-8101688D01*
X56635833Y-8094819D01*
X56669340Y-8093254D01*
X56714230Y-8096236D01*
X56754532Y-8104941D01*
X56797800Y-8123329D01*
X56832385Y-8149406D01*
X56857446Y-8182473D01*
X56872143Y-8221834D01*
X56875872Y-8257385D01*
X56871047Y-8300128D01*
X56851740Y-8340098D01*
X56821613Y-8367440D01*
X56785691Y-8386391D01*
X56738936Y-8402703D01*
X56705293Y-8411551D01*
X56625181Y-8431091D01*
X56587033Y-8443303D01*
X56554474Y-8466271D01*
X56541943Y-8505732D01*
X56553332Y-8543697D01*
X56585204Y-8571618D01*
X56627948Y-8586106D01*
X56667386Y-8589556D01*
X56708240Y-8585788D01*
X56746156Y-8573549D01*
X56774267Y-8553799D01*
X56792994Y-8517200D01*
X56798886Y-8485215D01*
X56889354Y-8485215D01*
X56884719Y-8528601D01*
X56870157Y-8574465D01*
X56845748Y-8611126D01*
X56811381Y-8638687D01*
X56766943Y-8657251D01*
X56724066Y-8665693D01*
X56674616Y-8668495D01*
X56626089Y-8665430D01*
X56582643Y-8656469D01*
X56544706Y-8641962D01*
X56505685Y-8616563D01*
X56476778Y-8583731D01*
X56458820Y-8544149D01*
X56452648Y-8498502D01*
X56457518Y-8457316D01*
X56476109Y-8417880D01*
X56509596Y-8386683D01*
X56550947Y-8365671D01*
X56594825Y-8351675D01*
X56604665Y-8349221D01*
X56686926Y-8329877D01*
X56727085Y-8318140D01*
X56762909Y-8299566D01*
X56785156Y-8266727D01*
X56786577Y-8253282D01*
X56774200Y-8212788D01*
X56743718Y-8187175D01*
X56703297Y-8174666D01*
X56672466Y-8172389D01*
X56631911Y-8176620D01*
X56593478Y-8194273D01*
X56569394Y-8229532D01*
X56564609Y-8258362D01*
X56474141Y-8258362D01*
G37*
G36*
X55982920Y-8643485D02*
G01*
X55881120Y-8643485D01*
X55802180Y-8418390D01*
X55513387Y-8418390D01*
X55436207Y-8643485D01*
X55329521Y-8643485D01*
X55436502Y-8338279D01*
X55540157Y-8338279D01*
X55778538Y-8338279D01*
X55655244Y-7996339D01*
X55540157Y-8338279D01*
X55436502Y-8338279D01*
X55592522Y-7893170D01*
X55715816Y-7893170D01*
X55982920Y-8643485D01*
G37*
G36*
X54900240Y-8176492D02*
G01*
X54926848Y-8144528D01*
X54959197Y-8120078D01*
X54996858Y-8103363D01*
X55039402Y-8094603D01*
X55065739Y-8093254D01*
X55115783Y-8098398D01*
X55160795Y-8113413D01*
X55200272Y-8137675D01*
X55233705Y-8170557D01*
X55260590Y-8211435D01*
X55280420Y-8259684D01*
X55290358Y-8300332D01*
X55295830Y-8344511D01*
X55296891Y-8375794D01*
X55294559Y-8424823D01*
X55287678Y-8469994D01*
X55276415Y-8511096D01*
X55260940Y-8547919D01*
X55234047Y-8589995D01*
X55200367Y-8623590D01*
X55160301Y-8648204D01*
X55114249Y-8663339D01*
X55062613Y-8668495D01*
X55023233Y-8665512D01*
X54982415Y-8654068D01*
X54946077Y-8633347D01*
X54913125Y-8602612D01*
X54891057Y-8574120D01*
X54891057Y-8645048D01*
X54814853Y-8645048D01*
X54814853Y-8383024D01*
X54900240Y-8383024D01*
X54902978Y-8427359D01*
X54910966Y-8467291D01*
X54927821Y-8510305D01*
X54951697Y-8544806D01*
X54981936Y-8569884D01*
X55025697Y-8586262D01*
X55050303Y-8588383D01*
X55092105Y-8582485D01*
X55128558Y-8565409D01*
X55158953Y-8538087D01*
X55182578Y-8501448D01*
X55198721Y-8456423D01*
X55205772Y-8414990D01*
X55207400Y-8381070D01*
X55204523Y-8336306D01*
X55196140Y-8295973D01*
X55178494Y-8252509D01*
X55153567Y-8217634D01*
X55122092Y-8192275D01*
X55084804Y-8177357D01*
X55051280Y-8173561D01*
X55010528Y-8179408D01*
X54975295Y-8196404D01*
X54946151Y-8223737D01*
X54923661Y-8260592D01*
X54908395Y-8306155D01*
X54901765Y-8348329D01*
X54900240Y-8383024D01*
X54814853Y-8383024D01*
X54814853Y-7893170D01*
X54900240Y-7893170D01*
X54900240Y-8176492D01*
G37*
G36*
X54328907Y-8176492D02*
G01*
X54355515Y-8144528D01*
X54387864Y-8120078D01*
X54425525Y-8103363D01*
X54468069Y-8094603D01*
X54494406Y-8093254D01*
X54544450Y-8098398D01*
X54589463Y-8113413D01*
X54628939Y-8137675D01*
X54662372Y-8170557D01*
X54689257Y-8211435D01*
X54709087Y-8259684D01*
X54719025Y-8300332D01*
X54724497Y-8344511D01*
X54725558Y-8375794D01*
X54723226Y-8424823D01*
X54716345Y-8469994D01*
X54705082Y-8511096D01*
X54689607Y-8547919D01*
X54662714Y-8589995D01*
X54629034Y-8623590D01*
X54588968Y-8648204D01*
X54542916Y-8663339D01*
X54491280Y-8668495D01*
X54451900Y-8665512D01*
X54411082Y-8654068D01*
X54374744Y-8633347D01*
X54341792Y-8602612D01*
X54319724Y-8574120D01*
X54319724Y-8645048D01*
X54243520Y-8645048D01*
X54243520Y-8383024D01*
X54328907Y-8383024D01*
X54331645Y-8427359D01*
X54339633Y-8467291D01*
X54356488Y-8510305D01*
X54380364Y-8544806D01*
X54410603Y-8569884D01*
X54454364Y-8586262D01*
X54478970Y-8588383D01*
X54520772Y-8582485D01*
X54557225Y-8565409D01*
X54587620Y-8538087D01*
X54611245Y-8501448D01*
X54627388Y-8456423D01*
X54634439Y-8414990D01*
X54636067Y-8381070D01*
X54633190Y-8336306D01*
X54624808Y-8295973D01*
X54607161Y-8252509D01*
X54582234Y-8217634D01*
X54550759Y-8192275D01*
X54513471Y-8177357D01*
X54479947Y-8173561D01*
X54439195Y-8179408D01*
X54403963Y-8196404D01*
X54374818Y-8223737D01*
X54352328Y-8260592D01*
X54337063Y-8306155D01*
X54330433Y-8348329D01*
X54328907Y-8383024D01*
X54243520Y-8383024D01*
X54243520Y-7893170D01*
X54328907Y-7893170D01*
X54328907Y-8176492D01*
G37*
G36*
X54110066Y-8105759D02*
G01*
X54110066Y-8643485D01*
X54023702Y-8643485D01*
X54023702Y-8365829D01*
X54021628Y-8325598D01*
X54013896Y-8285385D01*
X53997905Y-8247842D01*
X53970572Y-8215679D01*
X53963129Y-8209905D01*
X53925643Y-8191297D01*
X53885594Y-8184789D01*
X53850973Y-8183331D01*
X53850973Y-8096381D01*
X53883995Y-8093254D01*
X53923412Y-8098054D01*
X53959734Y-8117288D01*
X53990517Y-8146823D01*
X54017206Y-8182162D01*
X54030931Y-8203457D01*
X54030931Y-8105759D01*
X54110066Y-8105759D01*
G37*
G36*
X51445901Y-7922374D02*
G01*
X51486498Y-7934562D01*
X51523148Y-7954155D01*
X51554746Y-7980564D01*
X51570108Y-7998488D01*
X51594122Y-8037794D01*
X51610349Y-8076086D01*
X51623133Y-8119486D01*
X51630876Y-8157933D01*
X51636410Y-8199732D01*
X51639733Y-8244920D01*
X51640840Y-8293533D01*
X51639881Y-8338091D01*
X51637009Y-8379938D01*
X51632237Y-8419051D01*
X51621540Y-8472546D01*
X51606631Y-8519764D01*
X51587549Y-8560629D01*
X51564333Y-8595063D01*
X51527014Y-8630841D01*
X51482504Y-8654872D01*
X51444459Y-8665076D01*
X51402459Y-8668495D01*
X51361001Y-8665081D01*
X51311557Y-8650039D01*
X51268939Y-8623237D01*
X51233320Y-8584928D01*
X51211305Y-8548796D01*
X51193398Y-8506439D01*
X51179673Y-8457964D01*
X51170204Y-8403476D01*
X51166292Y-8363863D01*
X51164325Y-8321656D01*
X51164078Y-8299591D01*
X51164251Y-8291384D01*
X51256695Y-8291384D01*
X51257942Y-8346427D01*
X51261706Y-8395755D01*
X51268018Y-8439434D01*
X51276912Y-8477529D01*
X51292843Y-8519751D01*
X51319413Y-8558971D01*
X51353519Y-8583412D01*
X51395314Y-8593376D01*
X51404609Y-8593659D01*
X51445930Y-8586311D01*
X51480302Y-8564301D01*
X51507703Y-8527677D01*
X51524589Y-8487890D01*
X51536988Y-8438806D01*
X51543335Y-8395908D01*
X51547147Y-8347806D01*
X51548419Y-8294510D01*
X51547145Y-8241292D01*
X51543321Y-8193401D01*
X51536940Y-8150817D01*
X51524445Y-8102260D01*
X51507380Y-8063053D01*
X51479603Y-8027121D01*
X51444639Y-8005631D01*
X51402459Y-7998488D01*
X51360358Y-8005679D01*
X51325447Y-8027222D01*
X51297705Y-8063073D01*
X51280656Y-8102025D01*
X51268170Y-8150082D01*
X51261792Y-8192087D01*
X51257969Y-8239191D01*
X51256695Y-8291384D01*
X51164251Y-8291384D01*
X51165147Y-8248777D01*
X51168374Y-8202150D01*
X51173795Y-8159497D01*
X51181444Y-8120609D01*
X51194191Y-8076972D01*
X51210539Y-8038476D01*
X51230557Y-8004710D01*
X51235006Y-7998488D01*
X51263087Y-7968057D01*
X51296724Y-7944483D01*
X51335020Y-7928170D01*
X51377080Y-7919524D01*
X51402459Y-7918181D01*
X51445901Y-7922374D01*
G37*
G36*
X50813736Y-8365438D02*
G01*
X50632801Y-8105759D01*
X50729521Y-8105759D01*
X50858872Y-8300958D01*
X50988419Y-8105759D01*
X51086116Y-8105759D01*
X50906158Y-8369542D01*
X51096277Y-8643485D01*
X50998775Y-8643485D01*
X50861999Y-8437344D01*
X50727372Y-8643485D01*
X50627721Y-8643485D01*
X50813736Y-8365438D01*
G37*
G36*
X50339222Y-7922214D02*
G01*
X50380742Y-7933956D01*
X50418907Y-7952876D01*
X50452907Y-7978439D01*
X50481931Y-8010112D01*
X50490359Y-8021935D01*
X50509729Y-8056622D01*
X50525586Y-8094563D01*
X50538025Y-8136321D01*
X50547140Y-8182460D01*
X50552100Y-8222904D01*
X50555042Y-8266802D01*
X50556011Y-8314441D01*
X50555138Y-8358080D01*
X50552467Y-8397944D01*
X50546485Y-8443019D01*
X50537429Y-8483474D01*
X50522297Y-8526923D01*
X50502270Y-8565972D01*
X50494462Y-8578223D01*
X50465368Y-8612693D01*
X50429721Y-8639202D01*
X50388037Y-8657419D01*
X50347892Y-8666182D01*
X50311573Y-8668495D01*
X50261500Y-8663810D01*
X50215799Y-8650247D01*
X50175183Y-8628546D01*
X50140359Y-8599448D01*
X50112038Y-8563690D01*
X50090930Y-8522013D01*
X50077745Y-8475157D01*
X50073834Y-8431091D01*
X50165614Y-8431091D01*
X50169982Y-8471732D01*
X50185867Y-8514424D01*
X50211857Y-8548918D01*
X50246360Y-8573553D01*
X50287785Y-8586666D01*
X50310596Y-8588383D01*
X50355519Y-8581368D01*
X50394405Y-8561521D01*
X50425549Y-8530644D01*
X50447241Y-8490537D01*
X50456866Y-8451363D01*
X50458510Y-8425815D01*
X50454118Y-8385834D01*
X50438011Y-8344304D01*
X50411359Y-8311108D01*
X50375514Y-8287621D01*
X50331830Y-8275218D01*
X50307470Y-8273603D01*
X50261946Y-8279798D01*
X50224203Y-8297776D01*
X50195101Y-8326625D01*
X50175496Y-8365432D01*
X50167033Y-8404721D01*
X50165614Y-8431091D01*
X50073834Y-8431091D01*
X50073192Y-8423861D01*
X50077418Y-8375189D01*
X50089672Y-8330875D01*
X50109318Y-8291575D01*
X50135718Y-8257947D01*
X50168237Y-8230648D01*
X50206237Y-8210335D01*
X50249083Y-8197665D01*
X50296137Y-8193296D01*
X50341088Y-8197259D01*
X50381485Y-8209065D01*
X50417205Y-8228591D01*
X50448124Y-8255716D01*
X50463590Y-8274580D01*
X50461830Y-8226729D01*
X50457134Y-8183146D01*
X50449554Y-8143928D01*
X50435051Y-8098592D01*
X50415638Y-8061411D01*
X50384655Y-8026749D01*
X50346434Y-8005627D01*
X50301217Y-7998488D01*
X50262326Y-8004108D01*
X50225568Y-8023757D01*
X50197922Y-8056636D01*
X50181957Y-8095539D01*
X50178900Y-8108300D01*
X50088628Y-8108300D01*
X50097943Y-8065910D01*
X50112628Y-8028310D01*
X50138036Y-7988451D01*
X50170683Y-7957011D01*
X50209929Y-7934508D01*
X50255134Y-7921461D01*
X50295160Y-7918181D01*
X50339222Y-7922214D01*
G37*
G36*
X49792614Y-7921856D02*
G01*
X49834732Y-7932527D01*
X49872041Y-7949660D01*
X49903932Y-7972720D01*
X49935249Y-8009070D01*
X49955961Y-8052807D01*
X49964094Y-8092415D01*
X49965139Y-8113575D01*
X49961347Y-8154516D01*
X49946375Y-8193558D01*
X49917842Y-8227952D01*
X49886155Y-8252967D01*
X49866660Y-8265787D01*
X49902591Y-8286007D01*
X49937586Y-8314067D01*
X49963762Y-8346248D01*
X49981168Y-8382525D01*
X49989848Y-8422877D01*
X49990931Y-8444573D01*
X49986326Y-8492006D01*
X49972958Y-8535120D01*
X49951498Y-8573298D01*
X49922616Y-8605920D01*
X49886985Y-8632369D01*
X49845274Y-8652027D01*
X49798154Y-8664275D01*
X49746297Y-8668495D01*
X49707037Y-8666108D01*
X49658722Y-8655820D01*
X49615634Y-8637992D01*
X49578446Y-8613256D01*
X49547830Y-8582243D01*
X49524461Y-8545587D01*
X49509010Y-8503918D01*
X49502152Y-8457868D01*
X49501883Y-8446722D01*
X49594281Y-8446722D01*
X49600588Y-8491358D01*
X49618691Y-8528897D01*
X49647360Y-8558218D01*
X49685368Y-8578201D01*
X49731485Y-8587726D01*
X49748447Y-8588383D01*
X49787765Y-8584281D01*
X49828676Y-8569220D01*
X49861431Y-8544267D01*
X49884640Y-8510659D01*
X49896911Y-8469632D01*
X49898510Y-8446722D01*
X49892215Y-8402522D01*
X49874202Y-8365225D01*
X49845778Y-8336006D01*
X49808247Y-8316040D01*
X49762915Y-8306502D01*
X49746297Y-8305843D01*
X49706199Y-8309894D01*
X49664666Y-8324793D01*
X49631560Y-8349532D01*
X49608194Y-8382937D01*
X49595881Y-8423833D01*
X49594281Y-8446722D01*
X49501883Y-8446722D01*
X49501859Y-8445745D01*
X49506201Y-8402822D01*
X49519283Y-8364162D01*
X49541191Y-8329742D01*
X49572009Y-8299539D01*
X49604558Y-8277574D01*
X49627107Y-8265787D01*
X49590049Y-8240941D01*
X49558893Y-8211891D01*
X49537231Y-8175561D01*
X49528126Y-8132327D01*
X49527533Y-8115725D01*
X49620073Y-8115725D01*
X49627026Y-8157187D01*
X49650659Y-8194657D01*
X49683341Y-8217183D01*
X49725620Y-8228653D01*
X49746297Y-8229835D01*
X49786189Y-8225175D01*
X49824596Y-8208735D01*
X49855855Y-8177089D01*
X49870403Y-8139664D01*
X49872718Y-8114748D01*
X49865740Y-8072160D01*
X49845848Y-8038086D01*
X49814599Y-8013801D01*
X49773552Y-8000582D01*
X49746297Y-7998488D01*
X49706061Y-8003162D01*
X49667650Y-8019732D01*
X49639712Y-8047117D01*
X49623597Y-8084102D01*
X49620073Y-8115725D01*
X49527533Y-8115725D01*
X49527456Y-8113575D01*
X49531554Y-8072137D01*
X49543460Y-8034492D01*
X49568437Y-7993585D01*
X49603569Y-7960482D01*
X49638223Y-7940319D01*
X49678069Y-7926351D01*
X49722523Y-7919111D01*
X49746297Y-7918181D01*
X49792614Y-7921856D01*
G37*
G36*
X58884134Y-9987485D02*
G01*
X58673499Y-9358706D01*
X58673499Y-9987485D01*
X58583227Y-9987485D01*
X58583227Y-9237170D01*
X58715704Y-9237170D01*
X58933569Y-9890960D01*
X59155537Y-9237170D01*
X59288014Y-9237170D01*
X59288014Y-9987485D01*
X59197547Y-9987485D01*
X59197547Y-9358706D01*
X58984958Y-9987485D01*
X58884134Y-9987485D01*
G37*
G36*
X58269074Y-9439610D02*
G01*
X58308068Y-9446538D01*
X58348402Y-9460122D01*
X58386520Y-9482493D01*
X58405418Y-9499976D01*
X58427503Y-9533457D01*
X58438681Y-9571601D01*
X58442543Y-9611546D01*
X58356179Y-9611546D01*
X58344641Y-9569063D01*
X58316314Y-9536590D01*
X58276538Y-9520716D01*
X58237149Y-9516476D01*
X58229759Y-9516389D01*
X58190081Y-9519376D01*
X58148911Y-9532342D01*
X58119630Y-9558510D01*
X58109591Y-9596110D01*
X58109591Y-9618580D01*
X58124011Y-9654939D01*
X58160780Y-9671420D01*
X58198886Y-9677980D01*
X58239800Y-9683213D01*
X58279481Y-9688648D01*
X58318443Y-9695028D01*
X58356826Y-9704978D01*
X58371615Y-9710611D01*
X58408334Y-9730624D01*
X58439366Y-9761317D01*
X58458650Y-9800265D01*
X58465813Y-9841044D01*
X58466186Y-9853835D01*
X58461321Y-9896652D01*
X58447133Y-9933665D01*
X58418656Y-9969581D01*
X58386097Y-9991732D01*
X58346160Y-10006175D01*
X58299454Y-10012315D01*
X58289354Y-10012495D01*
X58246564Y-10009039D01*
X58206374Y-9998311D01*
X58167569Y-9979771D01*
X58134488Y-9957253D01*
X58106465Y-9933556D01*
X58096261Y-9972453D01*
X58068880Y-10001841D01*
X58028217Y-10012205D01*
X58018147Y-10012495D01*
X57977920Y-10007796D01*
X57959528Y-10003311D01*
X57959528Y-9938636D01*
X57978091Y-9940590D01*
X58015041Y-9926819D01*
X58024204Y-9898775D01*
X58024204Y-9820032D01*
X58109591Y-9820032D01*
X58117917Y-9858675D01*
X58143394Y-9889592D01*
X58178326Y-9914767D01*
X58217637Y-9930796D01*
X58256879Y-9937227D01*
X58270792Y-9937659D01*
X58310544Y-9933187D01*
X58348803Y-9914969D01*
X58372648Y-9879718D01*
X58376695Y-9851685D01*
X58367352Y-9810511D01*
X58337932Y-9780835D01*
X58299833Y-9764636D01*
X58255761Y-9754888D01*
X58247344Y-9753598D01*
X58203499Y-9747424D01*
X58163023Y-9740697D01*
X58125217Y-9730518D01*
X58109591Y-9723898D01*
X58109591Y-9820032D01*
X58024204Y-9820032D01*
X58024204Y-9583995D01*
X58029299Y-9542547D01*
X58048700Y-9501550D01*
X58082317Y-9470364D01*
X58120980Y-9452083D01*
X58169142Y-9440990D01*
X58214396Y-9437405D01*
X58226632Y-9437254D01*
X58269074Y-9439610D01*
G37*
G36*
X57728060Y-9442715D02*
G01*
X57772457Y-9458592D01*
X57811568Y-9484127D01*
X57844832Y-9518563D01*
X57871684Y-9561141D01*
X57887277Y-9597962D01*
X57898709Y-9638617D01*
X57905742Y-9682786D01*
X57908140Y-9730150D01*
X57906420Y-9770148D01*
X57899886Y-9814840D01*
X57888591Y-9855773D01*
X57872659Y-9892783D01*
X57848377Y-9930788D01*
X57840338Y-9940590D01*
X57811723Y-9967564D01*
X57774349Y-9991167D01*
X57733678Y-10006363D01*
X57691469Y-10012417D01*
X57686172Y-10012495D01*
X57644397Y-10008265D01*
X57607163Y-9995151D01*
X57573120Y-9972514D01*
X57540917Y-9939715D01*
X57522822Y-9916166D01*
X57522822Y-9943716D01*
X57524175Y-9987571D01*
X57529218Y-10028742D01*
X57541222Y-10068742D01*
X57553695Y-10090457D01*
X57584061Y-10118324D01*
X57622286Y-10134361D01*
X57663164Y-10140460D01*
X57672885Y-10140674D01*
X57714675Y-10136480D01*
X57753344Y-10122908D01*
X57770387Y-10111951D01*
X57795794Y-10079901D01*
X57803408Y-10050597D01*
X57890750Y-10050597D01*
X57881331Y-10095066D01*
X57862212Y-10133102D01*
X57833913Y-10164252D01*
X57796953Y-10188066D01*
X57751849Y-10204090D01*
X57710252Y-10210998D01*
X57676011Y-10212579D01*
X57632201Y-10209932D01*
X57591704Y-10202203D01*
X57549820Y-10187184D01*
X57515042Y-10166182D01*
X57491950Y-10143800D01*
X57468590Y-10108429D01*
X57453933Y-10071997D01*
X57443805Y-10028242D01*
X57438534Y-9985036D01*
X57436224Y-9945395D01*
X57435481Y-9900729D01*
X57435481Y-9728001D01*
X57522822Y-9728001D01*
X57525383Y-9773522D01*
X57532906Y-9814029D01*
X57548922Y-9857116D01*
X57571845Y-9891224D01*
X57607810Y-9919408D01*
X57652234Y-9932651D01*
X57668782Y-9933556D01*
X57709783Y-9927894D01*
X57751214Y-9906769D01*
X57778740Y-9877966D01*
X57799425Y-9839661D01*
X57812822Y-9792488D01*
X57817992Y-9748792D01*
X57818649Y-9725070D01*
X57816002Y-9679134D01*
X57808244Y-9638141D01*
X57791779Y-9594407D01*
X57768294Y-9559677D01*
X57731601Y-9530888D01*
X57686500Y-9517318D01*
X57669759Y-9516389D01*
X57629276Y-9522002D01*
X57588561Y-9543076D01*
X57561632Y-9572003D01*
X57541473Y-9610733D01*
X57530474Y-9648442D01*
X57524246Y-9691853D01*
X57522822Y-9728001D01*
X57435481Y-9728001D01*
X57435481Y-9452690D01*
X57514616Y-9452690D01*
X57514616Y-9530848D01*
X57539922Y-9498557D01*
X57572276Y-9469690D01*
X57608109Y-9450072D01*
X57647877Y-9439459D01*
X57678942Y-9437254D01*
X57728060Y-9442715D01*
G37*
G36*
X57301050Y-9262181D02*
G01*
X57301050Y-9514044D01*
X57243408Y-9514044D01*
X57210582Y-9366131D01*
X57210582Y-9262181D01*
X57301050Y-9262181D01*
G37*
G36*
X56694546Y-9602362D02*
G01*
X56700000Y-9556384D01*
X56715222Y-9517400D01*
X56739877Y-9485739D01*
X56773629Y-9461726D01*
X56816143Y-9445688D01*
X56856238Y-9438819D01*
X56889745Y-9437254D01*
X56934635Y-9440236D01*
X56974937Y-9448941D01*
X57018205Y-9467329D01*
X57052790Y-9493406D01*
X57077851Y-9526473D01*
X57092547Y-9565834D01*
X57096277Y-9601385D01*
X57091452Y-9644128D01*
X57072145Y-9684098D01*
X57042017Y-9711440D01*
X57006096Y-9730391D01*
X56959341Y-9746703D01*
X56925697Y-9755551D01*
X56845586Y-9775091D01*
X56807438Y-9787303D01*
X56774879Y-9810271D01*
X56762348Y-9849732D01*
X56773737Y-9887697D01*
X56805609Y-9915618D01*
X56848352Y-9930106D01*
X56887791Y-9933556D01*
X56928645Y-9929788D01*
X56966561Y-9917549D01*
X56994672Y-9897799D01*
X57013398Y-9861200D01*
X57019291Y-9829215D01*
X57109759Y-9829215D01*
X57105124Y-9872601D01*
X57090562Y-9918465D01*
X57066153Y-9955126D01*
X57031785Y-9982687D01*
X56987347Y-10001251D01*
X56944471Y-10009693D01*
X56895020Y-10012495D01*
X56846494Y-10009430D01*
X56803048Y-10000469D01*
X56765111Y-9985962D01*
X56726090Y-9960563D01*
X56697182Y-9927731D01*
X56679224Y-9888149D01*
X56673053Y-9842502D01*
X56677922Y-9801316D01*
X56696514Y-9761880D01*
X56730001Y-9730683D01*
X56771352Y-9709671D01*
X56815230Y-9695675D01*
X56825069Y-9693221D01*
X56907330Y-9673877D01*
X56947490Y-9662140D01*
X56983314Y-9643566D01*
X57005561Y-9610727D01*
X57006981Y-9597282D01*
X56994605Y-9556788D01*
X56964123Y-9531175D01*
X56923702Y-9518666D01*
X56892871Y-9516389D01*
X56852316Y-9520620D01*
X56813883Y-9538273D01*
X56789799Y-9573532D01*
X56785013Y-9602362D01*
X56694546Y-9602362D01*
G37*
G36*
X56203325Y-9987485D02*
G01*
X56101524Y-9987485D01*
X56022585Y-9762390D01*
X55733792Y-9762390D01*
X55656612Y-9987485D01*
X55549926Y-9987485D01*
X55656907Y-9682279D01*
X55760561Y-9682279D01*
X55998942Y-9682279D01*
X55875648Y-9340339D01*
X55760561Y-9682279D01*
X55656907Y-9682279D01*
X55812927Y-9237170D01*
X55936221Y-9237170D01*
X56203325Y-9987485D01*
G37*
G36*
X55120645Y-9520492D02*
G01*
X55147253Y-9488528D01*
X55179602Y-9464078D01*
X55217263Y-9447363D01*
X55259807Y-9438603D01*
X55286144Y-9437254D01*
X55336187Y-9442398D01*
X55381200Y-9457413D01*
X55420676Y-9481675D01*
X55454110Y-9514557D01*
X55480994Y-9555435D01*
X55500824Y-9603684D01*
X55510763Y-9644332D01*
X55516234Y-9688511D01*
X55517295Y-9719794D01*
X55514964Y-9768823D01*
X55508082Y-9813994D01*
X55496820Y-9855096D01*
X55481345Y-9891919D01*
X55454452Y-9933995D01*
X55420772Y-9967590D01*
X55380706Y-9992204D01*
X55334654Y-10007339D01*
X55283018Y-10012495D01*
X55243638Y-10009512D01*
X55202820Y-9998068D01*
X55166481Y-9977347D01*
X55133530Y-9946612D01*
X55111461Y-9918120D01*
X55111461Y-9989048D01*
X55035258Y-9989048D01*
X55035258Y-9727024D01*
X55120645Y-9727024D01*
X55123382Y-9771359D01*
X55131370Y-9811291D01*
X55148226Y-9854305D01*
X55172102Y-9888806D01*
X55202341Y-9913884D01*
X55246101Y-9930262D01*
X55270708Y-9932383D01*
X55312509Y-9926485D01*
X55348963Y-9909409D01*
X55379358Y-9882087D01*
X55402982Y-9845448D01*
X55419126Y-9800423D01*
X55426177Y-9758990D01*
X55427805Y-9725070D01*
X55424927Y-9680306D01*
X55416545Y-9639973D01*
X55398899Y-9596509D01*
X55373972Y-9561634D01*
X55342497Y-9536275D01*
X55305209Y-9521357D01*
X55271685Y-9517561D01*
X55230933Y-9523408D01*
X55195700Y-9540404D01*
X55166555Y-9567737D01*
X55144066Y-9604592D01*
X55128800Y-9650155D01*
X55122170Y-9692329D01*
X55120645Y-9727024D01*
X55035258Y-9727024D01*
X55035258Y-9237170D01*
X55120645Y-9237170D01*
X55120645Y-9520492D01*
G37*
G36*
X54549312Y-9520492D02*
G01*
X54575920Y-9488528D01*
X54608269Y-9464078D01*
X54645930Y-9447363D01*
X54688474Y-9438603D01*
X54714811Y-9437254D01*
X54764855Y-9442398D01*
X54809867Y-9457413D01*
X54849343Y-9481675D01*
X54882777Y-9514557D01*
X54909662Y-9555435D01*
X54929491Y-9603684D01*
X54939430Y-9644332D01*
X54944901Y-9688511D01*
X54945963Y-9719794D01*
X54943631Y-9768823D01*
X54936749Y-9813994D01*
X54925487Y-9855096D01*
X54910012Y-9891919D01*
X54883119Y-9933995D01*
X54849439Y-9967590D01*
X54809373Y-9992204D01*
X54763321Y-10007339D01*
X54711685Y-10012495D01*
X54672305Y-10009512D01*
X54631487Y-9998068D01*
X54595148Y-9977347D01*
X54562197Y-9946612D01*
X54540129Y-9918120D01*
X54540129Y-9989048D01*
X54463925Y-9989048D01*
X54463925Y-9727024D01*
X54549312Y-9727024D01*
X54552050Y-9771359D01*
X54560037Y-9811291D01*
X54576893Y-9854305D01*
X54600769Y-9888806D01*
X54631008Y-9913884D01*
X54674769Y-9930262D01*
X54699375Y-9932383D01*
X54741177Y-9926485D01*
X54777630Y-9909409D01*
X54808025Y-9882087D01*
X54831650Y-9845448D01*
X54847793Y-9800423D01*
X54854844Y-9758990D01*
X54856472Y-9725070D01*
X54853594Y-9680306D01*
X54845212Y-9639973D01*
X54827566Y-9596509D01*
X54802639Y-9561634D01*
X54771164Y-9536275D01*
X54733876Y-9521357D01*
X54700352Y-9517561D01*
X54659600Y-9523408D01*
X54624367Y-9540404D01*
X54595222Y-9567737D01*
X54572733Y-9604592D01*
X54557467Y-9650155D01*
X54550837Y-9692329D01*
X54549312Y-9727024D01*
X54463925Y-9727024D01*
X54463925Y-9237170D01*
X54549312Y-9237170D01*
X54549312Y-9520492D01*
G37*
G36*
X54330471Y-9449759D02*
G01*
X54330471Y-9987485D01*
X54244106Y-9987485D01*
X54244106Y-9709829D01*
X54242033Y-9669598D01*
X54234301Y-9629385D01*
X54218309Y-9591842D01*
X54190976Y-9559679D01*
X54183534Y-9553905D01*
X54146048Y-9535297D01*
X54105999Y-9528789D01*
X54071378Y-9527331D01*
X54071378Y-9440381D01*
X54104399Y-9437254D01*
X54143817Y-9442054D01*
X54180139Y-9461288D01*
X54210922Y-9490823D01*
X54237611Y-9526162D01*
X54251336Y-9547457D01*
X54251336Y-9449759D01*
X54330471Y-9449759D01*
G37*
G36*
X51445901Y-9266374D02*
G01*
X51486498Y-9278562D01*
X51523148Y-9298155D01*
X51554746Y-9324564D01*
X51570108Y-9342488D01*
X51594122Y-9381794D01*
X51610349Y-9420086D01*
X51623133Y-9463486D01*
X51630876Y-9501933D01*
X51636410Y-9543732D01*
X51639733Y-9588920D01*
X51640840Y-9637533D01*
X51639881Y-9682091D01*
X51637009Y-9723938D01*
X51632237Y-9763051D01*
X51621540Y-9816546D01*
X51606631Y-9863764D01*
X51587549Y-9904629D01*
X51564333Y-9939063D01*
X51527014Y-9974841D01*
X51482504Y-9998872D01*
X51444459Y-10009076D01*
X51402459Y-10012495D01*
X51361001Y-10009081D01*
X51311557Y-9994039D01*
X51268939Y-9967237D01*
X51233320Y-9928928D01*
X51211305Y-9892796D01*
X51193398Y-9850439D01*
X51179673Y-9801964D01*
X51170204Y-9747476D01*
X51166292Y-9707863D01*
X51164325Y-9665656D01*
X51164078Y-9643591D01*
X51164251Y-9635384D01*
X51256695Y-9635384D01*
X51257942Y-9690427D01*
X51261706Y-9739755D01*
X51268018Y-9783434D01*
X51276912Y-9821529D01*
X51292843Y-9863751D01*
X51319413Y-9902971D01*
X51353519Y-9927412D01*
X51395314Y-9937376D01*
X51404609Y-9937659D01*
X51445930Y-9930311D01*
X51480302Y-9908301D01*
X51507703Y-9871677D01*
X51524589Y-9831890D01*
X51536988Y-9782806D01*
X51543335Y-9739908D01*
X51547147Y-9691806D01*
X51548419Y-9638510D01*
X51547145Y-9585292D01*
X51543321Y-9537401D01*
X51536940Y-9494817D01*
X51524445Y-9446260D01*
X51507380Y-9407053D01*
X51479603Y-9371121D01*
X51444639Y-9349631D01*
X51402459Y-9342488D01*
X51360358Y-9349679D01*
X51325447Y-9371222D01*
X51297705Y-9407073D01*
X51280656Y-9446025D01*
X51268170Y-9494082D01*
X51261792Y-9536087D01*
X51257969Y-9583191D01*
X51256695Y-9635384D01*
X51164251Y-9635384D01*
X51165147Y-9592777D01*
X51168374Y-9546150D01*
X51173795Y-9503497D01*
X51181444Y-9464609D01*
X51194191Y-9420972D01*
X51210539Y-9382476D01*
X51230557Y-9348710D01*
X51235006Y-9342488D01*
X51263087Y-9312057D01*
X51296724Y-9288483D01*
X51335020Y-9272170D01*
X51377080Y-9263524D01*
X51402459Y-9262181D01*
X51445901Y-9266374D01*
G37*
G36*
X50813736Y-9709438D02*
G01*
X50632801Y-9449759D01*
X50729521Y-9449759D01*
X50858872Y-9644958D01*
X50988419Y-9449759D01*
X51086116Y-9449759D01*
X50906158Y-9713542D01*
X51096277Y-9987485D01*
X50998775Y-9987485D01*
X50861999Y-9781344D01*
X50727372Y-9987485D01*
X50627721Y-9987485D01*
X50813736Y-9709438D01*
G37*
G36*
X50334043Y-9471057D02*
G01*
X50334043Y-9987485D01*
X50243771Y-9987485D01*
X50243771Y-9262181D01*
X50303367Y-9262181D01*
X50315034Y-9299705D01*
X50330454Y-9335687D01*
X50358956Y-9369697D01*
X50395400Y-9387853D01*
X50438183Y-9398195D01*
X50482687Y-9404950D01*
X50495439Y-9406577D01*
X50495439Y-9471057D01*
X50334043Y-9471057D01*
G37*
G36*
X49789739Y-9266374D02*
G01*
X49830337Y-9278562D01*
X49866986Y-9298155D01*
X49898584Y-9324564D01*
X49913946Y-9342488D01*
X49937960Y-9381794D01*
X49954188Y-9420086D01*
X49966971Y-9463486D01*
X49974715Y-9501933D01*
X49980249Y-9543732D01*
X49983571Y-9588920D01*
X49984678Y-9637533D01*
X49983719Y-9682091D01*
X49980847Y-9723938D01*
X49976075Y-9763051D01*
X49965378Y-9816546D01*
X49950469Y-9863764D01*
X49931388Y-9904629D01*
X49908171Y-9939063D01*
X49870852Y-9974841D01*
X49826342Y-9998872D01*
X49788297Y-10009076D01*
X49746297Y-10012495D01*
X49704840Y-10009081D01*
X49655395Y-9994039D01*
X49612777Y-9967237D01*
X49577158Y-9928928D01*
X49555143Y-9892796D01*
X49537236Y-9850439D01*
X49523511Y-9801964D01*
X49514042Y-9747476D01*
X49510130Y-9707863D01*
X49508163Y-9665656D01*
X49507916Y-9643591D01*
X49508089Y-9635384D01*
X49600533Y-9635384D01*
X49601780Y-9690427D01*
X49605544Y-9739755D01*
X49611856Y-9783434D01*
X49620750Y-9821529D01*
X49636681Y-9863751D01*
X49663251Y-9902971D01*
X49697357Y-9927412D01*
X49739152Y-9937376D01*
X49748447Y-9937659D01*
X49789768Y-9930311D01*
X49824140Y-9908301D01*
X49851541Y-9871677D01*
X49868427Y-9831890D01*
X49880826Y-9782806D01*
X49887173Y-9739908D01*
X49890985Y-9691806D01*
X49892257Y-9638510D01*
X49890983Y-9585292D01*
X49887159Y-9537401D01*
X49880778Y-9494817D01*
X49868283Y-9446260D01*
X49851218Y-9407053D01*
X49823441Y-9371121D01*
X49788477Y-9349631D01*
X49746297Y-9342488D01*
X49704196Y-9349679D01*
X49669285Y-9371222D01*
X49641543Y-9407073D01*
X49624494Y-9446025D01*
X49612008Y-9494082D01*
X49605630Y-9536087D01*
X49601807Y-9583191D01*
X49600533Y-9635384D01*
X49508089Y-9635384D01*
X49508985Y-9592777D01*
X49512212Y-9546150D01*
X49517633Y-9503497D01*
X49525282Y-9464609D01*
X49538029Y-9420972D01*
X49554377Y-9382476D01*
X49574395Y-9348710D01*
X49578845Y-9342488D01*
X49606925Y-9312057D01*
X49640562Y-9288483D01*
X49678858Y-9272170D01*
X49720918Y-9263524D01*
X49746297Y-9262181D01*
X49789739Y-9266374D01*
G37*
G36*
X59177030Y-10990717D02*
G01*
X58769047Y-10990717D01*
X58769047Y-10906307D01*
X59177030Y-10906307D01*
X59177030Y-10665581D01*
X58753806Y-10665581D01*
X58753806Y-10581170D01*
X59272578Y-10581170D01*
X59272578Y-11331485D01*
X58735244Y-11331485D01*
X58735244Y-11247270D01*
X59177030Y-11247270D01*
X59177030Y-10990717D01*
G37*
G36*
X58607651Y-10793759D02*
G01*
X58607651Y-11331485D01*
X58521482Y-11331485D01*
X58521482Y-11036830D01*
X58518833Y-10997713D01*
X58508404Y-10954410D01*
X58490642Y-10918036D01*
X58460517Y-10884611D01*
X58421789Y-10863587D01*
X58375523Y-10856286D01*
X58334757Y-10861966D01*
X58298317Y-10881414D01*
X58274373Y-10913119D01*
X58264665Y-10955450D01*
X58264539Y-10961408D01*
X58264539Y-11331485D01*
X58179152Y-11331485D01*
X58179152Y-10927605D01*
X58183932Y-10888399D01*
X58201626Y-10848216D01*
X58231249Y-10816513D01*
X58271617Y-10794342D01*
X58312612Y-10783904D01*
X58349731Y-10781254D01*
X58392016Y-10783312D01*
X58434938Y-10795197D01*
X58472429Y-10817952D01*
X58501413Y-10846628D01*
X58528517Y-10884227D01*
X58528517Y-10793759D01*
X58607651Y-10793759D01*
G37*
G36*
X57828810Y-11331485D02*
G01*
X57622278Y-10793759D01*
X57718803Y-10793759D01*
X57870819Y-11229879D01*
X58014825Y-10793759D01*
X58111350Y-10793759D01*
X57922208Y-11331485D01*
X57828810Y-11331485D01*
G37*
G36*
X57542557Y-10606181D02*
G01*
X57542557Y-10858044D01*
X57484916Y-10858044D01*
X57452090Y-10710131D01*
X57452090Y-10606181D01*
X57542557Y-10606181D01*
G37*
G36*
X56936053Y-10946362D02*
G01*
X56941507Y-10900384D01*
X56956729Y-10861400D01*
X56981384Y-10829739D01*
X57015136Y-10805726D01*
X57057651Y-10789688D01*
X57097745Y-10782819D01*
X57131252Y-10781254D01*
X57176142Y-10784236D01*
X57216444Y-10792941D01*
X57259712Y-10811329D01*
X57294297Y-10837406D01*
X57319358Y-10870473D01*
X57334055Y-10909834D01*
X57337784Y-10945385D01*
X57332959Y-10988128D01*
X57313653Y-11028098D01*
X57283525Y-11055440D01*
X57247603Y-11074391D01*
X57200848Y-11090703D01*
X57167205Y-11099551D01*
X57087093Y-11119091D01*
X57048945Y-11131303D01*
X57016386Y-11154271D01*
X57003855Y-11193732D01*
X57015244Y-11231697D01*
X57047116Y-11259618D01*
X57089860Y-11274106D01*
X57129298Y-11277556D01*
X57170152Y-11273788D01*
X57208068Y-11261549D01*
X57236179Y-11241799D01*
X57254906Y-11205200D01*
X57260799Y-11173215D01*
X57351266Y-11173215D01*
X57346631Y-11216601D01*
X57332069Y-11262465D01*
X57307660Y-11299126D01*
X57273293Y-11326687D01*
X57228855Y-11345251D01*
X57185978Y-11353693D01*
X57136528Y-11356495D01*
X57088001Y-11353430D01*
X57044555Y-11344469D01*
X57006618Y-11329962D01*
X56967597Y-11304563D01*
X56938690Y-11271731D01*
X56920732Y-11232149D01*
X56914560Y-11186502D01*
X56919430Y-11145316D01*
X56938021Y-11105880D01*
X56971509Y-11074683D01*
X57012859Y-11053671D01*
X57056737Y-11039675D01*
X57066577Y-11037221D01*
X57148838Y-11017877D01*
X57188997Y-11006140D01*
X57224822Y-10987566D01*
X57247068Y-10954727D01*
X57248489Y-10941282D01*
X57236112Y-10900788D01*
X57205630Y-10875175D01*
X57165209Y-10862666D01*
X57134378Y-10860389D01*
X57093823Y-10864620D01*
X57055390Y-10882273D01*
X57031306Y-10917532D01*
X57026521Y-10946362D01*
X56936053Y-10946362D01*
G37*
G36*
X56444832Y-11331485D02*
G01*
X56343032Y-11331485D01*
X56264092Y-11106390D01*
X55975300Y-11106390D01*
X55898119Y-11331485D01*
X55791434Y-11331485D01*
X55898415Y-11026279D01*
X56002069Y-11026279D01*
X56240450Y-11026279D01*
X56117156Y-10684339D01*
X56002069Y-11026279D01*
X55898415Y-11026279D01*
X56054434Y-10581170D01*
X56177728Y-10581170D01*
X56444832Y-11331485D01*
G37*
G36*
X55362152Y-10864492D02*
G01*
X55388760Y-10832528D01*
X55421109Y-10808078D01*
X55458770Y-10791363D01*
X55501314Y-10782603D01*
X55527651Y-10781254D01*
X55577695Y-10786398D01*
X55622708Y-10801413D01*
X55662184Y-10825675D01*
X55695617Y-10858557D01*
X55722502Y-10899435D01*
X55742332Y-10947684D01*
X55752270Y-10988332D01*
X55757742Y-11032511D01*
X55758803Y-11063794D01*
X55756471Y-11112823D01*
X55749590Y-11157994D01*
X55738327Y-11199096D01*
X55722852Y-11235919D01*
X55695959Y-11277995D01*
X55662279Y-11311590D01*
X55622213Y-11336204D01*
X55576161Y-11351339D01*
X55524525Y-11356495D01*
X55485145Y-11353512D01*
X55444327Y-11342068D01*
X55407989Y-11321347D01*
X55375037Y-11290612D01*
X55352969Y-11262120D01*
X55352969Y-11333048D01*
X55276765Y-11333048D01*
X55276765Y-11071024D01*
X55362152Y-11071024D01*
X55364890Y-11115359D01*
X55372878Y-11155291D01*
X55389733Y-11198305D01*
X55413609Y-11232806D01*
X55443848Y-11257884D01*
X55487609Y-11274262D01*
X55512215Y-11276383D01*
X55554017Y-11270485D01*
X55590470Y-11253409D01*
X55620865Y-11226087D01*
X55644490Y-11189448D01*
X55660633Y-11144423D01*
X55667684Y-11102990D01*
X55669312Y-11069070D01*
X55666435Y-11024306D01*
X55658053Y-10983973D01*
X55640406Y-10940509D01*
X55615479Y-10905634D01*
X55584004Y-10880275D01*
X55546716Y-10865357D01*
X55513192Y-10861561D01*
X55472440Y-10867408D01*
X55437208Y-10884404D01*
X55408063Y-10911737D01*
X55385573Y-10948592D01*
X55370308Y-10994155D01*
X55363677Y-11036329D01*
X55362152Y-11071024D01*
X55276765Y-11071024D01*
X55276765Y-10581170D01*
X55362152Y-10581170D01*
X55362152Y-10864492D01*
G37*
G36*
X54790819Y-10864492D02*
G01*
X54817427Y-10832528D01*
X54849776Y-10808078D01*
X54887437Y-10791363D01*
X54929981Y-10782603D01*
X54956318Y-10781254D01*
X55006362Y-10786398D01*
X55051375Y-10801413D01*
X55090851Y-10825675D01*
X55124284Y-10858557D01*
X55151169Y-10899435D01*
X55170999Y-10947684D01*
X55180937Y-10988332D01*
X55186409Y-11032511D01*
X55187470Y-11063794D01*
X55185138Y-11112823D01*
X55178257Y-11157994D01*
X55166994Y-11199096D01*
X55151519Y-11235919D01*
X55124626Y-11277995D01*
X55090946Y-11311590D01*
X55050880Y-11336204D01*
X55004828Y-11351339D01*
X54953192Y-11356495D01*
X54913812Y-11353512D01*
X54872995Y-11342068D01*
X54836656Y-11321347D01*
X54803704Y-11290612D01*
X54781636Y-11262120D01*
X54781636Y-11333048D01*
X54705432Y-11333048D01*
X54705432Y-11071024D01*
X54790819Y-11071024D01*
X54793557Y-11115359D01*
X54801545Y-11155291D01*
X54818400Y-11198305D01*
X54842276Y-11232806D01*
X54872515Y-11257884D01*
X54916276Y-11274262D01*
X54940882Y-11276383D01*
X54982684Y-11270485D01*
X55019138Y-11253409D01*
X55049532Y-11226087D01*
X55073157Y-11189448D01*
X55089300Y-11144423D01*
X55096351Y-11102990D01*
X55097979Y-11069070D01*
X55095102Y-11024306D01*
X55086720Y-10983973D01*
X55069073Y-10940509D01*
X55044146Y-10905634D01*
X55012672Y-10880275D01*
X54975383Y-10865357D01*
X54941859Y-10861561D01*
X54901107Y-10867408D01*
X54865875Y-10884404D01*
X54836730Y-10911737D01*
X54814240Y-10948592D01*
X54798975Y-10994155D01*
X54792345Y-11036329D01*
X54790819Y-11071024D01*
X54705432Y-11071024D01*
X54705432Y-10581170D01*
X54790819Y-10581170D01*
X54790819Y-10864492D01*
G37*
G36*
X54571978Y-10793759D02*
G01*
X54571978Y-11331485D01*
X54485614Y-11331485D01*
X54485614Y-11053829D01*
X54483540Y-11013598D01*
X54475808Y-10973385D01*
X54459817Y-10935842D01*
X54432484Y-10903679D01*
X54425041Y-10897905D01*
X54387556Y-10879297D01*
X54347506Y-10872789D01*
X54312885Y-10871331D01*
X54312885Y-10784381D01*
X54345907Y-10781254D01*
X54385324Y-10786054D01*
X54421646Y-10805288D01*
X54452429Y-10834823D01*
X54479118Y-10870162D01*
X54492843Y-10891457D01*
X54492843Y-10793759D01*
X54571978Y-10793759D01*
G37*
G36*
X51445901Y-10610374D02*
G01*
X51486498Y-10622562D01*
X51523148Y-10642155D01*
X51554746Y-10668564D01*
X51570108Y-10686488D01*
X51594122Y-10725794D01*
X51610349Y-10764086D01*
X51623133Y-10807486D01*
X51630876Y-10845933D01*
X51636410Y-10887732D01*
X51639733Y-10932920D01*
X51640840Y-10981533D01*
X51639881Y-11026091D01*
X51637009Y-11067938D01*
X51632237Y-11107051D01*
X51621540Y-11160546D01*
X51606631Y-11207764D01*
X51587549Y-11248629D01*
X51564333Y-11283063D01*
X51527014Y-11318841D01*
X51482504Y-11342872D01*
X51444459Y-11353076D01*
X51402459Y-11356495D01*
X51361001Y-11353081D01*
X51311557Y-11338039D01*
X51268939Y-11311237D01*
X51233320Y-11272928D01*
X51211305Y-11236796D01*
X51193398Y-11194439D01*
X51179673Y-11145964D01*
X51170204Y-11091476D01*
X51166292Y-11051863D01*
X51164325Y-11009656D01*
X51164078Y-10987591D01*
X51164251Y-10979384D01*
X51256695Y-10979384D01*
X51257942Y-11034427D01*
X51261706Y-11083755D01*
X51268018Y-11127434D01*
X51276912Y-11165529D01*
X51292843Y-11207751D01*
X51319413Y-11246971D01*
X51353519Y-11271412D01*
X51395314Y-11281376D01*
X51404609Y-11281659D01*
X51445930Y-11274311D01*
X51480302Y-11252301D01*
X51507703Y-11215677D01*
X51524589Y-11175890D01*
X51536988Y-11126806D01*
X51543335Y-11083908D01*
X51547147Y-11035806D01*
X51548419Y-10982510D01*
X51547145Y-10929292D01*
X51543321Y-10881401D01*
X51536940Y-10838817D01*
X51524445Y-10790260D01*
X51507380Y-10751053D01*
X51479603Y-10715121D01*
X51444639Y-10693631D01*
X51402459Y-10686488D01*
X51360358Y-10693679D01*
X51325447Y-10715222D01*
X51297705Y-10751073D01*
X51280656Y-10790025D01*
X51268170Y-10838082D01*
X51261792Y-10880087D01*
X51257969Y-10927191D01*
X51256695Y-10979384D01*
X51164251Y-10979384D01*
X51165147Y-10936777D01*
X51168374Y-10890150D01*
X51173795Y-10847497D01*
X51181444Y-10808609D01*
X51194191Y-10764972D01*
X51210539Y-10726476D01*
X51230557Y-10692710D01*
X51235006Y-10686488D01*
X51263087Y-10656057D01*
X51296724Y-10632483D01*
X51335020Y-10616170D01*
X51377080Y-10607524D01*
X51402459Y-10606181D01*
X51445901Y-10610374D01*
G37*
G36*
X50813736Y-11053438D02*
G01*
X50632801Y-10793759D01*
X50729521Y-10793759D01*
X50858872Y-10988958D01*
X50988419Y-10793759D01*
X51086116Y-10793759D01*
X50906158Y-11057542D01*
X51096277Y-11331485D01*
X50998775Y-11331485D01*
X50861999Y-11125344D01*
X50727372Y-11331485D01*
X50627721Y-11331485D01*
X50813736Y-11053438D01*
G37*
G36*
X50065963Y-10606181D02*
G01*
X50553080Y-10606181D01*
X50553080Y-10695672D01*
X50159361Y-10695672D01*
X50190747Y-10740799D01*
X50219852Y-10783964D01*
X50246800Y-10825431D01*
X50271719Y-10865469D01*
X50294735Y-10904344D01*
X50315975Y-10942322D01*
X50335565Y-10979670D01*
X50353632Y-11016655D01*
X50370302Y-11053545D01*
X50385702Y-11090605D01*
X50399958Y-11128102D01*
X50413196Y-11166303D01*
X50425545Y-11205475D01*
X50437128Y-11245885D01*
X50448075Y-11287799D01*
X50458510Y-11331485D01*
X50361789Y-11331485D01*
X50353672Y-11288333D01*
X50344318Y-11245875D01*
X50333696Y-11204037D01*
X50321776Y-11162743D01*
X50308526Y-11121919D01*
X50293914Y-11081489D01*
X50277908Y-11041378D01*
X50260478Y-11001512D01*
X50241591Y-10961816D01*
X50221216Y-10922214D01*
X50199322Y-10882631D01*
X50175878Y-10842993D01*
X50150851Y-10803224D01*
X50124211Y-10763250D01*
X50095925Y-10722995D01*
X50065963Y-10682385D01*
X50065963Y-10606181D01*
G37*
G36*
X49767889Y-10610214D02*
G01*
X49809409Y-10621956D01*
X49847574Y-10640876D01*
X49881574Y-10666439D01*
X49910598Y-10698112D01*
X49919026Y-10709935D01*
X49938396Y-10744622D01*
X49954254Y-10782563D01*
X49966692Y-10824321D01*
X49975807Y-10870460D01*
X49980768Y-10910904D01*
X49983709Y-10954802D01*
X49984678Y-11002441D01*
X49983805Y-11046080D01*
X49981134Y-11085944D01*
X49975152Y-11131019D01*
X49966097Y-11171474D01*
X49950964Y-11214923D01*
X49930937Y-11253972D01*
X49923129Y-11266223D01*
X49894035Y-11300693D01*
X49858388Y-11327202D01*
X49816704Y-11345419D01*
X49776559Y-11354182D01*
X49740240Y-11356495D01*
X49690167Y-11351810D01*
X49644467Y-11338247D01*
X49603850Y-11316546D01*
X49569026Y-11287448D01*
X49540705Y-11251690D01*
X49519597Y-11210013D01*
X49506412Y-11163157D01*
X49502501Y-11119091D01*
X49594281Y-11119091D01*
X49598649Y-11159732D01*
X49614534Y-11202424D01*
X49640524Y-11236918D01*
X49675027Y-11261553D01*
X49716452Y-11274666D01*
X49739263Y-11276383D01*
X49784186Y-11269368D01*
X49823073Y-11249521D01*
X49854216Y-11218644D01*
X49875908Y-11178537D01*
X49885533Y-11139363D01*
X49887177Y-11113815D01*
X49882785Y-11073834D01*
X49866678Y-11032304D01*
X49840026Y-10999108D01*
X49804181Y-10975621D01*
X49760497Y-10963218D01*
X49736137Y-10961603D01*
X49690613Y-10967798D01*
X49652870Y-10985776D01*
X49623768Y-11014625D01*
X49604163Y-11053432D01*
X49595700Y-11092721D01*
X49594281Y-11119091D01*
X49502501Y-11119091D01*
X49501859Y-11111861D01*
X49506085Y-11063189D01*
X49518340Y-11018875D01*
X49537985Y-10979575D01*
X49564385Y-10945947D01*
X49596904Y-10918648D01*
X49634904Y-10898335D01*
X49677750Y-10885665D01*
X49724804Y-10881296D01*
X49769755Y-10885259D01*
X49810152Y-10897065D01*
X49845872Y-10916591D01*
X49876791Y-10943716D01*
X49892257Y-10962580D01*
X49890497Y-10914729D01*
X49885801Y-10871146D01*
X49878221Y-10831928D01*
X49863718Y-10786592D01*
X49844305Y-10749411D01*
X49813322Y-10714749D01*
X49775102Y-10693627D01*
X49729884Y-10686488D01*
X49690994Y-10692108D01*
X49654235Y-10711757D01*
X49626589Y-10744636D01*
X49610624Y-10783539D01*
X49607568Y-10796300D01*
X49517295Y-10796300D01*
X49526611Y-10753910D01*
X49541295Y-10716310D01*
X49566703Y-10676451D01*
X49599350Y-10645011D01*
X49638596Y-10622508D01*
X49683801Y-10609461D01*
X49723827Y-10606181D01*
X49767889Y-10610214D01*
G37*
D12*
%TO.C,J3*%
X57170000Y-21270000D02*
X59830000Y-21270000D01*
X57170000Y-36570000D02*
X57170000Y-21270000D01*
X57170000Y-36570000D02*
X59830000Y-36570000D01*
X58500000Y-18670000D02*
X59830000Y-18670000D01*
X59830000Y-18670000D02*
X59830000Y-20000000D01*
X59830000Y-36570000D02*
X59830000Y-21270000D01*
D13*
%TO.C,G\u002A\u002A\u002A*%
G36*
X41609894Y-10186988D02*
G01*
X41609894Y-10320598D01*
X41103582Y-10320598D01*
X40597270Y-10320598D01*
X40597270Y-10186988D01*
X40597270Y-10053378D01*
X41103582Y-10053378D01*
X41609894Y-10053378D01*
X41609894Y-10186988D01*
G37*
G36*
X42449060Y-10667516D02*
G01*
X42449060Y-10798782D01*
X42296697Y-10798782D01*
X42144335Y-10798782D01*
X42144335Y-10667516D01*
X42144335Y-10536249D01*
X42296697Y-10536249D01*
X42449060Y-10536249D01*
X42449060Y-10667516D01*
G37*
G36*
X41289638Y-10380627D02*
G01*
X41277041Y-10393776D01*
X41277041Y-10868187D01*
X41277041Y-11342599D01*
X41101238Y-11342599D01*
X40925435Y-11342599D01*
X40925435Y-10855039D01*
X40925435Y-10367479D01*
X41113835Y-10367479D01*
X41302235Y-10367479D01*
X41289638Y-10380627D01*
G37*
G36*
X44682044Y-6362689D02*
G01*
X44680330Y-6376262D01*
X44678821Y-6396994D01*
X44678240Y-6417774D01*
X44678651Y-6434961D01*
X44680030Y-6456053D01*
X44682044Y-6472859D01*
X44685847Y-6495127D01*
X44601174Y-6495127D01*
X44516502Y-6495127D01*
X44516502Y-6417774D01*
X44516502Y-6340421D01*
X44601174Y-6340421D01*
X44685847Y-6340421D01*
X44682044Y-6362689D01*
G37*
G36*
X44061758Y-6417774D02*
G01*
X44061758Y-6495127D01*
X43977490Y-6495127D01*
X43893222Y-6495127D01*
X43896621Y-6479891D01*
X43897448Y-6474774D01*
X43898769Y-6459639D01*
X43899680Y-6439658D01*
X43900020Y-6417774D01*
X43899917Y-6405913D01*
X43899250Y-6384690D01*
X43898097Y-6366957D01*
X43896621Y-6355657D01*
X43893222Y-6340421D01*
X43977490Y-6340421D01*
X44061758Y-6340421D01*
X44061758Y-6417774D01*
G37*
G36*
X46199610Y-10065004D02*
G01*
X46197900Y-10067010D01*
X46190045Y-10081320D01*
X46185008Y-10098992D01*
X46184913Y-10099767D01*
X46184460Y-10109016D01*
X46184020Y-10126944D01*
X46183596Y-10152975D01*
X46183192Y-10186532D01*
X46182812Y-10227038D01*
X46182459Y-10273915D01*
X46182136Y-10326586D01*
X46181848Y-10384475D01*
X46181598Y-10447003D01*
X46181389Y-10513595D01*
X46181226Y-10583673D01*
X46181111Y-10656659D01*
X46181049Y-10731977D01*
X46180769Y-11342599D01*
X46004966Y-11342599D01*
X45829163Y-11342599D01*
X45829163Y-10697988D01*
X45829163Y-10053378D01*
X46019848Y-10053378D01*
X46210532Y-10053378D01*
X46199610Y-10065004D01*
G37*
G36*
X43674039Y-6713956D02*
G01*
X43675595Y-6718736D01*
X43676564Y-6727989D01*
X43677085Y-6742942D01*
X43677296Y-6764820D01*
X43677336Y-6794848D01*
X43677336Y-6879550D01*
X43597531Y-6879550D01*
X43517725Y-6879550D01*
X43519005Y-6796336D01*
X43519014Y-6795743D01*
X43519518Y-6766145D01*
X43520087Y-6744636D01*
X43520886Y-6729951D01*
X43522079Y-6720826D01*
X43523830Y-6715996D01*
X43526303Y-6714197D01*
X43529662Y-6714164D01*
X43537484Y-6715072D01*
X43552154Y-6716825D01*
X43569510Y-6718932D01*
X43576648Y-6719643D01*
X43600651Y-6720433D01*
X43626339Y-6719457D01*
X43650049Y-6716931D01*
X43668113Y-6713074D01*
X43668617Y-6712918D01*
X43671759Y-6712426D01*
X43674039Y-6713956D01*
G37*
G36*
X45002661Y-6264768D02*
G01*
X45036749Y-6273367D01*
X45068195Y-6289559D01*
X45095464Y-6313265D01*
X45104930Y-6324816D01*
X45122978Y-6356014D01*
X45132977Y-6389142D01*
X45135335Y-6422949D01*
X45130458Y-6456189D01*
X45118752Y-6487613D01*
X45100624Y-6515973D01*
X45076480Y-6540021D01*
X45046728Y-6558508D01*
X45011773Y-6570186D01*
X44996275Y-6572554D01*
X44960851Y-6571657D01*
X44926761Y-6562643D01*
X44895437Y-6546368D01*
X44868306Y-6523690D01*
X44846799Y-6495467D01*
X44832344Y-6462556D01*
X44831483Y-6459536D01*
X44826743Y-6425990D01*
X44829547Y-6391164D01*
X44839258Y-6357363D01*
X44855234Y-6326891D01*
X44876839Y-6302053D01*
X44899879Y-6285319D01*
X44932691Y-6270666D01*
X44967463Y-6263842D01*
X45002661Y-6264768D01*
G37*
G36*
X44713516Y-7419004D02*
G01*
X44746458Y-7431419D01*
X44776312Y-7451792D01*
X44784282Y-7459283D01*
X44806574Y-7487674D01*
X44821090Y-7519109D01*
X44828079Y-7552286D01*
X44827789Y-7585904D01*
X44820472Y-7618659D01*
X44806376Y-7649249D01*
X44785750Y-7676372D01*
X44758844Y-7698725D01*
X44725907Y-7715006D01*
X44721298Y-7716519D01*
X44693889Y-7721626D01*
X44663624Y-7722160D01*
X44634265Y-7718279D01*
X44609575Y-7710141D01*
X44594687Y-7702002D01*
X44565411Y-7679117D01*
X44542944Y-7651266D01*
X44527646Y-7619729D01*
X44519878Y-7585786D01*
X44520000Y-7550719D01*
X44528375Y-7515807D01*
X44545363Y-7482332D01*
X44555018Y-7469355D01*
X44580888Y-7444956D01*
X44611174Y-7427523D01*
X44644374Y-7417255D01*
X44678988Y-7414349D01*
X44713516Y-7419004D01*
G37*
G36*
X44651902Y-10053397D02*
G01*
X44692222Y-10053555D01*
X44729010Y-10053856D01*
X44761293Y-10054282D01*
X44788096Y-10054817D01*
X44808445Y-10055442D01*
X44821366Y-10056140D01*
X44825885Y-10056894D01*
X44825808Y-10057296D01*
X44821235Y-10062128D01*
X44811779Y-10068420D01*
X44811623Y-10068509D01*
X44800404Y-10077740D01*
X44793056Y-10088650D01*
X44792449Y-10093491D01*
X44791769Y-10107773D01*
X44791147Y-10131124D01*
X44790586Y-10163378D01*
X44790086Y-10204365D01*
X44789649Y-10253918D01*
X44789276Y-10311870D01*
X44788967Y-10378052D01*
X44788725Y-10452298D01*
X44788551Y-10534438D01*
X44788446Y-10624306D01*
X44788410Y-10721734D01*
X44788410Y-11342599D01*
X44612607Y-11342599D01*
X44436805Y-11342599D01*
X44436805Y-10697988D01*
X44436805Y-10053378D01*
X44631360Y-10053378D01*
X44651902Y-10053397D01*
G37*
G36*
X43627668Y-6265537D02*
G01*
X43665104Y-6276615D01*
X43670343Y-6279114D01*
X43688966Y-6291602D01*
X43708216Y-6308822D01*
X43725274Y-6328041D01*
X43737317Y-6346528D01*
X43739875Y-6351870D01*
X43751680Y-6388063D01*
X43754358Y-6424362D01*
X43748061Y-6459819D01*
X43732939Y-6493483D01*
X43709142Y-6524404D01*
X43687582Y-6543794D01*
X43662811Y-6558301D01*
X43632799Y-6568234D01*
X43628907Y-6569186D01*
X43610924Y-6572953D01*
X43596631Y-6573969D01*
X43581822Y-6572198D01*
X43562291Y-6567603D01*
X43537479Y-6559078D01*
X43505992Y-6540875D01*
X43480342Y-6516840D01*
X43461103Y-6488180D01*
X43448846Y-6456099D01*
X43444143Y-6421804D01*
X43447567Y-6386500D01*
X43459690Y-6351392D01*
X43470363Y-6332460D01*
X43493995Y-6304166D01*
X43522695Y-6282907D01*
X43555310Y-6269103D01*
X43590685Y-6263173D01*
X43627668Y-6265537D01*
G37*
G36*
X42621347Y-10053399D02*
G01*
X42623934Y-10053400D01*
X42662376Y-10053525D01*
X42700448Y-10053840D01*
X42736351Y-10054316D01*
X42768282Y-10054925D01*
X42794439Y-10055639D01*
X42813022Y-10056429D01*
X42865227Y-10059437D01*
X42853112Y-10069858D01*
X42852757Y-10070164D01*
X42848460Y-10074222D01*
X42845286Y-10078844D01*
X42842986Y-10085496D01*
X42841312Y-10095646D01*
X42840016Y-10110762D01*
X42838849Y-10132311D01*
X42837562Y-10161762D01*
X42837393Y-10166451D01*
X42836943Y-10185201D01*
X42836507Y-10212367D01*
X42836089Y-10247248D01*
X42835692Y-10289146D01*
X42835322Y-10337360D01*
X42834981Y-10391190D01*
X42834675Y-10449937D01*
X42834408Y-10512900D01*
X42834183Y-10579380D01*
X42834004Y-10648677D01*
X42833877Y-10720091D01*
X42833805Y-10792922D01*
X42833482Y-11342599D01*
X42657679Y-11342599D01*
X42481877Y-11342599D01*
X42481877Y-10697988D01*
X42481877Y-10053378D01*
X42621347Y-10053399D01*
G37*
G36*
X41982909Y-10053409D02*
G01*
X42031388Y-10053642D01*
X42071508Y-10054099D01*
X42103065Y-10054775D01*
X42125858Y-10055665D01*
X42139682Y-10056763D01*
X42144335Y-10058066D01*
X42143787Y-10059972D01*
X42138029Y-10062754D01*
X42131431Y-10065348D01*
X42122793Y-10072621D01*
X42122153Y-10073371D01*
X42120945Y-10075236D01*
X42119858Y-10077945D01*
X42118885Y-10081974D01*
X42118017Y-10087795D01*
X42117247Y-10095883D01*
X42116568Y-10106712D01*
X42115972Y-10120755D01*
X42115452Y-10138487D01*
X42114999Y-10160382D01*
X42114607Y-10186913D01*
X42114267Y-10218555D01*
X42113972Y-10255781D01*
X42113714Y-10299066D01*
X42113487Y-10348883D01*
X42113281Y-10405707D01*
X42113090Y-10470010D01*
X42112907Y-10542268D01*
X42112722Y-10622955D01*
X42112529Y-10712543D01*
X42111196Y-11342599D01*
X41937899Y-11342599D01*
X41764601Y-11342599D01*
X41764601Y-10697988D01*
X41764601Y-10053378D01*
X41954468Y-10053378D01*
X41982909Y-10053409D01*
G37*
G36*
X44942253Y-7842714D02*
G01*
X44959408Y-7858028D01*
X44980361Y-7877564D01*
X44995633Y-7893797D01*
X45006119Y-7908393D01*
X45012716Y-7923015D01*
X45016319Y-7939329D01*
X45017824Y-7958998D01*
X45018126Y-7983687D01*
X45018126Y-8032816D01*
X44692305Y-8032816D01*
X44366483Y-8032816D01*
X44366483Y-7977658D01*
X44366513Y-7968417D01*
X44367049Y-7945006D01*
X44368437Y-7928362D01*
X44370907Y-7916517D01*
X44374688Y-7907507D01*
X44378683Y-7902116D01*
X44388455Y-7891389D01*
X44402115Y-7877571D01*
X44418165Y-7862056D01*
X44435107Y-7846236D01*
X44451445Y-7831506D01*
X44465679Y-7819259D01*
X44476314Y-7810889D01*
X44481850Y-7807789D01*
X44486298Y-7809738D01*
X44496470Y-7815676D01*
X44509799Y-7824211D01*
X44535025Y-7839095D01*
X44580863Y-7858148D01*
X44629066Y-7869232D01*
X44678320Y-7872410D01*
X44727315Y-7867746D01*
X44774738Y-7855304D01*
X44819279Y-7835145D01*
X44859625Y-7807335D01*
X44881615Y-7788948D01*
X44942253Y-7842714D01*
G37*
G36*
X45405018Y-10067311D02*
G01*
X45391669Y-10081244D01*
X45389984Y-10495098D01*
X45388299Y-10908952D01*
X45400650Y-10876135D01*
X45403205Y-10869337D01*
X45410484Y-10849916D01*
X45419672Y-10825355D01*
X45429849Y-10798114D01*
X45440096Y-10770653D01*
X45443472Y-10761617D01*
X45455140Y-10730610D01*
X45467334Y-10698479D01*
X45478797Y-10668533D01*
X45488271Y-10644075D01*
X45490340Y-10638777D01*
X45500604Y-10612394D01*
X45512572Y-10581496D01*
X45524921Y-10549505D01*
X45536329Y-10519841D01*
X45537647Y-10516413D01*
X45549237Y-10486639D01*
X45563303Y-10451038D01*
X45579253Y-10411065D01*
X45596496Y-10368174D01*
X45614440Y-10323821D01*
X45632492Y-10279461D01*
X45650062Y-10236547D01*
X45666556Y-10196536D01*
X45681384Y-10160881D01*
X45693954Y-10131039D01*
X45703673Y-10108462D01*
X45727837Y-10053378D01*
X45757404Y-10053378D01*
X45786971Y-10053378D01*
X45786971Y-10337338D01*
X45786971Y-10621298D01*
X45740544Y-10729964D01*
X45714749Y-10790503D01*
X45672990Y-10889321D01*
X45634489Y-10981559D01*
X45598756Y-11068412D01*
X45565302Y-11151075D01*
X45533636Y-11230742D01*
X45503268Y-11308610D01*
X45490140Y-11342599D01*
X45268198Y-11342599D01*
X45046255Y-11342599D01*
X45046255Y-10697988D01*
X45046255Y-10053378D01*
X45232311Y-10053378D01*
X45418367Y-10053378D01*
X45405018Y-10067311D01*
G37*
G36*
X44829253Y-6684308D02*
G01*
X44837263Y-6687077D01*
X44850990Y-6692280D01*
X44868485Y-6699189D01*
X44873462Y-6701139D01*
X44909297Y-6712488D01*
X44942330Y-6718378D01*
X44944279Y-6718564D01*
X44960747Y-6720545D01*
X44972869Y-6722712D01*
X44978144Y-6724627D01*
X44977332Y-6729491D01*
X44974287Y-6742628D01*
X44969209Y-6763239D01*
X44962303Y-6790529D01*
X44953774Y-6823703D01*
X44943824Y-6861968D01*
X44932659Y-6904530D01*
X44920483Y-6950594D01*
X44907500Y-6999365D01*
X44895194Y-7045437D01*
X44882589Y-7092625D01*
X44870811Y-7136719D01*
X44860087Y-7176867D01*
X44850645Y-7212216D01*
X44842712Y-7241914D01*
X44836517Y-7265111D01*
X44832285Y-7280952D01*
X44830246Y-7288587D01*
X44825552Y-7306170D01*
X44806035Y-7296213D01*
X44800652Y-7293536D01*
X44754311Y-7275694D01*
X44706878Y-7266197D01*
X44691354Y-7263934D01*
X44680166Y-7261140D01*
X44675896Y-7258442D01*
X44676028Y-7257761D01*
X44677940Y-7250024D01*
X44681935Y-7234479D01*
X44687765Y-7212064D01*
X44695181Y-7183716D01*
X44703936Y-7150372D01*
X44713781Y-7112971D01*
X44724467Y-7072450D01*
X44735748Y-7029746D01*
X44747373Y-6985796D01*
X44759095Y-6941539D01*
X44770666Y-6897912D01*
X44781838Y-6855852D01*
X44792361Y-6816297D01*
X44801989Y-6780185D01*
X44810472Y-6748452D01*
X44817563Y-6722037D01*
X44823012Y-6701877D01*
X44826573Y-6688910D01*
X44827996Y-6684072D01*
X44829253Y-6684308D01*
G37*
G36*
X46802910Y-10066083D02*
G01*
X46803307Y-10066590D01*
X46808794Y-10073792D01*
X46819299Y-10087707D01*
X46834311Y-10107654D01*
X46853320Y-10132952D01*
X46875814Y-10162923D01*
X46901283Y-10196884D01*
X46929216Y-10234156D01*
X46959103Y-10274058D01*
X46990433Y-10315910D01*
X47167609Y-10552658D01*
X47168822Y-10303018D01*
X47170035Y-10053378D01*
X47300524Y-10053378D01*
X47331650Y-10053457D01*
X47369679Y-10053749D01*
X47406274Y-10054223D01*
X47439449Y-10054848D01*
X47467220Y-10055591D01*
X47487600Y-10056420D01*
X47544186Y-10059463D01*
X47528904Y-10074000D01*
X47513621Y-10088538D01*
X47510566Y-10247933D01*
X47510495Y-10251731D01*
X47510054Y-10281215D01*
X47509633Y-10318978D01*
X47509236Y-10364073D01*
X47508868Y-10415551D01*
X47508535Y-10472464D01*
X47508240Y-10533863D01*
X47507987Y-10598800D01*
X47507783Y-10666327D01*
X47507631Y-10735495D01*
X47507536Y-10805357D01*
X47507502Y-10874963D01*
X47507495Y-11342599D01*
X47338724Y-11342599D01*
X47169953Y-11342599D01*
X47169953Y-11171225D01*
X47169953Y-10999851D01*
X47096230Y-10912208D01*
X47080139Y-10893101D01*
X47028778Y-10832358D01*
X46973960Y-10767861D01*
X46916545Y-10700604D01*
X46857394Y-10631583D01*
X46797367Y-10561795D01*
X46737325Y-10492235D01*
X46678128Y-10423898D01*
X46620636Y-10357780D01*
X46565711Y-10294878D01*
X46514212Y-10236186D01*
X46467001Y-10182701D01*
X46424937Y-10135419D01*
X46353685Y-10055722D01*
X46573124Y-10054363D01*
X46792563Y-10053004D01*
X46802910Y-10066083D01*
G37*
G36*
X46789307Y-10617043D02*
G01*
X46793336Y-10620762D01*
X46804124Y-10631944D01*
X46819303Y-10648499D01*
X46837883Y-10669289D01*
X46858873Y-10693177D01*
X46881281Y-10719023D01*
X46904119Y-10745691D01*
X46926395Y-10772041D01*
X46947118Y-10796937D01*
X46965299Y-10819239D01*
X46978962Y-10836357D01*
X46995682Y-10857896D01*
X47007319Y-10873929D01*
X47014514Y-10885421D01*
X47017912Y-10893336D01*
X47018153Y-10898641D01*
X47016234Y-10903500D01*
X47010261Y-10915994D01*
X47001136Y-10933897D01*
X46989672Y-10955621D01*
X46976684Y-10979578D01*
X46970770Y-10990353D01*
X46956836Y-11015785D01*
X46939784Y-11046945D01*
X46920505Y-11082204D01*
X46899887Y-11119936D01*
X46878821Y-11158513D01*
X46858196Y-11196309D01*
X46778499Y-11342413D01*
X46573396Y-11342506D01*
X46543760Y-11342480D01*
X46502901Y-11342309D01*
X46465724Y-11341995D01*
X46433179Y-11341554D01*
X46406214Y-11341003D01*
X46385779Y-11340360D01*
X46372822Y-11339641D01*
X46368292Y-11338862D01*
X46370441Y-11333582D01*
X46376867Y-11320845D01*
X46387159Y-11301423D01*
X46400904Y-11276045D01*
X46417690Y-11245440D01*
X46437103Y-11210340D01*
X46458732Y-11171473D01*
X46482165Y-11129568D01*
X46506987Y-11085357D01*
X46532787Y-11039568D01*
X46559153Y-10992932D01*
X46585671Y-10946177D01*
X46611930Y-10900035D01*
X46637516Y-10855233D01*
X46662017Y-10812503D01*
X46685020Y-10772574D01*
X46706113Y-10736176D01*
X46724884Y-10704038D01*
X46740919Y-10676890D01*
X46753807Y-10655462D01*
X46763134Y-10640483D01*
X46763267Y-10640276D01*
X46773253Y-10625389D01*
X46779994Y-10617385D01*
X46784882Y-10615018D01*
X46789307Y-10617043D01*
G37*
G36*
X43618836Y-10039785D02*
G01*
X43672219Y-10042260D01*
X43719400Y-10047158D01*
X43762136Y-10054816D01*
X43802187Y-10065573D01*
X43841311Y-10079765D01*
X43881267Y-10097731D01*
X43918238Y-10116938D01*
X43983499Y-10157765D01*
X44041048Y-10203783D01*
X44091000Y-10255156D01*
X44133467Y-10312046D01*
X44168563Y-10374616D01*
X44196403Y-10443029D01*
X44217100Y-10517448D01*
X44230768Y-10598037D01*
X44231759Y-10607504D01*
X44233568Y-10636410D01*
X44234479Y-10671163D01*
X44234543Y-10709592D01*
X44233813Y-10749524D01*
X44232342Y-10788786D01*
X44230180Y-10825205D01*
X44227380Y-10856608D01*
X44223994Y-10880823D01*
X44211332Y-10938258D01*
X44190119Y-11006492D01*
X44163525Y-11068292D01*
X44131866Y-11122834D01*
X44129630Y-11126100D01*
X44107638Y-11154452D01*
X44080359Y-11184667D01*
X44050300Y-11214257D01*
X44019972Y-11240735D01*
X43991881Y-11261615D01*
X43955466Y-11284065D01*
X43908553Y-11307982D01*
X43859424Y-11327124D01*
X43805778Y-11342357D01*
X43745313Y-11354549D01*
X43741650Y-11355132D01*
X43715603Y-11357841D01*
X43684165Y-11359272D01*
X43649792Y-11359485D01*
X43614936Y-11358539D01*
X43582050Y-11356495D01*
X43553589Y-11353412D01*
X43532006Y-11349351D01*
X43517897Y-11345351D01*
X43473800Y-11328635D01*
X43434042Y-11307096D01*
X43400238Y-11281714D01*
X43374005Y-11253471D01*
X43365734Y-11242812D01*
X43358547Y-11234479D01*
X43355205Y-11231864D01*
X43354734Y-11234149D01*
X43353949Y-11244104D01*
X43353198Y-11260012D01*
X43352596Y-11279791D01*
X43351515Y-11326190D01*
X43212044Y-11327432D01*
X43072574Y-11328674D01*
X43072574Y-10969966D01*
X43072574Y-10611259D01*
X43360891Y-10611259D01*
X43649208Y-10611259D01*
X43649208Y-10737837D01*
X43649208Y-10864415D01*
X43545515Y-10864415D01*
X43441823Y-10864415D01*
X43445220Y-10905191D01*
X43445633Y-10909930D01*
X43451619Y-10953687D01*
X43460946Y-10989420D01*
X43473800Y-11017871D01*
X43493928Y-11045168D01*
X43522159Y-11069850D01*
X43555006Y-11087866D01*
X43591050Y-11098803D01*
X43628871Y-11102248D01*
X43667051Y-11097785D01*
X43704170Y-11085003D01*
X43721626Y-11075316D01*
X43752023Y-11050549D01*
X43778756Y-11017814D01*
X43801596Y-10977639D01*
X43820312Y-10930550D01*
X43834674Y-10877073D01*
X43844451Y-10817735D01*
X43849413Y-10753062D01*
X43850175Y-10705541D01*
X43847266Y-10635130D01*
X43839459Y-10570425D01*
X43826898Y-10511831D01*
X43809724Y-10459749D01*
X43788080Y-10414582D01*
X43762109Y-10376733D01*
X43731953Y-10346606D01*
X43697755Y-10324603D01*
X43688728Y-10320326D01*
X43670560Y-10313405D01*
X43652105Y-10309523D01*
X43628836Y-10307562D01*
X43601156Y-10307583D01*
X43560842Y-10312982D01*
X43524394Y-10324429D01*
X43493259Y-10341419D01*
X43468885Y-10363445D01*
X43461783Y-10373398D01*
X43452227Y-10389396D01*
X43443158Y-10406854D01*
X43439196Y-10415081D01*
X43432548Y-10427372D01*
X43426507Y-10434168D01*
X43418808Y-10437525D01*
X43407187Y-10439497D01*
X43402583Y-10439918D01*
X43387876Y-10440611D01*
X43365845Y-10441227D01*
X43337799Y-10441746D01*
X43305043Y-10442143D01*
X43268887Y-10442398D01*
X43230637Y-10442488D01*
X43075906Y-10442488D01*
X43078662Y-10413187D01*
X43082192Y-10388549D01*
X43094947Y-10341347D01*
X43114851Y-10293738D01*
X43140821Y-10247535D01*
X43171777Y-10204552D01*
X43206635Y-10166603D01*
X43244315Y-10135500D01*
X43248207Y-10132806D01*
X43305381Y-10098705D01*
X43366260Y-10072472D01*
X43431418Y-10053940D01*
X43501431Y-10042942D01*
X43576872Y-10039313D01*
X43618836Y-10039785D01*
G37*
G36*
X42159908Y-8183428D02*
G01*
X42208435Y-8183779D01*
X42247372Y-8184120D01*
X42285666Y-8184562D01*
X42316508Y-8185203D01*
X42340942Y-8186209D01*
X42360011Y-8187744D01*
X42374758Y-8189975D01*
X42386226Y-8193067D01*
X42395459Y-8197185D01*
X42403498Y-8202494D01*
X42411388Y-8209160D01*
X42420170Y-8217348D01*
X42429420Y-8226424D01*
X42438363Y-8236926D01*
X42445081Y-8248155D01*
X42449944Y-8261554D01*
X42453322Y-8278563D01*
X42455585Y-8300625D01*
X42457103Y-8329180D01*
X42458247Y-8365670D01*
X42459232Y-8397916D01*
X42460729Y-8427780D01*
X42463001Y-8451182D01*
X42466458Y-8469686D01*
X42471512Y-8484855D01*
X42478572Y-8498253D01*
X42488049Y-8511441D01*
X42500354Y-8525984D01*
X42502056Y-8527899D01*
X42509061Y-8535250D01*
X42516703Y-8542046D01*
X42525878Y-8548735D01*
X42537482Y-8555768D01*
X42552411Y-8563593D01*
X42571562Y-8572662D01*
X42595830Y-8583423D01*
X42626112Y-8596327D01*
X42663303Y-8611823D01*
X42708300Y-8630361D01*
X42733184Y-8640574D01*
X42767831Y-8654715D01*
X42795556Y-8665845D01*
X42817441Y-8674324D01*
X42834570Y-8680512D01*
X42848024Y-8684767D01*
X42858887Y-8687451D01*
X42868239Y-8688923D01*
X42877165Y-8689542D01*
X42886747Y-8689668D01*
X42889268Y-8689661D01*
X42911807Y-8688708D01*
X42931380Y-8685574D01*
X42949509Y-8679445D01*
X42967715Y-8669507D01*
X42987520Y-8654946D01*
X43010445Y-8634947D01*
X43038011Y-8608696D01*
X43045587Y-8601361D01*
X43070127Y-8578439D01*
X43091413Y-8559867D01*
X43108426Y-8546505D01*
X43120147Y-8539217D01*
X43143438Y-8532304D01*
X43170599Y-8529871D01*
X43197525Y-8532001D01*
X43220249Y-8538714D01*
X43228098Y-8543893D01*
X43242739Y-8556049D01*
X43263205Y-8574630D01*
X43289223Y-8599379D01*
X43320519Y-8630042D01*
X43356817Y-8666361D01*
X43375767Y-8685501D01*
X43405129Y-8715340D01*
X43428806Y-8739867D01*
X43447410Y-8759927D01*
X43461551Y-8776363D01*
X43471840Y-8790021D01*
X43478888Y-8801745D01*
X43483307Y-8812380D01*
X43485707Y-8822770D01*
X43486698Y-8833762D01*
X43486893Y-8846198D01*
X43486880Y-8849022D01*
X43486054Y-8864905D01*
X43483348Y-8878967D01*
X43477938Y-8892586D01*
X43469003Y-8907137D01*
X43455719Y-8923997D01*
X43437265Y-8944543D01*
X43412817Y-8970151D01*
X43390693Y-8993235D01*
X43369461Y-9016492D01*
X43353625Y-9035906D01*
X43342409Y-9052901D01*
X43335035Y-9068898D01*
X43330726Y-9085321D01*
X43328705Y-9103593D01*
X43328195Y-9125138D01*
X43328170Y-9169675D01*
X43391228Y-9321798D01*
X43403142Y-9350269D01*
X43418069Y-9385195D01*
X43432088Y-9417198D01*
X43444677Y-9445125D01*
X43455313Y-9467823D01*
X43463476Y-9484136D01*
X43468642Y-9492913D01*
X43474907Y-9500372D01*
X43494508Y-9518373D01*
X43518147Y-9535035D01*
X43542644Y-9548274D01*
X43564821Y-9556003D01*
X43571256Y-9557038D01*
X43588571Y-9558660D01*
X43611741Y-9559957D01*
X43638533Y-9560818D01*
X43666711Y-9561129D01*
X43699525Y-9561439D01*
X43726717Y-9562745D01*
X43747742Y-9565530D01*
X43764243Y-9570276D01*
X43777864Y-9577464D01*
X43790248Y-9587576D01*
X43803036Y-9601093D01*
X43803981Y-9602172D01*
X43813342Y-9613927D01*
X43820387Y-9625807D01*
X43825435Y-9639352D01*
X43828805Y-9656102D01*
X43830817Y-9677599D01*
X43831789Y-9705382D01*
X43832043Y-9740992D01*
X43832043Y-9823662D01*
X43349171Y-9823662D01*
X42866299Y-9823662D01*
X42866280Y-9789673D01*
X42863773Y-9743605D01*
X42853757Y-9682323D01*
X42836629Y-9619433D01*
X42812961Y-9556638D01*
X42783327Y-9495647D01*
X42748298Y-9438164D01*
X42717980Y-9397587D01*
X42668570Y-9343648D01*
X42612638Y-9294533D01*
X42551559Y-9251293D01*
X42486711Y-9214983D01*
X42419471Y-9186655D01*
X42404139Y-9181383D01*
X42364749Y-9169452D01*
X42327244Y-9160941D01*
X42288844Y-9155408D01*
X42246771Y-9152411D01*
X42198248Y-9151511D01*
X42179552Y-9151625D01*
X42133808Y-9153235D01*
X42093478Y-9157093D01*
X42055766Y-9163643D01*
X42017879Y-9173327D01*
X41977025Y-9186589D01*
X41950279Y-9196659D01*
X41882044Y-9228807D01*
X41818220Y-9268275D01*
X41759352Y-9314358D01*
X41705987Y-9366347D01*
X41658670Y-9423536D01*
X41617949Y-9485217D01*
X41584370Y-9550682D01*
X41558479Y-9619226D01*
X41540823Y-9690140D01*
X41531947Y-9762717D01*
X41531593Y-9768488D01*
X41530192Y-9787767D01*
X41528729Y-9803635D01*
X41527467Y-9813114D01*
X41525330Y-9823662D01*
X41042548Y-9823662D01*
X40559765Y-9823662D01*
X40559765Y-9753981D01*
X40559795Y-9746017D01*
X40560305Y-9719015D01*
X40561348Y-9693843D01*
X40562800Y-9673015D01*
X40564532Y-9659047D01*
X40565180Y-9655807D01*
X40576341Y-9623585D01*
X40594906Y-9597005D01*
X40620671Y-9576366D01*
X40646080Y-9561129D01*
X40726171Y-9561129D01*
X40762598Y-9560755D01*
X40793186Y-9559493D01*
X40816671Y-9557267D01*
X40834205Y-9554000D01*
X40851964Y-9548051D01*
X40880414Y-9533358D01*
X40906274Y-9514187D01*
X40926151Y-9492795D01*
X40927692Y-9490345D01*
X40933660Y-9478824D01*
X40942379Y-9460393D01*
X40953311Y-9436315D01*
X40965920Y-9407852D01*
X40979670Y-9376265D01*
X40994025Y-9342819D01*
X41008449Y-9308774D01*
X41022405Y-9275394D01*
X41035357Y-9243941D01*
X41046769Y-9215677D01*
X41056105Y-9191864D01*
X41062827Y-9173765D01*
X41066401Y-9162643D01*
X41069865Y-9142394D01*
X41069041Y-9110992D01*
X41061030Y-9075855D01*
X41057654Y-9065552D01*
X41053468Y-9055411D01*
X41047917Y-9045643D01*
X41039955Y-9034841D01*
X41028531Y-9021602D01*
X41012598Y-9004520D01*
X40991106Y-8982191D01*
X40973925Y-8964076D01*
X40955192Y-8943437D01*
X40939222Y-8924889D01*
X40927308Y-8909942D01*
X40920743Y-8900104D01*
X40910461Y-8870980D01*
X40907833Y-8838236D01*
X40913820Y-8805818D01*
X40913924Y-8805503D01*
X40916711Y-8798150D01*
X40920515Y-8790672D01*
X40926042Y-8782260D01*
X40933997Y-8772104D01*
X40945085Y-8759396D01*
X40960012Y-8743325D01*
X40979483Y-8723081D01*
X41004202Y-8697856D01*
X41034875Y-8666840D01*
X41044800Y-8656837D01*
X41077104Y-8624489D01*
X41103978Y-8598126D01*
X41126262Y-8577139D01*
X41144795Y-8560922D01*
X41160416Y-8548867D01*
X41173963Y-8540365D01*
X41186275Y-8534811D01*
X41198193Y-8531596D01*
X41210555Y-8530112D01*
X41224199Y-8529753D01*
X41238032Y-8530401D01*
X41256928Y-8533021D01*
X41271331Y-8536967D01*
X41275205Y-8539023D01*
X41287463Y-8547794D01*
X41304119Y-8561603D01*
X41323771Y-8579258D01*
X41345018Y-8599570D01*
X41358048Y-8612287D01*
X41377177Y-8630561D01*
X41394079Y-8646249D01*
X41407287Y-8658001D01*
X41415339Y-8664466D01*
X41440343Y-8677326D01*
X41473255Y-8686463D01*
X41509261Y-8689668D01*
X41509661Y-8689668D01*
X41518676Y-8689532D01*
X41527210Y-8688903D01*
X41536278Y-8687437D01*
X41546895Y-8684786D01*
X41560076Y-8680605D01*
X41576836Y-8674547D01*
X41598190Y-8666265D01*
X41625154Y-8655415D01*
X41658741Y-8641649D01*
X41699968Y-8624622D01*
X41703496Y-8623162D01*
X41748128Y-8604583D01*
X41785011Y-8588911D01*
X41815049Y-8575641D01*
X41839146Y-8564268D01*
X41858209Y-8554288D01*
X41873141Y-8545195D01*
X41884846Y-8536485D01*
X41894231Y-8527653D01*
X41902198Y-8518194D01*
X41909654Y-8507604D01*
X41913833Y-8501094D01*
X41922650Y-8485064D01*
X41929102Y-8468439D01*
X41933530Y-8449469D01*
X41936273Y-8426401D01*
X41937669Y-8397484D01*
X41938060Y-8360966D01*
X41938348Y-8328573D01*
X41939613Y-8299095D01*
X41942251Y-8276052D01*
X41946654Y-8257886D01*
X41953217Y-8243043D01*
X41962331Y-8229967D01*
X41974390Y-8217102D01*
X41981038Y-8210803D01*
X41989917Y-8203349D01*
X41999225Y-8197328D01*
X42009957Y-8192599D01*
X42023107Y-8189020D01*
X42039669Y-8186450D01*
X42060636Y-8184747D01*
X42087002Y-8183771D01*
X42119761Y-8183378D01*
X42159908Y-8183428D01*
G37*
G36*
X45608824Y-7149114D02*
G01*
X45608824Y-8487560D01*
X44826369Y-8487560D01*
X44043914Y-8487560D01*
X44000401Y-8430131D01*
X43988782Y-8414953D01*
X43918892Y-8329276D01*
X43842857Y-8244721D01*
X43762652Y-8163312D01*
X43680254Y-8087069D01*
X43597639Y-8018013D01*
X43501630Y-7946057D01*
X43381404Y-7866220D01*
X43256750Y-7794429D01*
X43127083Y-7730352D01*
X42991819Y-7673657D01*
X42932160Y-7650738D01*
X42932094Y-7116689D01*
X43217835Y-7116689D01*
X43217905Y-7135838D01*
X43218649Y-7160008D01*
X43219202Y-7175172D01*
X43220456Y-7194617D01*
X43222420Y-7207973D01*
X43225453Y-7217304D01*
X43229914Y-7224679D01*
X43234430Y-7230450D01*
X43250786Y-7246145D01*
X43269062Y-7254486D01*
X43292086Y-7256940D01*
X43317350Y-7253415D01*
X43338803Y-7242341D01*
X43354602Y-7224124D01*
X43364393Y-7199183D01*
X43367820Y-7167937D01*
X43367923Y-7139879D01*
X43422935Y-7084723D01*
X43477946Y-7029568D01*
X43599983Y-7029568D01*
X43722019Y-7029568D01*
X43776627Y-7084653D01*
X43831235Y-7139738D01*
X43832890Y-7175833D01*
X43832939Y-7176866D01*
X43835427Y-7201204D01*
X43841003Y-7219202D01*
X43850979Y-7233634D01*
X43866665Y-7247274D01*
X43869074Y-7248921D01*
X43887106Y-7255745D01*
X43908756Y-7257434D01*
X43930452Y-7254057D01*
X43948619Y-7245683D01*
X43958865Y-7237094D01*
X43969740Y-7222531D01*
X43976834Y-7203703D01*
X43980691Y-7178989D01*
X43981855Y-7146770D01*
X43981531Y-7124332D01*
X43980168Y-7105010D01*
X43977451Y-7090620D01*
X43973076Y-7078793D01*
X43968231Y-7071141D01*
X43956828Y-7056871D01*
X43940311Y-7038217D01*
X43919653Y-7016271D01*
X43895826Y-6992124D01*
X43827355Y-6924208D01*
X43827355Y-6784941D01*
X43827355Y-6645674D01*
X43962137Y-6644238D01*
X43972547Y-6644127D01*
X44009498Y-6643702D01*
X44038573Y-6643245D01*
X44060975Y-6642655D01*
X44077910Y-6641828D01*
X44090581Y-6640662D01*
X44100191Y-6639054D01*
X44107946Y-6636901D01*
X44115049Y-6634102D01*
X44122703Y-6630553D01*
X44125697Y-6629092D01*
X44156971Y-6608382D01*
X44181984Y-6581252D01*
X44199841Y-6548917D01*
X44209642Y-6512597D01*
X44212875Y-6490217D01*
X44290791Y-6491500D01*
X44368707Y-6492783D01*
X44372267Y-6517551D01*
X44381732Y-6552063D01*
X44399350Y-6583354D01*
X44424050Y-6609722D01*
X44454804Y-6629770D01*
X44462444Y-6633441D01*
X44470706Y-6636874D01*
X44479363Y-6639394D01*
X44489913Y-6641175D01*
X44503850Y-6642391D01*
X44522674Y-6643214D01*
X44547879Y-6643818D01*
X44580963Y-6644377D01*
X44584418Y-6644432D01*
X44617911Y-6645099D01*
X44643103Y-6645912D01*
X44660981Y-6646947D01*
X44672529Y-6648283D01*
X44678735Y-6649996D01*
X44680585Y-6652163D01*
X44679711Y-6656317D01*
X44676601Y-6668957D01*
X44671422Y-6689294D01*
X44664365Y-6716599D01*
X44655621Y-6750139D01*
X44645382Y-6789184D01*
X44633839Y-6833002D01*
X44621183Y-6880863D01*
X44607606Y-6932035D01*
X44593298Y-6985786D01*
X44587927Y-7005929D01*
X44572000Y-7065613D01*
X44558229Y-7117068D01*
X44546422Y-7160931D01*
X44536387Y-7197838D01*
X44527932Y-7228428D01*
X44520867Y-7253336D01*
X44514998Y-7273200D01*
X44510135Y-7288657D01*
X44506086Y-7300343D01*
X44502658Y-7308896D01*
X44499661Y-7314952D01*
X44496902Y-7319148D01*
X44494190Y-7322121D01*
X44491332Y-7324509D01*
X44482760Y-7331405D01*
X44447900Y-7365952D01*
X44417860Y-7406393D01*
X44394142Y-7450449D01*
X44378250Y-7495845D01*
X44377222Y-7500154D01*
X44372348Y-7534078D01*
X44371405Y-7572421D01*
X44374327Y-7611631D01*
X44381048Y-7648159D01*
X44390924Y-7687214D01*
X44361123Y-7713375D01*
X44358787Y-7715428D01*
X44321587Y-7748964D01*
X44291338Y-7778430D01*
X44267351Y-7805070D01*
X44248939Y-7830127D01*
X44235416Y-7854845D01*
X44226094Y-7880468D01*
X44220287Y-7908239D01*
X44217306Y-7939402D01*
X44216465Y-7975200D01*
X44216465Y-8032816D01*
X44165589Y-8032816D01*
X44162518Y-8032822D01*
X44135061Y-8033747D01*
X44114625Y-8036773D01*
X44099139Y-8042659D01*
X44086534Y-8052162D01*
X44074738Y-8066039D01*
X44073669Y-8067536D01*
X44064835Y-8087953D01*
X44063428Y-8110724D01*
X44068913Y-8133508D01*
X44080756Y-8153969D01*
X44098424Y-8169766D01*
X44115671Y-8180491D01*
X44664176Y-8181240D01*
X44702301Y-8181284D01*
X44772265Y-8181320D01*
X44839457Y-8181298D01*
X44903277Y-8181221D01*
X44963124Y-8181093D01*
X45018398Y-8180915D01*
X45068500Y-8180691D01*
X45112827Y-8180423D01*
X45150780Y-8180115D01*
X45181759Y-8179769D01*
X45205162Y-8179389D01*
X45220391Y-8178977D01*
X45226844Y-8178536D01*
X45241899Y-8173213D01*
X45262134Y-8159218D01*
X45276400Y-8140160D01*
X45283900Y-8117813D01*
X45283838Y-8093948D01*
X45275418Y-8070340D01*
X45269657Y-8061489D01*
X45252190Y-8045335D01*
X45228916Y-8035890D01*
X45199151Y-8032816D01*
X45168145Y-8032816D01*
X45168063Y-7982420D01*
X45167112Y-7949674D01*
X45161986Y-7905560D01*
X45152038Y-7867407D01*
X45136835Y-7833722D01*
X45115942Y-7803014D01*
X45107662Y-7793987D01*
X45093676Y-7780151D01*
X45075419Y-7762870D01*
X45054309Y-7743484D01*
X45031762Y-7723336D01*
X44962743Y-7662522D01*
X44970018Y-7635534D01*
X44973769Y-7615794D01*
X44976278Y-7590622D01*
X44977144Y-7563994D01*
X44977138Y-7562583D01*
X44976447Y-7538702D01*
X44974167Y-7518959D01*
X44969572Y-7499113D01*
X44961938Y-7474920D01*
X44946882Y-7430399D01*
X45045927Y-7057696D01*
X45053832Y-7027967D01*
X45068814Y-6971708D01*
X45083061Y-6918323D01*
X45096388Y-6868500D01*
X45108609Y-6822926D01*
X45119540Y-6782290D01*
X45128995Y-6747278D01*
X45136789Y-6718579D01*
X45142737Y-6696880D01*
X45146654Y-6682870D01*
X45148354Y-6677235D01*
X45153111Y-6671032D01*
X45163331Y-6661109D01*
X45176564Y-6649999D01*
X45192582Y-6635847D01*
X45217286Y-6608297D01*
X45239676Y-6576741D01*
X45257324Y-6544352D01*
X45260145Y-6537973D01*
X45276639Y-6488128D01*
X45284242Y-6437236D01*
X45283144Y-6386345D01*
X45273536Y-6336505D01*
X45255608Y-6288765D01*
X45229549Y-6244175D01*
X45195551Y-6203782D01*
X45190982Y-6199300D01*
X45150381Y-6166346D01*
X45105986Y-6141301D01*
X45058840Y-6124277D01*
X45009988Y-6115386D01*
X44960474Y-6114739D01*
X44911343Y-6122448D01*
X44863639Y-6138626D01*
X44818407Y-6163384D01*
X44781378Y-6188058D01*
X44629016Y-6190402D01*
X44476653Y-6192746D01*
X44452915Y-6205274D01*
X44447305Y-6208402D01*
X44419572Y-6229333D01*
X44396927Y-6255786D01*
X44380796Y-6285772D01*
X44372604Y-6317301D01*
X44369865Y-6340421D01*
X44291353Y-6340421D01*
X44212841Y-6340421D01*
X44209524Y-6318298D01*
X44208612Y-6312990D01*
X44197755Y-6279920D01*
X44179191Y-6249460D01*
X44154356Y-6223544D01*
X44124686Y-6204105D01*
X44120216Y-6201948D01*
X44113842Y-6199244D01*
X44106873Y-6197096D01*
X44098212Y-6195417D01*
X44086761Y-6194122D01*
X44071423Y-6193125D01*
X44051099Y-6192340D01*
X44024694Y-6191682D01*
X43991108Y-6191065D01*
X43949245Y-6190402D01*
X43796882Y-6188058D01*
X43773442Y-6171039D01*
X43735083Y-6146736D01*
X43693393Y-6128718D01*
X43649080Y-6118394D01*
X43599983Y-6115064D01*
X43572129Y-6116049D01*
X43522070Y-6123869D01*
X43476043Y-6139820D01*
X43433053Y-6164297D01*
X43392104Y-6197697D01*
X43384610Y-6204953D01*
X43350788Y-6243977D01*
X43325489Y-6285754D01*
X43308067Y-6331553D01*
X43297876Y-6382643D01*
X43297121Y-6389249D01*
X43296373Y-6441020D01*
X43304873Y-6491540D01*
X43322551Y-6540522D01*
X43349335Y-6587679D01*
X43372611Y-6621985D01*
X43372611Y-6772857D01*
X43372611Y-6923729D01*
X43297995Y-6998917D01*
X43296939Y-6999981D01*
X43272051Y-7025068D01*
X43252897Y-7044905D01*
X43238754Y-7060959D01*
X43228899Y-7074697D01*
X43222609Y-7087586D01*
X43219162Y-7101095D01*
X43217835Y-7116689D01*
X42932094Y-7116689D01*
X42932046Y-6730703D01*
X42931932Y-5810668D01*
X44270378Y-5810668D01*
X45608824Y-5810668D01*
X45608824Y-6437236D01*
X45608824Y-7149114D01*
G37*
G36*
X43034792Y-4482023D02*
G01*
X43058797Y-4496624D01*
X43062117Y-4499380D01*
X43067515Y-4503930D01*
X43072107Y-4508470D01*
X43075957Y-4513721D01*
X43079126Y-4520407D01*
X43081676Y-4529248D01*
X43083670Y-4540967D01*
X43085169Y-4556286D01*
X43086235Y-4575927D01*
X43086931Y-4600612D01*
X43087319Y-4631063D01*
X43087461Y-4668002D01*
X43087418Y-4712151D01*
X43087254Y-4764232D01*
X43087029Y-4824967D01*
X43086001Y-5112145D01*
X43311200Y-5112145D01*
X43536400Y-5112145D01*
X43537719Y-4843752D01*
X43537883Y-4811042D01*
X43538169Y-4758886D01*
X43538467Y-4714915D01*
X43538806Y-4678364D01*
X43539215Y-4648466D01*
X43539722Y-4624457D01*
X43540355Y-4605569D01*
X43541144Y-4591037D01*
X43542116Y-4580095D01*
X43543301Y-4571977D01*
X43544726Y-4565918D01*
X43546421Y-4561150D01*
X43548414Y-4556909D01*
X43550999Y-4552366D01*
X43562430Y-4537186D01*
X43575714Y-4524166D01*
X43584422Y-4517776D01*
X43595083Y-4512517D01*
X43608221Y-4509690D01*
X43627283Y-4508229D01*
X43633014Y-4508015D01*
X43655543Y-4509295D01*
X43673628Y-4515266D01*
X43689996Y-4527230D01*
X43707373Y-4546491D01*
X43721873Y-4564503D01*
X43723189Y-4838324D01*
X43724506Y-5112145D01*
X43949208Y-5112145D01*
X44173910Y-5112145D01*
X44175263Y-4843752D01*
X44175480Y-4801525D01*
X44175768Y-4750884D01*
X44176069Y-4708297D01*
X44176413Y-4672999D01*
X44176830Y-4644222D01*
X44177349Y-4621200D01*
X44178000Y-4603169D01*
X44178812Y-4589360D01*
X44179814Y-4579009D01*
X44181037Y-4571350D01*
X44182510Y-4565615D01*
X44184262Y-4561040D01*
X44186322Y-4556857D01*
X44189907Y-4550487D01*
X44207986Y-4528409D01*
X44230795Y-4514397D01*
X44258559Y-4508298D01*
X44261608Y-4508087D01*
X44283714Y-4507683D01*
X44300297Y-4510513D01*
X44314587Y-4517551D01*
X44329814Y-4529770D01*
X44330283Y-4530193D01*
X44336789Y-4536015D01*
X44342334Y-4541369D01*
X44346992Y-4547012D01*
X44350843Y-4553703D01*
X44353962Y-4562198D01*
X44356426Y-4573254D01*
X44358312Y-4587628D01*
X44359697Y-4606079D01*
X44360659Y-4629362D01*
X44361273Y-4658235D01*
X44361617Y-4693456D01*
X44361767Y-4735781D01*
X44361801Y-4785968D01*
X44361795Y-4844774D01*
X44361795Y-5112145D01*
X44586823Y-5112145D01*
X44811851Y-5112145D01*
X44811851Y-4832340D01*
X44811851Y-4821899D01*
X44811861Y-4765192D01*
X44811905Y-4716980D01*
X44812009Y-4676512D01*
X44812197Y-4643034D01*
X44812494Y-4615792D01*
X44812926Y-4594033D01*
X44813516Y-4577005D01*
X44814290Y-4563954D01*
X44815274Y-4554127D01*
X44816491Y-4546770D01*
X44817967Y-4541132D01*
X44819726Y-4536457D01*
X44821795Y-4531994D01*
X44832656Y-4515167D01*
X44851839Y-4498403D01*
X44874852Y-4487968D01*
X44899925Y-4483872D01*
X44925290Y-4486126D01*
X44949177Y-4494738D01*
X44969817Y-4509719D01*
X44985440Y-4531079D01*
X44987163Y-4534690D01*
X44988828Y-4539189D01*
X44990228Y-4544873D01*
X44991385Y-4552485D01*
X44992323Y-4562771D01*
X44993064Y-4576475D01*
X44993632Y-4594342D01*
X44994050Y-4617117D01*
X44994340Y-4645544D01*
X44994526Y-4680369D01*
X44994630Y-4722335D01*
X44994676Y-4772189D01*
X44994686Y-4830673D01*
X44994686Y-5112145D01*
X45219837Y-5112145D01*
X45444987Y-5112145D01*
X45444596Y-4831943D01*
X45444578Y-4783815D01*
X45444662Y-4735670D01*
X45444844Y-4690965D01*
X45445115Y-4650547D01*
X45445467Y-4615265D01*
X45445891Y-4585966D01*
X45446378Y-4563500D01*
X45446921Y-4548713D01*
X45447510Y-4542454D01*
X45456148Y-4524934D01*
X45473348Y-4505730D01*
X45495111Y-4492453D01*
X45519706Y-4485315D01*
X45545404Y-4484528D01*
X45570476Y-4490302D01*
X45593190Y-4502849D01*
X45611816Y-4522380D01*
X45625232Y-4541735D01*
X45626510Y-4826940D01*
X45627787Y-5112145D01*
X45934445Y-5112145D01*
X46005617Y-5112219D01*
X46068932Y-5112450D01*
X46122933Y-5112837D01*
X46167651Y-5113380D01*
X46203116Y-5114081D01*
X46229359Y-5114939D01*
X46246410Y-5115956D01*
X46254301Y-5117131D01*
X46271550Y-5126951D01*
X46289525Y-5144457D01*
X46303147Y-5166058D01*
X46303360Y-5166522D01*
X46305069Y-5170756D01*
X46306532Y-5175839D01*
X46307769Y-5182482D01*
X46308800Y-5191396D01*
X46309642Y-5203290D01*
X46310317Y-5218876D01*
X46310841Y-5238864D01*
X46311236Y-5263965D01*
X46311520Y-5294889D01*
X46311713Y-5332347D01*
X46311833Y-5377049D01*
X46311900Y-5429707D01*
X46311932Y-5491029D01*
X46312035Y-5797249D01*
X46594893Y-5796206D01*
X46642864Y-5796015D01*
X46696538Y-5795804D01*
X46742124Y-5795707D01*
X46780347Y-5795809D01*
X46811929Y-5796191D01*
X46837596Y-5796937D01*
X46858071Y-5798130D01*
X46874077Y-5799853D01*
X46886338Y-5802190D01*
X46895579Y-5805222D01*
X46902522Y-5809035D01*
X46907893Y-5813709D01*
X46912414Y-5819330D01*
X46916809Y-5825979D01*
X46921803Y-5833740D01*
X46921932Y-5833935D01*
X46930430Y-5848897D01*
X46934503Y-5863276D01*
X46935549Y-5881980D01*
X46932057Y-5910602D01*
X46921403Y-5936380D01*
X46904342Y-5956647D01*
X46881637Y-5970156D01*
X46877514Y-5971085D01*
X46866675Y-5972179D01*
X46849419Y-5973085D01*
X46825323Y-5973808D01*
X46793965Y-5974357D01*
X46754922Y-5974737D01*
X46707772Y-5974956D01*
X46652092Y-5975021D01*
X46587460Y-5974938D01*
X46307347Y-5974314D01*
X46307347Y-6199560D01*
X46307347Y-6424806D01*
X46588819Y-6424806D01*
X46639112Y-6424813D01*
X46690225Y-6424853D01*
X46733339Y-6424949D01*
X46769198Y-6425123D01*
X46798547Y-6425398D01*
X46822129Y-6425797D01*
X46840689Y-6426343D01*
X46854972Y-6427058D01*
X46865720Y-6427966D01*
X46873680Y-6429089D01*
X46879594Y-6430450D01*
X46884208Y-6432071D01*
X46888266Y-6433977D01*
X46906617Y-6446161D01*
X46924683Y-6466814D01*
X46935610Y-6491211D01*
X46938978Y-6517623D01*
X46934365Y-6544323D01*
X46921348Y-6569581D01*
X46917832Y-6574533D01*
X46913304Y-6580826D01*
X46908781Y-6586172D01*
X46903539Y-6590643D01*
X46896858Y-6594316D01*
X46888016Y-6597263D01*
X46876292Y-6599558D01*
X46860964Y-6601277D01*
X46841310Y-6602492D01*
X46816610Y-6603277D01*
X46786140Y-6603708D01*
X46749181Y-6603857D01*
X46705010Y-6603799D01*
X46652906Y-6603607D01*
X46592148Y-6603357D01*
X46307347Y-6602243D01*
X46307347Y-6829970D01*
X46307347Y-7057696D01*
X46574262Y-7057696D01*
X46602931Y-7057712D01*
X46666292Y-7057879D01*
X46720594Y-7058228D01*
X46765784Y-7058758D01*
X46801810Y-7059468D01*
X46828618Y-7060358D01*
X46846158Y-7061426D01*
X46854375Y-7062672D01*
X46863027Y-7066948D01*
X46879978Y-7079737D01*
X46895314Y-7096068D01*
X46905636Y-7112631D01*
X46909959Y-7125565D01*
X46912468Y-7152991D01*
X46907254Y-7180321D01*
X46894949Y-7205138D01*
X46876188Y-7225024D01*
X46858932Y-7238187D01*
X46583140Y-7239468D01*
X46307347Y-7240749D01*
X46307347Y-7468284D01*
X46307347Y-7695818D01*
X46590690Y-7694948D01*
X46636573Y-7694795D01*
X46690278Y-7694616D01*
X46735888Y-7694537D01*
X46774137Y-7694636D01*
X46805756Y-7694991D01*
X46831480Y-7695679D01*
X46852042Y-7696779D01*
X46868173Y-7698368D01*
X46880608Y-7700523D01*
X46890080Y-7703322D01*
X46897321Y-7706843D01*
X46903065Y-7711163D01*
X46908045Y-7716361D01*
X46912994Y-7722513D01*
X46918644Y-7729699D01*
X46921931Y-7733847D01*
X46928080Y-7743072D01*
X46931468Y-7752534D01*
X46932906Y-7765278D01*
X46933205Y-7784348D01*
X46933173Y-7792658D01*
X46932530Y-7808924D01*
X46930435Y-7820040D01*
X46926077Y-7829050D01*
X46918644Y-7838998D01*
X46914324Y-7844471D01*
X46909268Y-7850877D01*
X46904365Y-7856308D01*
X46898883Y-7860843D01*
X46892089Y-7864558D01*
X46883249Y-7867532D01*
X46871630Y-7869842D01*
X46856501Y-7871566D01*
X46837126Y-7872782D01*
X46812774Y-7873567D01*
X46782711Y-7873998D01*
X46746204Y-7874155D01*
X46702520Y-7874114D01*
X46650927Y-7873952D01*
X46590690Y-7873749D01*
X46307347Y-7872879D01*
X46307347Y-8100843D01*
X46307347Y-8328807D01*
X46592557Y-8327770D01*
X46642883Y-8327595D01*
X46694468Y-8327448D01*
X46738025Y-8327386D01*
X46774282Y-8327426D01*
X46803972Y-8327589D01*
X46827824Y-8327892D01*
X46846569Y-8328355D01*
X46860938Y-8328998D01*
X46871661Y-8329838D01*
X46879468Y-8330895D01*
X46885090Y-8332187D01*
X46889257Y-8333735D01*
X46892700Y-8335555D01*
X46911806Y-8351163D01*
X46925847Y-8372353D01*
X46933576Y-8396580D01*
X46935110Y-8422084D01*
X46930566Y-8447108D01*
X46920061Y-8469894D01*
X46903712Y-8488683D01*
X46881637Y-8501718D01*
X46877514Y-8502647D01*
X46866675Y-8503741D01*
X46849419Y-8504646D01*
X46825323Y-8505370D01*
X46793965Y-8505918D01*
X46754922Y-8506298D01*
X46707772Y-8506517D01*
X46652092Y-8506582D01*
X46587460Y-8506499D01*
X46307347Y-8505875D01*
X46307270Y-8814335D01*
X46307193Y-9122794D01*
X46296682Y-9141352D01*
X46292861Y-9147209D01*
X46280244Y-9161806D01*
X46265886Y-9174168D01*
X46245601Y-9188427D01*
X45933981Y-9189728D01*
X45622361Y-9191029D01*
X45623214Y-9473622D01*
X45623359Y-9527300D01*
X45623447Y-9578615D01*
X45623441Y-9621928D01*
X45623325Y-9657962D01*
X45623082Y-9687441D01*
X45622695Y-9711086D01*
X45622150Y-9729621D01*
X45621428Y-9743768D01*
X45620513Y-9754252D01*
X45619390Y-9761793D01*
X45618041Y-9767116D01*
X45616450Y-9770944D01*
X45613954Y-9775212D01*
X45600119Y-9791280D01*
X45581993Y-9805324D01*
X45563420Y-9814207D01*
X45550269Y-9817120D01*
X45522561Y-9817127D01*
X45496273Y-9809558D01*
X45473525Y-9795195D01*
X45456437Y-9774818D01*
X45443802Y-9753259D01*
X45444484Y-9472015D01*
X45445166Y-9190771D01*
X45219926Y-9190771D01*
X44994686Y-9190771D01*
X44994686Y-9470576D01*
X44994686Y-9481017D01*
X44994675Y-9537725D01*
X44994631Y-9585936D01*
X44994527Y-9626404D01*
X44994339Y-9659883D01*
X44994042Y-9687124D01*
X44993611Y-9708883D01*
X44993020Y-9725911D01*
X44992246Y-9738962D01*
X44991263Y-9748789D01*
X44990046Y-9756146D01*
X44988570Y-9761785D01*
X44986810Y-9766459D01*
X44984742Y-9770922D01*
X44973175Y-9788281D01*
X44955783Y-9804047D01*
X44947835Y-9808930D01*
X44936322Y-9813782D01*
X44922666Y-9816061D01*
X44903268Y-9816630D01*
X44889944Y-9816416D01*
X44874652Y-9814846D01*
X44862788Y-9811010D01*
X44850753Y-9804047D01*
X44835102Y-9790272D01*
X44821795Y-9770922D01*
X44821424Y-9770153D01*
X44819409Y-9765707D01*
X44817699Y-9760923D01*
X44816268Y-9755047D01*
X44815092Y-9747328D01*
X44814146Y-9737010D01*
X44813404Y-9723342D01*
X44812843Y-9705570D01*
X44812436Y-9682940D01*
X44812159Y-9654701D01*
X44811986Y-9620098D01*
X44811894Y-9578378D01*
X44811857Y-9528788D01*
X44811851Y-9470576D01*
X44811851Y-9190771D01*
X44595027Y-9190739D01*
X44378204Y-9190706D01*
X44362620Y-9137998D01*
X44335968Y-9055703D01*
X44300016Y-8961340D01*
X44257043Y-8862993D01*
X44206744Y-8759927D01*
X44200935Y-8748562D01*
X44187914Y-8722989D01*
X44176715Y-8700865D01*
X44167955Y-8683414D01*
X44162247Y-8671858D01*
X44160208Y-8667419D01*
X44164445Y-8667250D01*
X44177583Y-8667065D01*
X44199142Y-8666873D01*
X44228635Y-8666674D01*
X44265575Y-8666472D01*
X44309473Y-8666267D01*
X44359842Y-8666062D01*
X44416195Y-8665859D01*
X44478044Y-8665658D01*
X44544901Y-8665462D01*
X44616280Y-8665273D01*
X44691693Y-8665091D01*
X44770651Y-8664920D01*
X44852668Y-8664761D01*
X44937257Y-8664616D01*
X45714305Y-8663363D01*
X45734225Y-8652722D01*
X45739278Y-8649667D01*
X45754674Y-8637033D01*
X45767041Y-8622592D01*
X45779939Y-8603103D01*
X45779939Y-7148719D01*
X45779939Y-5694336D01*
X45765603Y-5676624D01*
X45761733Y-5672033D01*
X45749423Y-5659049D01*
X45738303Y-5649233D01*
X45725338Y-5639553D01*
X44280582Y-5638179D01*
X44199886Y-5638105D01*
X44048400Y-5637988D01*
X43906162Y-5637908D01*
X43773087Y-5637863D01*
X43649091Y-5637855D01*
X43534089Y-5637884D01*
X43427995Y-5637950D01*
X43330725Y-5638053D01*
X43242195Y-5638193D01*
X43162318Y-5638371D01*
X43091012Y-5638586D01*
X43028190Y-5638839D01*
X42973767Y-5639131D01*
X42927660Y-5639461D01*
X42889783Y-5639829D01*
X42860052Y-5640236D01*
X42838380Y-5640683D01*
X42824685Y-5641168D01*
X42818881Y-5641693D01*
X42804979Y-5646973D01*
X42783368Y-5662424D01*
X42766607Y-5685705D01*
X42756250Y-5705186D01*
X42757951Y-6651006D01*
X42758032Y-6698339D01*
X42758165Y-6790569D01*
X42758260Y-6880052D01*
X42758320Y-6966345D01*
X42758344Y-7049006D01*
X42758335Y-7127594D01*
X42758291Y-7201666D01*
X42758215Y-7270781D01*
X42758108Y-7334497D01*
X42757969Y-7392371D01*
X42757800Y-7443963D01*
X42757601Y-7488830D01*
X42757374Y-7526530D01*
X42757119Y-7556621D01*
X42756837Y-7578662D01*
X42756529Y-7592211D01*
X42756196Y-7596825D01*
X42755619Y-7596767D01*
X42748086Y-7595347D01*
X42733633Y-7592316D01*
X42714055Y-7588057D01*
X42691145Y-7582952D01*
X42679142Y-7580288D01*
X42616197Y-7567479D01*
X42550952Y-7555973D01*
X42485283Y-7546013D01*
X42421069Y-7537843D01*
X42360184Y-7531706D01*
X42304506Y-7527845D01*
X42255912Y-7526504D01*
X42228720Y-7526504D01*
X42228720Y-7383518D01*
X42228720Y-7240531D01*
X41958923Y-7240531D01*
X41902593Y-7240536D01*
X41852476Y-7240508D01*
X41810256Y-7240384D01*
X41775177Y-7240097D01*
X41746484Y-7239583D01*
X41723425Y-7238776D01*
X41705243Y-7237612D01*
X41691184Y-7236026D01*
X41680494Y-7233952D01*
X41672418Y-7231326D01*
X41666201Y-7228082D01*
X41661090Y-7224155D01*
X41656329Y-7219481D01*
X41651164Y-7213994D01*
X41645293Y-7207245D01*
X41631090Y-7182727D01*
X41624986Y-7156434D01*
X41626698Y-7130033D01*
X41635947Y-7105192D01*
X41652451Y-7083581D01*
X41675930Y-7066867D01*
X41677986Y-7065854D01*
X41682333Y-7064054D01*
X41687629Y-7062541D01*
X41694640Y-7061288D01*
X41704131Y-7060271D01*
X41716870Y-7059467D01*
X41733622Y-7058849D01*
X41755153Y-7058395D01*
X41782230Y-7058078D01*
X41815618Y-7057874D01*
X41856084Y-7057759D01*
X41904393Y-7057708D01*
X41961313Y-7057696D01*
X42228720Y-7057696D01*
X42228720Y-6830002D01*
X42228720Y-6602308D01*
X41946250Y-6603350D01*
X41907052Y-6603485D01*
X41853372Y-6603626D01*
X41807892Y-6603667D01*
X41769900Y-6603594D01*
X41738680Y-6603391D01*
X41713517Y-6603044D01*
X41693697Y-6602538D01*
X41678506Y-6601857D01*
X41667228Y-6600987D01*
X41659149Y-6599911D01*
X41653554Y-6598616D01*
X41649729Y-6597086D01*
X41638306Y-6590052D01*
X41619190Y-6571240D01*
X41606869Y-6548449D01*
X41601363Y-6523385D01*
X41602692Y-6497751D01*
X41610874Y-6473252D01*
X41625930Y-6451592D01*
X41647878Y-6434476D01*
X41666277Y-6424136D01*
X41947498Y-6424623D01*
X42228720Y-6425110D01*
X42228720Y-6199930D01*
X42228720Y-5974751D01*
X42000177Y-5973700D01*
X41957432Y-5973505D01*
X41910717Y-5973297D01*
X41866151Y-5973104D01*
X41824939Y-5972930D01*
X41788286Y-5972780D01*
X41757395Y-5972660D01*
X41733472Y-5972574D01*
X41717720Y-5972528D01*
X41717145Y-5972526D01*
X41690915Y-5972079D01*
X41672165Y-5970760D01*
X41659054Y-5968354D01*
X41649743Y-5964648D01*
X41639827Y-5958383D01*
X41620066Y-5939188D01*
X41607243Y-5916138D01*
X41601379Y-5890904D01*
X41602490Y-5865161D01*
X41610598Y-5840578D01*
X41625721Y-5818829D01*
X41647878Y-5801586D01*
X41666277Y-5791245D01*
X41947369Y-5791732D01*
X42228461Y-5792219D01*
X42229763Y-5483826D01*
X42231064Y-5175434D01*
X42241705Y-5155515D01*
X42244758Y-5150464D01*
X42257392Y-5135067D01*
X42271832Y-5122698D01*
X42291317Y-5109801D01*
X42600055Y-5108499D01*
X42908793Y-5107197D01*
X42908309Y-4823757D01*
X42907826Y-4540316D01*
X42918362Y-4521570D01*
X42934501Y-4500706D01*
X42956531Y-4485126D01*
X42981817Y-4476601D01*
X43008518Y-4475458D01*
X43034792Y-4482023D01*
G37*
D12*
%TO.C,J2*%
X40170000Y-21270000D02*
X42830000Y-21270000D01*
X40170000Y-36570000D02*
X40170000Y-21270000D01*
X40170000Y-36570000D02*
X42830000Y-36570000D01*
X41500000Y-18670000D02*
X42830000Y-18670000D01*
X42830000Y-18670000D02*
X42830000Y-20000000D01*
X42830000Y-36570000D02*
X42830000Y-21270000D01*
%TD*%
%LPC*%
D14*
%TO.C,J1*%
X53085000Y-14000000D03*
D15*
X55625000Y-14000000D03*
X58165000Y-14000000D03*
%TD*%
D16*
%TO.C,J3*%
X58500000Y-20000000D03*
D15*
X58500000Y-22540000D03*
X58500000Y-25080000D03*
X58500000Y-27620000D03*
X58500000Y-30160000D03*
X58500000Y-32700000D03*
X58500000Y-35240000D03*
%TD*%
D16*
%TO.C,J2*%
X41500000Y-20000000D03*
D15*
X41500000Y-22540000D03*
X41500000Y-25080000D03*
X41500000Y-27620000D03*
X41500000Y-30160000D03*
X41500000Y-32700000D03*
X41500000Y-35240000D03*
%TD*%
%LPD*%
M02*
