%TF.GenerationSoftware,KiCad,Pcbnew,8.0.7*%
%TF.CreationDate,2025-01-04T02:58:24+07:00*%
%TF.ProjectId,13dof_imu,3133646f-665f-4696-9d75-2e6b69636164,Rev 1*%
%TF.SameCoordinates,Original*%
%TF.FileFunction,Soldermask,Top*%
%TF.FilePolarity,Negative*%
%FSLAX46Y46*%
G04 Gerber Fmt 4.6, Leading zero omitted, Abs format (unit mm)*
G04 Created by KiCad (PCBNEW 8.0.7) date 2025-01-04 02:58:24*
%MOMM*%
%LPD*%
G01*
G04 APERTURE LIST*
G04 APERTURE END LIST*
G36*
X52582710Y-35664463D02*
G01*
X52644350Y-35705650D01*
X52685537Y-35767290D01*
X52700000Y-35840000D01*
X52700000Y-36120000D01*
X52685537Y-36192710D01*
X52644350Y-36254350D01*
X52582710Y-36295537D01*
X52510000Y-36310000D01*
X52170000Y-36310000D01*
X52097290Y-36295537D01*
X52035650Y-36254350D01*
X51994463Y-36192710D01*
X51980000Y-36120000D01*
X51980000Y-35840000D01*
X51994463Y-35767290D01*
X52035650Y-35705650D01*
X52097290Y-35664463D01*
X52170000Y-35650000D01*
X52510000Y-35650000D01*
X52582710Y-35664463D01*
G37*
G36*
X41547607Y-34344930D02*
G01*
X41594076Y-34344930D01*
X41634202Y-34353459D01*
X41675533Y-34357530D01*
X41727460Y-34373282D01*
X41778115Y-34384049D01*
X41810527Y-34398479D01*
X41844321Y-34408731D01*
X41898023Y-34437435D01*
X41950000Y-34460577D01*
X41974165Y-34478134D01*
X41999878Y-34491878D01*
X42052333Y-34534927D01*
X42102218Y-34571170D01*
X42118412Y-34589155D01*
X42136225Y-34603774D01*
X42184089Y-34662097D01*
X42228115Y-34710993D01*
X42237365Y-34727015D01*
X42248121Y-34740121D01*
X42287908Y-34814557D01*
X42322191Y-34873937D01*
X42326134Y-34886074D01*
X42331268Y-34895678D01*
X42359568Y-34988971D01*
X42380333Y-35052879D01*
X42381064Y-35059834D01*
X42382469Y-35064466D01*
X42396151Y-35203385D01*
X42400000Y-35240000D01*
X42396151Y-35276617D01*
X42382469Y-35415533D01*
X42381064Y-35420164D01*
X42380333Y-35427121D01*
X42359563Y-35491042D01*
X42331268Y-35584321D01*
X42326135Y-35593923D01*
X42322191Y-35606063D01*
X42287901Y-35665454D01*
X42248121Y-35739878D01*
X42237367Y-35752981D01*
X42228115Y-35769007D01*
X42184080Y-35817912D01*
X42136225Y-35876225D01*
X42118415Y-35890840D01*
X42102218Y-35908830D01*
X42052323Y-35945080D01*
X41999878Y-35988121D01*
X41974171Y-36001861D01*
X41950000Y-36019423D01*
X41898012Y-36042569D01*
X41844321Y-36071268D01*
X41810534Y-36081517D01*
X41778115Y-36095951D01*
X41727449Y-36106720D01*
X41675533Y-36122469D01*
X41634210Y-36126538D01*
X41594076Y-36135070D01*
X41547597Y-36135070D01*
X41500000Y-36139758D01*
X41452403Y-36135070D01*
X41405924Y-36135070D01*
X41365789Y-36126539D01*
X41324466Y-36122469D01*
X41272546Y-36106719D01*
X41221885Y-36095951D01*
X41189467Y-36081517D01*
X41155678Y-36071268D01*
X41101981Y-36042566D01*
X41050000Y-36019423D01*
X41025831Y-36001863D01*
X41000121Y-35988121D01*
X40947667Y-35945074D01*
X40897782Y-35908830D01*
X40881587Y-35890843D01*
X40863774Y-35876225D01*
X40815908Y-35817899D01*
X40771885Y-35769007D01*
X40762634Y-35752985D01*
X40751878Y-35739878D01*
X40712085Y-35665431D01*
X40677809Y-35606063D01*
X40673866Y-35593928D01*
X40668731Y-35584321D01*
X40640421Y-35490996D01*
X40619667Y-35427121D01*
X40618936Y-35420169D01*
X40617530Y-35415533D01*
X40603832Y-35276466D01*
X40600000Y-35240000D01*
X40603832Y-35203536D01*
X40617530Y-35064466D01*
X40618936Y-35059829D01*
X40619667Y-35052879D01*
X40640416Y-34989017D01*
X40668731Y-34895678D01*
X40673866Y-34886069D01*
X40677809Y-34873937D01*
X40712078Y-34814581D01*
X40751878Y-34740121D01*
X40762636Y-34727011D01*
X40771885Y-34710993D01*
X40815898Y-34662110D01*
X40863774Y-34603774D01*
X40881590Y-34589152D01*
X40897782Y-34571170D01*
X40947657Y-34534933D01*
X41000121Y-34491878D01*
X41025836Y-34478132D01*
X41050000Y-34460577D01*
X41101970Y-34437438D01*
X41155678Y-34408731D01*
X41189474Y-34398478D01*
X41221885Y-34384049D01*
X41272535Y-34373282D01*
X41324466Y-34357530D01*
X41365798Y-34353459D01*
X41405924Y-34344930D01*
X41452393Y-34344930D01*
X41500000Y-34340241D01*
X41547607Y-34344930D01*
G37*
G36*
X58547607Y-34344930D02*
G01*
X58594076Y-34344930D01*
X58634202Y-34353459D01*
X58675533Y-34357530D01*
X58727460Y-34373282D01*
X58778115Y-34384049D01*
X58810527Y-34398479D01*
X58844321Y-34408731D01*
X58898023Y-34437435D01*
X58950000Y-34460577D01*
X58974165Y-34478134D01*
X58999878Y-34491878D01*
X59052333Y-34534927D01*
X59102218Y-34571170D01*
X59118412Y-34589155D01*
X59136225Y-34603774D01*
X59184089Y-34662097D01*
X59228115Y-34710993D01*
X59237365Y-34727015D01*
X59248121Y-34740121D01*
X59287908Y-34814557D01*
X59322191Y-34873937D01*
X59326134Y-34886074D01*
X59331268Y-34895678D01*
X59359568Y-34988971D01*
X59380333Y-35052879D01*
X59381064Y-35059834D01*
X59382469Y-35064466D01*
X59396151Y-35203385D01*
X59400000Y-35240000D01*
X59396151Y-35276617D01*
X59382469Y-35415533D01*
X59381064Y-35420164D01*
X59380333Y-35427121D01*
X59359563Y-35491042D01*
X59331268Y-35584321D01*
X59326135Y-35593923D01*
X59322191Y-35606063D01*
X59287901Y-35665454D01*
X59248121Y-35739878D01*
X59237367Y-35752981D01*
X59228115Y-35769007D01*
X59184080Y-35817912D01*
X59136225Y-35876225D01*
X59118415Y-35890840D01*
X59102218Y-35908830D01*
X59052323Y-35945080D01*
X58999878Y-35988121D01*
X58974171Y-36001861D01*
X58950000Y-36019423D01*
X58898012Y-36042569D01*
X58844321Y-36071268D01*
X58810534Y-36081517D01*
X58778115Y-36095951D01*
X58727449Y-36106720D01*
X58675533Y-36122469D01*
X58634210Y-36126538D01*
X58594076Y-36135070D01*
X58547597Y-36135070D01*
X58500000Y-36139758D01*
X58452403Y-36135070D01*
X58405924Y-36135070D01*
X58365789Y-36126539D01*
X58324466Y-36122469D01*
X58272546Y-36106719D01*
X58221885Y-36095951D01*
X58189467Y-36081517D01*
X58155678Y-36071268D01*
X58101981Y-36042566D01*
X58050000Y-36019423D01*
X58025831Y-36001863D01*
X58000121Y-35988121D01*
X57947667Y-35945074D01*
X57897782Y-35908830D01*
X57881587Y-35890843D01*
X57863774Y-35876225D01*
X57815908Y-35817899D01*
X57771885Y-35769007D01*
X57762634Y-35752985D01*
X57751878Y-35739878D01*
X57712085Y-35665431D01*
X57677809Y-35606063D01*
X57673866Y-35593928D01*
X57668731Y-35584321D01*
X57640421Y-35490996D01*
X57619667Y-35427121D01*
X57618936Y-35420169D01*
X57617530Y-35415533D01*
X57603832Y-35276466D01*
X57600000Y-35240000D01*
X57603832Y-35203536D01*
X57617530Y-35064466D01*
X57618936Y-35059829D01*
X57619667Y-35052879D01*
X57640416Y-34989017D01*
X57668731Y-34895678D01*
X57673866Y-34886069D01*
X57677809Y-34873937D01*
X57712078Y-34814581D01*
X57751878Y-34740121D01*
X57762636Y-34727011D01*
X57771885Y-34710993D01*
X57815898Y-34662110D01*
X57863774Y-34603774D01*
X57881590Y-34589152D01*
X57897782Y-34571170D01*
X57947657Y-34534933D01*
X58000121Y-34491878D01*
X58025836Y-34478132D01*
X58050000Y-34460577D01*
X58101970Y-34437438D01*
X58155678Y-34408731D01*
X58189474Y-34398478D01*
X58221885Y-34384049D01*
X58272535Y-34373282D01*
X58324466Y-34357530D01*
X58365798Y-34353459D01*
X58405924Y-34344930D01*
X58452393Y-34344930D01*
X58500000Y-34340241D01*
X58547607Y-34344930D01*
G37*
G36*
X49019134Y-35453806D02*
G01*
X49035355Y-35464645D01*
X49046194Y-35480866D01*
X49050000Y-35500000D01*
X49050000Y-35900000D01*
X49046194Y-35919134D01*
X49035355Y-35935355D01*
X49019134Y-35946194D01*
X49000000Y-35950000D01*
X48600000Y-35950000D01*
X48580866Y-35946194D01*
X48564645Y-35935355D01*
X48553806Y-35919134D01*
X48550000Y-35900000D01*
X48550000Y-35500000D01*
X48553806Y-35480866D01*
X48564645Y-35464645D01*
X48580866Y-35453806D01*
X48600000Y-35450000D01*
X49000000Y-35450000D01*
X49019134Y-35453806D01*
G37*
G36*
X51419134Y-35453806D02*
G01*
X51435355Y-35464645D01*
X51446194Y-35480866D01*
X51450000Y-35500000D01*
X51450000Y-35900000D01*
X51446194Y-35919134D01*
X51435355Y-35935355D01*
X51419134Y-35946194D01*
X51400000Y-35950000D01*
X51000000Y-35950000D01*
X50980866Y-35946194D01*
X50964645Y-35935355D01*
X50953806Y-35919134D01*
X50950000Y-35900000D01*
X50950000Y-35500000D01*
X50953806Y-35480866D01*
X50964645Y-35464645D01*
X50980866Y-35453806D01*
X51000000Y-35450000D01*
X51400000Y-35450000D01*
X51419134Y-35453806D01*
G37*
G36*
X52582710Y-34704463D02*
G01*
X52644350Y-34745650D01*
X52685537Y-34807290D01*
X52700000Y-34880000D01*
X52700000Y-35160000D01*
X52685537Y-35232710D01*
X52644350Y-35294350D01*
X52582710Y-35335537D01*
X52510000Y-35350000D01*
X52170000Y-35350000D01*
X52097290Y-35335537D01*
X52035650Y-35294350D01*
X51994463Y-35232710D01*
X51980000Y-35160000D01*
X51980000Y-34880000D01*
X51994463Y-34807290D01*
X52035650Y-34745650D01*
X52097290Y-34704463D01*
X52170000Y-34690000D01*
X52510000Y-34690000D01*
X52582710Y-34704463D01*
G37*
G36*
X49019134Y-34653806D02*
G01*
X49035355Y-34664645D01*
X49046194Y-34680866D01*
X49050000Y-34700000D01*
X49050000Y-35100000D01*
X49046194Y-35119134D01*
X49035355Y-35135355D01*
X49019134Y-35146194D01*
X49000000Y-35150000D01*
X48600000Y-35150000D01*
X48580866Y-35146194D01*
X48564645Y-35135355D01*
X48553806Y-35119134D01*
X48550000Y-35100000D01*
X48550000Y-34700000D01*
X48553806Y-34680866D01*
X48564645Y-34664645D01*
X48580866Y-34653806D01*
X48600000Y-34650000D01*
X49000000Y-34650000D01*
X49019134Y-34653806D01*
G37*
G36*
X51419134Y-34653806D02*
G01*
X51435355Y-34664645D01*
X51446194Y-34680866D01*
X51450000Y-34700000D01*
X51450000Y-35100000D01*
X51446194Y-35119134D01*
X51435355Y-35135355D01*
X51419134Y-35146194D01*
X51400000Y-35150000D01*
X51000000Y-35150000D01*
X50980866Y-35146194D01*
X50964645Y-35135355D01*
X50953806Y-35119134D01*
X50950000Y-35100000D01*
X50950000Y-34700000D01*
X50953806Y-34680866D01*
X50964645Y-34664645D01*
X50980866Y-34653806D01*
X51000000Y-34650000D01*
X51400000Y-34650000D01*
X51419134Y-34653806D01*
G37*
G36*
X46555796Y-33994082D02*
G01*
X46615815Y-34034185D01*
X46655918Y-34094204D01*
X46670000Y-34165000D01*
X46670000Y-34435000D01*
X46655918Y-34505796D01*
X46615815Y-34565815D01*
X46555796Y-34605918D01*
X46485000Y-34620000D01*
X46115000Y-34620000D01*
X46044204Y-34605918D01*
X45984185Y-34565815D01*
X45944082Y-34505796D01*
X45930000Y-34435000D01*
X45930000Y-34165000D01*
X45944082Y-34094204D01*
X45984185Y-34034185D01*
X46044204Y-33994082D01*
X46115000Y-33980000D01*
X46485000Y-33980000D01*
X46555796Y-33994082D01*
G37*
G36*
X52592710Y-33764463D02*
G01*
X52654350Y-33805650D01*
X52695537Y-33867290D01*
X52710000Y-33940000D01*
X52710000Y-34220000D01*
X52695537Y-34292710D01*
X52654350Y-34354350D01*
X52592710Y-34395537D01*
X52520000Y-34410000D01*
X52180000Y-34410000D01*
X52107290Y-34395537D01*
X52045650Y-34354350D01*
X52004463Y-34292710D01*
X51990000Y-34220000D01*
X51990000Y-33940000D01*
X52004463Y-33867290D01*
X52045650Y-33805650D01*
X52107290Y-33764463D01*
X52180000Y-33750000D01*
X52520000Y-33750000D01*
X52592710Y-33764463D01*
G37*
G36*
X49019134Y-33853806D02*
G01*
X49035355Y-33864645D01*
X49046194Y-33880866D01*
X49050000Y-33900000D01*
X49050000Y-34300000D01*
X49046194Y-34319134D01*
X49035355Y-34335355D01*
X49019134Y-34346194D01*
X49000000Y-34350000D01*
X48600000Y-34350000D01*
X48580866Y-34346194D01*
X48564645Y-34335355D01*
X48553806Y-34319134D01*
X48550000Y-34300000D01*
X48550000Y-33900000D01*
X48553806Y-33880866D01*
X48564645Y-33864645D01*
X48580866Y-33853806D01*
X48600000Y-33850000D01*
X49000000Y-33850000D01*
X49019134Y-33853806D01*
G37*
G36*
X51419134Y-33853806D02*
G01*
X51435355Y-33864645D01*
X51446194Y-33880866D01*
X51450000Y-33900000D01*
X51450000Y-34300000D01*
X51446194Y-34319134D01*
X51435355Y-34335355D01*
X51419134Y-34346194D01*
X51400000Y-34350000D01*
X51000000Y-34350000D01*
X50980866Y-34346194D01*
X50964645Y-34335355D01*
X50953806Y-34319134D01*
X50950000Y-34300000D01*
X50950000Y-33900000D01*
X50953806Y-33880866D01*
X50964645Y-33864645D01*
X50980866Y-33853806D01*
X51000000Y-33850000D01*
X51400000Y-33850000D01*
X51419134Y-33853806D01*
G37*
G36*
X46555796Y-32974082D02*
G01*
X46615815Y-33014185D01*
X46655918Y-33074204D01*
X46670000Y-33145000D01*
X46670000Y-33415000D01*
X46655918Y-33485796D01*
X46615815Y-33545815D01*
X46555796Y-33585918D01*
X46485000Y-33600000D01*
X46115000Y-33600000D01*
X46044204Y-33585918D01*
X45984185Y-33545815D01*
X45944082Y-33485796D01*
X45930000Y-33415000D01*
X45930000Y-33145000D01*
X45944082Y-33074204D01*
X45984185Y-33014185D01*
X46044204Y-32974082D01*
X46115000Y-32960000D01*
X46485000Y-32960000D01*
X46555796Y-32974082D01*
G37*
G36*
X41547607Y-31804930D02*
G01*
X41594076Y-31804930D01*
X41634202Y-31813459D01*
X41675533Y-31817530D01*
X41727460Y-31833282D01*
X41778115Y-31844049D01*
X41810527Y-31858479D01*
X41844321Y-31868731D01*
X41898023Y-31897435D01*
X41950000Y-31920577D01*
X41974165Y-31938134D01*
X41999878Y-31951878D01*
X42052333Y-31994927D01*
X42102218Y-32031170D01*
X42118412Y-32049155D01*
X42136225Y-32063774D01*
X42184089Y-32122097D01*
X42228115Y-32170993D01*
X42237365Y-32187015D01*
X42248121Y-32200121D01*
X42287908Y-32274557D01*
X42322191Y-32333937D01*
X42326134Y-32346074D01*
X42331268Y-32355678D01*
X42359568Y-32448971D01*
X42380333Y-32512879D01*
X42381064Y-32519834D01*
X42382469Y-32524466D01*
X42396151Y-32663385D01*
X42400000Y-32700000D01*
X42396151Y-32736617D01*
X42382469Y-32875533D01*
X42381064Y-32880164D01*
X42380333Y-32887121D01*
X42359563Y-32951042D01*
X42331268Y-33044321D01*
X42326135Y-33053923D01*
X42322191Y-33066063D01*
X42287901Y-33125454D01*
X42248121Y-33199878D01*
X42237367Y-33212981D01*
X42228115Y-33229007D01*
X42184080Y-33277912D01*
X42136225Y-33336225D01*
X42118415Y-33350840D01*
X42102218Y-33368830D01*
X42052323Y-33405080D01*
X41999878Y-33448121D01*
X41974171Y-33461861D01*
X41950000Y-33479423D01*
X41898012Y-33502569D01*
X41844321Y-33531268D01*
X41810534Y-33541517D01*
X41778115Y-33555951D01*
X41727449Y-33566720D01*
X41675533Y-33582469D01*
X41634210Y-33586538D01*
X41594076Y-33595070D01*
X41547597Y-33595070D01*
X41500000Y-33599758D01*
X41452403Y-33595070D01*
X41405924Y-33595070D01*
X41365789Y-33586539D01*
X41324466Y-33582469D01*
X41272546Y-33566719D01*
X41221885Y-33555951D01*
X41189467Y-33541517D01*
X41155678Y-33531268D01*
X41101981Y-33502566D01*
X41050000Y-33479423D01*
X41025831Y-33461863D01*
X41000121Y-33448121D01*
X40947667Y-33405074D01*
X40897782Y-33368830D01*
X40881587Y-33350843D01*
X40863774Y-33336225D01*
X40815908Y-33277899D01*
X40771885Y-33229007D01*
X40762634Y-33212985D01*
X40751878Y-33199878D01*
X40712085Y-33125431D01*
X40677809Y-33066063D01*
X40673866Y-33053928D01*
X40668731Y-33044321D01*
X40640421Y-32950996D01*
X40619667Y-32887121D01*
X40618936Y-32880169D01*
X40617530Y-32875533D01*
X40603832Y-32736466D01*
X40600000Y-32700000D01*
X40603832Y-32663536D01*
X40617530Y-32524466D01*
X40618936Y-32519829D01*
X40619667Y-32512879D01*
X40640416Y-32449017D01*
X40668731Y-32355678D01*
X40673866Y-32346069D01*
X40677809Y-32333937D01*
X40712078Y-32274581D01*
X40751878Y-32200121D01*
X40762636Y-32187011D01*
X40771885Y-32170993D01*
X40815898Y-32122110D01*
X40863774Y-32063774D01*
X40881590Y-32049152D01*
X40897782Y-32031170D01*
X40947657Y-31994933D01*
X41000121Y-31951878D01*
X41025836Y-31938132D01*
X41050000Y-31920577D01*
X41101970Y-31897438D01*
X41155678Y-31868731D01*
X41189474Y-31858478D01*
X41221885Y-31844049D01*
X41272535Y-31833282D01*
X41324466Y-31817530D01*
X41365798Y-31813459D01*
X41405924Y-31804930D01*
X41452393Y-31804930D01*
X41500000Y-31800241D01*
X41547607Y-31804930D01*
G37*
G36*
X58547607Y-31804930D02*
G01*
X58594076Y-31804930D01*
X58634202Y-31813459D01*
X58675533Y-31817530D01*
X58727460Y-31833282D01*
X58778115Y-31844049D01*
X58810527Y-31858479D01*
X58844321Y-31868731D01*
X58898023Y-31897435D01*
X58950000Y-31920577D01*
X58974165Y-31938134D01*
X58999878Y-31951878D01*
X59052333Y-31994927D01*
X59102218Y-32031170D01*
X59118412Y-32049155D01*
X59136225Y-32063774D01*
X59184089Y-32122097D01*
X59228115Y-32170993D01*
X59237365Y-32187015D01*
X59248121Y-32200121D01*
X59287908Y-32274557D01*
X59322191Y-32333937D01*
X59326134Y-32346074D01*
X59331268Y-32355678D01*
X59359568Y-32448971D01*
X59380333Y-32512879D01*
X59381064Y-32519834D01*
X59382469Y-32524466D01*
X59396151Y-32663385D01*
X59400000Y-32700000D01*
X59396151Y-32736617D01*
X59382469Y-32875533D01*
X59381064Y-32880164D01*
X59380333Y-32887121D01*
X59359563Y-32951042D01*
X59331268Y-33044321D01*
X59326135Y-33053923D01*
X59322191Y-33066063D01*
X59287901Y-33125454D01*
X59248121Y-33199878D01*
X59237367Y-33212981D01*
X59228115Y-33229007D01*
X59184080Y-33277912D01*
X59136225Y-33336225D01*
X59118415Y-33350840D01*
X59102218Y-33368830D01*
X59052323Y-33405080D01*
X58999878Y-33448121D01*
X58974171Y-33461861D01*
X58950000Y-33479423D01*
X58898012Y-33502569D01*
X58844321Y-33531268D01*
X58810534Y-33541517D01*
X58778115Y-33555951D01*
X58727449Y-33566720D01*
X58675533Y-33582469D01*
X58634210Y-33586538D01*
X58594076Y-33595070D01*
X58547597Y-33595070D01*
X58500000Y-33599758D01*
X58452403Y-33595070D01*
X58405924Y-33595070D01*
X58365789Y-33586539D01*
X58324466Y-33582469D01*
X58272546Y-33566719D01*
X58221885Y-33555951D01*
X58189467Y-33541517D01*
X58155678Y-33531268D01*
X58101981Y-33502566D01*
X58050000Y-33479423D01*
X58025831Y-33461863D01*
X58000121Y-33448121D01*
X57947667Y-33405074D01*
X57897782Y-33368830D01*
X57881587Y-33350843D01*
X57863774Y-33336225D01*
X57815908Y-33277899D01*
X57771885Y-33229007D01*
X57762634Y-33212985D01*
X57751878Y-33199878D01*
X57712085Y-33125431D01*
X57677809Y-33066063D01*
X57673866Y-33053928D01*
X57668731Y-33044321D01*
X57640421Y-32950996D01*
X57619667Y-32887121D01*
X57618936Y-32880169D01*
X57617530Y-32875533D01*
X57603832Y-32736466D01*
X57600000Y-32700000D01*
X57603832Y-32663536D01*
X57617530Y-32524466D01*
X57618936Y-32519829D01*
X57619667Y-32512879D01*
X57640416Y-32449017D01*
X57668731Y-32355678D01*
X57673866Y-32346069D01*
X57677809Y-32333937D01*
X57712078Y-32274581D01*
X57751878Y-32200121D01*
X57762636Y-32187011D01*
X57771885Y-32170993D01*
X57815898Y-32122110D01*
X57863774Y-32063774D01*
X57881590Y-32049152D01*
X57897782Y-32031170D01*
X57947657Y-31994933D01*
X58000121Y-31951878D01*
X58025836Y-31938132D01*
X58050000Y-31920577D01*
X58101970Y-31897438D01*
X58155678Y-31868731D01*
X58189474Y-31858478D01*
X58221885Y-31844049D01*
X58272535Y-31833282D01*
X58324466Y-31817530D01*
X58365798Y-31813459D01*
X58405924Y-31804930D01*
X58452393Y-31804930D01*
X58500000Y-31800241D01*
X58547607Y-31804930D01*
G37*
G36*
X49019134Y-33053806D02*
G01*
X49035355Y-33064645D01*
X49046194Y-33080866D01*
X49050000Y-33100000D01*
X49050000Y-33500000D01*
X49046194Y-33519134D01*
X49035355Y-33535355D01*
X49019134Y-33546194D01*
X49000000Y-33550000D01*
X48600000Y-33550000D01*
X48580866Y-33546194D01*
X48564645Y-33535355D01*
X48553806Y-33519134D01*
X48550000Y-33500000D01*
X48550000Y-33100000D01*
X48553806Y-33080866D01*
X48564645Y-33064645D01*
X48580866Y-33053806D01*
X48600000Y-33050000D01*
X49000000Y-33050000D01*
X49019134Y-33053806D01*
G37*
G36*
X51419134Y-33053806D02*
G01*
X51435355Y-33064645D01*
X51446194Y-33080866D01*
X51450000Y-33100000D01*
X51450000Y-33500000D01*
X51446194Y-33519134D01*
X51435355Y-33535355D01*
X51419134Y-33546194D01*
X51400000Y-33550000D01*
X51000000Y-33550000D01*
X50980866Y-33546194D01*
X50964645Y-33535355D01*
X50953806Y-33519134D01*
X50950000Y-33500000D01*
X50950000Y-33100000D01*
X50953806Y-33080866D01*
X50964645Y-33064645D01*
X50980866Y-33053806D01*
X51000000Y-33050000D01*
X51400000Y-33050000D01*
X51419134Y-33053806D01*
G37*
G36*
X52592710Y-32804463D02*
G01*
X52654350Y-32845650D01*
X52695537Y-32907290D01*
X52710000Y-32980000D01*
X52710000Y-33260000D01*
X52695537Y-33332710D01*
X52654350Y-33394350D01*
X52592710Y-33435537D01*
X52520000Y-33450000D01*
X52180000Y-33450000D01*
X52107290Y-33435537D01*
X52045650Y-33394350D01*
X52004463Y-33332710D01*
X51990000Y-33260000D01*
X51990000Y-32980000D01*
X52004463Y-32907290D01*
X52045650Y-32845650D01*
X52107290Y-32804463D01*
X52180000Y-32790000D01*
X52520000Y-32790000D01*
X52592710Y-32804463D01*
G37*
G36*
X46795796Y-30874082D02*
G01*
X46855815Y-30914185D01*
X46895918Y-30974204D01*
X46910000Y-31045000D01*
X46910000Y-31315000D01*
X46895918Y-31385796D01*
X46855815Y-31445815D01*
X46795796Y-31485918D01*
X46725000Y-31500000D01*
X46355000Y-31500000D01*
X46284204Y-31485918D01*
X46224185Y-31445815D01*
X46184082Y-31385796D01*
X46170000Y-31315000D01*
X46170000Y-31045000D01*
X46184082Y-30974204D01*
X46224185Y-30914185D01*
X46284204Y-30874082D01*
X46355000Y-30860000D01*
X46725000Y-30860000D01*
X46795796Y-30874082D01*
G37*
G36*
X41547607Y-29264930D02*
G01*
X41594076Y-29264930D01*
X41634202Y-29273459D01*
X41675533Y-29277530D01*
X41727460Y-29293282D01*
X41778115Y-29304049D01*
X41810527Y-29318479D01*
X41844321Y-29328731D01*
X41898023Y-29357435D01*
X41950000Y-29380577D01*
X41974165Y-29398134D01*
X41999878Y-29411878D01*
X42052333Y-29454927D01*
X42102218Y-29491170D01*
X42118412Y-29509155D01*
X42136225Y-29523774D01*
X42184089Y-29582097D01*
X42228115Y-29630993D01*
X42237365Y-29647015D01*
X42248121Y-29660121D01*
X42287908Y-29734557D01*
X42322191Y-29793937D01*
X42326134Y-29806074D01*
X42331268Y-29815678D01*
X42359568Y-29908971D01*
X42380333Y-29972879D01*
X42381064Y-29979834D01*
X42382469Y-29984466D01*
X42396151Y-30123385D01*
X42400000Y-30160000D01*
X42396151Y-30196617D01*
X42382469Y-30335533D01*
X42381064Y-30340164D01*
X42380333Y-30347121D01*
X42359563Y-30411042D01*
X42331268Y-30504321D01*
X42326135Y-30513923D01*
X42322191Y-30526063D01*
X42287901Y-30585454D01*
X42248121Y-30659878D01*
X42237367Y-30672981D01*
X42228115Y-30689007D01*
X42184080Y-30737912D01*
X42136225Y-30796225D01*
X42118415Y-30810840D01*
X42102218Y-30828830D01*
X42052323Y-30865080D01*
X41999878Y-30908121D01*
X41974171Y-30921861D01*
X41950000Y-30939423D01*
X41898012Y-30962569D01*
X41844321Y-30991268D01*
X41810534Y-31001517D01*
X41778115Y-31015951D01*
X41727449Y-31026720D01*
X41675533Y-31042469D01*
X41634210Y-31046538D01*
X41594076Y-31055070D01*
X41547597Y-31055070D01*
X41500000Y-31059758D01*
X41452403Y-31055070D01*
X41405924Y-31055070D01*
X41365789Y-31046539D01*
X41324466Y-31042469D01*
X41272546Y-31026719D01*
X41221885Y-31015951D01*
X41189467Y-31001517D01*
X41155678Y-30991268D01*
X41101981Y-30962566D01*
X41050000Y-30939423D01*
X41025831Y-30921863D01*
X41000121Y-30908121D01*
X40947667Y-30865074D01*
X40897782Y-30828830D01*
X40881587Y-30810843D01*
X40863774Y-30796225D01*
X40815908Y-30737899D01*
X40771885Y-30689007D01*
X40762634Y-30672985D01*
X40751878Y-30659878D01*
X40712085Y-30585431D01*
X40677809Y-30526063D01*
X40673866Y-30513928D01*
X40668731Y-30504321D01*
X40640421Y-30410996D01*
X40619667Y-30347121D01*
X40618936Y-30340169D01*
X40617530Y-30335533D01*
X40603832Y-30196466D01*
X40600000Y-30160000D01*
X40603832Y-30123536D01*
X40617530Y-29984466D01*
X40618936Y-29979829D01*
X40619667Y-29972879D01*
X40640416Y-29909017D01*
X40668731Y-29815678D01*
X40673866Y-29806069D01*
X40677809Y-29793937D01*
X40712078Y-29734581D01*
X40751878Y-29660121D01*
X40762636Y-29647011D01*
X40771885Y-29630993D01*
X40815898Y-29582110D01*
X40863774Y-29523774D01*
X40881590Y-29509152D01*
X40897782Y-29491170D01*
X40947657Y-29454933D01*
X41000121Y-29411878D01*
X41025836Y-29398132D01*
X41050000Y-29380577D01*
X41101970Y-29357438D01*
X41155678Y-29328731D01*
X41189474Y-29318478D01*
X41221885Y-29304049D01*
X41272535Y-29293282D01*
X41324466Y-29277530D01*
X41365798Y-29273459D01*
X41405924Y-29264930D01*
X41452393Y-29264930D01*
X41500000Y-29260241D01*
X41547607Y-29264930D01*
G37*
G36*
X58547607Y-29264930D02*
G01*
X58594076Y-29264930D01*
X58634202Y-29273459D01*
X58675533Y-29277530D01*
X58727460Y-29293282D01*
X58778115Y-29304049D01*
X58810527Y-29318479D01*
X58844321Y-29328731D01*
X58898023Y-29357435D01*
X58950000Y-29380577D01*
X58974165Y-29398134D01*
X58999878Y-29411878D01*
X59052333Y-29454927D01*
X59102218Y-29491170D01*
X59118412Y-29509155D01*
X59136225Y-29523774D01*
X59184089Y-29582097D01*
X59228115Y-29630993D01*
X59237365Y-29647015D01*
X59248121Y-29660121D01*
X59287908Y-29734557D01*
X59322191Y-29793937D01*
X59326134Y-29806074D01*
X59331268Y-29815678D01*
X59359568Y-29908971D01*
X59380333Y-29972879D01*
X59381064Y-29979834D01*
X59382469Y-29984466D01*
X59396151Y-30123385D01*
X59400000Y-30160000D01*
X59396151Y-30196617D01*
X59382469Y-30335533D01*
X59381064Y-30340164D01*
X59380333Y-30347121D01*
X59359563Y-30411042D01*
X59331268Y-30504321D01*
X59326135Y-30513923D01*
X59322191Y-30526063D01*
X59287901Y-30585454D01*
X59248121Y-30659878D01*
X59237367Y-30672981D01*
X59228115Y-30689007D01*
X59184080Y-30737912D01*
X59136225Y-30796225D01*
X59118415Y-30810840D01*
X59102218Y-30828830D01*
X59052323Y-30865080D01*
X58999878Y-30908121D01*
X58974171Y-30921861D01*
X58950000Y-30939423D01*
X58898012Y-30962569D01*
X58844321Y-30991268D01*
X58810534Y-31001517D01*
X58778115Y-31015951D01*
X58727449Y-31026720D01*
X58675533Y-31042469D01*
X58634210Y-31046538D01*
X58594076Y-31055070D01*
X58547597Y-31055070D01*
X58500000Y-31059758D01*
X58452403Y-31055070D01*
X58405924Y-31055070D01*
X58365789Y-31046539D01*
X58324466Y-31042469D01*
X58272546Y-31026719D01*
X58221885Y-31015951D01*
X58189467Y-31001517D01*
X58155678Y-30991268D01*
X58101981Y-30962566D01*
X58050000Y-30939423D01*
X58025831Y-30921863D01*
X58000121Y-30908121D01*
X57947667Y-30865074D01*
X57897782Y-30828830D01*
X57881587Y-30810843D01*
X57863774Y-30796225D01*
X57815908Y-30737899D01*
X57771885Y-30689007D01*
X57762634Y-30672985D01*
X57751878Y-30659878D01*
X57712085Y-30585431D01*
X57677809Y-30526063D01*
X57673866Y-30513928D01*
X57668731Y-30504321D01*
X57640421Y-30410996D01*
X57619667Y-30347121D01*
X57618936Y-30340169D01*
X57617530Y-30335533D01*
X57603832Y-30196466D01*
X57600000Y-30160000D01*
X57603832Y-30123536D01*
X57617530Y-29984466D01*
X57618936Y-29979829D01*
X57619667Y-29972879D01*
X57640416Y-29909017D01*
X57668731Y-29815678D01*
X57673866Y-29806069D01*
X57677809Y-29793937D01*
X57712078Y-29734581D01*
X57751878Y-29660121D01*
X57762636Y-29647011D01*
X57771885Y-29630993D01*
X57815898Y-29582110D01*
X57863774Y-29523774D01*
X57881590Y-29509152D01*
X57897782Y-29491170D01*
X57947657Y-29454933D01*
X58000121Y-29411878D01*
X58025836Y-29398132D01*
X58050000Y-29380577D01*
X58101970Y-29357438D01*
X58155678Y-29328731D01*
X58189474Y-29318478D01*
X58221885Y-29304049D01*
X58272535Y-29293282D01*
X58324466Y-29277530D01*
X58365798Y-29273459D01*
X58405924Y-29264930D01*
X58452393Y-29264930D01*
X58500000Y-29260241D01*
X58547607Y-29264930D01*
G37*
G36*
X46795796Y-29854082D02*
G01*
X46855815Y-29894185D01*
X46895918Y-29954204D01*
X46910000Y-30025000D01*
X46910000Y-30295000D01*
X46895918Y-30365796D01*
X46855815Y-30425815D01*
X46795796Y-30465918D01*
X46725000Y-30480000D01*
X46355000Y-30480000D01*
X46284204Y-30465918D01*
X46224185Y-30425815D01*
X46184082Y-30365796D01*
X46170000Y-30295000D01*
X46170000Y-30025000D01*
X46184082Y-29954204D01*
X46224185Y-29894185D01*
X46284204Y-29854082D01*
X46355000Y-29840000D01*
X46725000Y-29840000D01*
X46795796Y-29854082D01*
G37*
G36*
X49732710Y-29144463D02*
G01*
X49794350Y-29185650D01*
X49835537Y-29247290D01*
X49850000Y-29320000D01*
X49850000Y-29660000D01*
X49835537Y-29732710D01*
X49794350Y-29794350D01*
X49732710Y-29835537D01*
X49660000Y-29850000D01*
X49380000Y-29850000D01*
X49307290Y-29835537D01*
X49245650Y-29794350D01*
X49204463Y-29732710D01*
X49190000Y-29660000D01*
X49190000Y-29320000D01*
X49204463Y-29247290D01*
X49245650Y-29185650D01*
X49307290Y-29144463D01*
X49380000Y-29130000D01*
X49660000Y-29130000D01*
X49732710Y-29144463D01*
G37*
G36*
X50692710Y-29144463D02*
G01*
X50754350Y-29185650D01*
X50795537Y-29247290D01*
X50810000Y-29320000D01*
X50810000Y-29660000D01*
X50795537Y-29732710D01*
X50754350Y-29794350D01*
X50692710Y-29835537D01*
X50620000Y-29850000D01*
X50340000Y-29850000D01*
X50267290Y-29835537D01*
X50205650Y-29794350D01*
X50164463Y-29732710D01*
X50150000Y-29660000D01*
X50150000Y-29320000D01*
X50164463Y-29247290D01*
X50205650Y-29185650D01*
X50267290Y-29144463D01*
X50340000Y-29130000D01*
X50620000Y-29130000D01*
X50692710Y-29144463D01*
G37*
G36*
X49456403Y-28462418D02*
G01*
X49505066Y-28494934D01*
X49537582Y-28543597D01*
X49549000Y-28601000D01*
X49537582Y-28658403D01*
X49505066Y-28707066D01*
X49456403Y-28739582D01*
X49399000Y-28751000D01*
X49341597Y-28739582D01*
X49292934Y-28707066D01*
X49260418Y-28658403D01*
X49249000Y-28601000D01*
X49260418Y-28543597D01*
X49292934Y-28494934D01*
X49341597Y-28462418D01*
X49399000Y-28451000D01*
X49456403Y-28462418D01*
G37*
G36*
X50022403Y-28462418D02*
G01*
X50071066Y-28494934D01*
X50103582Y-28543597D01*
X50115000Y-28601000D01*
X50103582Y-28658403D01*
X50071066Y-28707066D01*
X50022403Y-28739582D01*
X49965000Y-28751000D01*
X49907597Y-28739582D01*
X49858934Y-28707066D01*
X49826418Y-28658403D01*
X49815000Y-28601000D01*
X49826418Y-28543597D01*
X49858934Y-28494934D01*
X49907597Y-28462418D01*
X49965000Y-28451000D01*
X50022403Y-28462418D01*
G37*
G36*
X50588403Y-28462418D02*
G01*
X50637066Y-28494934D01*
X50669582Y-28543597D01*
X50681000Y-28601000D01*
X50669582Y-28658403D01*
X50637066Y-28707066D01*
X50588403Y-28739582D01*
X50531000Y-28751000D01*
X50473597Y-28739582D01*
X50424934Y-28707066D01*
X50392418Y-28658403D01*
X50381000Y-28601000D01*
X50392418Y-28543597D01*
X50424934Y-28494934D01*
X50473597Y-28462418D01*
X50531000Y-28451000D01*
X50588403Y-28462418D01*
G37*
G36*
X41547607Y-26724930D02*
G01*
X41594076Y-26724930D01*
X41634202Y-26733459D01*
X41675533Y-26737530D01*
X41727460Y-26753282D01*
X41778115Y-26764049D01*
X41810527Y-26778479D01*
X41844321Y-26788731D01*
X41898023Y-26817435D01*
X41950000Y-26840577D01*
X41974165Y-26858134D01*
X41999878Y-26871878D01*
X42052333Y-26914927D01*
X42102218Y-26951170D01*
X42118412Y-26969155D01*
X42136225Y-26983774D01*
X42184089Y-27042097D01*
X42228115Y-27090993D01*
X42237365Y-27107015D01*
X42248121Y-27120121D01*
X42287908Y-27194557D01*
X42322191Y-27253937D01*
X42326134Y-27266074D01*
X42331268Y-27275678D01*
X42359568Y-27368971D01*
X42380333Y-27432879D01*
X42381064Y-27439834D01*
X42382469Y-27444466D01*
X42396151Y-27583385D01*
X42400000Y-27620000D01*
X42396151Y-27656617D01*
X42382469Y-27795533D01*
X42381064Y-27800164D01*
X42380333Y-27807121D01*
X42359563Y-27871042D01*
X42331268Y-27964321D01*
X42326135Y-27973923D01*
X42322191Y-27986063D01*
X42287901Y-28045454D01*
X42248121Y-28119878D01*
X42237367Y-28132981D01*
X42228115Y-28149007D01*
X42184080Y-28197912D01*
X42136225Y-28256225D01*
X42118415Y-28270840D01*
X42102218Y-28288830D01*
X42052323Y-28325080D01*
X41999878Y-28368121D01*
X41974171Y-28381861D01*
X41950000Y-28399423D01*
X41898012Y-28422569D01*
X41844321Y-28451268D01*
X41810534Y-28461517D01*
X41778115Y-28475951D01*
X41727449Y-28486720D01*
X41675533Y-28502469D01*
X41634210Y-28506538D01*
X41594076Y-28515070D01*
X41547597Y-28515070D01*
X41500000Y-28519758D01*
X41452403Y-28515070D01*
X41405924Y-28515070D01*
X41365789Y-28506539D01*
X41324466Y-28502469D01*
X41272546Y-28486719D01*
X41221885Y-28475951D01*
X41189467Y-28461517D01*
X41155678Y-28451268D01*
X41101981Y-28422566D01*
X41050000Y-28399423D01*
X41025831Y-28381863D01*
X41000121Y-28368121D01*
X40947667Y-28325074D01*
X40897782Y-28288830D01*
X40881587Y-28270843D01*
X40863774Y-28256225D01*
X40815908Y-28197899D01*
X40771885Y-28149007D01*
X40762634Y-28132985D01*
X40751878Y-28119878D01*
X40712085Y-28045431D01*
X40677809Y-27986063D01*
X40673866Y-27973928D01*
X40668731Y-27964321D01*
X40640421Y-27870996D01*
X40619667Y-27807121D01*
X40618936Y-27800169D01*
X40617530Y-27795533D01*
X40603832Y-27656466D01*
X40600000Y-27620000D01*
X40603832Y-27583536D01*
X40617530Y-27444466D01*
X40618936Y-27439829D01*
X40619667Y-27432879D01*
X40640416Y-27369017D01*
X40668731Y-27275678D01*
X40673866Y-27266069D01*
X40677809Y-27253937D01*
X40712078Y-27194581D01*
X40751878Y-27120121D01*
X40762636Y-27107011D01*
X40771885Y-27090993D01*
X40815898Y-27042110D01*
X40863774Y-26983774D01*
X40881590Y-26969152D01*
X40897782Y-26951170D01*
X40947657Y-26914933D01*
X41000121Y-26871878D01*
X41025836Y-26858132D01*
X41050000Y-26840577D01*
X41101970Y-26817438D01*
X41155678Y-26788731D01*
X41189474Y-26778478D01*
X41221885Y-26764049D01*
X41272535Y-26753282D01*
X41324466Y-26737530D01*
X41365798Y-26733459D01*
X41405924Y-26724930D01*
X41452393Y-26724930D01*
X41500000Y-26720241D01*
X41547607Y-26724930D01*
G37*
G36*
X58547607Y-26724930D02*
G01*
X58594076Y-26724930D01*
X58634202Y-26733459D01*
X58675533Y-26737530D01*
X58727460Y-26753282D01*
X58778115Y-26764049D01*
X58810527Y-26778479D01*
X58844321Y-26788731D01*
X58898023Y-26817435D01*
X58950000Y-26840577D01*
X58974165Y-26858134D01*
X58999878Y-26871878D01*
X59052333Y-26914927D01*
X59102218Y-26951170D01*
X59118412Y-26969155D01*
X59136225Y-26983774D01*
X59184089Y-27042097D01*
X59228115Y-27090993D01*
X59237365Y-27107015D01*
X59248121Y-27120121D01*
X59287908Y-27194557D01*
X59322191Y-27253937D01*
X59326134Y-27266074D01*
X59331268Y-27275678D01*
X59359568Y-27368971D01*
X59380333Y-27432879D01*
X59381064Y-27439834D01*
X59382469Y-27444466D01*
X59396151Y-27583385D01*
X59400000Y-27620000D01*
X59396151Y-27656617D01*
X59382469Y-27795533D01*
X59381064Y-27800164D01*
X59380333Y-27807121D01*
X59359563Y-27871042D01*
X59331268Y-27964321D01*
X59326135Y-27973923D01*
X59322191Y-27986063D01*
X59287901Y-28045454D01*
X59248121Y-28119878D01*
X59237367Y-28132981D01*
X59228115Y-28149007D01*
X59184080Y-28197912D01*
X59136225Y-28256225D01*
X59118415Y-28270840D01*
X59102218Y-28288830D01*
X59052323Y-28325080D01*
X58999878Y-28368121D01*
X58974171Y-28381861D01*
X58950000Y-28399423D01*
X58898012Y-28422569D01*
X58844321Y-28451268D01*
X58810534Y-28461517D01*
X58778115Y-28475951D01*
X58727449Y-28486720D01*
X58675533Y-28502469D01*
X58634210Y-28506538D01*
X58594076Y-28515070D01*
X58547597Y-28515070D01*
X58500000Y-28519758D01*
X58452403Y-28515070D01*
X58405924Y-28515070D01*
X58365789Y-28506539D01*
X58324466Y-28502469D01*
X58272546Y-28486719D01*
X58221885Y-28475951D01*
X58189467Y-28461517D01*
X58155678Y-28451268D01*
X58101981Y-28422566D01*
X58050000Y-28399423D01*
X58025831Y-28381863D01*
X58000121Y-28368121D01*
X57947667Y-28325074D01*
X57897782Y-28288830D01*
X57881587Y-28270843D01*
X57863774Y-28256225D01*
X57815908Y-28197899D01*
X57771885Y-28149007D01*
X57762634Y-28132985D01*
X57751878Y-28119878D01*
X57712085Y-28045431D01*
X57677809Y-27986063D01*
X57673866Y-27973928D01*
X57668731Y-27964321D01*
X57640421Y-27870996D01*
X57619667Y-27807121D01*
X57618936Y-27800169D01*
X57617530Y-27795533D01*
X57603832Y-27656466D01*
X57600000Y-27620000D01*
X57603832Y-27583536D01*
X57617530Y-27444466D01*
X57618936Y-27439829D01*
X57619667Y-27432879D01*
X57640416Y-27369017D01*
X57668731Y-27275678D01*
X57673866Y-27266069D01*
X57677809Y-27253937D01*
X57712078Y-27194581D01*
X57751878Y-27120121D01*
X57762636Y-27107011D01*
X57771885Y-27090993D01*
X57815898Y-27042110D01*
X57863774Y-26983774D01*
X57881590Y-26969152D01*
X57897782Y-26951170D01*
X57947657Y-26914933D01*
X58000121Y-26871878D01*
X58025836Y-26858132D01*
X58050000Y-26840577D01*
X58101970Y-26817438D01*
X58155678Y-26788731D01*
X58189474Y-26778478D01*
X58221885Y-26764049D01*
X58272535Y-26753282D01*
X58324466Y-26737530D01*
X58365798Y-26733459D01*
X58405924Y-26724930D01*
X58452393Y-26724930D01*
X58500000Y-26720241D01*
X58547607Y-26724930D01*
G37*
G36*
X49739403Y-28179418D02*
G01*
X49788066Y-28211934D01*
X49820582Y-28260597D01*
X49832000Y-28318000D01*
X49820582Y-28375403D01*
X49788066Y-28424066D01*
X49739403Y-28456582D01*
X49682000Y-28468000D01*
X49624597Y-28456582D01*
X49575934Y-28424066D01*
X49543418Y-28375403D01*
X49532000Y-28318000D01*
X49543418Y-28260597D01*
X49575934Y-28211934D01*
X49624597Y-28179418D01*
X49682000Y-28168000D01*
X49739403Y-28179418D01*
G37*
G36*
X50305403Y-28179418D02*
G01*
X50354066Y-28211934D01*
X50386582Y-28260597D01*
X50398000Y-28318000D01*
X50386582Y-28375403D01*
X50354066Y-28424066D01*
X50305403Y-28456582D01*
X50248000Y-28468000D01*
X50190597Y-28456582D01*
X50141934Y-28424066D01*
X50109418Y-28375403D01*
X50098000Y-28318000D01*
X50109418Y-28260597D01*
X50141934Y-28211934D01*
X50190597Y-28179418D01*
X50248000Y-28168000D01*
X50305403Y-28179418D01*
G37*
G36*
X49456403Y-27896418D02*
G01*
X49505066Y-27928934D01*
X49537582Y-27977597D01*
X49549000Y-28035000D01*
X49537582Y-28092403D01*
X49505066Y-28141066D01*
X49456403Y-28173582D01*
X49399000Y-28185000D01*
X49341597Y-28173582D01*
X49292934Y-28141066D01*
X49260418Y-28092403D01*
X49249000Y-28035000D01*
X49260418Y-27977597D01*
X49292934Y-27928934D01*
X49341597Y-27896418D01*
X49399000Y-27885000D01*
X49456403Y-27896418D01*
G37*
G36*
X50588403Y-27896418D02*
G01*
X50637066Y-27928934D01*
X50669582Y-27977597D01*
X50681000Y-28035000D01*
X50669582Y-28092403D01*
X50637066Y-28141066D01*
X50588403Y-28173582D01*
X50531000Y-28185000D01*
X50473597Y-28173582D01*
X50424934Y-28141066D01*
X50392418Y-28092403D01*
X50381000Y-28035000D01*
X50392418Y-27977597D01*
X50424934Y-27928934D01*
X50473597Y-27896418D01*
X50531000Y-27885000D01*
X50588403Y-27896418D01*
G37*
G36*
X49739403Y-27613418D02*
G01*
X49788066Y-27645934D01*
X49820582Y-27694597D01*
X49832000Y-27752000D01*
X49820582Y-27809403D01*
X49788066Y-27858066D01*
X49739403Y-27890582D01*
X49682000Y-27902000D01*
X49624597Y-27890582D01*
X49575934Y-27858066D01*
X49543418Y-27809403D01*
X49532000Y-27752000D01*
X49543418Y-27694597D01*
X49575934Y-27645934D01*
X49624597Y-27613418D01*
X49682000Y-27602000D01*
X49739403Y-27613418D01*
G37*
G36*
X50305403Y-27613418D02*
G01*
X50354066Y-27645934D01*
X50386582Y-27694597D01*
X50398000Y-27752000D01*
X50386582Y-27809403D01*
X50354066Y-27858066D01*
X50305403Y-27890582D01*
X50248000Y-27902000D01*
X50190597Y-27890582D01*
X50141934Y-27858066D01*
X50109418Y-27809403D01*
X50098000Y-27752000D01*
X50109418Y-27694597D01*
X50141934Y-27645934D01*
X50190597Y-27613418D01*
X50248000Y-27602000D01*
X50305403Y-27613418D01*
G37*
G36*
X49456403Y-27330418D02*
G01*
X49505066Y-27362934D01*
X49537582Y-27411597D01*
X49549000Y-27469000D01*
X49537582Y-27526403D01*
X49505066Y-27575066D01*
X49456403Y-27607582D01*
X49399000Y-27619000D01*
X49341597Y-27607582D01*
X49292934Y-27575066D01*
X49260418Y-27526403D01*
X49249000Y-27469000D01*
X49260418Y-27411597D01*
X49292934Y-27362934D01*
X49341597Y-27330418D01*
X49399000Y-27319000D01*
X49456403Y-27330418D01*
G37*
G36*
X50022403Y-27330418D02*
G01*
X50071066Y-27362934D01*
X50103582Y-27411597D01*
X50115000Y-27469000D01*
X50103582Y-27526403D01*
X50071066Y-27575066D01*
X50022403Y-27607582D01*
X49965000Y-27619000D01*
X49907597Y-27607582D01*
X49858934Y-27575066D01*
X49826418Y-27526403D01*
X49815000Y-27469000D01*
X49826418Y-27411597D01*
X49858934Y-27362934D01*
X49907597Y-27330418D01*
X49965000Y-27319000D01*
X50022403Y-27330418D01*
G37*
G36*
X50588403Y-27330418D02*
G01*
X50637066Y-27362934D01*
X50669582Y-27411597D01*
X50681000Y-27469000D01*
X50669582Y-27526403D01*
X50637066Y-27575066D01*
X50588403Y-27607582D01*
X50531000Y-27619000D01*
X50473597Y-27607582D01*
X50424934Y-27575066D01*
X50392418Y-27526403D01*
X50381000Y-27469000D01*
X50392418Y-27411597D01*
X50424934Y-27362934D01*
X50473597Y-27330418D01*
X50531000Y-27319000D01*
X50588403Y-27330418D01*
G37*
G36*
X49732710Y-26154463D02*
G01*
X49794350Y-26195650D01*
X49835537Y-26257290D01*
X49850000Y-26330000D01*
X49850000Y-26670000D01*
X49835537Y-26742710D01*
X49794350Y-26804350D01*
X49732710Y-26845537D01*
X49660000Y-26860000D01*
X49380000Y-26860000D01*
X49307290Y-26845537D01*
X49245650Y-26804350D01*
X49204463Y-26742710D01*
X49190000Y-26670000D01*
X49190000Y-26330000D01*
X49204463Y-26257290D01*
X49245650Y-26195650D01*
X49307290Y-26154463D01*
X49380000Y-26140000D01*
X49660000Y-26140000D01*
X49732710Y-26154463D01*
G37*
G36*
X50692710Y-26154463D02*
G01*
X50754350Y-26195650D01*
X50795537Y-26257290D01*
X50810000Y-26330000D01*
X50810000Y-26670000D01*
X50795537Y-26742710D01*
X50754350Y-26804350D01*
X50692710Y-26845537D01*
X50620000Y-26860000D01*
X50340000Y-26860000D01*
X50267290Y-26845537D01*
X50205650Y-26804350D01*
X50164463Y-26742710D01*
X50150000Y-26670000D01*
X50150000Y-26330000D01*
X50164463Y-26257290D01*
X50205650Y-26195650D01*
X50267290Y-26154463D01*
X50340000Y-26140000D01*
X50620000Y-26140000D01*
X50692710Y-26154463D01*
G37*
G36*
X41547607Y-24184930D02*
G01*
X41594076Y-24184930D01*
X41634202Y-24193459D01*
X41675533Y-24197530D01*
X41727460Y-24213282D01*
X41778115Y-24224049D01*
X41810527Y-24238479D01*
X41844321Y-24248731D01*
X41898023Y-24277435D01*
X41950000Y-24300577D01*
X41974165Y-24318134D01*
X41999878Y-24331878D01*
X42052333Y-24374927D01*
X42102218Y-24411170D01*
X42118412Y-24429155D01*
X42136225Y-24443774D01*
X42184089Y-24502097D01*
X42228115Y-24550993D01*
X42237365Y-24567015D01*
X42248121Y-24580121D01*
X42287908Y-24654557D01*
X42322191Y-24713937D01*
X42326134Y-24726074D01*
X42331268Y-24735678D01*
X42359568Y-24828971D01*
X42380333Y-24892879D01*
X42381064Y-24899834D01*
X42382469Y-24904466D01*
X42396151Y-25043385D01*
X42400000Y-25080000D01*
X42396151Y-25116617D01*
X42382469Y-25255533D01*
X42381064Y-25260164D01*
X42380333Y-25267121D01*
X42359563Y-25331042D01*
X42331268Y-25424321D01*
X42326135Y-25433923D01*
X42322191Y-25446063D01*
X42287901Y-25505454D01*
X42248121Y-25579878D01*
X42237367Y-25592981D01*
X42228115Y-25609007D01*
X42184080Y-25657912D01*
X42136225Y-25716225D01*
X42118415Y-25730840D01*
X42102218Y-25748830D01*
X42052323Y-25785080D01*
X41999878Y-25828121D01*
X41974171Y-25841861D01*
X41950000Y-25859423D01*
X41898012Y-25882569D01*
X41844321Y-25911268D01*
X41810534Y-25921517D01*
X41778115Y-25935951D01*
X41727449Y-25946720D01*
X41675533Y-25962469D01*
X41634210Y-25966538D01*
X41594076Y-25975070D01*
X41547597Y-25975070D01*
X41500000Y-25979758D01*
X41452403Y-25975070D01*
X41405924Y-25975070D01*
X41365789Y-25966539D01*
X41324466Y-25962469D01*
X41272546Y-25946719D01*
X41221885Y-25935951D01*
X41189467Y-25921517D01*
X41155678Y-25911268D01*
X41101981Y-25882566D01*
X41050000Y-25859423D01*
X41025831Y-25841863D01*
X41000121Y-25828121D01*
X40947667Y-25785074D01*
X40897782Y-25748830D01*
X40881587Y-25730843D01*
X40863774Y-25716225D01*
X40815908Y-25657899D01*
X40771885Y-25609007D01*
X40762634Y-25592985D01*
X40751878Y-25579878D01*
X40712085Y-25505431D01*
X40677809Y-25446063D01*
X40673866Y-25433928D01*
X40668731Y-25424321D01*
X40640421Y-25330996D01*
X40619667Y-25267121D01*
X40618936Y-25260169D01*
X40617530Y-25255533D01*
X40603832Y-25116466D01*
X40600000Y-25080000D01*
X40603832Y-25043536D01*
X40617530Y-24904466D01*
X40618936Y-24899829D01*
X40619667Y-24892879D01*
X40640416Y-24829017D01*
X40668731Y-24735678D01*
X40673866Y-24726069D01*
X40677809Y-24713937D01*
X40712078Y-24654581D01*
X40751878Y-24580121D01*
X40762636Y-24567011D01*
X40771885Y-24550993D01*
X40815898Y-24502110D01*
X40863774Y-24443774D01*
X40881590Y-24429152D01*
X40897782Y-24411170D01*
X40947657Y-24374933D01*
X41000121Y-24331878D01*
X41025836Y-24318132D01*
X41050000Y-24300577D01*
X41101970Y-24277438D01*
X41155678Y-24248731D01*
X41189474Y-24238478D01*
X41221885Y-24224049D01*
X41272535Y-24213282D01*
X41324466Y-24197530D01*
X41365798Y-24193459D01*
X41405924Y-24184930D01*
X41452393Y-24184930D01*
X41500000Y-24180241D01*
X41547607Y-24184930D01*
G37*
G36*
X58547607Y-24184930D02*
G01*
X58594076Y-24184930D01*
X58634202Y-24193459D01*
X58675533Y-24197530D01*
X58727460Y-24213282D01*
X58778115Y-24224049D01*
X58810527Y-24238479D01*
X58844321Y-24248731D01*
X58898023Y-24277435D01*
X58950000Y-24300577D01*
X58974165Y-24318134D01*
X58999878Y-24331878D01*
X59052333Y-24374927D01*
X59102218Y-24411170D01*
X59118412Y-24429155D01*
X59136225Y-24443774D01*
X59184089Y-24502097D01*
X59228115Y-24550993D01*
X59237365Y-24567015D01*
X59248121Y-24580121D01*
X59287908Y-24654557D01*
X59322191Y-24713937D01*
X59326134Y-24726074D01*
X59331268Y-24735678D01*
X59359568Y-24828971D01*
X59380333Y-24892879D01*
X59381064Y-24899834D01*
X59382469Y-24904466D01*
X59396151Y-25043385D01*
X59400000Y-25080000D01*
X59396151Y-25116617D01*
X59382469Y-25255533D01*
X59381064Y-25260164D01*
X59380333Y-25267121D01*
X59359563Y-25331042D01*
X59331268Y-25424321D01*
X59326135Y-25433923D01*
X59322191Y-25446063D01*
X59287901Y-25505454D01*
X59248121Y-25579878D01*
X59237367Y-25592981D01*
X59228115Y-25609007D01*
X59184080Y-25657912D01*
X59136225Y-25716225D01*
X59118415Y-25730840D01*
X59102218Y-25748830D01*
X59052323Y-25785080D01*
X58999878Y-25828121D01*
X58974171Y-25841861D01*
X58950000Y-25859423D01*
X58898012Y-25882569D01*
X58844321Y-25911268D01*
X58810534Y-25921517D01*
X58778115Y-25935951D01*
X58727449Y-25946720D01*
X58675533Y-25962469D01*
X58634210Y-25966538D01*
X58594076Y-25975070D01*
X58547597Y-25975070D01*
X58500000Y-25979758D01*
X58452403Y-25975070D01*
X58405924Y-25975070D01*
X58365789Y-25966539D01*
X58324466Y-25962469D01*
X58272546Y-25946719D01*
X58221885Y-25935951D01*
X58189467Y-25921517D01*
X58155678Y-25911268D01*
X58101981Y-25882566D01*
X58050000Y-25859423D01*
X58025831Y-25841863D01*
X58000121Y-25828121D01*
X57947667Y-25785074D01*
X57897782Y-25748830D01*
X57881587Y-25730843D01*
X57863774Y-25716225D01*
X57815908Y-25657899D01*
X57771885Y-25609007D01*
X57762634Y-25592985D01*
X57751878Y-25579878D01*
X57712085Y-25505431D01*
X57677809Y-25446063D01*
X57673866Y-25433928D01*
X57668731Y-25424321D01*
X57640421Y-25330996D01*
X57619667Y-25267121D01*
X57618936Y-25260169D01*
X57617530Y-25255533D01*
X57603832Y-25116466D01*
X57600000Y-25080000D01*
X57603832Y-25043536D01*
X57617530Y-24904466D01*
X57618936Y-24899829D01*
X57619667Y-24892879D01*
X57640416Y-24829017D01*
X57668731Y-24735678D01*
X57673866Y-24726069D01*
X57677809Y-24713937D01*
X57712078Y-24654581D01*
X57751878Y-24580121D01*
X57762636Y-24567011D01*
X57771885Y-24550993D01*
X57815898Y-24502110D01*
X57863774Y-24443774D01*
X57881590Y-24429152D01*
X57897782Y-24411170D01*
X57947657Y-24374933D01*
X58000121Y-24331878D01*
X58025836Y-24318132D01*
X58050000Y-24300577D01*
X58101970Y-24277438D01*
X58155678Y-24248731D01*
X58189474Y-24238478D01*
X58221885Y-24224049D01*
X58272535Y-24213282D01*
X58324466Y-24197530D01*
X58365798Y-24193459D01*
X58405924Y-24184930D01*
X58452393Y-24184930D01*
X58500000Y-24180241D01*
X58547607Y-24184930D01*
G37*
G36*
X50144134Y-24628806D02*
G01*
X50160355Y-24639645D01*
X50171194Y-24655866D01*
X50175000Y-24675000D01*
X50175000Y-25350000D01*
X50171194Y-25369134D01*
X50160355Y-25385355D01*
X50144134Y-25396194D01*
X50125000Y-25400000D01*
X49875000Y-25400000D01*
X49855866Y-25396194D01*
X49839645Y-25385355D01*
X49828806Y-25369134D01*
X49825000Y-25350000D01*
X49825000Y-24675000D01*
X49828806Y-24655866D01*
X49839645Y-24639645D01*
X49855866Y-24628806D01*
X49875000Y-24625000D01*
X50125000Y-24625000D01*
X50144134Y-24628806D01*
G37*
G36*
X49094134Y-24328806D02*
G01*
X49110355Y-24339645D01*
X49121194Y-24355866D01*
X49125000Y-24375000D01*
X49125000Y-24625000D01*
X49121194Y-24644134D01*
X49110355Y-24660355D01*
X49094134Y-24671194D01*
X49075000Y-24675000D01*
X48400000Y-24675000D01*
X48380866Y-24671194D01*
X48364645Y-24660355D01*
X48353806Y-24644134D01*
X48350000Y-24625000D01*
X48350000Y-24375000D01*
X48353806Y-24355866D01*
X48364645Y-24339645D01*
X48380866Y-24328806D01*
X48400000Y-24325000D01*
X49075000Y-24325000D01*
X49094134Y-24328806D01*
G37*
G36*
X51619134Y-24328806D02*
G01*
X51635355Y-24339645D01*
X51646194Y-24355866D01*
X51650000Y-24375000D01*
X51650000Y-24625000D01*
X51646194Y-24644134D01*
X51635355Y-24660355D01*
X51619134Y-24671194D01*
X51600000Y-24675000D01*
X50925000Y-24675000D01*
X50905866Y-24671194D01*
X50889645Y-24660355D01*
X50878806Y-24644134D01*
X50875000Y-24625000D01*
X50875000Y-24375000D01*
X50878806Y-24355866D01*
X50889645Y-24339645D01*
X50905866Y-24328806D01*
X50925000Y-24325000D01*
X51600000Y-24325000D01*
X51619134Y-24328806D01*
G37*
G36*
X49094134Y-23828806D02*
G01*
X49110355Y-23839645D01*
X49121194Y-23855866D01*
X49125000Y-23875000D01*
X49125000Y-24125000D01*
X49121194Y-24144134D01*
X49110355Y-24160355D01*
X49094134Y-24171194D01*
X49075000Y-24175000D01*
X48400000Y-24175000D01*
X48380866Y-24171194D01*
X48364645Y-24160355D01*
X48353806Y-24144134D01*
X48350000Y-24125000D01*
X48350000Y-23875000D01*
X48353806Y-23855866D01*
X48364645Y-23839645D01*
X48380866Y-23828806D01*
X48400000Y-23825000D01*
X49075000Y-23825000D01*
X49094134Y-23828806D01*
G37*
G36*
X51619134Y-23828806D02*
G01*
X51635355Y-23839645D01*
X51646194Y-23855866D01*
X51650000Y-23875000D01*
X51650000Y-24125000D01*
X51646194Y-24144134D01*
X51635355Y-24160355D01*
X51619134Y-24171194D01*
X51600000Y-24175000D01*
X50925000Y-24175000D01*
X50905866Y-24171194D01*
X50889645Y-24160355D01*
X50878806Y-24144134D01*
X50875000Y-24125000D01*
X50875000Y-23875000D01*
X50878806Y-23855866D01*
X50889645Y-23839645D01*
X50905866Y-23828806D01*
X50925000Y-23825000D01*
X51600000Y-23825000D01*
X51619134Y-23828806D01*
G37*
G36*
X52632710Y-23414463D02*
G01*
X52694350Y-23455650D01*
X52735537Y-23517290D01*
X52750000Y-23590000D01*
X52750000Y-23870000D01*
X52735537Y-23942710D01*
X52694350Y-24004350D01*
X52632710Y-24045537D01*
X52560000Y-24060000D01*
X52220000Y-24060000D01*
X52147290Y-24045537D01*
X52085650Y-24004350D01*
X52044463Y-23942710D01*
X52030000Y-23870000D01*
X52030000Y-23590000D01*
X52044463Y-23517290D01*
X52085650Y-23455650D01*
X52147290Y-23414463D01*
X52220000Y-23400000D01*
X52560000Y-23400000D01*
X52632710Y-23414463D01*
G37*
G36*
X49094134Y-23328806D02*
G01*
X49110355Y-23339645D01*
X49121194Y-23355866D01*
X49125000Y-23375000D01*
X49125000Y-23625000D01*
X49121194Y-23644134D01*
X49110355Y-23660355D01*
X49094134Y-23671194D01*
X49075000Y-23675000D01*
X48400000Y-23675000D01*
X48380866Y-23671194D01*
X48364645Y-23660355D01*
X48353806Y-23644134D01*
X48350000Y-23625000D01*
X48350000Y-23375000D01*
X48353806Y-23355866D01*
X48364645Y-23339645D01*
X48380866Y-23328806D01*
X48400000Y-23325000D01*
X49075000Y-23325000D01*
X49094134Y-23328806D01*
G37*
G36*
X51619134Y-23328806D02*
G01*
X51635355Y-23339645D01*
X51646194Y-23355866D01*
X51650000Y-23375000D01*
X51650000Y-23625000D01*
X51646194Y-23644134D01*
X51635355Y-23660355D01*
X51619134Y-23671194D01*
X51600000Y-23675000D01*
X50925000Y-23675000D01*
X50905866Y-23671194D01*
X50889645Y-23660355D01*
X50878806Y-23644134D01*
X50875000Y-23625000D01*
X50875000Y-23375000D01*
X50878806Y-23355866D01*
X50889645Y-23339645D01*
X50905866Y-23328806D01*
X50925000Y-23325000D01*
X51600000Y-23325000D01*
X51619134Y-23328806D01*
G37*
G36*
X41547607Y-21644930D02*
G01*
X41594076Y-21644930D01*
X41634202Y-21653459D01*
X41675533Y-21657530D01*
X41727460Y-21673282D01*
X41778115Y-21684049D01*
X41810527Y-21698479D01*
X41844321Y-21708731D01*
X41898023Y-21737435D01*
X41950000Y-21760577D01*
X41974165Y-21778134D01*
X41999878Y-21791878D01*
X42052333Y-21834927D01*
X42102218Y-21871170D01*
X42118412Y-21889155D01*
X42136225Y-21903774D01*
X42184089Y-21962097D01*
X42228115Y-22010993D01*
X42237365Y-22027015D01*
X42248121Y-22040121D01*
X42287908Y-22114557D01*
X42322191Y-22173937D01*
X42326134Y-22186074D01*
X42331268Y-22195678D01*
X42359568Y-22288971D01*
X42380333Y-22352879D01*
X42381064Y-22359834D01*
X42382469Y-22364466D01*
X42396151Y-22503385D01*
X42400000Y-22540000D01*
X42396151Y-22576617D01*
X42382469Y-22715533D01*
X42381064Y-22720164D01*
X42380333Y-22727121D01*
X42359563Y-22791042D01*
X42331268Y-22884321D01*
X42326135Y-22893923D01*
X42322191Y-22906063D01*
X42287901Y-22965454D01*
X42248121Y-23039878D01*
X42237367Y-23052981D01*
X42228115Y-23069007D01*
X42184080Y-23117912D01*
X42136225Y-23176225D01*
X42118415Y-23190840D01*
X42102218Y-23208830D01*
X42052323Y-23245080D01*
X41999878Y-23288121D01*
X41974171Y-23301861D01*
X41950000Y-23319423D01*
X41898012Y-23342569D01*
X41844321Y-23371268D01*
X41810534Y-23381517D01*
X41778115Y-23395951D01*
X41727449Y-23406720D01*
X41675533Y-23422469D01*
X41634210Y-23426538D01*
X41594076Y-23435070D01*
X41547597Y-23435070D01*
X41500000Y-23439758D01*
X41452403Y-23435070D01*
X41405924Y-23435070D01*
X41365789Y-23426539D01*
X41324466Y-23422469D01*
X41272546Y-23406719D01*
X41221885Y-23395951D01*
X41189467Y-23381517D01*
X41155678Y-23371268D01*
X41101981Y-23342566D01*
X41050000Y-23319423D01*
X41025831Y-23301863D01*
X41000121Y-23288121D01*
X40947667Y-23245074D01*
X40897782Y-23208830D01*
X40881587Y-23190843D01*
X40863774Y-23176225D01*
X40815908Y-23117899D01*
X40771885Y-23069007D01*
X40762634Y-23052985D01*
X40751878Y-23039878D01*
X40712085Y-22965431D01*
X40677809Y-22906063D01*
X40673866Y-22893928D01*
X40668731Y-22884321D01*
X40640421Y-22790996D01*
X40619667Y-22727121D01*
X40618936Y-22720169D01*
X40617530Y-22715533D01*
X40603832Y-22576466D01*
X40600000Y-22540000D01*
X40603832Y-22503536D01*
X40617530Y-22364466D01*
X40618936Y-22359829D01*
X40619667Y-22352879D01*
X40640416Y-22289017D01*
X40668731Y-22195678D01*
X40673866Y-22186069D01*
X40677809Y-22173937D01*
X40712078Y-22114581D01*
X40751878Y-22040121D01*
X40762636Y-22027011D01*
X40771885Y-22010993D01*
X40815898Y-21962110D01*
X40863774Y-21903774D01*
X40881590Y-21889152D01*
X40897782Y-21871170D01*
X40947657Y-21834933D01*
X41000121Y-21791878D01*
X41025836Y-21778132D01*
X41050000Y-21760577D01*
X41101970Y-21737438D01*
X41155678Y-21708731D01*
X41189474Y-21698478D01*
X41221885Y-21684049D01*
X41272535Y-21673282D01*
X41324466Y-21657530D01*
X41365798Y-21653459D01*
X41405924Y-21644930D01*
X41452393Y-21644930D01*
X41500000Y-21640241D01*
X41547607Y-21644930D01*
G37*
G36*
X58547607Y-21644930D02*
G01*
X58594076Y-21644930D01*
X58634202Y-21653459D01*
X58675533Y-21657530D01*
X58727460Y-21673282D01*
X58778115Y-21684049D01*
X58810527Y-21698479D01*
X58844321Y-21708731D01*
X58898023Y-21737435D01*
X58950000Y-21760577D01*
X58974165Y-21778134D01*
X58999878Y-21791878D01*
X59052333Y-21834927D01*
X59102218Y-21871170D01*
X59118412Y-21889155D01*
X59136225Y-21903774D01*
X59184089Y-21962097D01*
X59228115Y-22010993D01*
X59237365Y-22027015D01*
X59248121Y-22040121D01*
X59287908Y-22114557D01*
X59322191Y-22173937D01*
X59326134Y-22186074D01*
X59331268Y-22195678D01*
X59359568Y-22288971D01*
X59380333Y-22352879D01*
X59381064Y-22359834D01*
X59382469Y-22364466D01*
X59396151Y-22503385D01*
X59400000Y-22540000D01*
X59396151Y-22576617D01*
X59382469Y-22715533D01*
X59381064Y-22720164D01*
X59380333Y-22727121D01*
X59359563Y-22791042D01*
X59331268Y-22884321D01*
X59326135Y-22893923D01*
X59322191Y-22906063D01*
X59287901Y-22965454D01*
X59248121Y-23039878D01*
X59237367Y-23052981D01*
X59228115Y-23069007D01*
X59184080Y-23117912D01*
X59136225Y-23176225D01*
X59118415Y-23190840D01*
X59102218Y-23208830D01*
X59052323Y-23245080D01*
X58999878Y-23288121D01*
X58974171Y-23301861D01*
X58950000Y-23319423D01*
X58898012Y-23342569D01*
X58844321Y-23371268D01*
X58810534Y-23381517D01*
X58778115Y-23395951D01*
X58727449Y-23406720D01*
X58675533Y-23422469D01*
X58634210Y-23426538D01*
X58594076Y-23435070D01*
X58547597Y-23435070D01*
X58500000Y-23439758D01*
X58452403Y-23435070D01*
X58405924Y-23435070D01*
X58365789Y-23426539D01*
X58324466Y-23422469D01*
X58272546Y-23406719D01*
X58221885Y-23395951D01*
X58189467Y-23381517D01*
X58155678Y-23371268D01*
X58101981Y-23342566D01*
X58050000Y-23319423D01*
X58025831Y-23301863D01*
X58000121Y-23288121D01*
X57947667Y-23245074D01*
X57897782Y-23208830D01*
X57881587Y-23190843D01*
X57863774Y-23176225D01*
X57815908Y-23117899D01*
X57771885Y-23069007D01*
X57762634Y-23052985D01*
X57751878Y-23039878D01*
X57712085Y-22965431D01*
X57677809Y-22906063D01*
X57673866Y-22893928D01*
X57668731Y-22884321D01*
X57640421Y-22790996D01*
X57619667Y-22727121D01*
X57618936Y-22720169D01*
X57617530Y-22715533D01*
X57603832Y-22576466D01*
X57600000Y-22540000D01*
X57603832Y-22503536D01*
X57617530Y-22364466D01*
X57618936Y-22359829D01*
X57619667Y-22352879D01*
X57640416Y-22289017D01*
X57668731Y-22195678D01*
X57673866Y-22186069D01*
X57677809Y-22173937D01*
X57712078Y-22114581D01*
X57751878Y-22040121D01*
X57762636Y-22027011D01*
X57771885Y-22010993D01*
X57815898Y-21962110D01*
X57863774Y-21903774D01*
X57881590Y-21889152D01*
X57897782Y-21871170D01*
X57947657Y-21834933D01*
X58000121Y-21791878D01*
X58025836Y-21778132D01*
X58050000Y-21760577D01*
X58101970Y-21737438D01*
X58155678Y-21708731D01*
X58189474Y-21698478D01*
X58221885Y-21684049D01*
X58272535Y-21673282D01*
X58324466Y-21657530D01*
X58365798Y-21653459D01*
X58405924Y-21644930D01*
X58452393Y-21644930D01*
X58500000Y-21640241D01*
X58547607Y-21644930D01*
G37*
G36*
X49094134Y-22828806D02*
G01*
X49110355Y-22839645D01*
X49121194Y-22855866D01*
X49125000Y-22875000D01*
X49125000Y-23125000D01*
X49121194Y-23144134D01*
X49110355Y-23160355D01*
X49094134Y-23171194D01*
X49075000Y-23175000D01*
X48400000Y-23175000D01*
X48380866Y-23171194D01*
X48364645Y-23160355D01*
X48353806Y-23144134D01*
X48350000Y-23125000D01*
X48350000Y-22875000D01*
X48353806Y-22855866D01*
X48364645Y-22839645D01*
X48380866Y-22828806D01*
X48400000Y-22825000D01*
X49075000Y-22825000D01*
X49094134Y-22828806D01*
G37*
G36*
X51619134Y-22828806D02*
G01*
X51635355Y-22839645D01*
X51646194Y-22855866D01*
X51650000Y-22875000D01*
X51650000Y-23125000D01*
X51646194Y-23144134D01*
X51635355Y-23160355D01*
X51619134Y-23171194D01*
X51600000Y-23175000D01*
X50925000Y-23175000D01*
X50905866Y-23171194D01*
X50889645Y-23160355D01*
X50878806Y-23144134D01*
X50875000Y-23125000D01*
X50875000Y-22875000D01*
X50878806Y-22855866D01*
X50889645Y-22839645D01*
X50905866Y-22828806D01*
X50925000Y-22825000D01*
X51600000Y-22825000D01*
X51619134Y-22828806D01*
G37*
G36*
X52632710Y-22454463D02*
G01*
X52694350Y-22495650D01*
X52735537Y-22557290D01*
X52750000Y-22630000D01*
X52750000Y-22910000D01*
X52735537Y-22982710D01*
X52694350Y-23044350D01*
X52632710Y-23085537D01*
X52560000Y-23100000D01*
X52220000Y-23100000D01*
X52147290Y-23085537D01*
X52085650Y-23044350D01*
X52044463Y-22982710D01*
X52030000Y-22910000D01*
X52030000Y-22630000D01*
X52044463Y-22557290D01*
X52085650Y-22495650D01*
X52147290Y-22454463D01*
X52220000Y-22440000D01*
X52560000Y-22440000D01*
X52632710Y-22454463D01*
G37*
G36*
X49094134Y-22328806D02*
G01*
X49110355Y-22339645D01*
X49121194Y-22355866D01*
X49125000Y-22375000D01*
X49125000Y-22625000D01*
X49121194Y-22644134D01*
X49110355Y-22660355D01*
X49094134Y-22671194D01*
X49075000Y-22675000D01*
X48400000Y-22675000D01*
X48380866Y-22671194D01*
X48364645Y-22660355D01*
X48353806Y-22644134D01*
X48350000Y-22625000D01*
X48350000Y-22375000D01*
X48353806Y-22355866D01*
X48364645Y-22339645D01*
X48380866Y-22328806D01*
X48400000Y-22325000D01*
X49075000Y-22325000D01*
X49094134Y-22328806D01*
G37*
G36*
X51619134Y-22328806D02*
G01*
X51635355Y-22339645D01*
X51646194Y-22355866D01*
X51650000Y-22375000D01*
X51650000Y-22625000D01*
X51646194Y-22644134D01*
X51635355Y-22660355D01*
X51619134Y-22671194D01*
X51600000Y-22675000D01*
X50925000Y-22675000D01*
X50905866Y-22671194D01*
X50889645Y-22660355D01*
X50878806Y-22644134D01*
X50875000Y-22625000D01*
X50875000Y-22375000D01*
X50878806Y-22355866D01*
X50889645Y-22339645D01*
X50905866Y-22328806D01*
X50925000Y-22325000D01*
X51600000Y-22325000D01*
X51619134Y-22328806D01*
G37*
G36*
X49094134Y-21828806D02*
G01*
X49110355Y-21839645D01*
X49121194Y-21855866D01*
X49125000Y-21875000D01*
X49125000Y-22125000D01*
X49121194Y-22144134D01*
X49110355Y-22160355D01*
X49094134Y-22171194D01*
X49075000Y-22175000D01*
X48400000Y-22175000D01*
X48380866Y-22171194D01*
X48364645Y-22160355D01*
X48353806Y-22144134D01*
X48350000Y-22125000D01*
X48350000Y-21875000D01*
X48353806Y-21855866D01*
X48364645Y-21839645D01*
X48380866Y-21828806D01*
X48400000Y-21825000D01*
X49075000Y-21825000D01*
X49094134Y-21828806D01*
G37*
G36*
X51619134Y-21828806D02*
G01*
X51635355Y-21839645D01*
X51646194Y-21855866D01*
X51650000Y-21875000D01*
X51650000Y-22125000D01*
X51646194Y-22144134D01*
X51635355Y-22160355D01*
X51619134Y-22171194D01*
X51600000Y-22175000D01*
X50925000Y-22175000D01*
X50905866Y-22171194D01*
X50889645Y-22160355D01*
X50878806Y-22144134D01*
X50875000Y-22125000D01*
X50875000Y-21875000D01*
X50878806Y-21855866D01*
X50889645Y-21839645D01*
X50905866Y-21828806D01*
X50925000Y-21825000D01*
X51600000Y-21825000D01*
X51619134Y-21828806D01*
G37*
G36*
X47902710Y-21504463D02*
G01*
X47964350Y-21545650D01*
X48005537Y-21607290D01*
X48020000Y-21680000D01*
X48020000Y-21960000D01*
X48005537Y-22032710D01*
X47964350Y-22094350D01*
X47902710Y-22135537D01*
X47830000Y-22150000D01*
X47490000Y-22150000D01*
X47417290Y-22135537D01*
X47355650Y-22094350D01*
X47314463Y-22032710D01*
X47300000Y-21960000D01*
X47300000Y-21680000D01*
X47314463Y-21607290D01*
X47355650Y-21545650D01*
X47417290Y-21504463D01*
X47490000Y-21490000D01*
X47830000Y-21490000D01*
X47902710Y-21504463D01*
G37*
G36*
X49094134Y-21328806D02*
G01*
X49110355Y-21339645D01*
X49121194Y-21355866D01*
X49125000Y-21375000D01*
X49125000Y-21625000D01*
X49121194Y-21644134D01*
X49110355Y-21660355D01*
X49094134Y-21671194D01*
X49075000Y-21675000D01*
X48400000Y-21675000D01*
X48380866Y-21671194D01*
X48364645Y-21660355D01*
X48353806Y-21644134D01*
X48350000Y-21625000D01*
X48350000Y-21375000D01*
X48353806Y-21355866D01*
X48364645Y-21339645D01*
X48380866Y-21328806D01*
X48400000Y-21325000D01*
X49075000Y-21325000D01*
X49094134Y-21328806D01*
G37*
G36*
X51619134Y-21328806D02*
G01*
X51635355Y-21339645D01*
X51646194Y-21355866D01*
X51650000Y-21375000D01*
X51650000Y-21625000D01*
X51646194Y-21644134D01*
X51635355Y-21660355D01*
X51619134Y-21671194D01*
X51600000Y-21675000D01*
X50925000Y-21675000D01*
X50905866Y-21671194D01*
X50889645Y-21660355D01*
X50878806Y-21644134D01*
X50875000Y-21625000D01*
X50875000Y-21375000D01*
X50878806Y-21355866D01*
X50889645Y-21339645D01*
X50905866Y-21328806D01*
X50925000Y-21325000D01*
X51600000Y-21325000D01*
X51619134Y-21328806D01*
G37*
G36*
X50144134Y-20603806D02*
G01*
X50160355Y-20614645D01*
X50171194Y-20630866D01*
X50175000Y-20650000D01*
X50175000Y-21325000D01*
X50171194Y-21344134D01*
X50160355Y-21360355D01*
X50144134Y-21371194D01*
X50125000Y-21375000D01*
X49875000Y-21375000D01*
X49855866Y-21371194D01*
X49839645Y-21360355D01*
X49828806Y-21344134D01*
X49825000Y-21325000D01*
X49825000Y-20650000D01*
X49828806Y-20630866D01*
X49839645Y-20614645D01*
X49855866Y-20603806D01*
X49875000Y-20600000D01*
X50125000Y-20600000D01*
X50144134Y-20603806D01*
G37*
G36*
X47902710Y-20544463D02*
G01*
X47964350Y-20585650D01*
X48005537Y-20647290D01*
X48020000Y-20720000D01*
X48020000Y-21000000D01*
X48005537Y-21072710D01*
X47964350Y-21134350D01*
X47902710Y-21175537D01*
X47830000Y-21190000D01*
X47490000Y-21190000D01*
X47417290Y-21175537D01*
X47355650Y-21134350D01*
X47314463Y-21072710D01*
X47300000Y-21000000D01*
X47300000Y-20720000D01*
X47314463Y-20647290D01*
X47355650Y-20585650D01*
X47417290Y-20544463D01*
X47490000Y-20530000D01*
X47830000Y-20530000D01*
X47902710Y-20544463D01*
G37*
G36*
X42369134Y-19103806D02*
G01*
X42385355Y-19114645D01*
X42396194Y-19130866D01*
X42400000Y-19150000D01*
X42400000Y-20850000D01*
X42396194Y-20869134D01*
X42385355Y-20885355D01*
X42369134Y-20896194D01*
X42350000Y-20900000D01*
X40650000Y-20900000D01*
X40630866Y-20896194D01*
X40614645Y-20885355D01*
X40603806Y-20869134D01*
X40600000Y-20850000D01*
X40600000Y-19150000D01*
X40603806Y-19130866D01*
X40614645Y-19114645D01*
X40630866Y-19103806D01*
X40650000Y-19100000D01*
X42350000Y-19100000D01*
X42369134Y-19103806D01*
G37*
G36*
X59369134Y-19103806D02*
G01*
X59385355Y-19114645D01*
X59396194Y-19130866D01*
X59400000Y-19150000D01*
X59400000Y-20850000D01*
X59396194Y-20869134D01*
X59385355Y-20885355D01*
X59369134Y-20896194D01*
X59350000Y-20900000D01*
X57650000Y-20900000D01*
X57630866Y-20896194D01*
X57614645Y-20885355D01*
X57603806Y-20869134D01*
X57600000Y-20850000D01*
X57600000Y-19150000D01*
X57603806Y-19130866D01*
X57614645Y-19114645D01*
X57630866Y-19103806D01*
X57650000Y-19100000D01*
X59350000Y-19100000D01*
X59369134Y-19103806D01*
G37*
G36*
X45164134Y-16383806D02*
G01*
X45180355Y-16394645D01*
X45191194Y-16410866D01*
X45195000Y-16430000D01*
X45195000Y-17030000D01*
X45191194Y-17049134D01*
X45180355Y-17065355D01*
X45164134Y-17076194D01*
X45145000Y-17080000D01*
X44695000Y-17080000D01*
X44675866Y-17076194D01*
X44659645Y-17065355D01*
X44648806Y-17049134D01*
X44645000Y-17030000D01*
X44645000Y-16430000D01*
X44648806Y-16410866D01*
X44659645Y-16394645D01*
X44675866Y-16383806D01*
X44695000Y-16380000D01*
X45145000Y-16380000D01*
X45164134Y-16383806D01*
G37*
G36*
X46114134Y-16383806D02*
G01*
X46130355Y-16394645D01*
X46141194Y-16410866D01*
X46145000Y-16430000D01*
X46145000Y-17030000D01*
X46141194Y-17049134D01*
X46130355Y-17065355D01*
X46114134Y-17076194D01*
X46095000Y-17080000D01*
X45645000Y-17080000D01*
X45625866Y-17076194D01*
X45609645Y-17065355D01*
X45598806Y-17049134D01*
X45595000Y-17030000D01*
X45595000Y-16430000D01*
X45598806Y-16410866D01*
X45609645Y-16394645D01*
X45625866Y-16383806D01*
X45645000Y-16380000D01*
X46095000Y-16380000D01*
X46114134Y-16383806D01*
G37*
G36*
X47064134Y-16383806D02*
G01*
X47080355Y-16394645D01*
X47091194Y-16410866D01*
X47095000Y-16430000D01*
X47095000Y-17030000D01*
X47091194Y-17049134D01*
X47080355Y-17065355D01*
X47064134Y-17076194D01*
X47045000Y-17080000D01*
X46595000Y-17080000D01*
X46575866Y-17076194D01*
X46559645Y-17065355D01*
X46548806Y-17049134D01*
X46545000Y-17030000D01*
X46545000Y-16430000D01*
X46548806Y-16410866D01*
X46559645Y-16394645D01*
X46575866Y-16383806D01*
X46595000Y-16380000D01*
X47045000Y-16380000D01*
X47064134Y-16383806D01*
G37*
G36*
X47165082Y-14480000D02*
G01*
X47170000Y-14480000D01*
X47189134Y-14483806D01*
X47205355Y-14494645D01*
X47216194Y-14510866D01*
X47220000Y-14530000D01*
X47220000Y-16230000D01*
X47216194Y-16249134D01*
X47205355Y-16265355D01*
X47189134Y-16276194D01*
X47170000Y-16280000D01*
X44570000Y-16280000D01*
X44550866Y-16276194D01*
X44534645Y-16265355D01*
X44523806Y-16249134D01*
X44520000Y-16230000D01*
X44520000Y-14870000D01*
X44523806Y-14850866D01*
X44534644Y-14834646D01*
X44700460Y-14668830D01*
X44871163Y-14498126D01*
X44871166Y-14498123D01*
X44874645Y-14494645D01*
X44890866Y-14483806D01*
X44909999Y-14480001D01*
X44914912Y-14480000D01*
X44914923Y-14479999D01*
X47165077Y-14479999D01*
X47165082Y-14480000D01*
G37*
G36*
X43752710Y-14644463D02*
G01*
X43814350Y-14685650D01*
X43855537Y-14747290D01*
X43870000Y-14820000D01*
X43870000Y-15100000D01*
X43855537Y-15172710D01*
X43814350Y-15234350D01*
X43752710Y-15275537D01*
X43680000Y-15290000D01*
X43340000Y-15290000D01*
X43267290Y-15275537D01*
X43205650Y-15234350D01*
X43164463Y-15172710D01*
X43150000Y-15100000D01*
X43150000Y-14820000D01*
X43164463Y-14747290D01*
X43205650Y-14685650D01*
X43267290Y-14644463D01*
X43340000Y-14630000D01*
X43680000Y-14630000D01*
X43752710Y-14644463D01*
G37*
G36*
X48472710Y-14644463D02*
G01*
X48534350Y-14685650D01*
X48575537Y-14747290D01*
X48590000Y-14820000D01*
X48590000Y-15100000D01*
X48575537Y-15172710D01*
X48534350Y-15234350D01*
X48472710Y-15275537D01*
X48400000Y-15290000D01*
X48060000Y-15290000D01*
X47987290Y-15275537D01*
X47925650Y-15234350D01*
X47884463Y-15172710D01*
X47870000Y-15100000D01*
X47870000Y-14820000D01*
X47884463Y-14747290D01*
X47925650Y-14685650D01*
X47987290Y-14644463D01*
X48060000Y-14630000D01*
X48400000Y-14630000D01*
X48472710Y-14644463D01*
G37*
G36*
X53954134Y-13103806D02*
G01*
X53970355Y-13114645D01*
X53981194Y-13130866D01*
X53985000Y-13150000D01*
X53985000Y-14850000D01*
X53981194Y-14869134D01*
X53970355Y-14885355D01*
X53954134Y-14896194D01*
X53935000Y-14900000D01*
X52235000Y-14900000D01*
X52215866Y-14896194D01*
X52199645Y-14885355D01*
X52188806Y-14869134D01*
X52185000Y-14850000D01*
X52185000Y-13150000D01*
X52188806Y-13130866D01*
X52199645Y-13114645D01*
X52215866Y-13103806D01*
X52235000Y-13100000D01*
X53935000Y-13100000D01*
X53954134Y-13103806D01*
G37*
G36*
X55672607Y-13104930D02*
G01*
X55719076Y-13104930D01*
X55759202Y-13113459D01*
X55800533Y-13117530D01*
X55852460Y-13133282D01*
X55903115Y-13144049D01*
X55935527Y-13158479D01*
X55969321Y-13168731D01*
X56023023Y-13197435D01*
X56075000Y-13220577D01*
X56099165Y-13238134D01*
X56124878Y-13251878D01*
X56177333Y-13294927D01*
X56227218Y-13331170D01*
X56243412Y-13349155D01*
X56261225Y-13363774D01*
X56309089Y-13422097D01*
X56353115Y-13470993D01*
X56362365Y-13487015D01*
X56373121Y-13500121D01*
X56412908Y-13574557D01*
X56447191Y-13633937D01*
X56451134Y-13646074D01*
X56456268Y-13655678D01*
X56484568Y-13748971D01*
X56505333Y-13812879D01*
X56506064Y-13819834D01*
X56507469Y-13824466D01*
X56521151Y-13963385D01*
X56525000Y-14000000D01*
X56521151Y-14036617D01*
X56507469Y-14175533D01*
X56506064Y-14180164D01*
X56505333Y-14187121D01*
X56484563Y-14251042D01*
X56456268Y-14344321D01*
X56451135Y-14353923D01*
X56447191Y-14366063D01*
X56412901Y-14425454D01*
X56373121Y-14499878D01*
X56362367Y-14512981D01*
X56353115Y-14529007D01*
X56309080Y-14577912D01*
X56261225Y-14636225D01*
X56243415Y-14650840D01*
X56227218Y-14668830D01*
X56177323Y-14705080D01*
X56124878Y-14748121D01*
X56099171Y-14761861D01*
X56075000Y-14779423D01*
X56023012Y-14802569D01*
X55969321Y-14831268D01*
X55935534Y-14841517D01*
X55903115Y-14855951D01*
X55852449Y-14866720D01*
X55800533Y-14882469D01*
X55759210Y-14886538D01*
X55719076Y-14895070D01*
X55672597Y-14895070D01*
X55625000Y-14899758D01*
X55577403Y-14895070D01*
X55530924Y-14895070D01*
X55490789Y-14886539D01*
X55449466Y-14882469D01*
X55397546Y-14866719D01*
X55346885Y-14855951D01*
X55314467Y-14841517D01*
X55280678Y-14831268D01*
X55226981Y-14802566D01*
X55175000Y-14779423D01*
X55150831Y-14761863D01*
X55125121Y-14748121D01*
X55072667Y-14705074D01*
X55022782Y-14668830D01*
X55006587Y-14650843D01*
X54988774Y-14636225D01*
X54940908Y-14577899D01*
X54896885Y-14529007D01*
X54887634Y-14512985D01*
X54876878Y-14499878D01*
X54837085Y-14425431D01*
X54802809Y-14366063D01*
X54798866Y-14353928D01*
X54793731Y-14344321D01*
X54765421Y-14250996D01*
X54744667Y-14187121D01*
X54743936Y-14180169D01*
X54742530Y-14175533D01*
X54728832Y-14036466D01*
X54725000Y-14000000D01*
X54728832Y-13963536D01*
X54742530Y-13824466D01*
X54743936Y-13819829D01*
X54744667Y-13812879D01*
X54765416Y-13749017D01*
X54793731Y-13655678D01*
X54798866Y-13646069D01*
X54802809Y-13633937D01*
X54837078Y-13574581D01*
X54876878Y-13500121D01*
X54887636Y-13487011D01*
X54896885Y-13470993D01*
X54940898Y-13422110D01*
X54988774Y-13363774D01*
X55006590Y-13349152D01*
X55022782Y-13331170D01*
X55072657Y-13294933D01*
X55125121Y-13251878D01*
X55150836Y-13238132D01*
X55175000Y-13220577D01*
X55226970Y-13197438D01*
X55280678Y-13168731D01*
X55314474Y-13158478D01*
X55346885Y-13144049D01*
X55397535Y-13133282D01*
X55449466Y-13117530D01*
X55490798Y-13113459D01*
X55530924Y-13104930D01*
X55577393Y-13104930D01*
X55625000Y-13100241D01*
X55672607Y-13104930D01*
G37*
G36*
X58212607Y-13104930D02*
G01*
X58259076Y-13104930D01*
X58299202Y-13113459D01*
X58340533Y-13117530D01*
X58392460Y-13133282D01*
X58443115Y-13144049D01*
X58475527Y-13158479D01*
X58509321Y-13168731D01*
X58563023Y-13197435D01*
X58615000Y-13220577D01*
X58639165Y-13238134D01*
X58664878Y-13251878D01*
X58717333Y-13294927D01*
X58767218Y-13331170D01*
X58783412Y-13349155D01*
X58801225Y-13363774D01*
X58849089Y-13422097D01*
X58893115Y-13470993D01*
X58902365Y-13487015D01*
X58913121Y-13500121D01*
X58952908Y-13574557D01*
X58987191Y-13633937D01*
X58991134Y-13646074D01*
X58996268Y-13655678D01*
X59024568Y-13748971D01*
X59045333Y-13812879D01*
X59046064Y-13819834D01*
X59047469Y-13824466D01*
X59061151Y-13963385D01*
X59065000Y-14000000D01*
X59061151Y-14036617D01*
X59047469Y-14175533D01*
X59046064Y-14180164D01*
X59045333Y-14187121D01*
X59024563Y-14251042D01*
X58996268Y-14344321D01*
X58991135Y-14353923D01*
X58987191Y-14366063D01*
X58952901Y-14425454D01*
X58913121Y-14499878D01*
X58902367Y-14512981D01*
X58893115Y-14529007D01*
X58849080Y-14577912D01*
X58801225Y-14636225D01*
X58783415Y-14650840D01*
X58767218Y-14668830D01*
X58717323Y-14705080D01*
X58664878Y-14748121D01*
X58639171Y-14761861D01*
X58615000Y-14779423D01*
X58563012Y-14802569D01*
X58509321Y-14831268D01*
X58475534Y-14841517D01*
X58443115Y-14855951D01*
X58392449Y-14866720D01*
X58340533Y-14882469D01*
X58299210Y-14886538D01*
X58259076Y-14895070D01*
X58212597Y-14895070D01*
X58165000Y-14899758D01*
X58117403Y-14895070D01*
X58070924Y-14895070D01*
X58030789Y-14886539D01*
X57989466Y-14882469D01*
X57937546Y-14866719D01*
X57886885Y-14855951D01*
X57854467Y-14841517D01*
X57820678Y-14831268D01*
X57766981Y-14802566D01*
X57715000Y-14779423D01*
X57690831Y-14761863D01*
X57665121Y-14748121D01*
X57612667Y-14705074D01*
X57562782Y-14668830D01*
X57546587Y-14650843D01*
X57528774Y-14636225D01*
X57480908Y-14577899D01*
X57436885Y-14529007D01*
X57427634Y-14512985D01*
X57416878Y-14499878D01*
X57377085Y-14425431D01*
X57342809Y-14366063D01*
X57338866Y-14353928D01*
X57333731Y-14344321D01*
X57305421Y-14250996D01*
X57284667Y-14187121D01*
X57283936Y-14180169D01*
X57282530Y-14175533D01*
X57268832Y-14036466D01*
X57265000Y-14000000D01*
X57268832Y-13963536D01*
X57282530Y-13824466D01*
X57283936Y-13819829D01*
X57284667Y-13812879D01*
X57305416Y-13749017D01*
X57333731Y-13655678D01*
X57338866Y-13646069D01*
X57342809Y-13633937D01*
X57377078Y-13574581D01*
X57416878Y-13500121D01*
X57427636Y-13487011D01*
X57436885Y-13470993D01*
X57480898Y-13422110D01*
X57528774Y-13363774D01*
X57546590Y-13349152D01*
X57562782Y-13331170D01*
X57612657Y-13294933D01*
X57665121Y-13251878D01*
X57690836Y-13238132D01*
X57715000Y-13220577D01*
X57766970Y-13197438D01*
X57820678Y-13168731D01*
X57854474Y-13158478D01*
X57886885Y-13144049D01*
X57937535Y-13133282D01*
X57989466Y-13117530D01*
X58030798Y-13113459D01*
X58070924Y-13104930D01*
X58117393Y-13104930D01*
X58165000Y-13100241D01*
X58212607Y-13104930D01*
G37*
G36*
X45164134Y-13683806D02*
G01*
X45180355Y-13694645D01*
X45191194Y-13710866D01*
X45195000Y-13730000D01*
X45195000Y-14330000D01*
X45191194Y-14349134D01*
X45180355Y-14365355D01*
X45164134Y-14376194D01*
X45145000Y-14380000D01*
X44695000Y-14380000D01*
X44675866Y-14376194D01*
X44659645Y-14365355D01*
X44648806Y-14349134D01*
X44645000Y-14330000D01*
X44645000Y-13730000D01*
X44648806Y-13710866D01*
X44659645Y-13694645D01*
X44675866Y-13683806D01*
X44695000Y-13680000D01*
X45145000Y-13680000D01*
X45164134Y-13683806D01*
G37*
G36*
X46114134Y-13683806D02*
G01*
X46130355Y-13694645D01*
X46141194Y-13710866D01*
X46145000Y-13730000D01*
X46145000Y-14330000D01*
X46141194Y-14349134D01*
X46130355Y-14365355D01*
X46114134Y-14376194D01*
X46095000Y-14380000D01*
X45645000Y-14380000D01*
X45625866Y-14376194D01*
X45609645Y-14365355D01*
X45598806Y-14349134D01*
X45595000Y-14330000D01*
X45595000Y-13730000D01*
X45598806Y-13710866D01*
X45609645Y-13694645D01*
X45625866Y-13683806D01*
X45645000Y-13680000D01*
X46095000Y-13680000D01*
X46114134Y-13683806D01*
G37*
G36*
X47064134Y-13683806D02*
G01*
X47080355Y-13694645D01*
X47091194Y-13710866D01*
X47095000Y-13730000D01*
X47095000Y-14330000D01*
X47091194Y-14349134D01*
X47080355Y-14365355D01*
X47064134Y-14376194D01*
X47045000Y-14380000D01*
X46595000Y-14380000D01*
X46575866Y-14376194D01*
X46559645Y-14365355D01*
X46548806Y-14349134D01*
X46545000Y-14330000D01*
X46545000Y-13730000D01*
X46548806Y-13710866D01*
X46559645Y-13694645D01*
X46575866Y-13683806D01*
X46595000Y-13680000D01*
X47045000Y-13680000D01*
X47064134Y-13683806D01*
G37*
G36*
X43752710Y-13684463D02*
G01*
X43814350Y-13725650D01*
X43855537Y-13787290D01*
X43870000Y-13860000D01*
X43870000Y-14140000D01*
X43855537Y-14212710D01*
X43814350Y-14274350D01*
X43752710Y-14315537D01*
X43680000Y-14330000D01*
X43340000Y-14330000D01*
X43267290Y-14315537D01*
X43205650Y-14274350D01*
X43164463Y-14212710D01*
X43150000Y-14140000D01*
X43150000Y-13860000D01*
X43164463Y-13787290D01*
X43205650Y-13725650D01*
X43267290Y-13684463D01*
X43340000Y-13670000D01*
X43680000Y-13670000D01*
X43752710Y-13684463D01*
G37*
G36*
X48472710Y-13684463D02*
G01*
X48534350Y-13725650D01*
X48575537Y-13787290D01*
X48590000Y-13860000D01*
X48590000Y-14140000D01*
X48575537Y-14212710D01*
X48534350Y-14274350D01*
X48472710Y-14315537D01*
X48400000Y-14330000D01*
X48060000Y-14330000D01*
X47987290Y-14315537D01*
X47925650Y-14274350D01*
X47884463Y-14212710D01*
X47870000Y-14140000D01*
X47870000Y-13860000D01*
X47884463Y-13787290D01*
X47925650Y-13725650D01*
X47987290Y-13684463D01*
X48060000Y-13670000D01*
X48400000Y-13670000D01*
X48472710Y-13684463D01*
G37*
G36*
X53340796Y-9524082D02*
G01*
X53400815Y-9564185D01*
X53440918Y-9624204D01*
X53455000Y-9695000D01*
X53455000Y-9965000D01*
X53440918Y-10035796D01*
X53400815Y-10095815D01*
X53340796Y-10135918D01*
X53270000Y-10150000D01*
X52900000Y-10150000D01*
X52829204Y-10135918D01*
X52769185Y-10095815D01*
X52729082Y-10035796D01*
X52715000Y-9965000D01*
X52715000Y-9695000D01*
X52729082Y-9624204D01*
X52769185Y-9564185D01*
X52829204Y-9524082D01*
X52900000Y-9510000D01*
X53270000Y-9510000D01*
X53340796Y-9524082D01*
G37*
G36*
X58420796Y-9524082D02*
G01*
X58480815Y-9564185D01*
X58520918Y-9624204D01*
X58535000Y-9695000D01*
X58535000Y-9965000D01*
X58520918Y-10035796D01*
X58480815Y-10095815D01*
X58420796Y-10135918D01*
X58350000Y-10150000D01*
X57980000Y-10150000D01*
X57909204Y-10135918D01*
X57849185Y-10095815D01*
X57809082Y-10035796D01*
X57795000Y-9965000D01*
X57795000Y-9695000D01*
X57809082Y-9624204D01*
X57849185Y-9564185D01*
X57909204Y-9524082D01*
X57980000Y-9510000D01*
X58350000Y-9510000D01*
X58420796Y-9524082D01*
G37*
G36*
X53340796Y-8504082D02*
G01*
X53400815Y-8544185D01*
X53440918Y-8604204D01*
X53455000Y-8675000D01*
X53455000Y-8945000D01*
X53440918Y-9015796D01*
X53400815Y-9075815D01*
X53340796Y-9115918D01*
X53270000Y-9130000D01*
X52900000Y-9130000D01*
X52829204Y-9115918D01*
X52769185Y-9075815D01*
X52729082Y-9015796D01*
X52715000Y-8945000D01*
X52715000Y-8675000D01*
X52729082Y-8604204D01*
X52769185Y-8544185D01*
X52829204Y-8504082D01*
X52900000Y-8490000D01*
X53270000Y-8490000D01*
X53340796Y-8504082D01*
G37*
G36*
X58420796Y-8504082D02*
G01*
X58480815Y-8544185D01*
X58520918Y-8604204D01*
X58535000Y-8675000D01*
X58535000Y-8945000D01*
X58520918Y-9015796D01*
X58480815Y-9075815D01*
X58420796Y-9115918D01*
X58350000Y-9130000D01*
X57980000Y-9130000D01*
X57909204Y-9115918D01*
X57849185Y-9075815D01*
X57809082Y-9015796D01*
X57795000Y-8945000D01*
X57795000Y-8675000D01*
X57809082Y-8604204D01*
X57849185Y-8544185D01*
X57909204Y-8504082D01*
X57980000Y-8490000D01*
X58350000Y-8490000D01*
X58420796Y-8504082D01*
G37*
G36*
X53608504Y-6877803D02*
G01*
X53613285Y-6879914D01*
X53616064Y-6880280D01*
X53650822Y-6896488D01*
X53707259Y-6921407D01*
X53783593Y-6997741D01*
X53808521Y-7054198D01*
X53824719Y-7088935D01*
X53825084Y-7091711D01*
X53827197Y-7096496D01*
X53835000Y-7163750D01*
X53835000Y-7651250D01*
X53827197Y-7718504D01*
X53825084Y-7723288D01*
X53824719Y-7726064D01*
X53808529Y-7760782D01*
X53783593Y-7817259D01*
X53707259Y-7893593D01*
X53650782Y-7918529D01*
X53616064Y-7934719D01*
X53613288Y-7935084D01*
X53608504Y-7937197D01*
X53541250Y-7945000D01*
X52628750Y-7945000D01*
X52561496Y-7937197D01*
X52556711Y-7935084D01*
X52553935Y-7934719D01*
X52519198Y-7918521D01*
X52462741Y-7893593D01*
X52386407Y-7817259D01*
X52361488Y-7760822D01*
X52345280Y-7726064D01*
X52344914Y-7723285D01*
X52342803Y-7718504D01*
X52335000Y-7651250D01*
X52335000Y-7163750D01*
X52342803Y-7096496D01*
X52344914Y-7091714D01*
X52345280Y-7088935D01*
X52361496Y-7054158D01*
X52386407Y-6997741D01*
X52462741Y-6921407D01*
X52519158Y-6896496D01*
X52553935Y-6880280D01*
X52556714Y-6879914D01*
X52561496Y-6877803D01*
X52628750Y-6870000D01*
X53541250Y-6870000D01*
X53608504Y-6877803D01*
G37*
G36*
X58688504Y-6877803D02*
G01*
X58693285Y-6879914D01*
X58696064Y-6880280D01*
X58730822Y-6896488D01*
X58787259Y-6921407D01*
X58863593Y-6997741D01*
X58888521Y-7054198D01*
X58904719Y-7088935D01*
X58905084Y-7091711D01*
X58907197Y-7096496D01*
X58915000Y-7163750D01*
X58915000Y-7651250D01*
X58907197Y-7718504D01*
X58905084Y-7723288D01*
X58904719Y-7726064D01*
X58888529Y-7760782D01*
X58863593Y-7817259D01*
X58787259Y-7893593D01*
X58730782Y-7918529D01*
X58696064Y-7934719D01*
X58693288Y-7935084D01*
X58688504Y-7937197D01*
X58621250Y-7945000D01*
X57708750Y-7945000D01*
X57641496Y-7937197D01*
X57636711Y-7935084D01*
X57633935Y-7934719D01*
X57599198Y-7918521D01*
X57542741Y-7893593D01*
X57466407Y-7817259D01*
X57441488Y-7760822D01*
X57425280Y-7726064D01*
X57424914Y-7723285D01*
X57422803Y-7718504D01*
X57415000Y-7651250D01*
X57415000Y-7163750D01*
X57422803Y-7096496D01*
X57424914Y-7091714D01*
X57425280Y-7088935D01*
X57441496Y-7054158D01*
X57466407Y-6997741D01*
X57542741Y-6921407D01*
X57599158Y-6896496D01*
X57633935Y-6880280D01*
X57636714Y-6879914D01*
X57641496Y-6877803D01*
X57708750Y-6870000D01*
X58621250Y-6870000D01*
X58688504Y-6877803D01*
G37*
G36*
X53608504Y-5002803D02*
G01*
X53613285Y-5004914D01*
X53616064Y-5005280D01*
X53650822Y-5021488D01*
X53707259Y-5046407D01*
X53783593Y-5122741D01*
X53808521Y-5179198D01*
X53824719Y-5213935D01*
X53825084Y-5216711D01*
X53827197Y-5221496D01*
X53835000Y-5288750D01*
X53835000Y-5776250D01*
X53827197Y-5843504D01*
X53825084Y-5848288D01*
X53824719Y-5851064D01*
X53808529Y-5885782D01*
X53783593Y-5942259D01*
X53707259Y-6018593D01*
X53650782Y-6043529D01*
X53616064Y-6059719D01*
X53613288Y-6060084D01*
X53608504Y-6062197D01*
X53541250Y-6070000D01*
X52628750Y-6070000D01*
X52561496Y-6062197D01*
X52556711Y-6060084D01*
X52553935Y-6059719D01*
X52519198Y-6043521D01*
X52462741Y-6018593D01*
X52386407Y-5942259D01*
X52361488Y-5885822D01*
X52345280Y-5851064D01*
X52344914Y-5848285D01*
X52342803Y-5843504D01*
X52335000Y-5776250D01*
X52335000Y-5288750D01*
X52342803Y-5221496D01*
X52344914Y-5216714D01*
X52345280Y-5213935D01*
X52361496Y-5179158D01*
X52386407Y-5122741D01*
X52462741Y-5046407D01*
X52519158Y-5021496D01*
X52553935Y-5005280D01*
X52556714Y-5004914D01*
X52561496Y-5002803D01*
X52628750Y-4995000D01*
X53541250Y-4995000D01*
X53608504Y-5002803D01*
G37*
G36*
X58688504Y-5002803D02*
G01*
X58693285Y-5004914D01*
X58696064Y-5005280D01*
X58730822Y-5021488D01*
X58787259Y-5046407D01*
X58863593Y-5122741D01*
X58888521Y-5179198D01*
X58904719Y-5213935D01*
X58905084Y-5216711D01*
X58907197Y-5221496D01*
X58915000Y-5288750D01*
X58915000Y-5776250D01*
X58907197Y-5843504D01*
X58905084Y-5848288D01*
X58904719Y-5851064D01*
X58888529Y-5885782D01*
X58863593Y-5942259D01*
X58787259Y-6018593D01*
X58730782Y-6043529D01*
X58696064Y-6059719D01*
X58693288Y-6060084D01*
X58688504Y-6062197D01*
X58621250Y-6070000D01*
X57708750Y-6070000D01*
X57641496Y-6062197D01*
X57636711Y-6060084D01*
X57633935Y-6059719D01*
X57599198Y-6043521D01*
X57542741Y-6018593D01*
X57466407Y-5942259D01*
X57441488Y-5885822D01*
X57425280Y-5851064D01*
X57424914Y-5848285D01*
X57422803Y-5843504D01*
X57415000Y-5776250D01*
X57415000Y-5288750D01*
X57422803Y-5221496D01*
X57424914Y-5216714D01*
X57425280Y-5213935D01*
X57441496Y-5179158D01*
X57466407Y-5122741D01*
X57542741Y-5046407D01*
X57599158Y-5021496D01*
X57633935Y-5005280D01*
X57636714Y-5004914D01*
X57641496Y-5002803D01*
X57708750Y-4995000D01*
X58621250Y-4995000D01*
X58688504Y-5002803D01*
G37*
M02*
