M48
; DRILL file {KiCad 8.0.7} date 2025-01-04T02:58:25+0700
; FORMAT={-:-/ absolute / inch / decimal}
; #@! TF.CreationDate,2025-01-04T02:58:25+07:00
; #@! TF.GenerationSoftware,Kicad,Pcbnew,8.0.7
; #@! TF.FileFunction,Plated,1,4,PTH
FMAT,2
INCH
; #@! TA.AperFunction,Plated,PTH,ViaDrill
T1C0.0079
; #@! TA.AperFunction,Plated,PTH,ViaDrill
T2C0.0118
; #@! TA.AperFunction,Plated,PTH,ViaDrill
T3C0.0197
; #@! TA.AperFunction,Plated,PTH,ComponentDrill
T4C0.0394
%
G90
G05
T1
X1.8783Y-1.1384
X1.8783Y-1.3102
X1.8787Y-1.0433
T2
X1.6748Y-0.6224
X1.713Y-0.6224
X1.7362Y-1.2339
X1.7665Y-0.6055
X1.7886Y-1.439
X1.7925Y-0.8591
X1.8059Y-0.6055
X1.8059Y-0.6913
X1.8295Y-0.9358
X1.8429Y-1.0433
X1.8433Y-1.1384
X1.8453Y-0.6055
X1.8554Y-1.272
X1.8591Y-1.439
X1.9013Y-1.272
X1.9142Y-1.1384
X1.9146Y-1.0433
X1.9189Y-0.8213
X1.9213Y-1.439
X1.9681Y-0.8827
X1.9681Y-0.9283
X1.9744Y-1.3102
X1.9744Y-1.3732
X2.0157Y-1.2728
X2.0445Y-1.1555
X2.061Y-1.2728
X2.1433Y-0.6016
X2.1441Y-0.498
X2.1465Y-0.8965
X2.1524Y-1.3295
X2.2406Y-0.6016
X2.2409Y-0.498
T3
X1.7795Y-1.2339
X1.8228Y-1.4134
X1.8394Y-0.8591
X1.8732Y-0.9358
X2.0189Y-1.2028
X2.1047Y-0.8965
X2.1047Y-1.3295
T4
X1.6339Y-0.7874
X1.6339Y-0.8874
X1.6339Y-0.9874
X1.6339Y-1.0874
X1.6339Y-1.1874
X1.6339Y-1.2874
X1.6339Y-1.3874
X2.09Y-0.5512
X2.19Y-0.5512
X2.29Y-0.5512
X2.3031Y-0.7874
X2.3031Y-0.8874
X2.3031Y-0.9874
X2.3031Y-1.0874
X2.3031Y-1.1874
X2.3031Y-1.2874
X2.3031Y-1.3874
M30
